<svg width="1280" height="352" viewBox="0 0 1280 352" fill="none" xmlns="http://www.w3.org/2000/svg">
<g clip-path="url(#clip0)">
<path d="M1277.27 14.3839C1279.33 14.2688 1275.68 9.68575 1279.92 11.5169V195.643C1274.22 197.622 1272.62 197.794 1272.24 197.722C1272.19 197.974 1271.66 198.765 1269.07 200.939C1265.06 203.23 1264.95 201.169 1260.94 203.461C1256.93 205.752 1252.69 203.921 1246.62 206.328C1244.56 206.443 1232.42 211.256 1230.24 209.31C1228.07 207.364 1223.94 207.594 1221.88 207.709L1217.76 207.939L1207.45 208.515C1203.32 208.745 1201.38 210.921 1197.25 211.152L1186.95 211.727C1178.58 210.126 1174.23 206.234 1172.4 210.472C1172.51 212.533 1168.39 212.763 1164.27 212.993C1160.14 213.224 1154.3 219.753 1137.81 220.674C1135.75 220.789 1131.51 218.958 1131.62 221.019C1129.68 223.195 1125.67 225.487 1123.61 225.602C1121.66 227.779 1115.36 226.063 1111.24 226.293C1109.17 226.408 1104.94 224.577 1104.94 224.577C1086.27 223.551 1098.75 224.922 1086.15 221.49C1084.09 221.605 1079.85 219.774 1077.9 221.95C1074.01 226.303 1069.66 222.411 1065.65 224.702C1063.47 222.756 1061.41 222.871 1059.35 222.986C1059.35 222.986 1036.78 226.314 1032.43 222.422C1030.25 220.475 1026.24 222.767 1024.18 222.882C988.903 220.716 1007.8 225.864 966.454 226.105L956.145 226.68C956.145 226.68 954.083 226.796 951.906 224.849L947.783 225.08C945.836 227.256 945.721 225.195 937.474 225.655C933.466 227.947 927.05 224.169 920.865 224.515C918.688 222.568 914.45 220.737 912.388 220.852C910.326 220.968 912.273 218.791 903.911 217.19C895.549 215.589 893.717 219.827 889.479 217.996C870.117 204.603 866.454 213.078 860.039 209.301C857.977 209.416 851.677 207.7 851.792 209.761C849.96 213.999 847.784 212.053 843.775 214.344C829.688 221.334 823.158 215.495 813.309 224.316C811.363 226.493 809.186 224.546 803.001 224.892C770.013 226.733 786.737 229.935 768.181 230.971C759.934 231.432 761.996 231.317 760.049 233.493C755.926 233.723 749.971 238.191 747.909 238.306C745.847 238.421 743.786 238.536 741.839 240.713C734.052 249.419 731.53 241.288 713.55 252.631C703.011 249.084 701.064 251.26 694.879 251.606C686.632 252.066 690.871 253.897 682.624 254.358C678.5 254.588 680.677 256.534 676.554 256.764C668.307 257.225 674.722 261.002 666.475 261.462C666.59 263.524 656.051 259.977 656.051 259.977L647.804 260.437C639.442 258.836 631.425 263.419 623.063 261.818L610.693 262.509C608.631 262.624 598.207 261.138 596.146 261.253C589.96 261.599 534.523 268.829 511.729 268.034C503.367 266.433 513.676 265.858 490.997 267.124C486.873 267.354 484.927 269.531 480.688 267.699L474.503 268.045L470.379 268.275C464.309 270.682 462.017 266.674 451.824 269.311C447.7 269.541 449.647 267.365 445.523 267.595L426.968 268.631L420.782 268.976C416.659 269.206 410.359 267.49 404.173 267.836C393.865 268.411 398.333 274.365 371.3 271.739C363.054 272.199 338.773 281.826 330.296 278.164C326.172 278.394 321.934 276.563 317.925 278.854C313.917 281.146 305.325 275.422 295.131 278.059C293.069 278.174 290.893 276.228 284.822 278.635L268.328 279.555C266.267 279.671 264.205 279.786 262.028 277.839L259.966 277.955C251.719 278.415 251.489 274.292 247.366 274.523C234.995 275.213 239.234 277.044 222.855 280.026C220.793 280.142 204.529 285.185 202.468 285.3C196.513 289.768 175.895 290.919 173.949 293.096C169.71 291.265 167.878 295.502 163.755 295.732C163.755 295.732 161.578 293.786 159.631 295.963C153.676 300.431 141.306 301.121 139.129 299.175C134.891 297.344 98.1245 305.6 91.9392 305.945C85.6389 304.229 87.7007 304.114 83.5772 304.344C57.0047 309.963 4.04591 314.413 -0.0775793 314.643L-0.078125 233.643L-0.0775788 171.185C4.04591 170.955 7.59891 165.912 13.6691 163.505C17.5624 159.152 21.8009 160.983 23.7476 158.807C25.6943 156.63 25.6943 156.63 29.8177 156.4C33.9412 156.17 36.1181 158.116 40.2415 157.886L42.3033 157.771C46.3117 155.479 48.4885 157.425 50.5503 157.31L56.7355 156.965C71.2828 158.221 62.8056 154.558 95.6784 150.655C97.7402 150.54 101.749 148.249 108.049 149.965C110.226 151.911 116.296 149.504 118.242 147.328C120.304 147.213 120.074 143.09 126.259 142.745C128.321 142.63 138.515 139.993 142.753 141.824C144.93 143.77 146.877 141.594 151 141.364C153.177 143.31 157.185 141.018 161.309 140.788C163.486 142.734 169.556 140.328 169.556 140.328C173.679 140.097 175.626 137.921 181.696 135.514C185.935 137.345 187.881 135.169 187.766 133.108C205.862 123.826 193.952 132.762 206.092 127.949C208.154 127.834 212.392 129.665 216.401 127.373C218.462 127.258 230.718 124.506 230.718 124.506C232.779 124.391 237.018 126.222 241.026 123.931L247.212 123.586L249.273 123.47C259.697 124.956 279.854 115.56 284.093 117.391L286.155 117.276C288.216 117.161 292.225 114.869 294.286 114.754C296.233 112.578 298.18 110.401 312.727 111.657L325.098 110.966C351.9 109.47 331.283 110.621 347.892 111.761C358.201 111.186 358.316 113.247 364.386 110.841C397.949 119.305 393.595 115.413 414.328 116.323C414.443 118.385 416.39 116.208 418.566 118.154L428.875 117.579C430.937 117.464 434.83 113.111 436.892 112.996L449.262 112.305C453.386 112.075 453.501 114.136 457.625 113.906C469.995 113.215 459.801 115.852 478.357 114.816C478.357 114.816 478.472 116.878 486.719 116.417L499.09 115.726C509.283 113.09 521.769 114.46 523.83 114.345L536.201 113.655C540.324 113.424 546.395 111.018 554.642 110.557C577.091 105.168 564.95 109.982 591.638 106.424C595.761 106.194 597.708 104.017 597.708 104.017C599.77 103.902 603.893 103.672 605.84 101.496C607.786 99.3192 611.91 99.089 616.033 98.8588C628.289 96.1068 628.174 94.0455 630.351 95.9917L636.536 95.6464C636.536 95.6464 642.836 97.3624 651.198 98.9633C653.26 98.8482 661.392 96.3264 663.454 96.2113L665.515 96.0962C669.754 97.9273 671.585 93.6896 673.877 97.6971C678.231 101.59 678.001 97.4669 682.124 97.2367C700.91 100.323 692.433 96.6612 698.618 96.3158C704.804 95.9705 708.467 87.495 710.644 89.4412C714.882 91.2723 717.059 93.2186 719.006 91.0421C721.067 90.927 721.182 92.9883 725.191 90.6968C735.269 85.9986 733.438 90.2364 739.393 85.7684C747.41 81.1853 743.286 81.4155 749.586 83.1315L751.763 85.0778L753.825 84.9627L760.01 84.6173C762.072 84.5022 761.957 82.4409 764.019 82.3258L768.142 82.0956C770.204 81.9805 769.859 75.7965 776.159 77.5125L778.221 77.3974C780.167 75.221 786.813 83.121 788.529 76.8219C794.83 78.5379 794.83 78.5379 796.776 76.3614C796.776 76.3614 802.847 73.9548 805.023 75.901L809.147 75.6708C813.385 77.5019 815.332 75.3255 819.456 75.0953C821.747 79.1028 827.933 78.7575 829.879 76.5811C836.18 78.2971 836.295 80.3584 838.241 78.1819C840.303 78.0668 844.542 79.898 846.604 79.7828C853.019 83.5602 852.789 79.4375 857.027 81.2686L861.151 81.0384L863.212 80.9233C867.221 78.6318 866.876 72.4478 885.431 71.4119C897.802 70.7212 889.44 69.1203 897.687 68.6599C899.979 72.6674 910.287 72.0919 916.242 67.6239C918.304 67.5088 918.419 69.5701 920.481 69.455C922.543 69.3399 924.72 71.2861 926.781 71.171C933.082 72.887 932.851 68.7644 937.09 70.5955C939.152 70.4804 941.098 68.304 943.275 70.2502C945.567 74.2577 949.46 69.9049 953.814 73.7973C960.229 77.5746 978.67 74.4773 986.917 74.0169C991.041 73.7867 988.864 71.8405 994.934 69.4338C998.942 67.1423 998.942 67.1423 1003.07 66.9121C1009.37 68.6281 1007.07 64.6205 1011.31 66.4516C1015.55 68.2828 1019.67 68.0525 1023.8 67.8223C1025.86 67.7072 1027.92 67.5921 1027.81 65.5308C1036.17 67.1317 1048.42 64.3797 1050.49 64.2646C1052.43 62.0882 1056.67 63.9193 1060.79 63.6891C1064.92 63.4589 1065.15 67.5815 1075.34 64.9446C1077.4 64.8295 1075.23 62.8833 1077.17 60.7069C1079.24 60.5918 1077.06 58.6456 1083.36 60.3616L1093.67 59.786C1097.79 59.5558 1103.75 55.0879 1103.52 50.9652C1107.64 50.735 1116.23 56.4586 1134.1 43.0547C1136.16 42.9395 1142.69 48.7782 1146.58 44.4253C1150.59 42.1338 1152.77 44.08 1154.6 39.8423C1156.43 35.6045 1158.38 33.4281 1162.73 37.3205C1167.08 41.2129 1168.92 36.9752 1173.27 40.8676C1177.62 44.7601 1179.57 42.5836 1189.88 42.0081L1196.06 41.6628C1202.36 43.3788 1215.08 48.8721 1214.39 36.5042L1222.64 36.0437C1228.48 29.5145 1262.62 48.286 1265.59 27.4425C1275.67 22.7443 1271.08 14.7293 1277.27 14.3839Z" fill="#FFEB26"/>
<path d="M1277.27 14.3839C1279.33 14.2688 1275.68 9.68575 1279.92 11.5169V195.643C1274.22 197.622 1272.62 197.794 1272.24 197.722C1272.19 197.974 1271.66 198.765 1269.07 200.939C1265.06 203.23 1264.95 201.169 1260.94 203.461C1256.93 205.752 1252.69 203.921 1246.62 206.328C1244.56 206.443 1232.42 211.256 1230.24 209.31C1228.07 207.364 1223.94 207.594 1221.88 207.709L1217.76 207.939L1207.45 208.515C1203.32 208.745 1201.38 210.921 1197.25 211.152L1186.95 211.727C1178.58 210.126 1174.23 206.234 1172.4 210.472C1172.51 212.533 1168.39 212.763 1164.27 212.993C1160.14 213.224 1154.3 219.753 1137.81 220.674C1135.75 220.789 1131.51 218.958 1131.62 221.019C1129.68 223.195 1125.67 225.487 1123.61 225.602C1121.66 227.779 1115.36 226.063 1111.24 226.293C1109.17 226.408 1104.94 224.577 1104.94 224.577C1086.27 223.551 1098.75 224.922 1086.15 221.49C1084.09 221.605 1079.85 219.774 1077.9 221.95C1074.01 226.303 1069.66 222.411 1065.65 224.702C1063.47 222.756 1061.41 222.871 1059.35 222.986C1059.35 222.986 1036.78 226.314 1032.43 222.422C1030.25 220.475 1026.24 222.767 1024.18 222.882C988.903 220.716 1007.8 225.864 966.454 226.105L956.145 226.68C956.145 226.68 954.083 226.796 951.906 224.849L947.783 225.08C945.836 227.256 945.721 225.195 937.474 225.655C933.466 227.947 927.05 224.169 920.865 224.515C918.688 222.568 914.45 220.737 912.388 220.852C910.326 220.968 912.273 218.791 903.911 217.19C895.549 215.589 893.717 219.827 889.479 217.996C870.117 204.603 866.454 213.078 860.039 209.301C857.977 209.416 851.677 207.7 851.792 209.761C849.96 213.999 847.784 212.053 843.775 214.344C829.688 221.334 823.158 215.495 813.309 224.316C811.363 226.493 809.186 224.546 803.001 224.892C770.013 226.733 786.737 229.935 768.181 230.971C759.934 231.432 761.996 231.317 760.049 233.493C755.926 233.723 749.971 238.191 747.909 238.306C745.847 238.421 743.786 238.536 741.839 240.713C734.052 249.419 731.53 241.288 713.55 252.631C703.011 249.084 701.064 251.26 694.879 251.606C686.632 252.066 690.871 253.897 682.624 254.358C678.5 254.588 680.677 256.534 676.554 256.764C668.307 257.225 674.722 261.002 666.475 261.462C666.59 263.524 656.051 259.977 656.051 259.977L647.804 260.437C639.442 258.836 631.425 263.419 623.063 261.818L610.693 262.509C608.631 262.624 598.207 261.138 596.146 261.253C589.96 261.599 534.523 268.829 511.729 268.034C503.367 266.433 513.676 265.858 490.997 267.124C486.873 267.354 484.927 269.531 480.688 267.699L474.503 268.045L470.379 268.275C464.309 270.682 462.017 266.674 451.824 269.311C447.7 269.541 449.647 267.365 445.523 267.595L426.968 268.631L420.782 268.976C416.659 269.206 410.359 267.49 404.173 267.836C393.865 268.411 398.333 274.365 371.3 271.739C363.054 272.199 338.773 281.826 330.296 278.164C326.172 278.394 321.934 276.563 317.925 278.854C313.917 281.146 305.325 275.422 295.131 278.059C293.069 278.174 290.893 276.228 284.822 278.635L268.328 279.555C266.267 279.671 264.205 279.786 262.028 277.839L259.966 277.955C251.719 278.415 251.489 274.292 247.366 274.523C234.995 275.213 239.234 277.044 222.855 280.026C220.793 280.142 204.529 285.185 202.468 285.3C196.513 289.768 175.895 290.919 173.949 293.096C169.71 291.265 167.878 295.502 163.755 295.732C163.755 295.732 161.578 293.786 159.631 295.963C153.676 300.431 141.306 301.121 139.129 299.175C134.891 297.344 98.1245 305.6 91.9392 305.945C85.6389 304.229 87.7007 304.114 83.5772 304.344C57.0047 309.963 4.04591 314.413 -0.0775793 314.643L-0.078125 233.643L-0.0775788 171.185C4.04591 170.955 7.59891 165.912 13.6691 163.505C17.5624 159.152 21.8009 160.983 23.7476 158.807C25.6943 156.63 25.6943 156.63 29.8177 156.4C33.9412 156.17 36.1181 158.116 40.2415 157.886L42.3033 157.771C46.3117 155.479 48.4885 157.425 50.5503 157.31L56.7355 156.965C71.2828 158.221 62.8056 154.558 95.6784 150.655C97.7402 150.54 101.749 148.249 108.049 149.965C110.226 151.911 116.296 149.504 118.242 147.328C120.304 147.213 120.074 143.09 126.259 142.745C128.321 142.63 138.515 139.993 142.753 141.824C144.93 143.77 146.877 141.594 151 141.364C153.177 143.31 157.185 141.018 161.309 140.788C163.486 142.734 169.556 140.328 169.556 140.328C173.679 140.097 175.626 137.921 181.696 135.514C185.935 137.345 187.881 135.169 187.766 133.108C205.862 123.826 193.952 132.762 206.092 127.949C208.154 127.834 212.392 129.665 216.401 127.373C218.462 127.258 230.718 124.506 230.718 124.506C232.779 124.391 237.018 126.222 241.026 123.931L247.212 123.586L249.273 123.47C259.697 124.956 279.854 115.56 284.093 117.391L286.155 117.276C288.216 117.161 292.225 114.869 294.286 114.754C296.233 112.578 298.18 110.401 312.727 111.657L325.098 110.966C351.9 109.47 331.283 110.621 347.892 111.761C358.201 111.186 358.316 113.247 364.386 110.841C397.949 119.305 393.595 115.413 414.328 116.323C414.443 118.385 416.39 116.208 418.566 118.154L428.875 117.579C430.937 117.464 434.83 113.111 436.892 112.996L449.262 112.305C453.386 112.075 453.501 114.136 457.625 113.906C469.995 113.215 459.801 115.852 478.357 114.816C478.357 114.816 478.472 116.878 486.719 116.417L499.09 115.726C509.283 113.09 521.769 114.46 523.83 114.345L536.201 113.655C540.324 113.424 546.395 111.018 554.642 110.557C577.091 105.168 564.95 109.982 591.638 106.424C595.761 106.194 597.708 104.017 597.708 104.017C599.77 103.902 603.893 103.672 605.84 101.496C607.786 99.3192 611.91 99.089 616.033 98.8588C628.289 96.1068 628.174 94.0455 630.351 95.9917L636.536 95.6464C636.536 95.6464 642.836 97.3624 651.198 98.9633C653.26 98.8482 661.392 96.3264 663.454 96.2113L665.515 96.0962C669.754 97.9273 671.585 93.6896 673.877 97.6971C678.231 101.59 678.001 97.4669 682.124 97.2367C700.91 100.323 692.433 96.6612 698.618 96.3158C704.804 95.9705 708.467 87.495 710.644 89.4412C714.882 91.2723 717.059 93.2186 719.006 91.0421C721.067 90.927 721.182 92.9883 725.191 90.6968C735.269 85.9986 733.438 90.2364 739.393 85.7684C747.41 81.1853 743.286 81.4155 749.586 83.1315L751.763 85.0778L753.825 84.9627L760.01 84.6173C762.072 84.5022 761.957 82.4409 764.019 82.3258L768.142 82.0956C770.204 81.9805 769.859 75.7965 776.159 77.5125L778.221 77.3974C780.167 75.221 786.813 83.121 788.529 76.8219C794.83 78.5379 794.83 78.5379 796.776 76.3614C796.776 76.3614 802.847 73.9548 805.023 75.901L809.147 75.6708C813.385 77.5019 815.332 75.3255 819.456 75.0953C821.747 79.1028 827.933 78.7575 829.879 76.5811C836.18 78.2971 836.295 80.3584 838.241 78.1819C840.303 78.0668 844.542 79.898 846.604 79.7828C853.019 83.5602 852.789 79.4375 857.027 81.2686L861.151 81.0384L863.212 80.9233C867.221 78.6318 866.876 72.4478 885.431 71.4119C897.802 70.7212 889.44 69.1203 897.687 68.6599C899.979 72.6674 910.287 72.0919 916.242 67.6239C918.304 67.5088 918.419 69.5701 920.481 69.455C922.543 69.3399 924.72 71.2861 926.781 71.171C933.082 72.887 932.851 68.7644 937.09 70.5955C939.152 70.4804 941.098 68.304 943.275 70.2502C945.567 74.2577 949.46 69.9049 953.814 73.7973C960.229 77.5746 978.67 74.4773 986.917 74.0169C991.041 73.7867 988.864 71.8405 994.934 69.4338C998.942 67.1423 998.942 67.1423 1003.07 66.9121C1009.37 68.6281 1007.07 64.6205 1011.31 66.4516C1015.55 68.2828 1019.67 68.0525 1023.8 67.8223C1025.86 67.7072 1027.92 67.5921 1027.81 65.5308C1036.17 67.1317 1048.42 64.3797 1050.49 64.2646C1052.43 62.0882 1056.67 63.9193 1060.79 63.6891C1064.92 63.4589 1065.15 67.5815 1075.34 64.9446C1077.4 64.8295 1075.23 62.8833 1077.17 60.7069C1079.24 60.5918 1077.06 58.6456 1083.36 60.3616L1093.67 59.786C1097.79 59.5558 1103.75 55.0879 1103.52 50.9652C1107.64 50.735 1116.23 56.4586 1134.1 43.0547C1136.16 42.9395 1142.69 48.7782 1146.58 44.4253C1150.59 42.1338 1152.77 44.08 1154.6 39.8423C1156.43 35.6045 1158.38 33.4281 1162.73 37.3205C1167.08 41.2129 1168.92 36.9752 1173.27 40.8676C1177.62 44.7601 1179.57 42.5836 1189.88 42.0081L1196.06 41.6628C1202.36 43.3788 1215.08 48.8721 1214.39 36.5042L1222.64 36.0437C1228.48 29.5145 1262.62 48.286 1265.59 27.4425C1275.67 22.7443 1271.08 14.7293 1277.27 14.3839Z" fill="#FFEB26"/>
<path fill-rule="evenodd" clip-rule="evenodd" d="M1280 0H9.68575e-08V165.823C-0.0258376 165.825 -0.0516969 165.826 -0.0775788 165.828L-0.078125 228.285L-0.0775793 309.285C4.04591 309.055 57.0047 304.606 83.5772 298.987C86.3261 298.833 86.3262 298.833 87.8874 299.359C88.6681 299.622 89.8391 300.016 91.9392 300.588C94.1419 300.465 100.223 299.339 107.331 298.022C120.185 295.642 136.4 292.639 139.129 293.818C141.306 295.764 153.676 295.073 159.631 290.605C161.578 288.429 163.755 290.375 163.755 290.375C165.476 290.279 166.798 289.485 168.062 288.725C169.827 287.664 171.479 286.671 173.949 287.738C174.772 286.818 178.933 286.081 183.912 285.199C190.709 283.995 199.031 282.522 202.468 279.943C203.499 279.885 208.08 278.596 212.661 277.306C217.243 276.016 221.824 274.727 222.855 274.669C230.542 273.269 233.688 272.123 236.141 271.23C238.914 270.219 240.801 269.532 247.366 269.165C249.074 269.07 250.114 269.721 251.332 270.484C253.055 271.564 255.135 272.867 259.966 272.597L262.028 272.482C264.205 274.428 266.267 274.313 268.328 274.198L284.822 273.277C289.188 271.546 291.54 272.067 293.284 272.453C293.964 272.604 294.552 272.734 295.131 272.702C300.767 271.244 305.913 272.341 310.066 273.227C313.425 273.944 316.133 274.521 317.925 273.497C320.598 271.969 323.372 272.274 326.147 272.578C327.534 272.731 328.921 272.883 330.296 272.806C335.799 275.184 347.964 271.96 358.077 269.28C363.542 267.832 368.408 266.543 371.301 266.381C389.001 268.101 393.196 266.142 396.877 264.423C398.817 263.517 400.615 262.677 404.173 262.478C407.578 262.288 411.018 262.723 414.111 263.113C416.636 263.432 418.929 263.722 420.782 263.619L426.968 263.273L445.523 262.237C447.585 262.122 448.129 262.609 448.673 263.095C449.218 263.582 449.762 264.069 451.824 263.953C457.206 262.561 460.386 263.021 463.082 263.412C465.491 263.76 467.514 264.053 470.379 262.918L474.503 262.687L480.688 262.342C483.425 263.524 485.206 263.036 487.235 262.479C488.348 262.174 489.536 261.848 490.997 261.766C505.219 260.972 506.468 260.903 507.485 261.356C508.089 261.625 508.611 262.08 511.729 262.677C528.989 263.279 564.965 259.279 584.102 257.152C590.239 256.47 594.644 255.98 596.146 255.896C597.176 255.838 600.298 256.181 603.419 256.524C606.541 256.866 609.662 257.209 610.693 257.152L623.063 256.461C627.244 257.261 631.339 256.516 635.434 255.77C639.528 255.025 643.623 254.279 647.804 255.08L656.051 254.619C656.051 254.619 666.59 258.166 666.475 256.105C670.599 255.875 671.056 254.815 671.514 253.756C671.972 252.696 672.43 251.637 676.554 251.407C678.615 251.292 679.102 250.748 679.589 250.204C680.075 249.659 680.562 249.115 682.624 249C686.747 248.77 687.749 248.197 688.751 247.624C689.753 247.051 690.756 246.478 694.879 246.248C696.496 246.158 697.823 245.943 699.09 245.737C702.669 245.156 705.766 244.654 713.55 247.274C722.913 241.367 728.084 240.741 731.99 240.268C735.585 239.833 738.107 239.528 741.839 235.355C743.786 233.179 745.847 233.064 747.909 232.949C748.763 232.901 750.285 232.107 752.068 231.176C754.59 229.859 757.634 228.27 760.049 228.136C760.757 227.344 760.935 226.855 761.272 226.532C761.86 225.967 762.934 225.907 768.181 225.614C776.134 225.17 777.606 224.328 779.289 223.366C781.533 222.083 784.15 220.587 803.001 219.534C805.518 219.394 807.371 219.633 808.815 219.819C810.919 220.09 812.155 220.25 813.309 218.959C818.66 214.166 823.032 213.701 828.168 213.155C832.485 212.696 837.342 212.179 843.775 208.987C845.306 208.112 846.57 207.855 847.65 207.635C849.396 207.28 850.66 207.023 851.792 204.404C851.712 202.967 854.75 203.366 857.296 203.7C858.402 203.845 859.415 203.978 860.039 203.943C862.279 205.262 864.183 205.087 866.538 204.871C870.926 204.468 876.878 203.922 889.479 212.639C891.444 213.488 892.892 213.032 894.714 212.458C896.82 211.795 899.427 210.974 903.911 211.833C909.277 212.86 910.398 214.125 911.057 214.868C911.425 215.283 911.649 215.536 912.388 215.495C914.45 215.38 918.688 217.211 920.865 219.157C923.488 219.011 926.151 219.605 928.655 220.164C932.058 220.924 935.165 221.618 937.474 220.298C941.211 220.089 943.278 220.398 944.603 220.596C946.202 220.835 946.718 220.912 947.783 219.722L951.906 219.492C954.083 221.438 956.145 221.323 956.145 221.323L966.454 220.748C986.518 220.631 992.396 219.358 997.162 218.327C1002.22 217.233 1006.02 216.41 1024.18 217.525C1024.81 217.49 1025.61 217.255 1026.49 216.999C1028.5 216.41 1030.91 215.707 1032.43 217.064C1036.78 220.957 1059.35 217.629 1059.35 217.629C1061.41 217.514 1063.47 217.399 1065.65 219.345C1067.37 218.363 1069.15 218.517 1070.93 218.67C1073.3 218.875 1075.68 219.08 1077.9 216.593C1079.26 215.076 1081.73 215.506 1083.8 215.867C1084.7 216.024 1085.53 216.167 1086.15 216.133C1091.9 217.699 1092.43 218.265 1093.07 218.515C1093.84 218.813 1094.79 218.662 1104.94 219.219C1104.94 219.219 1109.17 221.05 1111.24 220.935C1112.61 220.859 1114.23 220.998 1115.84 221.138C1119.08 221.417 1122.31 221.696 1123.61 220.245C1125.67 220.13 1129.68 217.838 1131.62 215.662C1131.55 214.287 1133.41 214.643 1135.26 214.999C1136.19 215.177 1137.12 215.355 1137.81 215.316C1148.8 214.702 1155.07 211.596 1159.24 209.525C1161.33 208.489 1162.89 207.713 1164.27 207.636C1168.39 207.406 1172.51 207.175 1172.4 205.114C1173.62 202.289 1175.96 203.077 1179.86 204.391C1181.82 205.048 1184.16 205.836 1186.95 206.37L1197.25 205.794C1199.32 205.679 1200.83 205.077 1202.35 204.476C1203.87 203.874 1205.39 203.272 1207.45 203.157L1217.76 202.582L1221.88 202.352C1223.94 202.236 1228.07 202.006 1230.24 203.952C1231.75 205.303 1238.06 203.399 1242.47 202.069C1244.41 201.481 1245.99 201.006 1246.62 200.97C1249.66 199.767 1252.23 199.623 1254.55 199.494C1256.87 199.364 1258.93 199.249 1260.94 198.103C1262.94 196.958 1263.97 196.9 1265 196.842C1266.03 196.785 1267.07 196.727 1269.07 195.581C1271.66 193.407 1272.19 192.617 1272.24 192.364C1272.62 192.436 1274.22 192.264 1279.92 190.285V178H1280V0Z" fill="#FFEB26"/>
</g>
<defs>
<clipPath id="clip0">
<rect width="1280" height="352" fill="white"/>
</clipPath>
</defs>
</svg>
