<svg width="1280" height="352" viewBox="0 0 1280 352" fill="none" xmlns="http://www.w3.org/2000/svg">
<g clip-path="url(#clip0)">
<path d="M1277.27 3.38395C1279.33 3.26884 1275.68 -1.31423 1279.92 0.516878L1279.92 184.643C1274.22 186.622 1272.62 186.794 1272.24 186.722C1272.19 186.974 1271.66 187.765 1269.07 189.939C1265.06 192.23 1264.95 190.169 1260.94 192.461C1256.93 194.752 1252.69 192.921 1246.62 195.328C1244.56 195.443 1232.42 200.256 1230.24 198.31C1228.07 196.364 1223.94 196.594 1221.88 196.709L1217.76 196.939L1207.45 197.515C1203.32 197.745 1201.38 199.921 1197.25 200.152L1186.95 200.727C1178.58 199.126 1174.23 195.234 1172.4 199.472C1172.51 201.533 1168.39 201.763 1164.27 201.993C1160.14 202.224 1154.3 208.753 1137.81 209.674C1135.75 209.789 1131.51 207.958 1131.62 210.019C1129.68 212.195 1125.67 214.487 1123.61 214.602C1121.66 216.779 1115.36 215.063 1111.24 215.293C1109.17 215.408 1104.94 213.577 1104.94 213.577C1086.27 212.551 1098.75 213.922 1086.15 210.49C1084.09 210.605 1079.85 208.774 1077.9 210.95C1074.01 215.303 1069.66 211.411 1065.65 213.702C1063.47 211.756 1061.41 211.871 1059.35 211.986C1059.35 211.986 1036.78 215.314 1032.43 211.422C1030.25 209.475 1026.24 211.767 1024.18 211.882C988.903 209.716 1007.8 214.864 966.454 215.105L956.145 215.68C956.145 215.68 954.083 215.796 951.906 213.849L947.783 214.08C945.836 216.256 945.721 214.195 937.474 214.655C933.466 216.947 927.05 213.169 920.865 213.515C918.688 211.568 914.45 209.737 912.388 209.852C910.326 209.968 912.273 207.791 903.911 206.19C895.549 204.589 893.717 208.827 889.479 206.996C870.117 193.603 866.454 202.078 860.039 198.301C857.977 198.416 851.677 196.7 851.792 198.761C849.96 202.999 847.784 201.053 843.775 203.344C829.688 210.334 823.158 204.495 813.309 213.316C811.363 215.493 809.186 213.546 803.001 213.892C770.013 215.733 786.737 218.935 768.181 219.971C759.934 220.432 761.996 220.317 760.049 222.493C755.926 222.723 749.971 227.191 747.909 227.306C745.847 227.421 743.786 227.536 741.839 229.713C734.052 238.419 731.53 230.288 713.55 241.631C703.011 238.084 701.064 240.26 694.879 240.606C686.632 241.066 690.871 242.897 682.624 243.358C678.5 243.588 680.677 245.534 676.554 245.764C668.307 246.225 674.722 250.002 666.475 250.462C666.59 252.524 656.051 248.977 656.051 248.977L647.804 249.437C639.442 247.836 631.425 252.419 623.063 250.818L610.693 251.509C608.631 251.624 598.207 250.138 596.146 250.253C589.96 250.599 534.523 257.829 511.729 257.034C503.367 255.433 513.676 254.858 490.997 256.124C486.873 256.354 484.927 258.531 480.688 256.699L474.503 257.045L470.379 257.275C464.309 259.682 462.017 255.674 451.824 258.311C447.7 258.541 449.647 256.365 445.523 256.595L426.968 257.631L420.782 257.976C416.659 258.206 410.359 256.49 404.173 256.836C393.865 257.411 398.333 263.365 371.3 260.739C363.054 261.199 338.773 270.826 330.296 267.164C326.172 267.394 321.934 265.563 317.925 267.854C313.917 270.146 305.325 264.422 295.131 267.059C293.069 267.174 290.893 265.228 284.822 267.635L268.328 268.555C266.267 268.671 264.205 268.786 262.028 266.839L259.966 266.955C251.719 267.415 251.489 263.292 247.366 263.523C234.995 264.213 239.234 266.044 222.855 269.026C220.793 269.142 204.529 274.185 202.468 274.3C196.513 278.768 175.895 279.919 173.949 282.096C169.71 280.265 167.878 284.502 163.755 284.732C163.755 284.732 161.578 282.786 159.631 284.963C153.676 289.431 141.306 290.121 139.129 288.175C134.891 286.344 98.1245 294.6 91.9392 294.945C85.6389 293.229 87.7007 293.114 83.5772 293.344C57.0047 298.963 4.04591 303.413 -0.0775794 303.643L-0.0781251 222.643L-0.0775789 160.185C4.04591 159.955 7.59891 154.912 13.6691 152.505C17.5624 148.152 21.8009 149.983 23.7476 147.807C25.6943 145.63 25.6943 145.63 29.8177 145.4C33.9412 145.17 36.1181 147.116 40.2415 146.886L42.3033 146.771C46.3117 144.479 48.4885 146.425 50.5503 146.31L56.7355 145.965C71.2828 147.221 62.8056 143.558 95.6784 139.655C97.7402 139.54 101.749 137.249 108.049 138.965C110.226 140.911 116.296 138.504 118.242 136.328C120.304 136.213 120.074 132.09 126.259 131.745C128.321 131.63 138.515 128.993 142.753 130.824C144.93 132.77 146.877 130.594 151 130.364C153.177 132.31 157.185 130.018 161.309 129.788C163.486 131.734 169.556 129.328 169.556 129.328C173.679 129.097 175.626 126.921 181.696 124.514C185.935 126.345 187.881 124.169 187.766 122.108C205.862 112.826 193.952 121.762 206.092 116.949C208.154 116.834 212.392 118.665 216.401 116.373C218.462 116.258 230.718 113.506 230.718 113.506C232.779 113.391 237.018 115.222 241.026 112.931L247.212 112.586L249.273 112.47C259.697 113.956 279.854 104.56 284.093 106.391L286.155 106.276C288.216 106.161 292.225 103.869 294.286 103.754C296.233 101.578 298.18 99.4013 312.727 100.657L325.098 99.9662C351.9 98.4698 331.283 99.6209 347.892 100.761C358.201 100.186 358.316 102.247 364.386 99.8405C397.949 108.305 393.595 104.413 414.328 105.323C414.443 107.385 416.39 105.208 418.566 107.154L428.875 106.579C430.937 106.464 434.83 102.111 436.892 101.996L449.262 101.305C453.386 101.075 453.501 103.136 457.625 102.906C469.995 102.215 459.801 104.852 478.357 103.816C478.357 103.816 478.472 105.878 486.719 105.417L499.09 104.726C509.283 102.09 521.769 103.46 523.83 103.345L536.201 102.655C540.324 102.424 546.395 100.018 554.642 99.5573C577.091 94.1685 564.95 98.9818 591.638 95.424C595.761 95.1938 597.708 93.0174 597.708 93.0174C599.77 92.9023 603.893 92.6721 605.84 90.4956C607.786 88.3192 611.91 88.089 616.033 87.8588C628.289 85.1068 628.174 83.0455 630.351 84.9917L636.536 84.6464C636.536 84.6464 642.836 86.3624 651.198 87.9633C653.26 87.8482 661.392 85.3264 663.454 85.2113L665.515 85.0962C669.754 86.9273 671.585 82.6896 673.877 86.6971C678.231 90.5895 678.001 86.4669 682.124 86.2367C700.91 89.3234 692.433 85.6612 698.618 85.3158C704.804 84.9705 708.467 76.495 710.644 78.4412C714.882 80.2723 717.059 82.2186 719.006 80.0421C721.067 79.927 721.182 81.9883 725.191 79.6968C735.269 74.9986 733.438 79.2364 739.393 74.7684C747.41 70.1853 743.286 70.4155 749.586 72.1315L751.763 74.0778L753.825 73.9627L760.01 73.6173C762.072 73.5022 761.957 71.4409 764.019 71.3258L768.142 71.0956C770.204 70.9805 769.859 64.7965 776.159 66.5125L778.221 66.3974C780.167 64.221 786.813 72.121 788.529 65.8219C794.83 67.5379 794.83 67.5379 796.776 65.3614C796.776 65.3614 802.847 62.9548 805.023 64.901L809.147 64.6708C813.385 66.5019 815.332 64.3255 819.456 64.0953C821.747 68.1028 827.933 67.7575 829.879 65.5811C836.18 67.2971 836.295 69.3584 838.241 67.1819C840.303 67.0668 844.542 68.898 846.604 68.7828C853.019 72.5602 852.789 68.4375 857.027 70.2686L861.151 70.0384L863.212 69.9233C867.221 67.6318 866.876 61.4478 885.431 60.4119C897.802 59.7212 889.44 58.1203 897.687 57.6599C899.979 61.6674 910.287 61.0919 916.242 56.6239C918.304 56.5088 918.419 58.5701 920.481 58.455C922.543 58.3399 924.72 60.2861 926.781 60.171C933.082 61.887 932.851 57.7644 937.09 59.5955C939.152 59.4804 941.098 57.304 943.275 59.2502C945.567 63.2577 949.46 58.9049 953.814 62.7973C960.229 66.5746 978.67 63.4773 986.917 63.0169C991.041 62.7867 988.864 60.8405 994.934 58.4338C998.942 56.1423 998.942 56.1423 1003.07 55.9121C1009.37 57.6281 1007.07 53.6205 1011.31 55.4516C1015.55 57.2828 1019.67 57.0525 1023.8 56.8223C1025.86 56.7072 1027.92 56.5921 1027.81 54.5308C1036.17 56.1317 1048.42 53.3797 1050.49 53.2646C1052.43 51.0882 1056.67 52.9193 1060.79 52.6891C1064.92 52.4589 1065.15 56.5815 1075.34 53.9446C1077.4 53.8295 1075.23 51.8833 1077.17 49.7069C1079.24 49.5918 1077.06 47.6456 1083.36 49.3616L1093.67 48.786C1097.79 48.5558 1103.75 44.0879 1103.52 39.9652C1107.64 39.735 1116.23 45.4586 1134.1 32.0547C1136.16 31.9395 1142.69 37.7782 1146.58 33.4253C1150.59 31.1338 1152.77 33.08 1154.6 28.8423C1156.43 24.6045 1158.38 22.4281 1162.73 26.3205C1167.08 30.2129 1168.92 25.9752 1173.27 29.8676C1177.62 33.7601 1179.57 31.5836 1189.88 31.0081L1196.06 30.6628C1202.36 32.3788 1215.08 37.8721 1214.39 25.5042L1222.64 25.0437C1228.48 18.5145 1262.62 37.286 1265.59 16.4425C1275.67 11.7443 1271.08 3.72927 1277.27 3.38395Z" fill="#FFEB26"/>
<path d="M1277.27 3.38395C1279.33 3.26884 1275.68 -1.31423 1279.92 0.516878L1279.92 184.643C1274.22 186.622 1272.62 186.794 1272.24 186.722C1272.19 186.974 1271.66 187.765 1269.07 189.939C1265.06 192.23 1264.95 190.169 1260.94 192.461C1256.93 194.752 1252.69 192.921 1246.62 195.328C1244.56 195.443 1232.42 200.256 1230.24 198.31C1228.07 196.364 1223.94 196.594 1221.88 196.709L1217.76 196.939L1207.45 197.515C1203.32 197.745 1201.38 199.921 1197.25 200.152L1186.95 200.727C1178.58 199.126 1174.23 195.234 1172.4 199.472C1172.51 201.533 1168.39 201.763 1164.27 201.993C1160.14 202.224 1154.3 208.753 1137.81 209.674C1135.75 209.789 1131.51 207.958 1131.62 210.019C1129.68 212.195 1125.67 214.487 1123.61 214.602C1121.66 216.779 1115.36 215.063 1111.24 215.293C1109.17 215.408 1104.94 213.577 1104.94 213.577C1086.27 212.551 1098.75 213.922 1086.15 210.49C1084.09 210.605 1079.85 208.774 1077.9 210.95C1074.01 215.303 1069.66 211.411 1065.65 213.702C1063.47 211.756 1061.41 211.871 1059.35 211.986C1059.35 211.986 1036.78 215.314 1032.43 211.422C1030.25 209.475 1026.24 211.767 1024.18 211.882C988.903 209.716 1007.8 214.864 966.454 215.105L956.145 215.68C956.145 215.68 954.083 215.796 951.906 213.849L947.783 214.08C945.836 216.256 945.721 214.195 937.474 214.655C933.466 216.947 927.05 213.169 920.865 213.515C918.688 211.568 914.45 209.737 912.388 209.852C910.326 209.968 912.273 207.791 903.911 206.19C895.549 204.589 893.717 208.827 889.479 206.996C870.117 193.603 866.454 202.078 860.039 198.301C857.977 198.416 851.677 196.7 851.792 198.761C849.96 202.999 847.784 201.053 843.775 203.344C829.688 210.334 823.158 204.495 813.309 213.316C811.363 215.493 809.186 213.546 803.001 213.892C770.013 215.733 786.737 218.935 768.181 219.971C759.934 220.432 761.996 220.317 760.049 222.493C755.926 222.723 749.971 227.191 747.909 227.306C745.847 227.421 743.786 227.536 741.839 229.713C734.052 238.419 731.53 230.288 713.55 241.631C703.011 238.084 701.064 240.26 694.879 240.606C686.632 241.066 690.871 242.897 682.624 243.358C678.5 243.588 680.677 245.534 676.554 245.764C668.307 246.225 674.722 250.002 666.475 250.462C666.59 252.524 656.051 248.977 656.051 248.977L647.804 249.437C639.442 247.836 631.425 252.419 623.063 250.818L610.693 251.509C608.631 251.624 598.207 250.138 596.146 250.253C589.96 250.599 534.523 257.829 511.729 257.034C503.367 255.433 513.676 254.858 490.997 256.124C486.873 256.354 484.927 258.531 480.688 256.699L474.503 257.045L470.379 257.275C464.309 259.682 462.017 255.674 451.824 258.311C447.7 258.541 449.647 256.365 445.523 256.595L426.968 257.631L420.782 257.976C416.659 258.206 410.359 256.49 404.173 256.836C393.865 257.411 398.333 263.365 371.3 260.739C363.054 261.199 338.773 270.826 330.296 267.164C326.172 267.394 321.934 265.563 317.925 267.854C313.917 270.146 305.325 264.422 295.131 267.059C293.069 267.174 290.893 265.228 284.822 267.635L268.328 268.555C266.267 268.671 264.205 268.786 262.028 266.839L259.966 266.955C251.719 267.415 251.489 263.292 247.366 263.523C234.995 264.213 239.234 266.044 222.855 269.026C220.793 269.142 204.529 274.185 202.468 274.3C196.513 278.768 175.895 279.919 173.949 282.096C169.71 280.265 167.878 284.502 163.755 284.732C163.755 284.732 161.578 282.786 159.631 284.963C153.676 289.431 141.306 290.121 139.129 288.175C134.891 286.344 98.1245 294.6 91.9392 294.945C85.6389 293.229 87.7007 293.114 83.5772 293.344C57.0047 298.963 4.04591 303.413 -0.0775794 303.643L-0.0781251 222.643L-0.0775789 160.185C4.04591 159.955 7.59891 154.912 13.6691 152.505C17.5624 148.152 21.8009 149.983 23.7476 147.807C25.6943 145.63 25.6943 145.63 29.8177 145.4C33.9412 145.17 36.1181 147.116 40.2415 146.886L42.3033 146.771C46.3117 144.479 48.4885 146.425 50.5503 146.31L56.7355 145.965C71.2828 147.221 62.8056 143.558 95.6784 139.655C97.7402 139.54 101.749 137.249 108.049 138.965C110.226 140.911 116.296 138.504 118.242 136.328C120.304 136.213 120.074 132.09 126.259 131.745C128.321 131.63 138.515 128.993 142.753 130.824C144.93 132.77 146.877 130.594 151 130.364C153.177 132.31 157.185 130.018 161.309 129.788C163.486 131.734 169.556 129.328 169.556 129.328C173.679 129.097 175.626 126.921 181.696 124.514C185.935 126.345 187.881 124.169 187.766 122.108C205.862 112.826 193.952 121.762 206.092 116.949C208.154 116.834 212.392 118.665 216.401 116.373C218.462 116.258 230.718 113.506 230.718 113.506C232.779 113.391 237.018 115.222 241.026 112.931L247.212 112.586L249.273 112.47C259.697 113.956 279.854 104.56 284.093 106.391L286.155 106.276C288.216 106.161 292.225 103.869 294.286 103.754C296.233 101.578 298.18 99.4013 312.727 100.657L325.098 99.9662C351.9 98.4698 331.283 99.6209 347.892 100.761C358.201 100.186 358.316 102.247 364.386 99.8405C397.949 108.305 393.595 104.413 414.328 105.323C414.443 107.385 416.39 105.208 418.566 107.154L428.875 106.579C430.937 106.464 434.83 102.111 436.892 101.996L449.262 101.305C453.386 101.075 453.501 103.136 457.625 102.906C469.995 102.215 459.801 104.852 478.357 103.816C478.357 103.816 478.472 105.878 486.719 105.417L499.09 104.726C509.283 102.09 521.769 103.46 523.83 103.345L536.201 102.655C540.324 102.424 546.395 100.018 554.642 99.5573C577.091 94.1685 564.95 98.9818 591.638 95.424C595.761 95.1938 597.708 93.0174 597.708 93.0174C599.77 92.9023 603.893 92.6721 605.84 90.4956C607.786 88.3192 611.91 88.089 616.033 87.8588C628.289 85.1068 628.174 83.0455 630.351 84.9917L636.536 84.6464C636.536 84.6464 642.836 86.3624 651.198 87.9633C653.26 87.8482 661.392 85.3264 663.454 85.2113L665.515 85.0962C669.754 86.9273 671.585 82.6896 673.877 86.6971C678.231 90.5895 678.001 86.4669 682.124 86.2367C700.91 89.3234 692.433 85.6612 698.618 85.3158C704.804 84.9705 708.467 76.495 710.644 78.4412C714.882 80.2723 717.059 82.2186 719.006 80.0421C721.067 79.927 721.182 81.9883 725.191 79.6968C735.269 74.9986 733.438 79.2364 739.393 74.7684C747.41 70.1853 743.286 70.4155 749.586 72.1315L751.763 74.0778L753.825 73.9627L760.01 73.6173C762.072 73.5022 761.957 71.4409 764.019 71.3258L768.142 71.0956C770.204 70.9805 769.859 64.7965 776.159 66.5125L778.221 66.3974C780.167 64.221 786.813 72.121 788.529 65.8219C794.83 67.5379 794.83 67.5379 796.776 65.3614C796.776 65.3614 802.847 62.9548 805.023 64.901L809.147 64.6708C813.385 66.5019 815.332 64.3255 819.456 64.0953C821.747 68.1028 827.933 67.7575 829.879 65.5811C836.18 67.2971 836.295 69.3584 838.241 67.1819C840.303 67.0668 844.542 68.898 846.604 68.7828C853.019 72.5602 852.789 68.4375 857.027 70.2686L861.151 70.0384L863.212 69.9233C867.221 67.6318 866.876 61.4478 885.431 60.4119C897.802 59.7212 889.44 58.1203 897.687 57.6599C899.979 61.6674 910.287 61.0919 916.242 56.6239C918.304 56.5088 918.419 58.5701 920.481 58.455C922.543 58.3399 924.72 60.2861 926.781 60.171C933.082 61.887 932.851 57.7644 937.09 59.5955C939.152 59.4804 941.098 57.304 943.275 59.2502C945.567 63.2577 949.46 58.9049 953.814 62.7973C960.229 66.5746 978.67 63.4773 986.917 63.0169C991.041 62.7867 988.864 60.8405 994.934 58.4338C998.942 56.1423 998.942 56.1423 1003.07 55.9121C1009.37 57.6281 1007.07 53.6205 1011.31 55.4516C1015.55 57.2828 1019.67 57.0525 1023.8 56.8223C1025.86 56.7072 1027.92 56.5921 1027.81 54.5308C1036.17 56.1317 1048.42 53.3797 1050.49 53.2646C1052.43 51.0882 1056.67 52.9193 1060.79 52.6891C1064.92 52.4589 1065.15 56.5815 1075.34 53.9446C1077.4 53.8295 1075.23 51.8833 1077.17 49.7069C1079.24 49.5918 1077.06 47.6456 1083.36 49.3616L1093.67 48.786C1097.79 48.5558 1103.75 44.0879 1103.52 39.9652C1107.64 39.735 1116.23 45.4586 1134.1 32.0547C1136.16 31.9395 1142.69 37.7782 1146.58 33.4253C1150.59 31.1338 1152.77 33.08 1154.6 28.8423C1156.43 24.6045 1158.38 22.4281 1162.73 26.3205C1167.08 30.2129 1168.92 25.9752 1173.27 29.8676C1177.62 33.7601 1179.57 31.5836 1189.88 31.0081L1196.06 30.6628C1202.36 32.3788 1215.08 37.8721 1214.39 25.5042L1222.64 25.0437C1228.48 18.5145 1262.62 37.286 1265.59 16.4425C1275.67 11.7443 1271.08 3.72927 1277.27 3.38395Z" fill="#272727" fill-opacity="0.3"/>
<path fill-rule="evenodd" clip-rule="evenodd" d="M1277.85 7.31476C1277.99 8.13587 1278.14 8.97801 1277.27 9.02652C1274.44 9.18448 1273.86 10.9473 1273.11 13.2633C1272.21 16.0105 1271.06 19.536 1265.59 22.0851C1263.72 35.1533 1249.61 32.6492 1237.9 30.5718C1230.93 29.3357 1224.82 28.2507 1222.64 30.6863L1214.39 31.1467C1215 42.0736 1205.15 39.059 1198.5 37.0248C1197.62 36.7565 1196.8 36.5053 1196.06 36.3053L1189.88 36.6507C1186.79 36.8229 1184.46 37.1385 1182.58 37.3919C1178.19 37.9853 1176.32 38.2378 1173.27 35.5102C1171.09 33.564 1169.55 33.6503 1168 33.7366C1166.45 33.823 1164.91 33.9093 1162.73 31.9631C1158.38 28.0707 1156.43 30.2471 1154.6 34.4848C1153.47 37.1039 1152.2 37.3609 1150.46 37.7161C1149.38 37.9356 1148.11 38.1926 1146.58 39.0679C1143.85 42.1256 1139.81 40.1543 1136.94 38.7504C1135.72 38.1558 1134.71 37.663 1134.1 37.6972C1119.75 48.4637 1111.38 46.8894 1106.51 45.9724C1105.31 45.7477 1104.33 45.5625 1103.52 45.6078C1103.75 49.7304 1097.79 54.1984 1093.67 54.4286L1083.36 55.0041C1079.16 53.8601 1078.73 54.3438 1078.29 54.8275C1078.08 55.0693 1077.86 55.3111 1077.17 55.3495C1076.2 56.4377 1076.26 57.4684 1076.3 58.2413C1076.34 59.0143 1076.37 59.5297 1075.34 59.5872C1068.72 61.2991 1066.31 60.162 1064.29 59.2166C1063.21 58.7058 1062.24 58.2509 1060.79 58.3317C1059.33 58.4132 1057.86 58.2361 1056.48 58.0701C1053.96 57.7674 1051.74 57.5017 1050.49 58.9072C1050.05 58.9317 1049.15 59.0754 1047.92 59.2712C1043.39 59.996 1034.39 61.4338 1027.81 60.1734C1027.92 62.2347 1025.86 62.3498 1023.8 62.4649C1019.67 62.6951 1015.55 62.9253 1011.31 61.0942C1009.33 60.2366 1008.78 60.6598 1008.1 61.1758C1007.34 61.7616 1006.42 62.4669 1003.07 61.5547C998.942 61.7849 998.942 61.7849 994.934 64.0764C991.899 65.2797 990.925 66.3679 990.195 67.1841C989.465 68.0003 988.979 68.5444 986.917 68.6595C985.084 68.7618 982.748 68.9943 980.153 69.2527C971.068 70.157 958.804 71.3778 953.814 68.4399C951.637 66.4937 949.576 66.6088 947.772 66.7095C945.967 66.8102 944.421 66.8965 943.275 64.8928C941.824 63.5953 940.475 64.1301 939.126 64.6649C938.452 64.9323 937.777 65.1997 937.09 65.2381C935.077 64.3686 934.072 64.8415 932.897 65.3942C931.598 66.0056 930.09 66.7148 926.781 65.8136C925.75 65.8712 924.691 65.4134 923.631 64.9556C922.572 64.4978 921.512 64.04 920.481 64.0976C919.45 64.1552 918.906 63.6686 918.362 63.1821C917.818 62.6955 917.273 62.2089 916.242 62.2665C910.287 66.7345 899.979 67.31 897.687 63.3025C893.98 63.5094 893.629 63.9468 893.242 64.4284C892.768 65.0182 892.241 65.6742 885.431 66.0544C871.515 66.8314 868.23 70.5041 865.766 73.2587C864.945 74.1769 864.215 74.993 863.213 75.5659L861.151 75.681L857.027 75.9112C855.228 75.134 854.234 75.4294 853.196 75.738C851.787 76.1565 850.296 76.5995 846.604 74.4254C845.573 74.483 843.997 74.054 842.422 73.625C840.847 73.196 839.272 72.767 838.241 72.8245C837.059 74.147 836.552 73.9048 834.923 73.1262C833.871 72.6234 832.351 71.8969 829.879 71.2236C827.933 73.4001 821.747 73.7454 819.456 69.7378C817.995 69.8194 816.807 70.1452 815.694 70.4505C813.665 71.0071 811.884 71.4958 809.147 70.3134L805.023 70.5436C802.847 68.5974 796.776 71.004 796.776 71.004C794.83 73.1804 794.83 73.1805 788.529 71.4644C787.496 75.257 784.676 73.9024 782.17 72.6988C780.514 71.9034 778.995 71.1739 778.221 72.04L776.159 72.1551C772.026 71.0294 770.753 73.3031 769.784 75.0333C769.276 75.9407 768.851 76.6986 768.142 76.7382L764.019 76.9684C762.988 77.0259 762.501 77.57 762.014 78.1141C761.528 78.6583 761.041 79.2024 760.01 79.2599L753.825 79.6052L751.763 79.7203L749.586 77.7741C746.809 77.0176 746.057 76.5498 745.398 76.656C744.562 76.7907 743.875 77.8485 739.393 80.411C736.415 82.645 735.384 82.7025 733.838 82.7888C732.292 82.8752 730.23 82.9903 725.191 85.3394C722.518 86.8671 721.577 86.4602 720.635 86.0532C720.164 85.8498 719.693 85.6463 719.006 85.6847C717.486 87.384 715.825 86.5701 713.153 85.26C712.403 84.8922 711.573 84.4852 710.643 84.0838C709.648 83.1935 708.341 84.4839 706.624 86.1793C704.588 88.1903 701.974 90.771 698.618 90.9584C696.474 91.0781 696.092 91.5965 695.725 92.0941C695.034 93.0319 694.397 93.8958 682.124 91.8793C680.549 91.9672 679.61 92.623 678.807 93.1832C677.508 94.0895 676.568 94.7454 673.877 92.3397C672.607 90.1185 671.478 90.4302 670.003 90.8377C668.816 91.1654 667.405 91.555 665.515 90.7388L663.454 90.8539C662.423 90.9114 659.874 91.5707 657.326 92.2299C654.778 92.8891 652.229 93.5483 651.198 93.6059C642.836 92.005 636.536 90.289 636.536 90.289L630.351 90.6343C629.122 89.536 628.624 89.714 626.22 90.5721C624.364 91.2346 621.373 92.3024 616.033 93.5014C611.91 93.7316 607.786 93.9618 605.84 96.1382C603.893 98.3146 599.77 98.5449 597.708 98.66C597.708 98.66 595.761 100.836 591.638 101.067C579.37 102.702 575.307 102.569 572.317 102.47C568.803 102.355 566.771 102.288 554.642 105.2C549.811 105.47 545.727 106.407 542.343 107.184C539.951 107.733 537.909 108.202 536.201 108.297L523.83 108.988C523.406 109.011 522.539 108.972 521.34 108.918C516.722 108.708 507.183 108.275 499.09 110.369L486.719 111.06C478.472 111.52 478.357 109.459 478.357 109.459C468.142 110.029 466.64 109.486 465.289 108.998C464.186 108.6 463.185 108.238 457.625 108.549C455.563 108.664 454.503 108.206 453.443 107.748C452.384 107.29 451.324 106.833 449.262 106.948L436.892 107.638C435.861 107.696 434.372 108.813 432.884 109.93C431.395 111.047 429.906 112.164 428.875 112.221L418.566 112.797C417.478 111.824 416.447 111.881 415.674 111.925C414.901 111.968 414.385 111.996 414.328 110.966C408.227 110.698 404.299 110.846 400.937 110.973C392.875 111.276 388.073 111.457 364.386 105.483C360.822 106.896 359.311 106.769 356.584 106.54C354.667 106.378 352.148 106.166 347.892 106.404C340.671 105.908 340.486 105.41 340.382 105.129C340.247 104.763 340.247 104.763 325.098 105.609L312.727 106.299C298.18 105.044 296.233 107.22 294.286 109.397C293.256 109.454 291.738 110.056 290.221 110.658C288.703 111.259 287.185 111.861 286.155 111.918L284.093 112.034C282.175 111.205 276.999 112.675 270.941 114.395C263.608 116.477 254.981 118.927 249.273 118.113L247.212 118.228L241.026 118.573C238.143 120.222 235.141 119.737 232.916 119.378C232.047 119.238 231.297 119.117 230.718 119.149C230.718 119.149 218.462 121.901 216.401 122.016C213.518 123.664 210.516 123.18 208.29 122.821C207.421 122.68 206.671 122.559 206.092 122.592C200.769 124.702 200.069 124.169 199.437 123.688C198.627 123.071 197.928 122.538 187.766 127.75C187.881 129.812 185.935 131.988 181.696 130.157C179.378 131.076 177.661 131.962 176.194 132.718C173.821 133.942 172.104 134.828 169.556 134.97C169.556 134.97 163.486 137.377 161.309 135.431C159.848 135.512 158.402 135.852 157.046 136.171C154.575 136.753 152.406 137.263 151 136.006C149.425 136.094 148.168 136.466 147.094 136.784C145.356 137.297 144.099 137.669 142.753 136.467C139.526 135.072 132.845 136.269 128.931 136.969C127.705 137.189 126.751 137.36 126.259 137.387C122.338 137.606 120.995 139.343 120.012 140.615C119.445 141.349 118.997 141.928 118.242 141.97C116.296 144.147 110.226 146.554 108.049 144.607C103.41 143.344 100.014 144.253 97.7225 144.866C96.9015 145.086 96.2223 145.268 95.6784 145.298C78.6964 147.314 72.7496 149.266 68.9629 150.509C65.4196 151.672 63.7677 152.215 56.7355 151.608L50.5503 151.953C49.926 151.988 49.2912 151.834 48.5982 151.665C47.0024 151.278 45.098 150.816 42.3033 152.413L40.2415 152.528C38.1798 152.644 36.6047 152.215 35.0296 151.786C33.4546 151.357 31.8795 150.928 29.8177 151.043C25.6943 151.273 25.6943 151.273 23.7476 153.449C22.9413 154.351 21.7417 154.565 20.3363 154.815C18.3488 155.17 15.9497 155.598 13.6691 158.148C10.8643 159.26 8.59689 160.935 6.56233 162.438C4.19369 164.187 2.1406 165.704 -0.0775788 165.828L-0.078125 228.285L-0.0775793 309.285C-0.0533944 309.284 -0.0275295 309.282 9.68575e-08 309.281V352H1280V137.5L1279.92 137.503V6.15945C1277.47 5.10007 1277.66 6.18761 1277.85 7.31476Z" fill="#FFEB26"/>
</g>
<defs>
<clipPath id="clip0">
<rect width="1280" height="352" fill="white"/>
</clipPath>
</defs>
</svg>
