<svg width="1280" height="352" viewBox="0 0 1280 352" fill="none" xmlns="http://www.w3.org/2000/svg">
<g clip-path="url(#clip0)">
<path d="M2.73163 35.3837C0.669902 35.2686 4.31862 30.6855 0.0800781 32.5166L0.0801349 216.642C5.78264 218.621 7.38111 218.794 7.7633 218.721C7.80984 218.974 8.34447 219.765 10.9298 221.939C14.9382 224.23 15.0534 222.169 19.0617 224.461C23.0701 226.752 27.3087 224.921 33.3788 227.328C35.4405 227.443 47.5808 232.256 49.7577 230.31C51.9345 228.364 56.0579 228.594 58.1197 228.709L62.2431 228.939L72.5519 229.515C76.6754 229.745 78.622 231.921 82.7455 232.151L93.0542 232.727C101.417 231.126 105.77 227.234 107.602 231.471C107.487 233.533 111.61 233.763 115.734 233.993C119.857 234.223 125.697 240.753 142.191 241.674C144.253 241.789 148.492 239.958 148.376 242.019C150.323 244.195 154.332 246.487 156.393 246.602C158.34 248.778 164.64 247.062 168.764 247.293C170.825 247.408 175.064 245.577 175.064 245.577C193.735 244.551 181.249 245.922 193.85 242.49C195.912 242.605 200.15 240.774 202.097 242.95C205.99 247.303 210.344 243.411 214.352 245.702C216.529 243.756 218.591 243.871 220.653 243.986C220.653 243.986 243.217 247.314 247.57 243.421C249.747 241.475 253.756 243.767 255.817 243.882C291.097 241.716 272.196 246.864 313.546 247.105L323.855 247.68C323.855 247.68 325.917 247.795 328.094 245.849L332.217 246.079C334.164 248.256 334.279 246.194 342.526 246.655C346.534 248.946 352.95 245.169 359.135 245.514C361.312 243.568 365.55 241.737 367.612 241.852C369.674 241.967 367.727 239.791 376.089 238.19C384.451 236.589 386.283 240.827 390.521 238.996C409.883 225.602 413.546 234.078 419.961 230.301C422.023 230.416 428.323 228.7 428.208 230.761C430.04 234.999 432.216 233.053 436.225 235.344C450.312 242.334 456.842 236.495 466.691 245.316C468.637 247.492 470.814 245.546 476.999 245.892C509.987 247.733 493.263 250.935 511.819 251.971C520.066 252.431 518.004 252.316 519.951 254.493C524.074 254.723 530.029 259.191 532.091 259.306C534.153 259.421 536.214 259.536 538.161 261.713C545.948 270.418 548.47 262.288 566.45 273.631C576.989 270.084 578.936 272.26 585.121 272.605C593.368 273.066 589.129 274.897 597.376 275.357C601.5 275.588 599.323 277.534 603.446 277.764C611.693 278.225 605.278 282.002 613.525 282.462C613.41 284.524 623.949 280.976 623.949 280.976L632.196 281.437C640.558 279.836 648.575 284.419 656.937 282.818L669.307 283.509C671.369 283.624 681.793 282.138 683.854 282.253C690.04 282.599 745.477 289.829 768.271 289.034C776.633 287.433 766.324 286.858 789.003 288.124C793.127 288.354 795.073 290.53 799.312 288.699L805.497 289.045L809.621 289.275C815.691 291.681 817.983 287.674 828.176 290.311C832.3 290.541 830.353 288.365 834.477 288.595L853.032 289.631L859.218 289.976C863.341 290.206 869.641 288.49 875.827 288.836C886.135 289.411 881.667 295.365 908.7 292.739C916.946 293.199 941.227 302.826 949.704 299.163C953.828 299.394 958.066 297.562 962.075 299.854C966.083 302.146 974.675 296.422 984.869 299.059C986.931 299.174 989.107 297.228 995.178 299.634L1011.67 300.555C1013.73 300.67 1015.8 300.785 1017.97 298.839L1020.03 298.954C1028.28 299.415 1028.51 295.292 1032.63 295.522C1045 296.213 1040.77 298.044 1057.15 301.026C1059.21 301.141 1075.47 306.185 1077.53 306.3C1083.49 310.768 1104.1 311.919 1106.05 314.095C1110.29 312.264 1112.12 316.502 1116.25 316.732C1116.25 316.732 1118.42 314.786 1120.37 316.963C1126.32 321.43 1138.69 322.121 1140.87 320.175C1145.11 318.344 1181.88 326.6 1188.06 326.945C1194.36 325.229 1192.3 325.114 1196.42 325.344C1223 330.963 1275.95 335.412 1280.08 335.643V254.642V192.185C1275.95 191.955 1272.4 186.911 1266.33 184.505C1262.44 180.152 1258.2 181.983 1256.25 179.807C1254.31 177.63 1254.31 177.63 1250.18 177.4C1246.06 177.17 1243.88 179.116 1239.76 178.886L1237.7 178.771C1233.69 176.479 1231.51 178.425 1229.45 178.31L1223.26 177.965C1208.72 179.22 1217.19 175.558 1184.32 171.655C1182.26 171.54 1178.25 169.249 1171.95 170.965C1169.77 172.911 1163.7 170.504 1161.76 168.328C1159.7 168.213 1159.93 164.09 1153.74 163.745C1151.68 163.63 1141.49 160.993 1137.25 162.824C1135.07 164.77 1133.12 162.594 1129 162.363C1126.82 164.31 1122.81 162.018 1118.69 161.788C1116.51 163.734 1110.44 161.327 1110.44 161.327C1106.32 161.097 1104.37 158.921 1098.3 156.514C1094.07 158.345 1092.12 156.169 1092.23 154.107C1074.14 144.826 1086.05 153.762 1073.91 148.949C1071.85 148.834 1067.61 150.665 1063.6 148.373C1061.54 148.258 1049.28 145.506 1049.28 145.506C1047.22 145.391 1042.98 147.222 1038.97 144.931L1032.79 144.585L1030.73 144.47C1020.3 145.956 1000.15 136.56 995.907 138.391L993.845 138.276C991.784 138.161 987.775 135.869 985.714 135.754C983.767 133.578 981.82 131.401 967.273 132.657L954.902 131.966C928.1 130.47 948.717 131.621 932.108 132.761C921.799 132.186 921.684 134.247 915.614 131.84C882.051 140.305 886.405 136.413 865.672 137.323C865.557 139.384 863.61 137.208 861.434 139.154L851.125 138.579C849.063 138.464 845.17 134.111 843.108 133.996L830.738 133.305C826.614 133.075 826.499 135.136 822.375 134.906C810.005 134.215 820.199 136.852 801.643 135.816C801.643 135.816 801.528 137.877 793.281 137.417L780.91 136.726C770.717 134.089 758.231 135.46 756.17 135.345L743.799 134.654C739.676 134.424 733.605 132.018 725.358 131.557C702.909 126.168 715.05 130.982 688.362 127.424C684.239 127.194 682.292 125.017 682.292 125.017C680.23 124.902 676.107 124.672 674.16 122.495C672.214 120.319 668.09 120.089 663.967 119.859C651.711 117.107 651.826 115.045 649.649 116.992L643.464 116.646C643.464 116.646 637.164 118.362 628.802 119.963C626.74 119.848 618.608 117.326 616.546 117.211L614.485 117.096C610.246 118.927 608.415 114.689 606.123 118.697C601.769 122.589 601.999 118.467 597.876 118.237C579.09 121.323 587.567 117.661 581.382 117.316C575.196 116.97 571.533 108.495 569.356 110.441C565.118 112.272 562.941 114.218 560.994 112.042C558.933 111.927 558.818 113.988 554.809 111.697C544.731 106.998 546.562 111.236 540.607 106.768C532.59 102.185 536.714 102.415 530.414 104.131L528.237 106.078L526.175 105.962L519.99 105.617C517.928 105.502 518.043 103.441 515.981 103.326L511.858 103.095C509.796 102.98 510.141 96.7962 503.841 98.5122L501.779 98.3971C499.833 96.2207 493.187 104.121 491.471 97.8216C485.17 99.5376 485.17 99.5376 483.224 97.3612C483.224 97.3612 477.153 94.9545 474.977 96.9007L470.853 96.6705C466.615 98.5016 464.668 96.3252 460.544 96.095C458.253 100.103 452.067 99.7572 450.121 97.5808C443.82 99.2968 443.705 101.358 441.759 99.1817C439.697 99.0666 435.458 100.898 433.396 100.783C426.981 104.56 427.211 100.437 422.973 102.268L418.849 102.038L416.788 101.923C412.779 99.6315 413.124 93.4475 394.569 92.4116C382.198 91.7209 390.56 90.12 382.313 89.6596C380.021 93.6671 369.713 93.0916 363.758 88.6236C361.696 88.5085 361.581 90.5699 359.519 90.4547C357.457 90.3396 355.28 92.2859 353.219 92.1708C346.918 93.8868 347.149 89.7641 342.91 91.5952C340.848 91.4801 338.902 89.3037 336.725 91.2499C334.433 95.2574 330.54 90.9046 326.186 94.797C319.771 98.5743 301.33 95.477 293.083 95.0166C288.959 94.7864 291.136 92.8402 285.066 90.4335C281.058 88.142 281.058 88.142 276.934 87.9118C270.634 89.6278 272.926 85.6203 268.687 87.4514C264.449 89.2825 260.325 89.0523 256.202 88.822C254.14 88.7069 252.078 88.5918 252.193 86.5305C243.831 88.1314 231.576 85.3794 229.514 85.2643C227.567 83.0879 223.329 84.919 219.205 84.6888C215.082 84.4586 214.852 88.5812 204.658 85.9444C202.596 85.8293 204.773 83.883 202.826 81.7066C200.765 81.5915 202.941 79.6453 196.641 81.3613L186.332 80.7858C182.209 80.5555 176.254 76.0876 176.484 71.9649C172.361 71.7347 163.768 77.4583 145.903 64.0544C143.841 63.9393 137.311 69.7779 133.418 65.425C129.409 63.1335 127.232 65.0797 125.401 60.842C123.569 56.6042 121.623 54.4278 117.269 58.3202C112.915 62.2127 111.084 57.9749 106.73 61.8673C102.376 65.7598 100.43 63.5833 90.1207 63.0078L83.9354 62.6625C77.6351 64.3785 64.9194 69.8718 65.6099 57.5039L57.3629 57.0435C51.523 50.5142 17.3842 69.2857 14.4116 48.4422C4.33302 43.7441 8.91683 35.729 2.73163 35.3837Z" fill="#FFEB26"/>
<path fill-rule="evenodd" clip-rule="evenodd" d="M1280 0H0V133L0.0804443 133.005V211.286C5.78296 213.265 7.38147 213.437 7.76367 213.365C7.81018 213.617 8.34485 214.408 10.9302 216.582C12.9343 217.728 13.9652 217.785 14.9961 217.843C16.027 217.9 17.0579 217.958 19.0621 219.104C21.0663 220.25 23.1281 220.365 25.4475 220.494C27.767 220.624 30.3441 220.767 33.3792 221.971C34.0105 222.006 35.587 222.482 37.5331 223.069C41.942 224.4 48.2479 226.303 49.7581 224.953C51.9348 223.007 56.0583 223.237 58.1201 223.352L62.2435 223.582L72.5522 224.158C74.614 224.273 76.1316 224.875 77.6492 225.476C79.1667 226.078 80.6842 226.68 82.7458 226.795L93.0547 227.37C95.842 226.837 98.184 226.048 100.136 225.391C104.039 224.078 106.381 223.289 107.602 226.115C107.487 228.176 111.61 228.406 115.734 228.636C117.108 228.713 118.673 229.49 120.76 230.525C124.934 232.596 131.195 235.703 142.191 236.317C142.879 236.355 143.808 236.177 144.737 235.999C146.595 235.644 148.453 235.288 148.376 236.662C150.323 238.839 154.332 241.13 156.393 241.245C157.691 242.696 160.924 242.417 164.156 242.138C165.773 241.999 167.389 241.859 168.764 241.936C170.825 242.051 175.064 240.22 175.064 240.22C185.212 239.662 186.156 239.813 186.926 239.515C187.573 239.266 188.098 238.7 193.85 237.133C194.474 237.168 195.298 237.024 196.197 236.868C198.268 236.507 200.74 236.076 202.097 237.594C204.322 240.081 206.697 239.876 209.072 239.671C210.853 239.517 212.634 239.363 214.352 240.346C216.529 238.399 218.591 238.514 220.652 238.63C220.652 238.63 243.217 241.957 247.57 238.065C249.088 236.708 251.496 237.411 253.514 238C254.39 238.256 255.193 238.49 255.817 238.525C273.978 237.41 277.782 238.233 282.838 239.328C287.604 240.359 293.482 241.631 313.546 241.748L323.855 242.324C323.855 242.324 325.917 242.439 328.094 240.492L332.217 240.723C333.282 241.913 333.798 241.836 335.397 241.597C336.722 241.399 338.789 241.09 342.526 241.298C344.835 242.618 347.942 241.924 351.345 241.165C353.849 240.606 356.512 240.011 359.135 240.158C361.312 238.211 365.55 236.38 367.612 236.495C368.351 236.537 368.575 236.284 368.943 235.869C369.602 235.125 370.723 233.861 376.089 232.833C380.573 231.975 383.18 232.795 385.286 233.459C387.108 234.032 388.556 234.488 390.521 233.639C403.122 224.922 409.074 225.469 413.462 225.872C415.817 226.088 417.721 226.263 419.961 224.944C420.585 224.979 421.598 224.846 422.704 224.701C425.25 224.366 428.288 223.967 428.208 225.404C429.34 228.023 430.604 228.28 432.35 228.636C433.43 228.855 434.694 229.112 436.225 229.987C442.658 233.179 447.515 233.696 451.832 234.155C456.968 234.702 461.34 235.167 466.691 239.959C467.845 241.25 469.081 241.091 471.185 240.819C472.629 240.633 474.482 240.394 476.999 240.535C495.85 241.587 498.467 243.084 500.711 244.366C502.394 245.329 503.866 246.17 511.819 246.614C517.066 246.907 518.14 246.967 518.728 247.533C519.065 247.856 519.243 248.344 519.951 249.136C522.366 249.271 525.41 250.86 527.932 252.176C529.715 253.107 531.237 253.902 532.091 253.949C534.153 254.064 536.214 254.18 538.161 256.356C541.893 260.528 544.415 260.833 548.01 261.269C551.916 261.741 557.087 262.367 566.45 268.274C574.234 265.654 577.331 266.157 580.91 266.738C582.177 266.943 583.504 267.158 585.121 267.249C589.244 267.479 590.247 268.052 591.249 268.625C592.251 269.198 593.253 269.77 597.376 270.001C599.438 270.116 599.925 270.66 600.411 271.204C600.898 271.748 601.385 272.292 603.446 272.407C607.57 272.638 608.028 273.697 608.486 274.756C608.944 275.816 609.401 276.875 613.525 277.105C613.41 279.167 623.949 275.62 623.949 275.62L632.196 276.08C636.377 275.28 640.472 276.025 644.566 276.771C648.661 277.516 652.756 278.262 656.937 277.461L669.307 278.152C670.338 278.21 673.459 277.867 676.581 277.524C679.702 277.182 682.824 276.839 683.854 276.897C685.356 276.98 689.762 277.47 695.898 278.152C715.036 280.28 751.011 284.279 768.271 283.677C771.389 283.08 771.911 282.626 772.515 282.356C773.532 281.903 774.781 281.973 789.003 282.767C790.464 282.849 791.652 283.174 792.765 283.48C794.794 284.036 796.575 284.525 799.312 283.342L805.497 283.688L809.621 283.918C812.486 285.054 814.509 284.761 816.918 284.412C819.614 284.022 822.794 283.562 828.176 284.954C830.238 285.069 830.782 284.583 831.327 284.096C831.871 283.609 832.415 283.123 834.477 283.238L853.032 284.274L859.218 284.619C861.071 284.723 863.364 284.433 865.889 284.114C868.982 283.723 872.422 283.289 875.827 283.479C879.385 283.677 881.183 284.517 883.123 285.423C886.804 287.142 890.999 289.101 908.699 287.382C911.592 287.543 916.458 288.833 921.923 290.281C932.036 292.961 944.201 296.184 949.704 293.807C951.079 293.883 952.466 293.731 953.853 293.579C956.628 293.274 959.402 292.97 962.075 294.497C963.867 295.522 966.575 294.944 969.934 294.228C974.087 293.342 979.233 292.244 984.869 293.702C985.448 293.734 986.036 293.604 986.716 293.454C988.46 293.067 990.812 292.547 995.178 294.278L1011.67 295.198C1013.73 295.314 1015.8 295.429 1017.97 293.482L1020.03 293.598C1024.86 293.867 1026.94 292.564 1028.67 291.485C1029.89 290.722 1030.93 290.07 1032.63 290.166C1039.2 290.532 1041.09 291.22 1043.86 292.23C1046.31 293.124 1049.46 294.27 1057.15 295.67C1058.18 295.727 1062.76 297.017 1067.34 298.306C1071.92 299.596 1076.5 300.886 1077.53 300.943C1080.97 303.522 1089.29 304.996 1096.09 306.2C1101.07 307.082 1105.23 307.818 1106.05 308.739C1108.52 307.672 1110.17 308.665 1111.94 309.725C1113.2 310.485 1114.52 311.279 1116.25 311.376C1116.25 311.376 1118.42 309.429 1120.37 311.606C1126.32 316.074 1138.69 316.764 1140.87 314.818C1143.6 313.639 1159.81 316.642 1172.67 319.023C1179.78 320.339 1185.86 321.465 1188.06 321.588C1190.16 321.016 1191.33 320.622 1192.11 320.359C1193.67 319.834 1193.67 319.834 1196.42 319.987C1223 325.606 1275.95 330.056 1280.08 330.286V249.286V186.828C1280.05 186.827 1280.03 186.825 1280 186.823V0Z" fill="#FFEB26"/>
</g>
<defs>
<clipPath id="clip0">
<rect width="1280" height="352" fill="white"/>
</clipPath>
</defs>
</svg>
