<svg width="1280" height="352" viewBox="0 0 1280 352" fill="none" xmlns="http://www.w3.org/2000/svg">
<g clip-path="url(#clip0)">
<path d="M2.73163 24.3837C0.669902 24.2686 4.31862 19.6855 0.0800781 21.5166L0.0801349 205.642C5.78264 207.621 7.38111 207.794 7.7633 207.721C7.80984 207.974 8.34447 208.765 10.9298 210.939C14.9382 213.23 15.0534 211.169 19.0617 213.46C23.0701 215.752 27.3087 213.921 33.3788 216.328C35.4405 216.443 47.5808 221.256 49.7577 219.31C51.9345 217.364 56.0579 217.594 58.1197 217.709L62.2431 217.939L72.5519 218.515C76.6754 218.745 78.622 220.921 82.7455 221.151L93.0542 221.727C101.417 220.126 105.77 216.234 107.602 220.471C107.487 222.533 111.61 222.763 115.734 222.993C119.857 223.223 125.697 229.753 142.191 230.674C144.253 230.789 148.492 228.958 148.376 231.019C150.323 233.195 154.332 235.487 156.393 235.602C158.34 237.778 164.64 236.062 168.764 236.293C170.825 236.408 175.064 234.577 175.064 234.577C193.735 233.551 181.249 234.922 193.85 231.49C195.912 231.605 200.15 229.774 202.097 231.95C205.99 236.303 210.344 232.411 214.352 234.702C216.529 232.756 218.591 232.871 220.653 232.986C220.653 232.986 243.217 236.314 247.57 232.421C249.747 230.475 253.756 232.767 255.817 232.882C291.097 230.716 272.196 235.864 313.546 236.105L323.855 236.68C323.855 236.68 325.917 236.795 328.094 234.849L332.217 235.079C334.164 237.256 334.279 235.194 342.526 235.655C346.534 237.946 352.95 234.169 359.135 234.514C361.312 232.568 365.55 230.737 367.612 230.852C369.674 230.967 367.727 228.791 376.089 227.19C384.451 225.589 386.283 229.827 390.521 227.996C409.883 214.602 413.546 223.078 419.961 219.301C422.023 219.416 428.323 217.7 428.208 219.761C430.04 223.999 432.216 222.053 436.225 224.344C450.312 231.334 456.842 225.495 466.691 234.316C468.637 236.492 470.814 234.546 476.999 234.892C509.987 236.733 493.263 239.935 511.819 240.971C520.066 241.431 518.004 241.316 519.951 243.493C524.074 243.723 530.029 248.191 532.091 248.306C534.153 248.421 536.214 248.536 538.161 250.713C545.948 259.418 548.47 251.288 566.45 262.631C576.989 259.084 578.936 261.26 585.121 261.605C593.368 262.066 589.129 263.897 597.376 264.357C601.5 264.588 599.323 266.534 603.446 266.764C611.693 267.225 605.278 271.002 613.525 271.462C613.41 273.524 623.949 269.976 623.949 269.976L632.196 270.437C640.558 268.836 648.575 273.419 656.937 271.818L669.307 272.509C671.369 272.624 681.793 271.138 683.854 271.253C690.04 271.599 745.477 278.829 768.271 278.034C776.633 276.433 766.324 275.858 789.003 277.124C793.127 277.354 795.073 279.53 799.312 277.699L805.497 278.045L809.621 278.275C815.691 280.681 817.983 276.674 828.176 279.311C832.3 279.541 830.353 277.364 834.477 277.595L853.032 278.631L859.218 278.976C863.341 279.206 869.641 277.49 875.827 277.836C886.135 278.411 881.667 284.365 908.7 281.739C916.946 282.199 941.227 291.826 949.704 288.163C953.828 288.394 958.066 286.562 962.075 288.854C966.083 291.146 974.675 285.422 984.869 288.059C986.931 288.174 989.107 286.228 995.178 288.634L1011.67 289.555C1013.73 289.67 1015.8 289.785 1017.97 287.839L1020.03 287.954C1028.28 288.415 1028.51 284.292 1032.63 284.522C1045 285.213 1040.77 287.044 1057.15 290.026C1059.21 290.141 1075.47 295.185 1077.53 295.3C1083.49 299.768 1104.1 300.919 1106.05 303.095C1110.29 301.264 1112.12 305.502 1116.25 305.732C1116.25 305.732 1118.42 303.786 1120.37 305.963C1126.32 310.43 1138.69 311.121 1140.87 309.175C1145.11 307.344 1181.88 315.6 1188.06 315.945C1194.36 314.229 1192.3 314.114 1196.42 314.344C1223 319.963 1275.95 324.412 1280.08 324.643V243.642V181.185C1275.95 180.955 1272.4 175.911 1266.33 173.505C1262.44 169.152 1258.2 170.983 1256.25 168.807C1254.31 166.63 1254.31 166.63 1250.18 166.4C1246.06 166.17 1243.88 168.116 1239.76 167.886L1237.7 167.771C1233.69 165.479 1231.51 167.425 1229.45 167.31L1223.26 166.965C1208.72 168.22 1217.19 164.558 1184.32 160.655C1182.26 160.54 1178.25 158.249 1171.95 159.965C1169.77 161.911 1163.7 159.504 1161.76 157.328C1159.7 157.213 1159.93 153.09 1153.74 152.745C1151.68 152.63 1141.49 149.993 1137.25 151.824C1135.07 153.77 1133.12 151.594 1129 151.363C1126.82 153.31 1122.81 151.018 1118.69 150.788C1116.51 152.734 1110.44 150.327 1110.44 150.327C1106.32 150.097 1104.37 147.921 1098.3 145.514C1094.07 147.345 1092.12 145.169 1092.23 143.107C1074.14 133.826 1086.05 142.762 1073.91 137.949C1071.85 137.834 1067.61 139.665 1063.6 137.373C1061.54 137.258 1049.28 134.506 1049.28 134.506C1047.22 134.391 1042.98 136.222 1038.97 133.931L1032.79 133.585L1030.73 133.47C1020.3 134.956 1000.15 125.56 995.907 127.391L993.845 127.276C991.784 127.161 987.775 124.869 985.714 124.754C983.767 122.578 981.82 120.401 967.273 121.657L954.902 120.966C928.1 119.47 948.717 120.621 932.108 121.761C921.799 121.186 921.684 123.247 915.614 120.84C882.051 129.305 886.405 125.413 865.672 126.323C865.557 128.384 863.61 126.208 861.434 128.154L851.125 127.579C849.063 127.464 845.17 123.111 843.108 122.996L830.738 122.305C826.614 122.075 826.499 124.136 822.375 123.906C810.005 123.215 820.199 125.852 801.643 124.816C801.643 124.816 801.528 126.877 793.281 126.417L780.91 125.726C770.717 123.089 758.231 124.46 756.17 124.345L743.799 123.654C739.676 123.424 733.605 121.018 725.358 120.557C702.909 115.168 715.05 119.982 688.362 116.424C684.239 116.194 682.292 114.017 682.292 114.017C680.23 113.902 676.107 113.672 674.16 111.495C672.214 109.319 668.09 109.089 663.967 108.859C651.711 106.107 651.826 104.045 649.649 105.992L643.464 105.646C643.464 105.646 637.164 107.362 628.802 108.963C626.74 108.848 618.608 106.326 616.546 106.211L614.485 106.096C610.246 107.927 608.415 103.689 606.123 107.697C601.769 111.589 601.999 107.467 597.876 107.236C579.09 110.323 587.567 106.661 581.382 106.316C575.196 105.97 571.533 97.4947 569.356 99.4409C565.118 101.272 562.941 103.218 560.994 101.042C558.933 100.927 558.818 102.988 554.809 100.697C544.731 95.9983 546.562 100.236 540.607 95.7681C532.59 91.185 536.714 91.4153 530.414 93.1313L528.237 95.0775L526.175 94.9624L519.99 94.617C517.928 94.5019 518.043 92.4406 515.981 92.3255L511.858 92.0953C509.796 91.9802 510.141 85.7962 503.841 87.5122L501.779 87.3971C499.833 85.2207 493.187 93.1207 491.471 86.8216C485.17 88.5376 485.17 88.5376 483.224 86.3612C483.224 86.3612 477.153 83.9545 474.977 85.9007L470.853 85.6705C466.615 87.5016 464.668 85.3252 460.544 85.095C458.253 89.1025 452.067 88.7572 450.121 86.5808C443.82 88.2968 443.705 90.3581 441.759 88.1817C439.697 88.0666 435.458 89.8977 433.396 89.7826C426.981 93.5599 427.211 89.4372 422.973 91.2683L418.849 91.0381L416.788 90.923C412.779 88.6315 413.124 82.4475 394.569 81.4116C382.198 80.7209 390.56 79.12 382.313 78.6596C380.021 82.6671 369.713 82.0916 363.758 77.6236C361.696 77.5085 361.581 79.5698 359.519 79.4547C357.457 79.3396 355.28 81.2859 353.219 81.1707C346.918 82.8867 347.149 78.7641 342.91 80.5952C340.848 80.4801 338.902 78.3037 336.725 80.2499C334.433 84.2574 330.54 79.9046 326.186 83.797C319.771 87.5743 301.33 84.477 293.083 84.0166C288.959 83.7864 291.136 81.8402 285.066 79.4335C281.058 77.142 281.058 77.142 276.934 76.9118C270.634 78.6278 272.926 74.6202 268.687 76.4514C264.449 78.2825 260.325 78.0522 256.202 77.822C254.14 77.7069 252.078 77.5918 252.193 75.5305C243.831 77.1314 231.576 74.3794 229.514 74.2643C227.567 72.0879 223.329 73.919 219.205 73.6888C215.082 73.4586 214.852 77.5812 204.658 74.9444C202.596 74.8293 204.773 72.883 202.826 70.7066C200.765 70.5915 202.941 68.6453 196.641 70.3613L186.332 69.7858C182.209 69.5555 176.254 65.0876 176.484 60.9649C172.361 60.7347 163.768 66.4583 145.903 53.0544C143.841 52.9393 137.311 58.7779 133.418 54.425C129.409 52.1335 127.232 54.0797 125.401 49.842C123.569 45.6042 121.623 43.4278 117.269 47.3202C112.915 51.2127 111.084 46.9749 106.73 50.8673C102.376 54.7598 100.43 52.5833 90.1207 52.0078L83.9354 51.6625C77.6351 53.3785 64.9194 58.8718 65.6099 46.5039L57.3629 46.0434C51.523 39.5142 17.3842 58.2857 14.4116 37.4422C4.33302 32.7441 8.91683 24.729 2.73163 24.3837Z" fill="#FFEB26"/>
<path d="M2.73163 24.3839C0.669902 24.2688 4.31862 19.6858 0.0800781 21.5169L0.0801349 205.643C5.78264 207.622 7.38111 207.794 7.7633 207.722C7.80984 207.974 8.34447 208.765 10.9298 210.939C14.9382 213.23 15.0534 211.169 19.0617 213.461C23.0701 215.752 27.3087 213.921 33.3788 216.328C35.4405 216.443 47.5808 221.256 49.7577 219.31C51.9345 217.364 56.0579 217.594 58.1197 217.709L62.2431 217.939L72.5519 218.515C76.6754 218.745 78.622 220.921 82.7455 221.152L93.0542 221.727C101.417 220.126 105.77 216.234 107.602 220.472C107.487 222.533 111.61 222.763 115.734 222.993C119.857 223.224 125.697 229.753 142.191 230.674C144.253 230.789 148.492 228.958 148.376 231.019C150.323 233.195 154.332 235.487 156.393 235.602C158.34 237.779 164.64 236.063 168.764 236.293C170.825 236.408 175.064 234.577 175.064 234.577C193.735 233.551 181.249 234.922 193.85 231.49C195.912 231.605 200.15 229.774 202.097 231.95C205.99 236.303 210.344 232.411 214.352 234.702C216.529 232.756 218.591 232.871 220.653 232.986C220.653 232.986 243.217 236.314 247.57 232.422C249.747 230.475 253.756 232.767 255.817 232.882C291.097 230.716 272.196 235.864 313.546 236.105L323.855 236.68C323.855 236.68 325.917 236.796 328.094 234.849L332.217 235.08C334.164 237.256 334.279 235.195 342.526 235.655C346.534 237.947 352.95 234.169 359.135 234.515C361.312 232.568 365.55 230.737 367.612 230.852C369.674 230.968 367.727 228.791 376.089 227.19C384.451 225.589 386.283 229.827 390.521 227.996C409.883 214.603 413.546 223.078 419.961 219.301C422.023 219.416 428.323 217.7 428.208 219.761C430.04 223.999 432.216 222.053 436.225 224.344C450.312 231.334 456.842 225.495 466.691 234.316C468.637 236.493 470.814 234.546 476.999 234.892C509.987 236.733 493.263 239.935 511.819 240.971C520.066 241.432 518.004 241.317 519.951 243.493C524.074 243.723 530.029 248.191 532.091 248.306C534.153 248.421 536.214 248.536 538.161 250.713C545.948 259.419 548.47 251.288 566.45 262.631C576.989 259.084 578.936 261.26 585.121 261.606C593.368 262.066 589.129 263.897 597.376 264.358C601.5 264.588 599.323 266.534 603.446 266.764C611.693 267.225 605.278 271.002 613.525 271.462C613.41 273.524 623.949 269.977 623.949 269.977L632.196 270.437C640.558 268.836 648.575 273.419 656.937 271.818L669.307 272.509C671.369 272.624 681.793 271.138 683.854 271.253C690.04 271.599 745.477 278.829 768.271 278.034C776.633 276.433 766.324 275.858 789.003 277.124C793.127 277.354 795.073 279.531 799.312 277.699L805.497 278.045L809.621 278.275C815.691 280.682 817.983 276.674 828.176 279.311C832.3 279.541 830.353 277.365 834.477 277.595L853.032 278.631L859.218 278.976C863.341 279.206 869.641 277.49 875.827 277.836C886.135 278.411 881.667 284.365 908.7 281.739C916.946 282.199 941.227 291.826 949.704 288.164C953.828 288.394 958.066 286.563 962.075 288.854C966.083 291.146 974.675 285.422 984.869 288.059C986.931 288.174 989.107 286.228 995.178 288.635L1011.67 289.555C1013.73 289.671 1015.8 289.786 1017.97 287.839L1020.03 287.955C1028.28 288.415 1028.51 284.292 1032.63 284.523C1045 285.213 1040.77 287.044 1057.15 290.026C1059.21 290.142 1075.47 295.185 1077.53 295.3C1083.49 299.768 1104.1 300.919 1106.05 303.096C1110.29 301.265 1112.12 305.502 1116.25 305.732C1116.25 305.732 1118.42 303.786 1120.37 305.963C1126.32 310.431 1138.69 311.121 1140.87 309.175C1145.11 307.344 1181.88 315.6 1188.06 315.945C1194.36 314.229 1192.3 314.114 1196.42 314.344C1223 319.963 1275.95 324.413 1280.08 324.643V243.643V181.185C1275.95 180.955 1272.4 175.912 1266.33 173.505C1262.44 169.152 1258.2 170.983 1256.25 168.807C1254.31 166.63 1254.31 166.63 1250.18 166.4C1246.06 166.17 1243.88 168.116 1239.76 167.886L1237.7 167.771C1233.69 165.479 1231.51 167.425 1229.45 167.31L1223.26 166.965C1208.72 168.221 1217.19 164.558 1184.32 160.655C1182.26 160.54 1178.25 158.249 1171.95 159.965C1169.77 161.911 1163.7 159.504 1161.76 157.328C1159.7 157.213 1159.93 153.09 1153.74 152.745C1151.68 152.63 1141.49 149.993 1137.25 151.824C1135.07 153.77 1133.12 151.594 1129 151.364C1126.82 153.31 1122.81 151.018 1118.69 150.788C1116.51 152.734 1110.44 150.328 1110.44 150.328C1106.32 150.097 1104.37 147.921 1098.3 145.514C1094.07 147.345 1092.12 145.169 1092.23 143.108C1074.14 133.826 1086.05 142.762 1073.91 137.949C1071.85 137.834 1067.61 139.665 1063.6 137.373C1061.54 137.258 1049.28 134.506 1049.28 134.506C1047.22 134.391 1042.98 136.222 1038.97 133.931L1032.79 133.586L1030.73 133.47C1020.3 134.956 1000.15 125.56 995.907 127.391L993.845 127.276C991.784 127.161 987.775 124.869 985.714 124.754C983.767 122.578 981.82 120.401 967.273 121.657L954.902 120.966C928.1 119.47 948.717 120.621 932.108 121.761C921.799 121.186 921.684 123.247 915.614 120.841C882.051 129.305 886.405 125.413 865.672 126.323C865.557 128.385 863.61 126.208 861.434 128.154L851.125 127.579C849.063 127.464 845.17 123.111 843.108 122.996L830.738 122.305C826.614 122.075 826.499 124.136 822.375 123.906C810.005 123.215 820.199 125.852 801.643 124.816C801.643 124.816 801.528 126.878 793.281 126.417L780.91 125.726C770.717 123.09 758.231 124.46 756.17 124.345L743.799 123.655C739.676 123.424 733.605 121.018 725.358 120.557C702.909 115.168 715.05 119.982 688.362 116.424C684.239 116.194 682.292 114.017 682.292 114.017C680.23 113.902 676.107 113.672 674.16 111.496C672.214 109.319 668.09 109.089 663.967 108.859C651.711 106.107 651.826 104.046 649.649 105.992L643.464 105.646C643.464 105.646 637.164 107.362 628.802 108.963C626.74 108.848 618.608 106.326 616.546 106.211L614.485 106.096C610.246 107.927 608.415 103.69 606.123 107.697C601.769 111.59 601.999 107.467 597.876 107.237C579.09 110.323 587.567 106.661 581.382 106.316C575.196 105.971 571.533 97.495 569.356 99.4412C565.118 101.272 562.941 103.219 560.994 101.042C558.933 100.927 558.818 102.988 554.809 100.697C544.731 95.9986 546.562 100.236 540.607 95.7684C532.59 91.1853 536.714 91.4155 530.414 93.1315L528.237 95.0778L526.175 94.9627L519.99 94.6173C517.928 94.5022 518.043 92.4409 515.981 92.3258L511.858 92.0956C509.796 91.9805 510.141 85.7965 503.841 87.5125L501.779 87.3974C499.833 85.221 493.187 93.121 491.471 86.8219C485.17 88.5379 485.17 88.5379 483.224 86.3614C483.224 86.3614 477.153 83.9548 474.977 85.901L470.853 85.6708C466.615 87.5019 464.668 85.3255 460.544 85.0953C458.253 89.1028 452.067 88.7575 450.121 86.5811C443.82 88.2971 443.705 90.3584 441.759 88.1819C439.697 88.0668 435.458 89.898 433.396 89.7828C426.981 93.5602 427.211 89.4375 422.973 91.2686L418.849 91.0384L416.788 90.9233C412.779 88.6318 413.124 82.4478 394.569 81.4119C382.198 80.7212 390.56 79.1203 382.313 78.6599C380.021 82.6674 369.713 82.0919 363.758 77.6239C361.696 77.5088 361.581 79.5701 359.519 79.455C357.457 79.3399 355.28 81.2861 353.219 81.171C346.918 82.887 347.149 78.7644 342.91 80.5955C340.848 80.4804 338.902 78.304 336.725 80.2502C334.433 84.2577 330.54 79.9049 326.186 83.7973C319.771 87.5746 301.33 84.4773 293.083 84.0169C288.959 83.7867 291.136 81.8405 285.066 79.4338C281.058 77.1423 281.058 77.1423 276.934 76.9121C270.634 78.6281 272.926 74.6205 268.687 76.4516C264.449 78.2828 260.325 78.0525 256.202 77.8223C254.14 77.7072 252.078 77.5921 252.193 75.5308C243.831 77.1317 231.576 74.3797 229.514 74.2646C227.567 72.0882 223.329 73.9193 219.205 73.6891C215.082 73.4589 214.852 77.5815 204.658 74.9446C202.596 74.8295 204.773 72.8833 202.826 70.7069C200.765 70.5918 202.941 68.6456 196.641 70.3616L186.332 69.786C182.209 69.5558 176.254 65.0879 176.484 60.9652C172.361 60.735 163.768 66.4586 145.903 53.0547C143.841 52.9395 137.311 58.7782 133.418 54.4253C129.409 52.1338 127.232 54.08 125.401 49.8423C123.569 45.6045 121.623 43.4281 117.269 47.3205C112.915 51.2129 111.084 46.9752 106.73 50.8676C102.376 54.7601 100.43 52.5836 90.1207 52.0081L83.9354 51.6628C77.6351 53.3788 64.9194 58.8721 65.6099 46.5042L57.3629 46.0437C51.523 39.5145 17.3842 58.286 14.4116 37.4425C4.33302 32.7443 8.91683 24.7293 2.73163 24.3839Z" fill="#FFEB26"/>
<path fill-rule="evenodd" clip-rule="evenodd" d="M2.15027 28.3153C2.00842 29.1364 1.86304 29.9785 2.73193 30.027C5.56128 30.185 6.13721 31.9478 6.89404 34.2638C7.79163 37.0109 8.9436 40.5365 14.412 43.0856C16.2758 56.1537 30.3905 53.6497 42.101 51.5723C49.0685 50.3362 55.1848 49.2512 57.3633 51.6868L65.6102 52.1472C65.0002 63.0741 74.8544 60.0595 81.5035 58.0253C82.3805 57.757 83.2017 57.5058 83.9358 57.3058L90.1211 57.6512C93.2061 57.8234 95.5421 58.139 97.418 58.3924C101.811 58.9858 103.679 59.2383 106.73 56.5107C108.907 54.5645 110.453 54.6508 112 54.7371C113.546 54.8235 115.092 54.9098 117.269 52.9636C121.623 49.0711 123.569 51.2476 125.401 55.4853C126.533 58.1044 127.797 58.3614 129.543 58.7166C130.623 58.9361 131.886 59.1931 133.418 60.0684C136.152 63.1261 140.189 61.1548 143.063 59.7509C144.281 59.1563 145.29 58.6635 145.903 58.6977C160.253 69.4642 168.62 67.8899 173.494 66.9728C174.688 66.7482 175.673 66.563 176.484 66.6083C176.254 70.7309 182.209 75.1989 186.332 75.4291L196.641 76.0046C200.841 74.8606 201.274 75.3443 201.707 75.8279C201.923 76.0698 202.139 76.3116 202.826 76.35C203.8 77.4382 203.742 78.4688 203.699 79.2418C203.656 80.0148 203.627 80.5302 204.658 80.5877C211.276 82.2996 213.694 81.1625 215.705 80.2171C216.792 79.7062 217.759 79.2514 219.205 79.3321C220.666 79.4137 222.141 79.2366 223.524 79.0706C226.044 78.7679 228.257 78.5022 229.514 79.9077C229.952 79.9322 230.852 80.0759 232.077 80.2717C236.613 80.9965 245.61 82.4342 252.193 81.1739C252.078 83.2352 254.14 83.3503 256.202 83.4654C260.325 83.6956 264.448 83.9258 268.687 82.0947C270.672 81.2371 271.225 81.6603 271.899 82.1763C272.664 82.7621 273.585 83.4674 276.934 82.5551C281.058 82.7854 281.058 82.7854 285.066 85.0769C288.101 86.2802 289.075 87.3684 289.805 88.1846C290.535 89.0008 291.021 89.5449 293.083 89.66C294.916 89.7623 297.252 89.9948 299.847 90.2532C308.932 91.1575 321.196 92.3783 326.186 89.4404C328.363 87.4941 330.424 87.6093 332.228 87.71C334.033 87.8107 335.579 87.897 336.725 85.8933C338.176 84.5958 339.525 85.1306 340.874 85.6654C341.548 85.9328 342.223 86.2002 342.91 86.2386C344.923 85.3691 345.928 85.842 347.103 86.3947C348.402 87.0061 349.91 87.7153 353.219 86.8141C354.25 86.8717 355.309 86.4139 356.369 85.9561C357.428 85.4983 358.488 85.0405 359.519 85.0981C360.55 85.1556 361.094 84.6691 361.638 84.1825C362.182 83.696 362.727 83.2094 363.758 83.267C369.713 87.735 380.021 88.3105 382.313 84.3029C386.02 84.5099 386.371 84.9473 386.758 85.4289C387.232 86.0186 387.759 86.6747 394.569 87.0549C408.485 87.8319 411.77 91.5046 414.234 94.2592C415.055 95.1773 415.785 95.9935 416.787 96.5664L418.849 96.6815L422.973 96.9117C424.772 96.1345 425.766 96.4299 426.804 96.7385C428.213 97.157 429.704 97.6 433.396 95.4259C434.427 95.4835 436.003 95.0545 437.578 94.6255C439.153 94.1965 440.728 93.7675 441.759 93.825C442.941 95.1475 443.448 94.9053 445.077 94.1267C446.129 93.6239 447.649 92.8974 450.121 92.2241C452.067 94.4006 458.253 94.7459 460.544 90.7383C462.005 90.8199 463.193 91.1457 464.306 91.451C466.335 92.0076 468.116 92.4963 470.853 91.3139L474.977 91.5441C477.153 89.5979 483.224 92.0045 483.224 92.0045C485.17 94.1809 485.17 94.1809 491.471 92.4649C492.504 96.2575 495.324 94.9029 497.83 93.6993C499.486 92.9039 501.005 92.1744 501.779 93.0405L503.841 93.1556C507.974 92.0299 509.247 94.3036 510.216 96.0338C510.724 96.9412 511.149 97.6991 511.858 97.7387L515.981 97.9689C517.012 98.0264 517.499 98.5705 517.986 99.1146C518.472 99.6587 518.959 100.203 519.99 100.26L526.175 100.606L528.237 100.721L530.414 98.7746C533.191 98.0181 533.943 97.5503 534.602 97.6565C535.438 97.7912 536.125 98.849 540.607 101.411C543.585 103.645 544.616 103.703 546.162 103.789C547.708 103.876 549.77 103.991 554.809 106.34C557.482 107.868 558.423 107.461 559.365 107.054C559.836 106.85 560.307 106.647 560.994 106.685C562.514 108.384 564.175 107.571 566.847 106.26C567.597 105.893 568.427 105.486 569.357 105.084C570.352 104.194 571.659 105.484 573.376 107.18C575.412 109.191 578.026 111.772 581.382 111.959C583.526 112.079 583.908 112.597 584.275 113.095C584.966 114.032 585.603 114.896 597.876 112.88C599.451 112.968 600.39 113.624 601.193 114.184C602.492 115.09 603.432 115.746 606.123 113.34C607.393 111.119 608.522 111.431 609.997 111.838C611.184 112.166 612.595 112.556 614.485 111.739L616.546 111.854C617.577 111.912 620.126 112.571 622.674 113.23C625.222 113.89 627.771 114.549 628.802 114.606C637.164 113.005 643.464 111.289 643.464 111.289L649.649 111.635C650.878 110.536 651.376 110.714 653.78 111.573C655.636 112.235 658.627 113.303 663.967 114.502C668.09 114.732 672.214 114.962 674.16 117.139C676.107 119.315 680.23 119.545 682.292 119.66C682.292 119.66 684.239 121.837 688.362 122.067C700.63 123.703 704.693 123.569 707.683 123.471C711.197 123.355 713.229 123.289 725.358 126.2C730.189 126.47 734.273 127.408 737.657 128.184C740.049 128.734 742.091 129.202 743.799 129.298L756.17 129.988C756.594 130.012 757.461 129.973 758.66 129.918C763.278 129.709 772.817 129.276 780.91 131.37L793.281 132.06C801.528 132.521 801.643 130.459 801.643 130.459C811.858 131.03 813.36 130.487 814.711 129.999C815.814 129.6 816.815 129.239 822.375 129.549C824.437 129.664 825.497 129.206 826.556 128.749C827.616 128.291 828.676 127.833 830.738 127.948L843.108 128.639C844.139 128.696 845.628 129.813 847.116 130.93C848.605 132.047 850.094 133.164 851.125 133.222L861.434 133.797C862.522 132.824 863.553 132.882 864.326 132.925C865.099 132.968 865.615 132.997 865.672 131.966C871.773 131.698 875.701 131.846 879.063 131.973C887.125 132.277 891.927 132.458 915.614 126.484C919.178 127.897 920.689 127.769 923.416 127.54C925.333 127.379 927.852 127.167 932.108 127.404C939.329 126.909 939.514 126.411 939.618 126.129C939.753 125.763 939.753 125.763 954.902 126.609L967.273 127.3C981.82 126.044 983.767 128.221 985.714 130.397C986.744 130.455 988.262 131.056 989.779 131.658C991.297 132.26 992.815 132.861 993.845 132.919L995.907 133.034C997.825 132.206 1003 133.675 1009.06 135.396C1016.39 137.478 1025.02 139.927 1030.73 139.114L1032.79 139.229L1038.97 139.574C1041.86 141.222 1044.86 140.738 1047.08 140.378C1047.95 140.238 1048.7 140.117 1049.28 140.149C1049.28 140.149 1061.54 142.901 1063.6 143.017C1066.48 144.665 1069.48 144.18 1071.71 143.821C1072.58 143.681 1073.33 143.56 1073.91 143.592C1079.23 145.702 1079.93 145.17 1080.56 144.688C1081.37 144.072 1082.07 143.539 1092.23 148.751C1092.12 150.812 1094.07 152.988 1098.3 151.157C1100.62 152.077 1102.34 152.962 1103.81 153.719C1106.18 154.943 1107.9 155.828 1110.44 155.971C1110.44 155.971 1116.51 158.377 1118.69 156.431C1120.15 156.513 1121.6 156.853 1122.95 157.172C1125.42 157.753 1127.59 158.263 1129 157.007C1130.57 157.095 1131.83 157.466 1132.91 157.784C1134.64 158.298 1135.9 158.67 1137.25 157.467C1140.47 156.073 1147.16 157.269 1151.07 157.97C1152.29 158.19 1153.25 158.36 1153.74 158.388C1157.66 158.607 1159 160.344 1159.99 161.616C1160.56 162.35 1161 162.929 1161.76 162.971C1163.7 165.147 1169.77 167.554 1171.95 165.608C1176.59 164.344 1179.99 165.253 1182.28 165.867C1183.1 166.086 1183.78 166.268 1184.32 166.298C1201.3 168.315 1207.25 170.267 1211.04 171.51C1214.58 172.673 1216.23 173.215 1223.26 172.608L1229.45 172.953C1230.07 172.988 1230.71 172.834 1231.4 172.666C1233 172.279 1234.9 171.816 1237.7 173.414L1239.76 173.529C1241.82 173.644 1243.4 173.215 1244.97 172.786C1246.55 172.357 1248.12 171.928 1250.18 172.043C1254.31 172.273 1254.31 172.273 1256.25 174.45C1257.06 175.351 1258.26 175.565 1259.66 175.816C1261.65 176.17 1264.05 176.598 1266.33 179.148C1269.14 180.26 1271.4 181.935 1273.44 183.438C1275.81 185.188 1277.86 186.705 1280.08 186.828V249.286V330.286C1280.05 330.284 1280.03 330.283 1280 330.281V432H0V173L0.0804443 173.003V27.1599C2.53259 26.1006 2.34485 27.1881 2.15027 28.3153Z" fill="#FFEB26"/>
</g>
<defs>
<clipPath id="clip0">
<rect width="1280" height="352" fill="white"/>
</clipPath>
</defs>
</svg>
