<svg width="240" height="240" viewBox="0 0 240 240" fill="none" xmlns="http://www.w3.org/2000/svg">
<path d="M185.091 159.237C184.665 159.255 184.599 157.549 185.008 157.105C185.087 156.931 185.244 156.583 185.227 156.157C185.211 155.73 185.289 155.556 185.368 155.382C185.62 155.287 185.699 155.113 185.604 154.86C185.509 154.608 185.918 154.164 186.249 153.895C186.753 153.704 186.832 153.53 186.406 153.547C185.98 153.564 186.059 153.39 186.547 152.772C186.956 152.329 187.27 151.633 187.08 151.128C187.064 150.702 187.361 149.579 187.754 148.709C188.147 147.839 188.366 146.891 188.271 146.638C188.176 146.386 188.491 145.69 188.995 145.499C189.404 145.055 189.735 144.786 189.64 144.533C189.466 144.455 189.624 144.107 189.876 144.011C190.128 143.916 190.269 143.141 190.157 142.462C190.046 141.783 190.091 140.757 190.5 140.313C190.91 139.869 190.893 139.443 190.72 139.364C190.546 139.286 190.877 139.017 191.286 138.573C191.869 138.208 191.948 138.034 191.774 137.955C191.427 137.798 191.41 137.372 191.472 136.772C191.534 136.171 191.501 135.318 191.233 134.988C191.043 134.483 191.026 134.056 191.2 134.135C191.373 134.213 191.609 133.691 191.593 133.265C191.576 132.838 191.89 132.142 192.3 131.699C192.709 131.255 192.945 130.733 192.928 130.307C192.941 128.427 192.924 128 193.334 127.557C193.743 127.113 193.743 127.113 193.048 126.8C192.354 126.486 192.432 126.312 192.747 125.616C192.904 125.268 193.218 124.572 193.123 124.32C193.107 123.893 193.264 123.545 193.768 123.354C194.273 123.163 194.682 122.719 194.665 122.293C194.649 121.866 195.058 121.423 195.311 121.327C195.641 121.058 195.72 120.884 195.356 120.3C194.802 119.212 193.818 115.835 194.244 115.818C194.418 115.896 194.401 115.47 194.133 115.139C193.864 114.808 193.847 114.382 194.021 114.46C194.273 114.365 194.257 113.938 194.24 113.512C194.129 112.833 194.207 112.659 194.633 112.642C195.406 112.781 195.295 112.103 194.505 111.537C193.889 111.049 194.232 108.9 194.989 108.613C195.746 108.326 196.184 106.429 195.568 105.942C195.299 105.611 195.535 105.089 195.928 104.219C196.651 103.079 196.73 102.905 196.035 102.591C195.419 102.104 195.101 100.494 195.779 100.381C195.953 100.459 196.015 99.8588 195.982 99.006C195.87 98.3271 196.106 97.8051 196.358 97.7095C196.61 97.614 196.515 97.3615 196.42 97.1091C196.152 96.7783 196.135 96.3518 196.387 96.2563C196.639 96.1607 196.702 95.5603 196.511 95.0554C196.148 94.4721 196.21 93.8717 196.619 93.4281C196.776 93.0801 197.012 92.5581 196.743 92.2273C196.474 91.8964 196.631 91.5484 197.136 91.3573C197.467 91.0877 197.703 90.5657 197.686 90.1392C197.669 89.7128 197.827 89.3648 198.079 89.2692C198.583 89.0781 198.488 88.8257 197.761 87.6591C196.938 86.2401 196.777 84.282 197.546 82.1156C197.939 81.2456 197.844 80.9931 197.228 80.5055C196.785 80.0962 196.69 79.8438 196.847 79.4958C197.004 79.1477 196.909 78.8953 196.814 78.6429C196.545 78.3121 196.781 77.79 197.521 77.0769C198.262 76.3637 198.419 76.0157 197.993 76.0329C197.141 76.0672 196.492 74.7266 196.885 73.8566C197.121 73.3346 197.104 72.9082 196.74 72.3249C196.012 71.1584 195.711 69.9747 196.31 70.036C196.736 70.0188 196.641 69.7664 196.451 69.2615C196.261 68.7567 196.244 68.3303 196.496 68.2347C196.827 67.9651 196.827 67.9651 196.401 67.9823C196.149 68.0778 195.88 67.747 195.942 67.1466C195.926 66.7201 195.736 66.2153 195.388 66.0584C195.041 65.9016 194.867 65.8232 195.103 65.3012C195.339 64.7792 195.244 64.5267 194.628 64.039C193.743 63.2205 193.631 62.5417 194.309 62.4289C194.735 62.4118 194.814 62.2378 193.929 61.4192C193.313 60.9315 192.775 60.2698 192.854 60.0958C192.759 59.8434 192.412 59.6866 191.986 59.7037C191.308 59.8165 191.213 59.564 190.927 58.8068C190.737 58.3019 190.799 57.7015 191.051 57.6059C191.304 57.5103 191.018 56.753 189.943 55.4297C189.216 54.2631 188.409 53.2706 188.409 53.2706C188.314 53.0182 188.141 52.9397 187.967 52.8613C187.793 52.7829 187.603 52.278 187.413 51.7732C187.285 50.6679 187.016 50.3371 186.937 50.5111C186.59 50.3542 186.416 50.2758 186.4 49.8494C186.305 49.5969 186.036 49.2661 185.784 49.3617C185.532 49.4573 184.916 48.9696 184.299 48.4819C183.683 47.9942 183.241 47.5849 182.989 47.6805C182.737 47.7761 182.468 47.4452 182.199 47.1144C181.914 46.3571 181.74 46.2787 180.462 46.3301C180.036 46.3473 179.863 46.2689 179.768 46.0164C179.561 45.0852 177.998 44.3794 176.72 44.4308C176.042 44.5436 175.521 44.3083 175.426 44.0559C175.331 43.8035 174.984 43.6466 174.384 43.5853C173.958 43.6025 173.359 43.5412 173.264 43.2888C173.168 43.0364 172.995 42.958 172.743 43.0535C172.49 43.1491 171.969 42.9138 171.527 42.5046C171.006 42.2693 170.406 42.208 169.98 42.2252C169.476 42.4164 169.05 42.4335 169.129 42.2595C169.112 41.8331 167.045 41.3184 166.114 41.5267C165.688 41.5439 164.741 41.3258 164.221 41.0905C163.7 40.8553 162.926 40.7156 162.422 40.9067C162.17 41.0023 161.744 41.0195 161.822 40.8455C161.979 40.4975 157.687 39.8162 155.384 39.8235C154.359 39.7794 152.655 39.848 151.708 39.6299C150.683 39.5858 149.153 39.7329 148.222 39.9412C147.292 40.1495 146.362 40.3578 145.936 40.3749C145.51 40.3921 141.85 40.6249 137.686 41.0489C132.245 41.5244 129.958 41.9581 130.053 42.2106C129.975 42.3846 129.722 42.4801 129.549 42.4017C129.201 42.2449 128.602 42.1836 128.176 42.2008C127.75 42.2179 126.898 42.2522 126.299 42.191C125.699 42.1297 125.273 42.1469 125.368 42.3993C125.463 42.6517 125.211 42.7473 125.037 42.6689C124.864 42.5904 123.933 42.7988 123.098 43.2595C120.009 45.0069 118.07 45.5975 117.532 44.9358C117.264 44.6049 117.185 44.779 116.776 45.2225C116.618 45.5705 116.288 45.8401 116.114 45.7617C115.94 45.6833 114.758 45.9872 113.575 46.2911C112.314 46.7689 109.949 47.3767 108.166 47.6194C106.384 47.862 105.123 48.3399 105.044 48.5139C105.14 48.7663 102.443 49.6437 100.062 49.825C98.2795 50.0676 98.0273 50.1632 97.3036 51.3028C96.8156 51.9204 96.3276 52.538 96.0754 52.6336C95.8232 52.7291 95.5709 52.8247 95.4138 53.1727C95.3352 53.3467 94.7687 54.1383 93.9334 54.599C93.0981 55.0598 92.6101 55.6774 92.7052 55.9298C92.8003 56.1822 92.548 56.2778 92.3744 56.1994C92.2007 56.1209 91.8699 56.3905 91.7128 56.7385C91.5556 57.0865 91.1462 57.5301 90.7203 57.5473C90.2944 57.5644 90.0422 57.66 90.1373 57.9124C90.2323 58.1649 89.397 58.6256 88.4832 59.2603C87.5693 59.8951 86.5769 60.7038 86.1675 61.1474C85.9318 61.6694 85.6009 61.939 85.3487 62.0346C84.4183 62.2429 82.9214 63.2428 81.9455 64.4779C81.3789 65.2695 80.7173 65.8087 80.4651 65.9043C80.2128 65.9998 80.1342 66.1738 80.403 66.5047C80.6717 66.8355 80.5932 67.0095 79.915 67.1223C79.4891 67.1394 79.2369 67.235 79.1583 67.409C79.0797 67.583 78.7654 68.279 78.1989 69.0706C77.6324 69.8622 77.3181 70.5582 77.6654 70.715C77.839 70.7935 78.1078 71.1243 78.0292 71.2983C77.9506 71.4723 77.6984 71.5679 77.4297 71.237C77.1609 70.9062 76.9087 71.0018 76.1685 71.7149C75.6805 72.3325 75.4448 72.8545 75.5399 73.107C75.6349 73.3594 75.2256 73.803 74.9898 74.325C73.4474 76.3517 72.6451 77.6653 72.9924 77.8221C73.1661 77.9006 73.0089 78.2486 72.5045 78.4397C72 78.6309 71.8428 78.9789 72.033 79.4837C72.0495 79.9102 72.1446 80.1626 71.7973 80.0058C71.1026 79.6921 70.3954 81.2581 70.933 81.9198C71.1231 82.4246 71.0446 82.5986 70.6972 82.4418C70.3499 82.2849 69.8619 82.9025 69.4691 83.7725C68.3525 85.7821 67.9431 86.2257 65.9872 86.3899C65.0569 86.5982 63.1961 87.0148 61.9349 87.4927C59.1603 88.5441 54.4008 91.2129 54.2601 91.9874C54.0244 92.5094 52.8583 93.2397 51.014 94.0827C50.2573 94.3695 49.1863 95.3522 48.3675 96.2394C47.7224 97.205 46.9822 97.9181 46.8085 97.8397C46.5563 97.9353 46.4777 98.1093 46.6514 98.1877C46.7465 98.4401 46.0228 99.5797 45.1254 100.641C44.3066 101.528 43.7566 102.746 43.678 102.92C43.7731 103.172 43.5374 103.694 43.2066 103.964C42.5615 104.93 41.2587 108.741 41.3703 109.419C41.4654 109.672 41.3083 110.02 40.9775 110.289C40.7252 110.385 40.2538 111.429 39.956 112.551C39.6582 113.674 39.2818 114.97 39.1247 115.318C38.9675 115.666 39.0006 116.519 39.0336 117.372C39.1452 118.051 38.8474 119.173 38.6117 119.695C38.3759 120.217 38.2353 120.992 38.409 121.07C38.5041 121.323 38.5206 121.749 38.3634 122.097C38.2063 122.445 38.1442 123.045 38.1607 123.472C38.4295 123.803 38.2888 124.577 37.9745 125.273C37.6602 125.969 37.5982 126.57 37.8669 126.9C38.1357 127.231 38.0736 127.832 37.7593 128.528C37.5236 129.05 37.4781 130.077 37.5897 130.755C37.7013 131.434 37.8129 132.113 37.6557 132.461C37.2628 133.331 37.424 135.289 37.9615 135.951C38.3253 136.534 38.4204 136.787 37.9159 136.978C37.5851 137.247 37.4445 138.022 37.953 140.137C38.3498 141.573 38.4945 143.105 38.4159 143.279C38.1802 143.801 39.5444 148.187 39.9869 148.597C40.2556 148.928 40.2556 148.928 40.0034 149.023C39.7511 149.119 39.7842 149.972 40.181 151.408C40.4828 152.591 41.0368 153.679 41.2105 153.758C41.3842 153.836 41.3842 153.836 41.227 154.184C40.9127 154.88 43.1823 162.818 44.0672 163.637C44.2408 163.715 44.5261 164.472 44.8114 165.23C45.9359 167.832 46.4114 169.095 46.7587 169.251C47.2011 169.661 47.4864 170.418 47.7716 171.175C47.8667 171.428 48.0569 171.932 48.3091 171.837C48.4828 171.915 48.5779 172.168 48.4993 172.342C48.3422 172.69 49.1484 173.682 51.7574 177.165C52.39 178.079 53.2748 178.897 53.7007 178.88C54.048 179.037 54.2217 179.116 54.1431 179.29C53.986 179.638 58.0008 184.174 59.5968 185.732C60.3865 186.299 61.2713 187.117 61.7138 187.526C62.8674 188.676 68.7429 192.795 69.1688 192.778C69.3425 192.857 69.6898 193.014 70.1322 193.423C70.5746 193.832 71.0956 194.067 71.5215 194.05C71.9474 194.033 72.4684 194.268 72.5635 194.521C73.0224 195.356 78.2324 197.709 79.0842 197.675C79.5101 197.658 79.6838 197.736 79.6052 197.91C79.5266 198.084 79.8739 198.241 80.2998 198.224C80.7257 198.207 81.3253 198.268 81.5941 198.599C82.3838 199.165 87.908 200.822 88.5862 200.709C89.0121 200.692 89.959 200.91 90.7322 201.049C92.7211 201.738 95.0408 202.157 95.8926 202.123C96.3185 202.106 96.9181 202.167 97.0131 202.419C97.1868 202.498 98.1337 202.716 99.1592 202.76C100.185 202.804 101.983 202.988 103.182 203.11C104.382 203.233 105.833 203.26 106.511 203.147C107.189 203.034 107.615 203.017 107.789 203.096C107.963 203.174 109.918 203.01 112.379 202.655C114.839 202.299 117.647 202.101 118.846 202.223C120.471 202.329 126.955 202.324 128.737 202.081C131.544 201.883 140.832 199.373 141.067 198.851C141.146 198.677 141.65 198.486 142.407 198.199C143.59 197.895 147.514 195.687 147.75 195.165C147.828 194.991 148.585 194.704 149.263 194.592C150.698 194.192 153.03 192.732 152.84 192.227C152.745 191.974 152.919 192.053 153.171 191.957C153.692 192.192 155.946 190.906 155.929 190.479C155.834 190.227 156.086 190.131 156.512 190.114C157.364 190.08 163.43 185.906 164.075 184.941C164.232 184.593 165.146 183.958 165.808 183.419C166.643 182.958 167.383 182.245 167.714 181.975C168.045 181.706 169.195 180.549 170.013 179.662C172.565 177.253 178.325 169.589 178.04 168.832C177.945 168.58 178.181 168.058 178.685 167.866C179.599 167.232 182.858 163.257 182.589 162.926C182.494 162.673 182.982 162.056 183.548 161.264C184.95 160.012 185.264 159.316 185.091 159.237Z" fill="#FFEB26"/>
<g clip-path="url(#clip0)">
<path d="M193.106 124.673C192.941 118.562 188.946 113.057 183.363 110.69C177.015 107.992 170.939 110.58 165.959 114.654C165.849 113.167 165.685 111.626 165.521 110.139C165.685 110.029 165.849 109.974 166.014 109.864C166.616 109.479 166.835 108.708 166.451 108.102C164.372 104.689 161.745 104.194 157.913 103.643C148.609 102.322 138.976 102.322 129.672 101.661C111.885 100.395 93.7686 98.0276 76.583 104.083C76.4189 104.138 76.3641 104.249 76.2547 104.304C75.5979 103.588 74.0107 103.863 73.956 105.129C73.0803 118.507 73.1897 132.766 78.827 144.988C69.1396 148.676 54.5264 158.861 65.801 169.707C78.7176 182.038 102.909 181.873 119.328 181.653C134.598 181.488 159.555 182.038 172.034 171.413C182.98 162.054 167.656 152.915 158.57 149.832C160.978 146.75 162.73 143.446 163.879 139.978C176.139 146.584 193.598 140.363 193.106 124.673ZM165.904 131.995C168.969 134.418 172.8 135.409 176.631 134.638C180.025 133.922 184.349 131.39 184.951 127.536C185.553 123.627 181.229 120.765 178.054 119.663C174.169 118.342 169.9 118.838 166.397 120.985C166.342 119.939 166.342 118.893 166.233 117.792C170.337 113.993 175.482 110.855 181.229 112.617C187.304 114.488 191.08 120.544 190.369 126.765C188.946 139.483 174.716 143.171 164.864 137.446C164.81 137.446 164.81 137.446 164.755 137.391C165.302 135.629 165.631 133.867 165.904 131.995ZM166.178 129.573C166.342 127.701 166.451 125.774 166.451 123.903C166.616 123.903 166.835 123.792 166.999 123.682C170.994 120.875 180.9 120.104 181.612 126.655C182.378 133.757 170.939 132.931 167.327 129.848C166.944 129.573 166.561 129.518 166.178 129.573ZM77.3493 106.506C90.4847 101.881 103.949 102.432 117.631 103.368C124.363 103.808 131.095 104.304 137.827 104.799C142.917 105.184 156.655 103.808 159.993 107.772C162.894 109.148 162.62 110.029 159.063 110.415C158.078 110.855 157.038 111.24 155.998 111.571C155.943 111.24 155.724 110.855 155.396 110.635C147.843 105.515 130.22 106.506 121.408 106.175C107.725 105.68 94.097 106.616 80.5237 108.543C80.1406 108.598 79.8669 108.763 79.7574 109.038C78.7176 108.323 77.7324 107.552 76.8567 106.671C76.802 106.616 76.7472 106.616 76.6925 106.561C76.8567 106.616 77.0756 106.616 77.3493 106.506ZM152.823 112.396C149.704 113.222 146.475 113.828 143.3 114.323C135.638 115.59 127.921 116.25 120.149 116.305C109.148 116.36 93.5497 116.525 82.7677 110.855C94.2612 109.313 105.755 108.488 117.358 108.653C122.776 108.763 128.194 109.038 133.613 109.534C137.553 109.919 141.494 110.359 145.38 110.965C147.898 111.681 150.361 111.791 152.878 111.405C152.714 111.681 152.659 112.066 152.823 112.396ZM168.312 170.753C164.864 173.781 156.655 175.047 152.167 176.038C142.041 178.24 131.588 178.79 121.244 179.011C111.228 179.176 101.048 179.121 91.1415 177.249C85.7779 176.258 79.3196 174.882 74.6127 172.074C67.6071 169.541 65.5274 163.265 68.3734 153.356C71.8214 150.548 75.7073 148.566 79.9764 147.3C80.0311 147.3 80.0311 147.245 80.0858 147.245C81.071 149.117 82.2203 150.934 83.5339 152.64C92.4003 164.532 106.849 168.881 121.189 167.835C134.105 166.899 147.405 161.944 156.49 152.42C156.655 152.255 156.764 152.035 156.928 151.869C163.879 153.906 180.025 160.513 168.312 170.753ZM155.888 149.172C155.451 149.337 155.177 149.667 155.067 150.108C154.903 150.273 154.794 150.438 154.63 150.603C145.982 159.632 133.449 164.366 121.189 165.247C106.466 166.293 91.9077 161.394 83.7528 148.401C76.5283 136.84 75.8168 123.022 76.4189 109.644C86.6536 118.232 103.73 118.507 116.263 118.783C131.095 119.113 149.485 118.452 163.168 111.405C163.332 113.167 163.496 114.929 163.66 116.691C163.605 116.746 163.551 116.801 163.496 116.856C162.785 117.516 163.168 118.452 163.77 118.838C164.372 129.738 163.222 140.529 155.888 149.172Z" fill="#272727"/>
<path d="M92.5101 81.6218C91.0871 79.8601 88.6789 78.8141 87.4201 77.0524C84.2457 72.4279 86.9275 69.6753 89.4999 65.9317C91.7439 62.7386 93.0027 59.6556 90.8134 56.1873C89.9377 54.7559 87.6938 56.0772 88.5695 57.5086C92.0175 62.9588 82.1112 67.8585 82.6038 73.584C82.768 75.1806 83.5342 76.4468 84.4646 77.658C85.3403 78.759 86.4897 79.5848 87.5296 80.5207C89.3904 82.1723 100.446 92.0268 86.216 92.0268C84.5741 92.0268 84.5741 94.6143 86.216 94.6143C93.3858 94.6693 97.1622 87.3473 92.5101 81.6218Z" fill="#272727"/>
<path d="M117.74 54.8109C116.207 54.1503 114.894 56.4075 116.426 57.0681C119.491 58.4444 120.148 64.0048 118.561 66.8125C117.849 68.0787 115.605 69.0697 114.62 70.2258C113.69 71.2718 112.814 72.3178 112.54 73.7492C112.212 75.2356 112.376 76.4468 113.088 77.8231C113.471 78.5938 114.292 79.1444 114.784 79.805C115.167 80.1904 115.551 80.5207 115.988 80.851C119.327 83.2183 118.014 86.7417 112.103 91.3111C110.461 91.5313 110.461 94.1188 112.103 93.8986C115.715 93.4582 119.437 92.1919 120.969 88.5034C123.103 83.3835 119.601 82.0071 117.193 78.4837C112.869 72.2077 122.501 69.5101 123.049 63.5093C123.432 59.6006 121.133 56.2974 117.74 54.8109Z" fill="#272727"/>
<path d="M147.897 68.7393C149.703 65.7665 151.782 64.0048 152.111 60.3713C152.275 58.7197 149.648 58.7197 149.538 60.3713C149.155 64.9407 144.175 67.418 143.573 71.9324C143.409 73.1986 143.573 74.3547 144.011 75.5108C144.394 76.5568 145.16 77.4377 145.762 78.3736C147.951 81.5667 155.231 89.164 141.712 90.5954C140.07 90.7605 140.07 93.348 141.712 93.1829C147.678 92.5773 152.877 87.7877 150.688 81.2914C149.046 76.4467 144.175 74.9053 147.897 68.7393Z" fill="#272727"/>
</g>
<defs>
<clipPath id="clip0">
<rect width="131.3" height="126.952" fill="white" transform="translate(61.8047 54.7009)"/>
</clipPath>
</defs>
</svg>
