<svg width="240" height="240" viewBox="0 0 240 240" fill="none" xmlns="http://www.w3.org/2000/svg">
<path d="M226.377 119.848C227.082 119.748 227.787 119.647 228.267 119.514C228.698 129.426 222.328 136.961 217.171 145.675C218.864 145.112 219.823 144.846 220.556 144.549C220.136 147.504 217.512 148.136 214.691 148.538C214.325 149.491 213.931 150.641 213.311 151.759C212.154 151.795 210.997 151.832 209.84 151.868C208.289 153.054 206.766 154.043 205.216 155.23C205.187 155.427 205.385 155.656 205.357 155.853C208.404 155.483 211.254 154.883 215.26 154.248C214.386 155.53 214.246 156.515 213.738 156.845C208.125 159.061 202.512 161.277 196.927 163.296C194.501 164.157 191.651 164.756 189 165.585C189.028 165.388 189.14 164.6 189.336 163.221C181.635 165.542 174.414 167.73 166.459 170.215C167.757 170.802 168.378 171.293 169.451 171.847C168.464 172.31 167.73 172.608 166.771 172.873C157.575 175.986 147.842 178.018 138.248 177.456C123.35 176.942 109.838 181.25 95.4482 182.016C93.586 182.152 92.0912 182.945 90.6525 183.343C88.423 182.824 86.8707 182.402 85.0647 182.145C78.0662 181.149 71.2935 180.184 64.7466 179.252C61.3562 173.945 56.1932 174.617 52.5811 174.103C48.7138 172.145 45.4678 170.678 42.2497 169.013C42.7854 168.487 43.3491 167.763 44.3924 166.906C43.5455 166.384 42.6986 165.861 41.8517 165.338C41.5417 165.897 41.2599 166.259 40.978 166.621C39.9053 166.066 38.8046 165.709 38.1554 165.415C35.8417 165.488 33.9795 165.625 31.8916 165.729C31.722 165.303 31.5243 165.074 31.3546 164.648C33.1594 163.297 34.7383 161.913 36.5711 160.365C37.2764 160.265 37.9537 160.361 38.659 160.26C37.9537 160.361 37.2764 160.265 36.5711 160.365C33.6082 160.144 30.8711 159.956 27.6824 159.703C27.653 158.291 27.5675 157.274 27.5101 156.06C25.9579 155.638 24.6594 155.051 23.3329 154.661C22.7104 152.562 22.0879 150.463 21.6912 148.397C22.283 147.476 22.649 146.523 23.2688 145.405C21.8288 144.195 20.1911 142.755 18.5253 141.513C16.8876 140.074 14.2626 139.097 13.3583 137.36C12.0866 134.968 10.6733 131.952 11.2356 129.62C12.3885 124.759 13.1179 119.636 17.7987 115.88C22.4795 112.124 28.0646 110.105 33.1128 107.005C38.9223 103.41 45.1554 100.076 51.6703 96.3798C52.1218 96.4441 53.5044 96.4399 54.6332 96.6007C54.6612 96.4036 54.4355 96.3715 54.4635 96.1745C56.1841 95.4143 58.1304 94.6864 59.851 93.9263C64.0255 92.1084 68.4257 90.3227 72.6283 88.3079C73.6155 87.8454 74.2353 86.7275 75.0248 86.0358C76.04 85.3763 77.281 84.7489 78.2682 84.2864C80.1317 85.7579 82.0219 85.424 83.5448 84.4347C89.0725 81.2014 92.4295 80.2722 98.4394 80.1229C100.16 79.3627 101.881 78.6026 103.375 77.8104C104.082 79.3181 105.295 78.8878 106.508 78.4574C113.701 76.4664 120.669 74.4432 128.06 72.6813C131.164 71.9171 134.38 71.973 137.681 71.4379C140.023 71.1683 142.223 70.2754 144.593 69.8088C154.805 67.6445 164.82 65.2511 175.033 63.0869C175.004 63.2839 175.174 63.7101 175.146 63.9071C177.234 63.8024 179.52 63.9268 181.636 63.625C185.19 62.9251 188.209 62.7519 191.371 64.8102C192.613 65.7912 195.097 66.1448 197.722 67.1216C199.221 71.1543 203.793 73.0115 207.942 74.6074C214.039 77.0836 215.821 82.3628 219.662 86.1259C218.618 86.9825 217.829 87.6742 217.547 88.0361C218.903 89.8373 219.835 91.3772 220.993 92.9492C220.626 92.2938 220.456 91.8676 220.089 91.2123C219.863 91.1801 219.384 91.3129 219.158 91.2807C218.454 92.9897 217.75 94.6986 217.272 96.4397C217.497 96.4718 217.695 96.701 217.921 96.7331C219.02 95.4825 219.922 94.0028 221.021 92.7522C220.797 94.3284 220.319 96.0694 219.812 98.0075C219.812 98.0075 220.236 98.2689 220.885 98.5623C220.463 99.9093 219.815 101.224 219.421 102.374C220.721 104.569 221.823 106.536 223.292 109.157C223.716 109.418 224.816 109.776 225.889 110.331C225.862 112.136 225.666 113.515 225.442 115.092C225.641 116.929 225.868 118.57 226.377 119.848C226.067 120.407 225.757 120.966 225.447 121.525L225.193 121.69L225.221 121.493C225.757 120.966 226.067 120.407 226.377 119.848ZM161.746 135.371C160.561 135.604 159.404 135.641 158.219 135.874C158.417 136.103 158.389 136.3 158.587 136.529C159.546 136.264 160.759 135.834 161.746 135.371L161.774 135.174L161.746 135.371ZM69.5143 144.15C66.5233 144.126 64.7467 145.28 64.4381 147.447C62.9433 148.24 61.7023 148.867 59.9537 149.824C64.8068 149.711 69.0935 147.105 69.5143 144.15ZM147.187 135.71C147.384 135.939 147.384 135.939 147.582 136.169C148.062 136.036 148.739 136.132 148.993 135.967C149.472 135.835 149.557 135.244 150.402 134.158C148.682 134.918 147.92 135.413 147.187 135.71ZM110.378 117.604C110.18 117.375 109.982 117.146 109.757 117.114C109.221 117.64 108.911 118.199 108.375 118.726C108.601 118.758 108.799 118.987 108.799 118.987C109.334 118.461 109.842 118.131 110.378 117.604ZM203.518 149.359C203.715 149.589 203.687 149.786 203.885 150.015C204.59 149.914 205.098 149.584 205.803 149.484C205.606 149.255 205.634 149.058 205.436 148.829C204.731 148.929 204.223 149.259 203.518 149.359ZM162.307 131.431C162.279 131.628 162.477 131.857 162.477 131.857C162.956 131.724 163.436 131.591 163.915 131.459C163.943 131.262 163.746 131.032 163.746 131.032C163.266 131.165 162.787 131.298 162.307 131.431ZM204.367 153.099C204.395 152.902 204.649 152.737 204.677 152.54C204.451 152.508 204.479 152.311 204.479 152.311C204.226 152.476 204.198 152.673 204.17 152.87C204.17 152.87 204.142 153.067 204.367 153.099ZM164.203 171.502C164.428 171.534 164.654 171.566 164.908 171.402C164.908 171.402 164.908 171.402 164.936 171.205C164.682 171.369 164.456 171.337 164.203 171.502ZM159.825 132.685C159.853 132.488 159.881 132.291 159.881 132.291C159.853 132.488 159.853 132.488 159.825 132.685Z" fill="#FFEB26"/>
<path d="M192.672 173.747C190.615 176.872 186.777 176.325 183.449 177.057C186.41 175.67 189.372 174.282 192.672 173.747Z" fill="#FFEB26"/>
<path d="M59.3402 92.648C59.6221 92.2861 59.6782 91.892 59.932 91.7271C60.1297 91.9563 60.3554 91.9884 60.3274 92.1855C59.8759 92.1212 59.6221 92.2861 59.3402 92.648Z" fill="#FFEB26"/>
<path d="M215.152 158.252C214.672 158.385 214.418 158.55 214.898 158.417C214.446 158.353 214.7 158.188 215.152 158.252Z" fill="#FFEB26"/>
<path d="M220.556 144.549C220.64 143.958 220.471 143.532 220.555 142.94C220.78 142.973 221.006 143.005 221.232 143.037C220.922 143.596 220.64 143.958 220.556 144.549Z" fill="#FFEB26"/>
<path d="M82.3583 83.0596C82.1045 83.2245 81.8788 83.1923 82.3583 83.0596C81.9068 82.9953 82.1326 83.0274 82.3583 83.0596Z" fill="#FFEB26"/>
<path d="M69.6634 86.4788L69.9172 86.3139L69.6914 86.2817L69.6634 86.4788Z" fill="#FFEB26"/>
<path d="M69.6913 86.2816C69.2117 86.4143 68.9579 86.5792 68.4783 86.7119C68.9299 86.7762 69.1837 86.6113 69.6913 86.2816Z" fill="#FFEB26"/>
<path d="M68.4766 86.7122L68.6462 87.1383L68.4485 86.9092L68.4766 86.7122Z" fill="#FFEB26"/>
<path d="M199.499 169.492L199.753 169.327L199.499 169.492Z" fill="#FFEB26"/>
<path d="M192.646 173.944C192.899 173.779 193.407 173.449 193.661 173.285C193.435 173.252 192.927 173.582 192.646 173.944Z" fill="#FFEB26"/>
<g clip-path="url(#clip0)">
<path d="M200.617 146.289C198.87 146.207 198.87 148.852 200.617 148.935C228.146 149.679 237.462 118.758 225.402 97.9232C210.098 71.7145 172.089 64.0255 144.143 68.1593C128.756 70.3916 114.534 78.9901 107.215 91.3917C107.132 91.3917 107.132 91.309 107.049 91.309C77.3564 86.431 31.4456 86.3484 14.7282 117.27C8.57346 128.679 11.4013 141.163 20.5502 149.927C32.1942 161.089 48.9949 164.313 64.4648 161.916C66.2114 169.935 59.5576 174.813 53.7356 178.864C52.6544 179.608 53.0703 181.179 54.401 181.345C68.7065 182.585 82.2635 174.896 88.5845 162.164C102.225 161.254 116.447 159.518 125.845 148.522C126.261 148.026 126.261 147.447 126.012 147.034C141.565 153.896 161.692 153.565 177.994 152.077C183.65 162.577 194.129 169.439 206.106 170.597C207.104 170.679 207.853 169.356 207.27 168.612C202.945 162.66 200.284 156.045 199.286 148.77C199.036 147.116 196.375 147.116 196.624 148.77C197.539 155.632 199.702 161.833 203.361 167.538C192.799 165.636 183.899 158.774 179.325 148.935C178.743 147.612 177.079 148.356 176.913 149.514C153.874 151.581 123.517 152.49 109.96 129.837C94.5729 104.124 114.451 76.5924 141.066 71.3838C163.855 66.9192 190.886 71.2184 209.766 85.1082C220.162 92.7145 228.396 104.62 228.479 117.848C228.479 133.474 216.669 146.786 200.617 146.289ZM103.555 121.652C107.049 133.888 114.784 141.577 124.515 146.207C124.348 146.289 124.182 146.372 124.016 146.538C114.95 157.038 101.393 158.526 88.335 159.435C87.7528 159.187 87.0874 159.187 86.7548 159.931C81.5149 171.175 70.6195 178.286 58.4764 178.699C64.2984 174.234 69.1224 168.612 67.0431 160.675C66.9599 160.262 66.6272 159.931 66.2945 159.849C66.045 159.435 65.546 159.104 64.8806 159.187C49.8266 161.75 32.111 158.608 21.3819 146.868C8.07443 132.482 15.3935 114.872 29.8654 104.785C51.7395 89.5728 80.6001 89.6555 105.884 93.872C101.809 101.892 100.561 111.4 103.555 121.652Z" fill="#272727"/>
<path d="M91.078 138.93C81.5964 138.186 72.1148 137.856 62.6333 138.186C53.4012 138.517 41.8404 141.576 32.8579 138.93C31.1944 138.434 30.529 140.997 32.1093 141.493C40.5096 143.891 49.5753 141.411 58.2252 140.997C69.2038 140.419 80.0993 140.749 91.078 141.576C92.7414 141.741 92.7414 139.096 91.078 138.93Z" fill="#272727"/>
<path d="M81.5132 120.08C66.9582 120.907 52.4863 121.816 37.9313 122.643C36.2679 122.725 36.1847 125.371 37.9313 125.288C52.4863 124.462 66.9582 123.552 81.5132 122.725C83.1767 122.643 83.1767 119.997 81.5132 120.08Z" fill="#272727"/>
<path d="M202.694 123.304C175.58 121.733 148.466 121.485 121.435 122.56C119.688 122.643 119.688 125.289 121.435 125.206C148.549 124.048 175.663 124.296 202.694 125.95C204.44 126.115 204.44 123.47 202.694 123.304Z" fill="#272727"/>
<path d="M204.442 101.064C178.243 101.064 152.044 101.395 125.845 101.974C124.099 102.056 124.099 104.702 125.845 104.619C151.129 104.041 176.33 103.71 201.614 103.71C201.947 104.289 202.696 104.619 203.444 104.289C204.026 104.041 204.525 103.793 205.108 103.545C206.355 102.966 205.69 101.064 204.442 101.064Z" fill="#272727"/>
</g>
<defs>
<clipPath id="clip0">
<rect width="219.157" height="114.343" fill="white" transform="translate(11.3984 67.0837)"/>
</clipPath>
</defs>
</svg>
