<svg width="240" height="240" viewBox="0 0 240 240" fill="none" xmlns="http://www.w3.org/2000/svg">
<path d="M159.088 184.218C161.368 170.371 161.269 156.029 162.162 141.983C163.054 127.889 164.145 113.794 164.69 99.6497C164.69 99.0542 164.442 98.6075 164.095 98.2601C164.244 98.012 164.293 97.6646 164.194 97.3172C161.17 87.5402 157.65 77.6144 153.634 68.1848C153.535 67.9367 153.386 67.7878 153.237 67.6885C153.287 67.5893 153.337 67.49 153.337 67.3411C153.584 66.6959 152.642 65.9515 152.196 66.6463C152.147 66.7456 152.097 66.8448 151.998 66.9441C151.899 66.8448 151.8 66.7952 151.651 66.7456C135.191 64.1152 118.731 61.6338 102.122 59.5493C98.3042 59.053 81.0013 54.2886 79.8114 61.3856C79.5139 61.4849 79.2164 61.733 79.1669 62.13C75.3989 80.1951 75.8947 99.6994 74.6552 118.112C73.4157 136.822 71.7796 155.483 70.3914 174.193C70.3419 174.888 70.6889 175.384 71.1351 175.682C71.7796 179.057 74.1098 179.95 77.5308 180.595C85.9591 182.183 94.9825 182.134 103.51 182.729C120.863 183.97 138.165 185.26 155.518 185.905C156.46 185.955 157.055 185.26 157.204 184.565C157.65 185.31 158.939 185.211 159.088 184.218ZM159.98 93.0987C157.303 92.5031 154.626 91.9572 151.948 91.4609C149.965 91.1135 147.685 90.9646 145.751 90.3691C143.57 89.7239 143.619 90.4187 143.718 88.3343C143.817 85.6047 147.387 80.9892 148.627 78.5077C149.916 75.8773 151.056 73.2966 152.147 70.6166C154.378 78.1603 157.055 85.7536 159.98 93.0987ZM156.063 182.977C142.082 182.183 128.101 181.389 114.169 180.446C107.427 179.999 100.684 179.404 93.9909 178.759C89.7271 178.362 76.4896 179.156 73.4157 175.235C73.4653 175.086 73.5149 174.888 73.5645 174.689C74.9031 155.483 76.0434 136.226 77.5804 117.07C79.0181 99.352 82.092 80.8899 81.1996 63.073C84.918 58.4079 94.9329 61.5841 100.139 62.2293C105.642 62.9241 111.195 63.6189 116.698 64.3137C128.2 65.8026 139.752 66.8945 151.304 68.1352C148.775 72.0559 146.594 76.1255 144.462 80.2943C143.173 82.7758 139.306 87.4906 140 90.518C140.545 92.9002 143.322 92.9498 145.255 93.3468C150.461 94.389 155.766 95.2327 161.021 95.7787C161.319 96.5727 161.666 97.3668 161.963 98.1609C161.715 98.3594 161.567 98.7068 161.517 99.1535C160.377 113.744 159.782 128.385 158.939 142.976C158.146 156.376 156.51 170.024 157.055 183.474C156.857 183.225 156.559 183.027 156.063 182.977Z" fill="#272727"/>
<path d="M136.033 80.6413C129.042 79.1028 121.655 78.805 114.565 77.8125C107.426 76.7702 100.287 75.5295 93.0978 74.6858C92.2054 74.5866 92.0071 75.8273 92.8499 76.0258C106.286 79.5495 122.002 82.6265 135.934 82.3287C136.975 82.2791 136.975 80.8398 136.033 80.6413Z" fill="#272727"/>
<path d="M135.29 91.7581C121.507 88.7803 106.832 87.4403 92.801 86.2989C91.9085 86.2492 91.7102 87.4403 92.5531 87.6389C106.237 91.0633 121.061 93.6936 135.191 93.7433C136.43 93.7433 136.381 91.9566 135.29 91.7581Z" fill="#272727"/>
<path d="M151.7 105.307C131.869 102.329 111.839 98.1107 91.7099 98.0115C90.6687 98.0115 90.7183 99.55 91.6603 99.7981C111.244 104.066 131.571 104.811 151.403 107.292C152.642 107.491 152.989 105.505 151.7 105.307Z" fill="#272727"/>
<path d="M151.156 116.573C130.68 115.034 110.353 111.908 89.8767 110.121C88.7364 110.022 88.4885 111.61 89.5792 111.858C109.559 116.523 130.184 118.21 150.66 119.65C152.643 119.749 153.189 116.722 151.156 116.573Z" fill="#272727"/>
<path d="M149.914 129.03C130.479 124.513 108.615 123.223 88.6839 123.521C87.2461 123.521 87.1469 125.903 88.5847 126.052C98.7484 126.995 108.912 127.392 119.076 128.236C129.239 129.079 139.353 130.816 149.517 131.313C151.004 131.412 151.401 129.377 149.914 129.03Z" fill="#272727"/>
<path d="M149.57 139.105C129.491 137.169 108.37 136.028 88.1916 136.574C86.9521 136.623 86.853 138.608 88.0924 138.757C108.172 141.04 129.243 141.735 149.421 141.536C150.859 141.536 150.958 139.254 149.57 139.105Z" fill="#272727"/>
<path d="M149.073 153.596C128.646 150.37 107.278 148.782 86.6038 149.08C85.2156 149.08 85.1164 151.412 86.5046 151.561C107.229 153.1 127.952 154.589 148.627 156.226C150.312 156.326 150.759 153.894 149.073 153.596Z" fill="#272727"/>
<path d="M148.874 167.79C128.15 165.358 107.029 163.72 86.1568 163.274C84.9173 163.224 84.8677 165.309 86.0576 165.458C106.682 167.989 127.605 169.775 148.328 171.066C150.411 171.165 151.055 168.038 148.874 167.79Z" fill="#272727"/>
</svg>
