<svg width="240" height="240" viewBox="0 0 240 240" fill="none" xmlns="http://www.w3.org/2000/svg">
<path d="M164.249 177.174C162.813 175.77 160.368 175.215 160.815 172.844C162.967 169.944 165.085 167.226 166.986 164.657C166.332 163.117 165.752 161.685 165.399 161.052C163.684 159.124 162.34 157.737 160.848 156.133C163.347 154.904 165.446 153.789 168.161 152.412C166.743 150.917 165.381 149.621 164.02 148.326C164.172 144.01 164.416 139.711 164.568 135.396C163.913 135.366 163.44 135.372 162.784 135.343C163.499 132.55 164.18 129.939 164.861 127.329C166.309 121.652 167.409 115.814 169.131 110.189C171.859 101.731 176.798 94.0675 179.104 85.341C180.168 81.1972 181.381 77.2702 180.769 72.9994C180.514 71.3458 180.584 69.4701 179.77 68.2778C177.92 65.5679 175.528 63.228 173.187 60.6146C172.246 61.0982 171.578 61.6335 170.871 61.878C169.24 62.515 167.574 63.3343 165.847 63.4809C163.155 63.7291 160.459 63.5042 157.255 63.4669C154.783 60.5454 150.569 61.3566 146.887 60.8513C145.507 61.1579 144.218 61.4816 142.638 61.8449C142.743 59.7869 142.944 58.2192 143.054 56.6344C142.78 56.5828 142.507 56.5312 142.142 56.4624C141.37 59.0558 140.598 61.6491 139.717 64.3165C136.547 64.0967 134.121 61.9393 131.293 61.4063C131.334 60.1863 131.375 58.9663 131.411 57.273C128.744 56.3925 125.45 54.8271 122.076 54.191C118.519 53.5205 114.716 53.6536 111.073 53.4392C100.504 52.3913 89.7521 51.309 78.949 50.5004C75.3973 50.3031 71.7596 50.5618 68.4299 50.6897C64.5935 56.011 66.7608 61.0474 68.3809 65.9805C69.8162 67.3844 72.2788 67.8486 71.923 70.2371C69.7708 73.137 67.8354 75.8888 65.9172 78.5495C66.6625 80.1066 67.2599 81.447 67.5215 82.063C69.3441 83.9177 70.5971 85.2872 72.1805 86.9079C69.7561 88.2454 67.657 89.3608 65.0158 90.8463C66.5424 92.2674 67.8126 93.5457 69.2651 94.8584C69.2039 99.1913 69.0515 103.507 69.0075 107.749C69.6631 107.778 70.1363 107.773 70.8091 107.711C70.1849 110.521 69.504 113.131 68.9142 115.759C67.6487 121.47 66.7308 127.342 65.0092 132.967C62.538 141.568 57.7813 149.266 55.6577 158.027C54.6844 162.188 53.5631 166.132 54.2659 170.42C54.5381 171.982 54.5419 173.967 55.356 175.159C57.3147 177.795 59.707 180.135 62.0648 182.657C62.9148 182.156 63.5824 181.621 64.2896 181.376C65.9208 180.739 67.5123 179.811 69.24 179.665C71.8572 179.308 74.6621 179.459 77.8834 179.405C80.4633 182.253 84.6773 181.442 88.303 181.747C89.7002 181.35 90.989 181.026 92.5686 180.662C92.464 182.721 92.3542 184.305 92.3355 185.907C92.6091 185.959 92.8827 186.011 93.2475 186.079C94.0197 183.486 94.7007 180.875 95.4901 178.191C97.5481 178.296 99.2691 179.187 101.024 179.895C100.983 181.115 100.908 182.518 100.764 184.285C103.414 185.257 106.599 186.896 110.048 187.641C113.587 188.402 117.39 188.269 121.09 188.683C131.824 189.857 142.542 191.121 153.293 192.204C156.811 192.583 160.448 192.325 163.852 192.305C167.836 187.201 165.669 182.164 164.249 177.174ZM83.9409 141.258L84.1577 141.11L84.1061 141.384L83.9409 141.258ZM84.088 136.469C84.2375 135.175 84.4782 133.898 84.6277 132.604C84.9013 132.656 85.1749 132.708 85.4657 132.668C85.3162 133.962 85.1668 135.256 85.0345 136.459C84.7437 136.498 84.4529 136.538 84.088 136.469ZM87.4192 134.831C87.3504 135.195 87.3728 135.577 87.3041 135.942C87.1217 135.908 86.9221 135.965 86.8309 135.947C86.8084 135.565 86.7688 135.275 86.7464 134.893C86.946 134.836 87.1284 134.87 87.4192 134.831ZM86.4751 138.336C86.3839 138.319 86.3098 138.21 86.3098 138.21C86.327 138.119 86.4354 138.045 86.4698 137.863C86.561 137.88 86.635 137.988 86.635 137.988C86.6007 138.171 86.4923 138.245 86.4751 138.336ZM86.5065 141.175C86.4153 141.158 86.3069 141.232 86.2329 141.124C86.1417 141.106 86.1761 140.924 86.1021 140.816C86.2845 140.85 86.4841 140.793 86.5753 140.81C86.6321 141.01 86.5237 141.084 86.5065 141.175ZM89.0871 137.506L89.1386 137.232L89.3038 137.358L89.0871 137.506ZM128.272 66.4091C128.398 66.2439 128.415 66.1527 128.541 65.9875C128.546 66.4607 128.586 66.7515 128.534 67.0251L128.443 67.0079C128.403 66.7171 128.329 66.6087 128.272 66.4091ZM107.977 171.572C108.028 171.299 108.063 171.116 108.023 170.826C108.114 170.843 108.205 170.86 108.297 170.877C108.245 171.151 108.119 171.316 107.977 171.572ZM130.346 67.9334C130.255 67.9162 130.181 67.8078 130.09 67.7906C130.233 67.5342 130.393 67.1866 130.535 66.9302C130.627 66.9473 130.701 67.0557 130.792 67.0729C130.649 67.3294 130.489 67.677 130.346 67.9334ZM126.914 73.6143C126.567 73.4543 126.293 73.4027 126.037 73.2599C126.379 72.9467 126.704 72.7246 127.047 72.4114C126.978 72.7762 126.909 73.141 126.914 73.6143ZM123.541 77.9839C123.171 77.4419 122.8 76.8999 122.43 76.3579C123.115 75.7314 123.891 75.1222 124.576 74.4957C124.261 75.6641 123.855 76.8154 123.541 77.9839ZM127.813 64.3391C127.795 64.4303 127.778 64.5215 127.761 64.6127C127.67 64.5956 127.67 64.5956 127.579 64.5784C127.67 64.5956 127.67 64.5956 127.744 64.704C127.801 64.9036 127.766 65.086 127.806 65.3768C127.658 65.16 127.618 64.8692 127.47 64.6524L127.561 64.6696C127.47 64.6524 127.47 64.6524 127.47 64.6524C127.47 64.6524 127.487 64.5612 127.396 64.544C127.522 64.3788 127.63 64.3048 127.813 64.3391ZM127.517 68.9113C127.363 69.7321 127.282 70.6613 127.11 71.5734C126.198 71.4015 125.377 71.2467 124.374 71.0576C125.083 69.3023 126.28 68.9614 127.517 68.9113ZM99.835 177.688C99.9209 177.232 99.9897 176.867 99.9844 176.394C100.167 176.428 100.349 176.462 100.623 176.514C100.537 176.97 100.559 177.352 100.473 177.808C100.291 177.774 100.017 177.722 99.835 177.688ZM134.784 65.9365C134.87 65.4805 134.847 65.0985 134.933 64.6425C135.116 64.6769 135.389 64.7285 135.572 64.7628C135.486 65.2189 135.417 65.5837 135.331 66.0397C135.166 65.9141 134.983 65.8797 134.784 65.9365ZM150.542 101.585L150.325 101.733L150.377 101.459L150.542 101.585ZM147.934 104.399C148.025 104.416 148.099 104.524 148.099 104.524C148.082 104.616 147.973 104.69 147.939 104.872C147.848 104.855 147.774 104.746 147.774 104.746C147.899 104.581 147.916 104.49 147.934 104.399ZM145.27 105.502L145.105 105.377L145.322 105.229L145.27 105.502ZM147.993 101.577C148.085 101.594 148.193 101.52 148.267 101.628C148.358 101.645 148.324 101.828 148.307 101.919C148.124 101.885 147.942 101.85 147.833 101.924C147.868 101.742 147.885 101.651 147.993 101.577ZM146.898 107.887C146.967 107.522 147.036 107.157 147.013 106.775C147.196 106.81 147.395 106.753 147.487 106.77C147.509 107.152 147.549 107.443 147.571 107.825C147.463 107.899 147.189 107.847 146.898 107.887ZM148.76 110.032C148.91 108.738 149.151 107.462 149.283 106.259C149.557 106.31 149.921 106.379 150.212 106.339C149.972 107.616 149.822 108.91 149.581 110.187C149.308 110.136 149.034 110.084 148.76 110.032Z" fill="#FFEB26"/>
<g clip-path="url(#clip0)">
<path d="M159.088 184.218C161.368 170.371 161.269 156.029 162.162 141.983C163.054 127.889 164.145 113.794 164.69 99.6497C164.69 99.0542 164.442 98.6075 164.095 98.2601C164.244 98.012 164.293 97.6646 164.194 97.3172C161.17 87.5402 157.65 77.6144 153.634 68.1848C153.535 67.9367 153.386 67.7878 153.237 67.6885C153.287 67.5893 153.337 67.49 153.337 67.3411C153.584 66.6959 152.642 65.9515 152.196 66.6463C152.147 66.7456 152.097 66.8448 151.998 66.9441C151.899 66.8448 151.8 66.7952 151.651 66.7456C135.191 64.1152 118.731 61.6338 102.122 59.5493C98.3042 59.053 81.0013 54.2886 79.8114 61.3856C79.5139 61.4849 79.2164 61.733 79.1669 62.13C75.3989 80.1951 75.8947 99.6994 74.6552 118.112C73.4157 136.822 71.7796 155.483 70.3914 174.193C70.3419 174.888 70.6889 175.384 71.1351 175.682C71.7796 179.057 74.1098 179.95 77.5308 180.595C85.9591 182.183 94.9825 182.134 103.51 182.729C120.863 183.97 138.165 185.26 155.518 185.905C156.46 185.955 157.055 185.26 157.204 184.565C157.65 185.31 158.939 185.211 159.088 184.218ZM159.98 93.0987C157.303 92.5031 154.626 91.9572 151.948 91.4609C149.965 91.1135 147.685 90.9646 145.751 90.3691C143.57 89.7239 143.619 90.4187 143.718 88.3343C143.817 85.6047 147.387 80.9892 148.627 78.5077C149.916 75.8773 151.056 73.2966 152.147 70.6166C154.378 78.1603 157.055 85.7536 159.98 93.0987ZM156.063 182.977C142.082 182.183 128.101 181.389 114.169 180.446C107.427 179.999 100.684 179.404 93.9909 178.759C89.7271 178.362 76.4896 179.156 73.4157 175.235C73.4653 175.086 73.5149 174.888 73.5645 174.689C74.9031 155.483 76.0434 136.226 77.5804 117.07C79.0181 99.352 82.092 80.8899 81.1996 63.073C84.918 58.4079 94.9329 61.5841 100.139 62.2293C105.642 62.9241 111.195 63.6189 116.698 64.3137C128.2 65.8026 139.752 66.8945 151.304 68.1352C148.775 72.0559 146.594 76.1255 144.462 80.2943C143.173 82.7758 139.306 87.4906 140 90.518C140.545 92.9002 143.322 92.9498 145.255 93.3468C150.461 94.389 155.766 95.2327 161.021 95.7787C161.319 96.5727 161.666 97.3668 161.963 98.1609C161.715 98.3594 161.567 98.7068 161.517 99.1535C160.377 113.744 159.782 128.385 158.939 142.976C158.146 156.376 156.51 170.024 157.055 183.474C156.857 183.225 156.559 183.027 156.063 182.977Z" fill="#272727"/>
<path d="M136.033 80.6413C129.042 79.1028 121.655 78.805 114.565 77.8125C107.426 76.7702 100.287 75.5295 93.0978 74.6858C92.2054 74.5866 92.0071 75.8273 92.8499 76.0258C106.286 79.5495 122.002 82.6265 135.934 82.3287C136.975 82.2791 136.975 80.8398 136.033 80.6413Z" fill="#272727"/>
<path d="M135.29 91.7581C121.507 88.7803 106.832 87.4403 92.801 86.2989C91.9085 86.2492 91.7102 87.4403 92.5531 87.6389C106.237 91.0633 121.061 93.6936 135.191 93.7433C136.43 93.7433 136.381 91.9566 135.29 91.7581Z" fill="#272727"/>
<path d="M151.7 105.307C131.869 102.329 111.839 98.1107 91.7099 98.0115C90.6687 98.0115 90.7183 99.55 91.6603 99.7981C111.244 104.066 131.571 104.811 151.403 107.292C152.642 107.491 152.989 105.505 151.7 105.307Z" fill="#272727"/>
<path d="M151.156 116.573C130.68 115.034 110.353 111.908 89.8767 110.121C88.7364 110.022 88.4885 111.61 89.5792 111.858C109.559 116.523 130.184 118.21 150.66 119.65C152.643 119.749 153.189 116.722 151.156 116.573Z" fill="#272727"/>
<path d="M149.914 129.03C130.479 124.513 108.615 123.223 88.6839 123.521C87.2461 123.521 87.1469 125.903 88.5847 126.052C98.7484 126.995 108.912 127.392 119.076 128.236C129.239 129.079 139.353 130.816 149.517 131.313C151.004 131.412 151.401 129.377 149.914 129.03Z" fill="#272727"/>
<path d="M149.57 139.105C129.491 137.169 108.37 136.028 88.1916 136.574C86.9521 136.623 86.853 138.608 88.0924 138.757C108.172 141.04 129.243 141.735 149.421 141.536C150.859 141.536 150.958 139.254 149.57 139.105Z" fill="#272727"/>
<path d="M149.073 153.596C128.646 150.37 107.278 148.782 86.6038 149.08C85.2156 149.08 85.1164 151.412 86.5046 151.561C107.229 153.1 127.952 154.589 148.627 156.226C150.312 156.326 150.759 153.894 149.073 153.596Z" fill="#272727"/>
<path d="M148.874 167.79C128.15 165.358 107.029 163.72 86.1568 163.274C84.9173 163.224 84.8677 165.309 86.0576 165.458C106.682 167.989 127.605 169.775 148.328 171.066C150.411 171.165 151.055 168.038 148.874 167.79Z" fill="#272727"/>
</g>
<defs>
<clipPath id="clip0">
<rect width="94.3482" height="128.44" fill="white" transform="translate(70.3906 57.5139)"/>
</clipPath>
</defs>
</svg>
