<svg width="240" height="240" viewBox="0 0 240 240" fill="none" xmlns="http://www.w3.org/2000/svg">
<g clip-path="url(#clip0)">
<path d="M96.3757 64.1759C96.7949 64.8373 97.4339 65.3592 97.9928 66.241C100.552 64.9283 103.39 64.0564 104.73 62.28C106.63 61.3854 107.949 60.5491 109.408 59.9333L109.269 59.7128C110.428 59.5962 111.447 59.2591 112.826 59.0031C113.067 57.9236 113.308 56.8442 113.629 55.4048C114.428 55.2071 115.367 55.2299 116.307 55.2526C116.746 54.9739 117.626 54.4164 117.926 53.9171C118.646 54.0793 119.585 54.102 120.164 54.0437C122.685 51.2106 125.683 49.6191 128.962 48.4685C131.001 47.7943 133.2 46.4005 135.319 45.3665C137.697 45.7135 139.896 44.3197 142.434 43.9471C143.014 43.8887 143.314 43.3895 143.834 42.7509C143.355 41.5093 143.017 40.4882 142.678 39.467C143.358 38.1087 144.259 36.6111 144.939 35.2529C145.299 35.3339 145.938 35.8559 146.437 36.1574C148.036 35.762 149.276 35.2855 150.655 35.0295C153.891 35.7591 154.308 39.8211 157.765 40.4113C158.047 37.4516 156.81 34.5274 158.95 32.5534C160.909 32.239 162.288 31.983 164.026 31.8081C165.105 32.0513 166.903 32.4566 168.482 33.0013C168.901 33.6626 169.32 34.324 170.099 35.0664C170.818 35.2285 171.677 35.6111 172.756 35.8543C173.594 37.177 174.073 38.4186 174.911 39.7413C175.85 39.764 176.57 39.9262 177.509 39.9489C178.148 40.4709 178.707 41.3527 179.625 42.3155C180.425 42.1178 181.084 41.6997 181.884 41.502C183.602 42.2672 183.56 44.1474 183.959 45.7488C185.757 46.1541 187.196 46.4784 189.353 46.9648C189.93 50.3071 190.727 53.51 191.304 56.8522C191.562 58.2332 190.882 59.5915 191.001 60.752C191.397 65.7541 192.152 70.8372 192.907 75.9203C193.086 77.6611 193.844 79.3436 195.261 80.608C196.54 81.6519 197.737 83.0557 198.056 85.0169C196.296 86.132 194.896 87.3281 192.837 88.9424C192.775 91.7627 192.552 95.3026 192.49 98.123C193.747 100.107 195.825 100.953 196.422 103.355C194.903 103.391 193.744 103.508 192.225 103.543C191.485 104.321 190.665 105.459 189.705 106.376C189.904 107.177 189.744 107.897 189.863 109.057C187.964 109.952 186.065 110.846 184.165 111.741C183.286 112.299 182.685 113.297 181.945 114.075C180.905 115.352 179.725 116.409 178.465 117.825C176.765 119.521 174.985 121.576 173.285 123.271C171.285 125.466 169.425 127.881 167.285 129.855C166.025 131.271 164.705 132.108 163.305 133.304C162.666 132.782 162.167 132.48 161.887 132.039C159.988 132.934 157.548 135.407 155.527 138.542C154.288 139.018 153.129 139.135 151.89 139.612C151.369 140.25 150.71 140.668 150.19 141.307C149.669 141.945 149.369 142.445 148.629 143.223C149.227 145.625 149.605 148.166 150.122 150.928C148.163 151.243 146.425 151.418 144.466 151.732C143.506 152.649 142.686 153.787 141.946 154.565C139.907 155.239 138.228 155.994 136.988 156.471C136.227 158.189 135.907 159.628 135.226 160.987C134.765 162.205 134.305 163.424 133.485 164.562C132.804 165.92 131.984 167.058 131.164 168.196C129.603 170.112 127.903 171.807 126.203 173.502C125.463 174.28 124.804 174.698 123.924 175.256C122.604 176.092 121.065 177.068 119.745 177.904C119.504 178.984 119.124 179.843 119.103 180.783C117.183 182.618 115.483 184.313 112.865 185.045C109.807 186.057 106.829 186.708 103.77 187.719C101.152 188.452 98.5929 189.764 95.7752 189.696C94.836 189.673 93.8166 190.011 92.4375 190.267C91.2991 189.443 89.8011 188.539 88.4427 187.854C86.4039 188.529 84.4452 188.843 82.8462 189.238C80.6289 188.172 80.8101 186.512 80.1918 185.05C79.5735 183.588 79.0948 182.346 77.0767 182.08C76.8568 182.22 76.5566 182.719 76.1168 182.998C75.8166 183.497 75.5967 183.636 75.2965 184.135C74.9369 184.054 74.3573 184.113 74.2176 183.892C73.0792 183.069 72.3806 181.966 72.122 180.585C72.0625 180.005 71.5037 179.123 71.0251 177.882C69.9849 179.159 69.4648 179.798 68.7248 180.576C69.1619 183.697 67.9405 186.634 67.6584 189.594C65.6403 189.328 64.2017 189.004 62.1836 188.738C60.9649 188.274 60.0672 186.371 57.8291 186.245C56.9287 187.742 55.4486 189.298 55.6866 191.619C56.5456 192.002 57.4045 192.385 58.1238 192.547C57.8624 194.566 55.984 194.521 54.5247 195.137C54.2038 196.576 53.8027 198.375 53.4818 199.814C49.4843 200.803 45.8879 199.992 42.6926 197.382C41.5154 195.039 40.2581 193.054 39.0809 190.711C38.0435 188.587 36.7861 186.603 35.389 184.399C35.2106 182.658 34.6725 180.836 34.714 178.956C35.1566 175.276 35.3792 171.736 35.4622 167.976C35.4027 167.396 35.7831 166.537 36.0832 166.038C36.6241 164.459 37.1649 162.88 36.4069 161.198C36.1274 160.757 36.2879 160.037 36.4483 159.317C37.4912 154.64 36.8757 149.777 37.4192 144.798C37.4607 142.917 37.8618 141.118 38.4026 139.54C39.6447 135.663 39.725 135.303 38.2891 131.578C39.7692 130.022 41.6891 128.187 42.8897 126.19C44.3103 124.054 46.3491 123.38 47.8292 121.824C48.8099 119.967 49.5706 118.249 50.5513 116.391C51.431 115.834 52.7506 114.997 54.5101 113.882C54.4506 113.302 54.3316 112.141 54.3524 111.201C56.192 109.726 57.5919 108.53 59.2116 107.195C59.5712 107.276 60.2905 107.438 61.0098 107.6C61.4497 107.321 61.7498 106.822 62.1897 106.543C62.909 106.706 63.6283 106.868 63.9879 106.949C65.0876 106.252 65.4887 104.453 65.0128 99.8105C65.4527 99.5317 65.5329 99.1719 65.9727 98.8931C66.692 99.0553 67.4113 99.2174 68.1306 99.3795C70.4696 98.2062 72.0299 96.2904 72.7311 93.992C73.4324 91.6937 75.0522 90.3582 76.8116 89.2431C77.9113 88.5462 78.6513 87.7682 79.531 87.2107C80.7316 85.2139 81.852 83.5769 82.7525 82.0792C83.9531 80.0824 84.5742 78.1439 84.1163 75.9622C83.7387 73.4206 84.3002 70.9018 85.3017 68.1042C85.7001 69.7057 85.6793 70.6458 85.8785 71.4465C86.4581 71.3882 87.0376 71.3299 87.8372 71.1322C88.8178 69.2747 89.4389 67.3362 90.4998 65.1189C91.5787 65.3621 92.0781 65.6636 92.7171 66.1856C93.1363 66.8469 93.1957 67.4272 93.6149 68.0885C93.9745 68.1696 94.5541 68.1113 94.774 67.9719C96.0936 67.1356 94.3369 64.8501 96.3757 64.1759ZM150.167 70.2543C150.604 73.3761 151.041 76.4979 151.338 79.3993C151.517 81.1402 151.835 83.1014 152.233 84.7029C152.632 86.3043 153.25 87.7664 155.248 88.9724C155.23 86.512 155.491 84.4924 155.393 82.3917C154.477 78.0283 151.962 74.0602 150.167 70.2543ZM156.6 96.4577C156 97.4561 155.56 97.7349 155.48 98.0947C156.378 99.9977 157.056 102.04 158.093 104.163C158.613 103.525 158.833 103.385 159.273 103.107C158.235 100.983 157.558 98.941 156.6 96.4577ZM101.954 184.853C104.272 184.62 106.011 184.445 107.75 184.27C108.549 184.073 109.209 183.654 108.73 182.413C106.272 182.426 104.373 183.32 101.954 184.853ZM120.49 72.0678C120.029 73.2867 119.429 74.2851 118.828 75.2835C119.467 75.8055 119.887 76.4668 120.665 77.2092C121.866 75.2124 122.187 73.7731 120.49 72.0678ZM145.156 113.907C144.475 115.266 144.594 116.426 146.312 117.191C146.633 115.752 146.874 114.672 145.156 113.907ZM116.936 167.634C114.579 166.347 114.579 166.347 113.877 168.645C115.016 169.469 115.895 168.911 116.936 167.634ZM132.051 108.308C131.59 109.527 131.21 110.386 130.969 111.465C130.969 111.465 131.329 111.546 131.469 111.767C132.568 111.07 132.949 110.211 132.051 108.308ZM155.845 91.3746C154.526 92.2109 154.725 93.0116 155.064 94.0328C155.203 94.2532 155.423 94.1139 155.923 94.4154C155.943 93.4753 155.744 92.6746 155.845 91.3746ZM116.201 161.611C116.62 162.272 116.9 162.713 117.458 163.595C117.839 162.736 118.139 162.237 118.519 161.378C117.72 161.575 117.14 161.634 116.201 161.611ZM85.5412 93.2894C85.1816 93.2083 85.0419 92.9879 84.8219 93.1272C84.5218 93.6264 84.3613 94.3461 84.0612 94.8453C84.2009 95.0658 84.4208 94.9264 84.5605 95.1468C85.0806 94.5082 85.3808 94.009 85.5412 93.2894ZM112.707 182.364C112.847 182.585 112.847 182.585 112.767 182.945C112.987 182.805 113.566 182.747 113.786 182.608C113.646 182.387 113.507 182.167 113.727 182.027C113.367 181.946 113.147 182.086 112.707 182.364ZM168.125 78.6483C168.345 78.5089 168.705 78.59 168.925 78.4506C168.645 78.0097 168.506 77.7892 168.226 77.3484C168.006 77.4877 168.006 77.4877 167.786 77.6271C167.706 77.987 167.846 78.2074 168.125 78.6483Z" fill="#FFEB26"/>
<path d="M60.279 199.834C59.5209 198.152 59.1821 197.13 60.5016 196.294C60.9208 196.955 61.3399 197.617 62.1187 198.359C61.5986 198.998 60.9388 199.416 60.279 199.834Z" fill="#FFEB26"/>
<path d="M96.3974 63.2362C96.4776 62.8766 96.4776 62.8766 96.4776 62.8766C96.4776 62.8766 96.4776 62.8766 96.3974 63.2362Z" fill="#FFEB26"/>
<path d="M96.5155 64.3958C96.5956 64.0362 96.3164 63.5957 96.3966 63.2361C96.3164 63.5957 96.456 63.8159 96.5155 64.3958Z" fill="#FFEB26"/>
<g clip-path="url(#clip1)">
<path d="M173.452 84.4178C170.483 74.1122 166.469 63.2003 160.64 54.107C156.846 48.1551 150.688 43.2503 143.43 45.7854C142.55 45.5098 142.44 45.7303 141.066 46.3916C136.722 48.4307 132.323 53.3355 128.584 56.3666C120.007 63.2554 111.429 70.1442 102.906 77.033C89.0502 88.3307 74.9191 99.463 61.0629 110.816C61.0079 110.816 61.0079 110.871 60.9529 110.871C57.5439 113.681 54.0798 116.547 50.6707 119.413C50.2309 119.799 50.1759 120.295 50.3408 120.681C44.1825 128.892 53.0901 149.503 64.087 145.701C64.307 145.646 64.417 145.535 64.5269 145.37C65.7366 145.315 66.9463 145.26 68.1559 145.205C68.2109 145.205 68.2109 145.26 68.2659 145.26C68.6508 145.425 68.9807 145.37 69.2556 145.15C69.5305 145.15 69.8605 145.094 70.1354 145.094C78.2182 158.541 76.5686 172.595 71.1801 186.923C70.0254 189.899 68.4309 192.93 71.675 195.08C75.7988 197.835 84.1015 197.284 88.6103 196.513C90.4248 196.182 91.9094 195.576 93.174 194.749C101.752 193.922 105.216 183.892 105.876 176.177C106.865 164.548 105.986 152.424 101.312 141.678C106.37 140.961 111.429 140.19 116.433 139.473C126.22 137.985 136.117 136.332 145.85 134.293C145.85 134.348 145.795 134.348 145.795 134.403C145.575 134.679 145.959 135.009 146.179 134.789C146.344 134.568 146.509 134.348 146.674 134.127C155.087 132.364 163.39 130.325 171.582 127.79C172.132 127.624 172.407 127.239 172.462 126.798C184.449 120.019 176.311 94.3377 173.452 84.4178ZM63.9771 143.717C63.9221 143.717 63.9221 143.717 63.9221 143.717C57.3239 143.937 54.0798 138.536 52.3203 132.97C51.0007 128.892 51.2756 125.31 52.3203 121.342C52.3753 121.287 52.4852 121.287 52.5402 121.232C54.6846 119.578 56.7741 117.925 58.8635 116.272C56.1142 125.696 57.7088 137.379 65.6266 143.496C65.0218 143.551 64.4719 143.606 63.9771 143.717ZM68.4858 142.945C60.3481 134.403 58.5336 125.64 61.1729 114.343C61.8877 113.792 62.5475 113.241 63.2623 112.689C59.1384 122.94 62.4375 135.119 70.7402 142.614C69.9704 142.725 69.2556 142.835 68.4858 142.945ZM97.078 176.011C96.3082 183.617 95.6484 192.765 86.081 193.757C83.7166 193.977 81.2423 193.977 78.878 193.812C74.6991 193.481 73.0496 192.6 73.5444 188.907C75.6889 188.962 77.7783 188.962 79.9227 188.907C80.3076 188.907 80.3076 188.301 79.9227 188.301C77.8333 188.246 75.7438 188.246 73.6544 188.301C73.7094 188.081 73.7644 187.86 73.7644 187.64C74.0943 186.097 74.5342 184.554 74.974 183.066C77.2284 183.176 79.4828 183.396 81.7372 183.727C82.0671 183.782 82.1221 183.231 81.7922 183.176C79.5928 182.735 77.3384 182.514 75.084 182.514C75.6339 180.586 76.1837 178.767 76.7336 176.893C79.0979 177.003 81.5172 177.003 83.8816 176.893C84.3215 176.893 84.3215 176.232 83.8816 176.232C81.5722 176.177 79.2629 176.122 76.9535 176.232C77.5034 174.193 77.9982 172.099 78.3831 170.004C81.9571 169.949 85.4762 170.115 88.9952 170.39C89.4351 170.445 89.3801 169.784 88.9952 169.729C85.4762 169.343 81.9571 169.288 78.4381 169.508C78.768 167.469 78.933 165.43 78.878 163.226C80.8024 163.336 82.7269 163.336 84.6514 163.281C84.9813 163.281 84.9813 162.73 84.6514 162.73C82.7269 162.675 80.8024 162.675 78.878 162.785C78.878 162.675 78.878 162.564 78.878 162.399C78.768 160.36 78.4931 158.376 78.0532 156.392C80.6375 156.557 83.1668 156.668 85.7511 156.723C86.136 156.723 86.136 156.117 85.7511 156.117C83.1668 155.951 80.5275 155.896 77.9432 155.841C77.3934 153.637 76.6236 151.487 75.6339 149.448C78.3831 149.503 81.1873 149.558 83.9366 149.448C84.3215 149.448 84.3215 148.842 83.9366 148.842C81.0774 148.732 78.2182 148.787 75.304 148.842C74.5892 147.464 73.7644 146.197 72.7747 144.984C79.3179 144.543 85.861 143.827 92.3493 142.945C92.3493 143.166 92.4042 143.441 92.5692 143.606C96.2532 147.96 96.7481 156.337 97.1879 161.683C97.6278 166.422 97.5728 171.217 97.078 176.011ZM103.621 168.682C103.511 176.232 102.796 184.443 97.6828 189.403C99.7722 184.774 100.047 178.767 100.377 173.642C100.817 167.084 100.432 160.525 99.2224 154.077C98.4526 149.889 97.7928 145.48 94.6036 142.614C96.0332 142.449 97.4629 142.229 98.8925 142.008C102.686 150.33 103.731 159.533 103.621 168.682ZM149.259 130.435C149.973 129.223 150.578 127.9 151.073 126.522C151.238 126.026 150.523 125.861 150.303 126.302C149.753 127.79 149.094 129.223 148.324 130.6C144.255 131.482 140.186 132.364 136.117 133.135C138.756 128.947 140.901 124.483 142.66 119.909C142.77 119.578 142.276 119.358 142.111 119.689C140.076 124.428 137.712 128.892 135.182 133.356C131.993 133.962 128.859 134.568 125.67 135.119C126.825 133.08 127.76 130.931 128.419 128.672C128.529 128.286 127.924 128.12 127.814 128.506C127.045 130.821 126.055 133.08 124.9 135.23C122.316 135.671 119.677 136.111 117.037 136.552C116.543 136.607 116.103 136.663 115.608 136.773C116.873 134.238 118.082 131.703 119.237 129.112C119.402 128.727 118.852 128.341 118.632 128.782C117.312 131.427 116.048 134.183 114.838 136.883C111.869 137.324 108.9 137.71 105.876 138.095C108.13 133.576 110.329 128.947 112.254 124.263C112.419 123.822 111.704 123.546 111.539 123.932C109.23 128.561 107.14 133.356 105.161 138.206C103.456 138.426 101.752 138.647 100.047 138.867C99.7722 138.481 99.3323 138.426 99.0024 138.481C100.157 136.277 101.092 134.017 101.807 131.648C101.917 131.262 101.312 131.096 101.202 131.482C100.322 134.127 99.2224 136.607 98.0127 139.087C94.9336 139.473 91.8544 139.804 88.7752 140.19C88.9952 139.859 89.1601 139.528 89.3251 139.253C90.3698 137.103 91.3046 134.954 92.2943 132.75C92.4592 132.419 91.9644 132.143 91.8544 132.474C91.2496 133.742 90.6447 135.064 90.0399 136.332C89.8749 136.663 88.2804 140.465 87.8955 140.135C87.7305 139.969 87.4556 140.135 87.5106 140.355C85.6961 140.575 83.9366 140.796 82.1771 141.016C83.4417 139.143 84.3765 137.048 85.1462 134.954C85.3112 134.568 84.6514 134.403 84.5414 134.789C83.6617 136.993 82.6169 139.032 81.6272 141.127C79.4278 141.402 77.2284 141.733 75.029 142.008C76.5136 139.363 77.9982 136.663 79.3728 133.962C79.5928 133.576 78.9879 133.246 78.823 133.631C77.2834 136.442 75.7438 139.253 74.3142 142.118C74.0393 142.174 73.8194 142.174 73.5444 142.229C72.2248 140.961 71.1251 139.694 70.0804 138.371C70.1354 138.371 70.1354 138.316 70.1904 138.316C71.8399 134.734 73.2695 130.986 74.8091 127.349C74.974 126.908 74.2592 126.688 74.0943 127.128C72.6647 130.766 71.1801 134.348 69.8605 138.04C68.2659 135.891 67.0012 133.687 66.0665 131.372C66.0665 131.372 66.1215 131.372 66.1215 131.317C66.7813 128.727 67.716 126.192 68.9257 123.822C69.1457 123.381 68.5408 123.05 68.3209 123.436C67.1112 125.64 66.2864 127.955 65.7366 130.38C65.0218 128.341 64.5819 126.247 64.307 124.097C64.362 124.097 64.362 124.042 64.362 123.987C65.5716 120.625 67.0562 117.374 68.7608 114.177C68.9257 113.847 68.4309 113.571 68.2659 113.902C66.5614 116.878 65.2417 119.909 64.197 123.16C63.9221 119.358 64.307 115.39 65.4067 111.257C76.6236 102.219 87.7305 93.015 98.9474 83.9218C106.48 77.8046 113.958 71.7424 121.436 65.6251C125.175 62.5941 128.914 59.5079 132.653 56.4768C134.578 54.9337 136.502 53.0599 138.537 51.3515C134.028 61.8225 136.997 84.3627 138.097 89.7635C140.571 101.723 147.334 123.656 161.245 127.735C157.066 128.616 153.163 129.553 149.259 130.435ZM164.654 125.144C151.128 124.042 144.255 103.155 141.451 92.2986C139.636 85.3547 138.701 78.2454 138.701 71.0811C138.701 63.3656 138.427 52.7293 145.41 48.2102C159.211 46.116 166.909 73.2304 169.878 82.9298C172.902 92.7946 183.459 126.632 164.654 125.144Z" fill="#272727"/>
<path d="M171.529 116.713C166.47 122.003 161.907 122.609 157.948 118.531C156.958 117.705 156.078 116.768 155.198 115.831C153.549 113.902 152.174 111.808 151.02 109.548C148.6 104.864 147.171 99.7386 146.016 94.6684C143.981 85.961 136.394 56.0911 148.765 52.0129C149.15 51.9027 149.04 51.4067 148.655 51.3516C139.693 50.4698 140.792 64.4679 140.847 70.0891C141.012 81.1112 142.937 92.4089 146.401 102.88C148.82 110.32 152.834 118.641 160.257 122.279C165.426 124.814 172.464 123.712 172.574 116.878C172.574 116.272 171.639 116.106 171.529 116.713Z" fill="#272727"/>
<path d="M147.885 80.0092C147.281 79.7887 146.841 80.7807 147.445 81.1114C153.824 84.1976 156.463 90.7006 154.209 97.4241C153.714 98.9672 156.023 99.5183 156.573 98.0854C159.487 90.4802 155.528 82.3789 147.885 80.0092Z" fill="#272727"/>
<path d="M199.295 67.8296C192.257 70.1442 184.834 73.7815 178.345 77.3086C177.906 77.5842 178.18 78.3006 178.675 78.1353C185.823 76.0962 193.631 73.506 200.284 70.1993C201.604 69.538 200.669 67.3887 199.295 67.8296Z" fill="#272727"/>
<path d="M202.812 42.3135C192.2 48.541 182.193 56.036 171.966 62.8697C171.141 63.4208 171.856 64.5781 172.735 64.1924C183.842 58.7364 195.169 52.6743 204.792 44.9037C206.221 43.6913 204.352 41.4317 202.812 42.3135Z" fill="#272727"/>
<path d="M177.412 35.4798C174.883 36.5269 172.958 39.062 171.034 40.9908C168.89 43.085 166.8 45.1792 165.041 47.6041C164.601 48.2103 165.481 49.037 166.085 48.6512C168.45 47.1081 170.594 45.1792 172.739 43.3055C174.718 41.542 177.577 39.6682 178.787 37.2433C179.117 36.4167 178.457 35.094 177.412 35.4798Z" fill="#272727"/>
<path d="M199.737 83.0402C196.932 83.2055 194.238 84.8037 191.654 85.9059C189.015 87.0081 186.32 88.0552 183.791 89.3228C182.801 89.8188 183.516 91.1965 184.506 90.9761C187.64 90.3699 190.609 89.3228 193.578 88.2206C195.998 87.3388 198.637 86.6775 200.561 84.9139C201.221 84.3628 200.726 82.9851 199.737 83.0402Z" fill="#272727"/>
<path d="M216.892 107.785C207.049 104.092 194.073 101.778 183.516 102.108C182.636 102.108 182.526 103.321 183.296 103.596C188.959 105.525 195.063 106.352 200.891 107.454C206.06 108.446 211.283 109.714 216.562 110.044C217.991 110.155 218.046 108.226 216.892 107.785Z" fill="#272727"/>
<path d="M204.078 123.161C201.383 121.287 197.809 120.57 194.675 119.744C191.981 118.972 188.902 117.87 186.098 118.421C185.658 118.531 185.493 119.138 185.823 119.413C187.912 121.122 190.716 121.618 193.246 122.554C196.38 123.657 199.624 125.475 202.923 125.971C204.572 126.137 205.507 124.153 204.078 123.161Z" fill="#272727"/>
</g>
</g>
<defs>
<clipPath id="clip0">
<rect width="240" height="240" fill="white"/>
</clipPath>
<clipPath id="clip1">
<rect width="169.353" height="161.694" fill="white" transform="translate(48.3633 35.4246)"/>
</clipPath>
</defs>
</svg>
