<svg width="240" height="240" viewBox="0 0 240 240" fill="none" xmlns="http://www.w3.org/2000/svg">
<g clip-path="url(#clip0)">
<path d="M94.9778 33.3356C94.5578 33.2457 93.9277 33.1108 93.4628 33.2304L93.418 33.4399C93.8829 33.3203 94.3029 33.4103 94.9778 33.3356Z" fill="#FFEB26"/>
<path d="M128.516 207.055C128.936 207.145 129.566 207.28 130.031 207.161L130.075 206.951C129.655 206.861 128.981 206.936 128.516 207.055Z" fill="#FFEB26"/>
<path d="M174.095 48.5212C172.58 48.416 170.796 49.568 169.147 50.0914C167.497 50.6148 165.892 50.9286 164.453 51.497C163.792 50.479 163.297 49.7155 162.801 48.9521C160.956 48.3379 159.321 47.7687 157.475 47.1545C156.666 47.8577 155.856 48.561 154.792 49.4288C153.997 49.0394 153.246 48.4405 152.076 47.7517C150.787 49.6671 149.544 51.373 148.255 53.2885C147.984 51.4774 147.458 49.8308 147.186 48.0197C146.766 47.9298 146.556 47.8848 146.136 47.7949C145.402 49.1717 144.878 50.5934 143.934 51.9252C143.424 52.2544 142.66 52.7481 141.895 53.2418C142.015 53.7058 142.181 53.9603 142.511 54.4693C141.791 54.7534 141.281 55.0826 140.562 55.3667C140.111 54.3937 139.87 53.4657 139.75 53.0017C137.501 54.2733 135.462 55.5898 132.958 57.0259C132.703 57.1905 132.448 57.3551 131.983 57.4747C131.939 57.6842 131.684 57.8488 131.639 58.0583C127.599 51.277 124.445 44.466 117.422 40.3331C117.333 40.7522 116.988 41.3358 116.898 41.7549C115.683 41.2756 114.468 40.7963 113.208 40.5265C112.037 39.8377 111.122 38.9843 109.786 38.041C109.022 38.5347 108.257 39.0284 108.002 39.1929C105.647 38.9079 103.667 38.9223 101.522 38.6822C100.817 37.8738 99.9459 36.8109 99.2404 36.0024C98.7306 36.3316 98.2657 36.4512 98.2657 36.4512C96.765 35.2534 95.8943 34.1905 94.7688 33.2921C95.3846 34.5196 95.9555 35.9566 96.5713 37.1841C96.3164 37.3487 96.3164 37.3487 96.0616 37.5132C95.0257 36.1958 93.945 35.0879 93.1192 33.8155C93.164 33.606 93.2089 33.3964 93.2538 33.1869C92.1588 33.1716 91.0638 33.1564 89.9689 33.1411C89.8486 32.6771 89.5631 31.9586 89.3673 30.821C85.0181 31.643 80.4425 30.4443 76.3196 33.2869C73.516 35.0972 70.6226 37.3265 66.8422 36.5172C65.2681 37.7141 63.8143 39.375 62.3748 39.9434C59.7057 41.125 58.5822 43.295 57.8339 45.7644C57.2651 47.3956 56.321 48.7274 55.5421 50.3137C55.3321 50.2688 55.1221 50.2238 54.9569 49.9693C52.7427 58.2605 50.6181 66.1327 48.5384 73.7953C48.1796 75.4716 47.7759 77.3573 47.207 78.9886C46.5036 81.2484 45.1252 83.5829 44.4218 85.8428C43.0007 91.4551 41.7896 97.1124 40.5785 102.77C40.3542 103.817 40.3848 104.7 39.0798 104.64C39.0207 105.942 38.9167 107.454 38.8127 108.966C36.6555 112.886 36.0724 115.61 36.5109 120.744C36.6169 122.301 36.3029 123.767 34.4433 124.246C34.4291 125.338 34.4597 126.222 34.4454 127.314C34.686 128.242 35.1815 129.006 35.2121 129.889C35.0796 133.586 34.7371 137.238 34.6047 140.934C34.5007 142.446 34.3967 143.958 34.2479 145.679C34.4579 145.724 34.4579 145.724 34.6679 145.769C34.0685 146.517 33.679 147.31 33.3793 147.684C33.5935 153.866 33.9423 159.419 34.291 164.972C34.6092 169.642 34.0424 174.341 34.9906 179.146C35.9388 183.951 39.5255 186.691 42.8125 189.805C44.2684 191.212 47.2087 191.841 49.3537 192.082C50.8687 192.187 52.6529 191.035 54.3024 190.511C55.952 189.988 57.5567 189.674 58.9963 189.106C59.6569 190.124 60.1524 190.887 60.6479 191.651C62.4933 192.265 64.1286 192.834 65.9739 193.448C66.7834 192.745 67.5929 192.042 68.6572 191.174C69.4525 191.563 70.2028 192.162 71.3732 192.851C72.6619 190.936 73.9057 189.23 75.1943 187.314C75.4655 189.125 75.9916 190.772 76.2628 192.583C76.6829 192.673 76.8929 192.718 77.3129 192.808C78.047 191.431 78.781 190.054 79.515 188.678C80.0248 188.348 80.7894 187.855 81.554 187.361C81.4337 186.897 81.2686 186.642 80.9382 186.134C81.658 185.849 82.1678 185.52 82.8875 185.236C83.3382 186.209 83.5788 187.137 83.6991 187.601C85.9481 186.329 87.9871 185.013 90.4911 183.577C90.7459 183.412 91.0008 183.248 91.4657 183.128C91.5106 182.919 91.7654 182.754 91.8103 182.544C95.7294 188.862 99.0939 195.718 105.951 199.596C106.041 199.177 106.386 198.593 106.475 198.174C107.691 198.654 108.906 199.133 110.166 199.403C111.336 200.092 112.252 200.945 113.587 201.888C114.307 201.604 115.072 201.11 115.327 200.946C117.682 201.231 119.662 201.216 121.807 201.457C122.512 202.265 123.383 203.328 124.088 204.136C124.598 203.807 125.063 203.688 125.063 203.688C126.564 204.885 127.435 205.948 128.56 206.847C127.944 205.619 127.373 204.182 126.758 202.955C127.012 202.79 127.012 202.79 127.267 202.626C128.303 203.943 129.384 205.051 130.21 206.323C130.165 206.533 130.12 206.742 130.075 206.952C131.17 206.967 132.265 206.982 133.36 206.998C133.48 207.462 133.766 208.18 133.962 209.318C138.311 208.496 142.886 209.694 147.009 206.852C149.813 205.042 152.706 202.812 156.487 203.622C158.061 202.425 159.515 200.764 160.954 200.195C163.623 199.014 164.747 196.844 165.495 194.374C166.064 192.743 167.008 191.411 167.787 189.825C167.997 189.87 168.207 189.915 168.372 190.169C170.452 182.507 172.576 174.635 174.866 167.017C175.225 165.341 175.628 163.455 176.197 161.824C176.901 159.564 178.279 157.229 178.983 154.969C180.538 148.729 181.749 143.071 182.96 137.414C183.185 136.366 183.154 135.483 184.459 135.544C184.518 134.241 184.622 132.73 184.726 131.218C186.883 127.297 187.466 124.573 187.028 119.44C186.922 117.883 187.236 116.416 189.096 115.938C189.11 114.845 189.079 113.962 189.093 112.87C188.853 111.942 188.357 111.178 188.327 110.295C188.459 106.598 188.802 102.946 188.934 99.2493C189.038 97.7377 189.142 96.226 189.291 94.5048C189.081 94.4599 189.081 94.4599 188.871 94.4149C189.47 93.6667 189.86 92.8736 190.16 92.4995C189.945 86.3179 189.597 80.765 189.248 75.2121C188.93 70.5422 189.286 65.7977 188.338 60.9929C187.39 56.1882 183.803 53.4482 180.516 50.3341C179.226 49.1812 176.285 48.5518 174.095 48.5212ZM101.317 89.915C101.407 89.4959 101.496 89.0769 101.541 88.8673C101.751 88.9123 101.751 88.9123 101.961 88.9573C101.872 89.3763 101.782 89.7954 101.737 90.0049C101.737 90.0049 101.527 89.9599 101.317 89.915ZM104.108 92.2656C103.929 93.1037 103.96 93.9868 103.78 94.8249C103.57 94.78 103.36 94.735 103.15 94.69C103.54 93.8969 103.719 93.0588 104.108 92.2656ZM98.9232 99.0443C99.3739 100.017 99.7491 100.317 99.6594 100.736C99.5696 101.155 99.4799 101.574 99.2251 101.738C99.015 101.694 99.015 101.694 98.7602 101.858C98.8947 101.23 98.8193 100.556 98.9232 99.0443ZM70.8726 118.239C71.0826 118.284 71.3375 118.12 71.5475 118.165C71.6678 118.629 71.7433 119.302 72.0736 119.811C71.8636 119.766 71.8187 119.976 71.6087 119.931C71.2784 119.422 71.2029 118.748 70.8726 118.239ZM76.3623 162.364C74.9064 160.957 74.5903 159.355 75.879 157.44C77.7549 158.937 78.1628 163.188 76.3501 166.525C76.2441 164.969 76.3032 163.666 76.3623 162.364ZM122.177 150.478C122.087 150.897 121.998 151.316 121.953 151.526C121.743 151.481 121.743 151.481 121.533 151.436C121.623 151.017 121.712 150.598 121.757 150.388C121.757 150.388 121.967 150.433 122.177 150.478ZM119.386 148.128C119.565 147.29 119.534 146.406 119.714 145.568C119.924 145.613 120.134 145.658 120.344 145.703C119.955 146.496 119.565 147.29 119.386 148.128ZM124.571 141.349C124.12 140.376 123.745 140.076 123.835 139.657C123.924 139.238 124.014 138.819 124.269 138.655C124.479 138.7 124.479 138.7 124.734 138.535C124.599 139.164 124.675 139.837 124.571 141.349ZM152.621 122.154C152.411 122.109 152.157 122.274 151.947 122.229C151.826 121.765 151.751 121.091 151.42 120.582C151.63 120.627 151.675 120.417 151.885 120.462C152.216 120.971 152.291 121.645 152.621 122.154ZM147.132 78.029C148.588 79.4363 148.904 81.0379 147.615 82.9533C145.739 81.4561 145.331 77.2053 147.144 73.8681C147.04 75.3797 147.026 76.4724 147.132 78.029Z" fill="#FFEB26"/>
</g>
<path fill-rule="evenodd" clip-rule="evenodd" d="M140.663 61.5921C141.93 61.2759 143.323 61.0861 144.653 61.2126C153.582 62.0982 161.371 75.3809 152.822 81.7692C153.075 82.0855 153.265 82.5282 153.139 83.0343C150.308 97.9226 145.651 112.53 141.025 127.04C139.44 132.009 137.859 136.967 136.357 141.921C133.318 152.102 130.216 162.283 127.113 172.464L127.112 172.468L127.111 172.471C126.7 173.792 126.322 175.205 125.935 176.656C124.652 181.458 123.258 186.68 120.145 190.371H120.145C120.113 190.371 120.098 190.371 120.09 190.379C120.082 190.387 120.082 190.403 120.082 190.435C115.802 197.273 104.294 193.777 96.6617 191.459L96.6613 191.459C95.2582 191.033 93.9861 190.646 92.9141 190.371C90.9904 189.884 89.0306 189.402 87.0482 188.915L87.0477 188.915L87.0475 188.915L87.0474 188.915L87.0466 188.914C75.3905 186.048 62.9563 182.991 52.511 177.531C52.1944 177.595 51.8777 177.531 51.6244 177.215C51.5927 177.183 51.5611 177.136 51.5294 177.089C51.4978 177.041 51.4661 176.994 51.4344 176.962C51.3395 176.899 51.2447 176.851 51.1498 176.804L51.1495 176.804C51.0545 176.757 50.9595 176.709 50.8645 176.646C50.5478 176.519 50.5478 176.203 50.6745 176.013C48.0147 172.661 45.4816 169.056 43.7084 165.134C42.0619 163.426 41.1753 161.276 41.9353 158.619C41.9288 158.593 41.9223 158.568 41.916 158.544C41.8603 158.327 41.8151 158.151 41.8719 157.924C43.7976 148.2 46.5265 138.577 49.2558 128.952C51.3733 121.485 53.4911 114.017 55.2341 106.5C57.1684 98.2894 58.8143 90.0064 60.4608 81.72L60.4608 81.7199C62.2642 72.6442 64.0683 63.5645 66.2531 54.5713C66.3164 54.255 66.5698 54.1285 66.8231 54.0653C67.583 51.7882 69.9895 50.5865 72.9025 50.5232C74.1691 50.5232 75.4356 50.6497 76.7655 50.966C78.5387 48.1197 81.0718 45.7794 84.3015 44.7674C89.3677 43.1861 94.054 45.4631 96.4605 49.2582C97.6637 48.7522 98.8669 48.3727 100.133 48.2462C103.996 47.7402 108.176 49.7642 110.456 52.9268C111.596 52.3575 112.799 51.8515 114.129 51.6617C118.499 50.966 123.248 53.1798 125.781 56.7218C126.414 56.4688 126.984 56.2791 127.618 56.1526C131.861 55.2038 137.877 57.6073 140.663 61.5921ZM129.264 60.3271C128.631 60.3904 128.061 60.5169 127.491 60.6434C127.744 61.9717 127.681 63.3632 127.301 64.8812L133.571 66.589C134.33 65.5137 135.28 64.5649 136.357 63.7427C136.104 63.3632 135.85 62.9837 135.534 62.6674C133.887 61.0229 131.607 60.1374 129.264 60.3271ZM124.04 63.3632L124.039 63.3613V63.3612C124.008 63.1563 123.976 62.9513 123.945 62.7307C123.628 63.0469 123.311 63.3632 123.121 63.7427L124.135 63.9957C124.103 63.7743 124.071 63.5687 124.04 63.3632ZM114.256 54.8875C113.369 55.0773 112.609 55.3303 111.912 55.7098C112.419 57.2911 112.482 58.9356 111.912 60.6434C114.445 61.2759 116.978 61.9716 119.512 62.6674L119.512 62.6674C120.208 61.1494 121.222 59.7579 122.551 58.6193C120.968 55.8363 118.309 54.1285 114.256 54.8875ZM107.353 55.3303C105.896 52.484 102.857 51.2822 99.6902 51.8515C99.0569 51.978 98.4236 52.1045 97.8537 52.2942C98.1703 53.749 98.297 55.267 97.9803 56.8483C98.5819 57.0064 99.1677 57.1646 99.7535 57.3227C100.339 57.4808 100.925 57.639 101.527 57.7971C102.128 57.9552 102.746 58.1292 103.363 58.3031L103.363 58.3031C103.981 58.4771 104.598 58.651 105.2 58.8091C105.706 57.5441 106.403 56.3423 107.353 55.3303ZM92.7241 50.9027C91.2676 48.5624 88.7978 47.8034 86.138 48.3094C83.7949 48.7522 81.9584 50.1437 80.5019 51.978C81.3896 52.244 82.2635 52.5376 83.1236 52.8266C84.1042 53.156 85.0668 53.4795 86.0114 53.749C86.6446 53.9071 87.2779 54.0811 87.9112 54.255C88.5445 54.429 89.1778 54.6029 89.811 54.761C90.6343 53.4328 91.7109 52.2942 92.9141 51.2822L92.7241 50.9027ZM47.7587 160.274C46.5769 160.058 45.396 159.843 44.2151 159.631C46.4608 167.023 59.9774 170.594 69.1833 173.026C71.3998 173.611 73.3665 174.131 74.8657 174.622C85.3781 177.848 95.9538 180.884 106.53 183.793C106.973 183.92 107.226 184.109 107.353 184.426C113.181 183.241 116.404 168.8 118.256 160.507C118.677 158.618 119.028 157.047 119.322 156.026C120.619 151.569 121.917 147.096 123.215 142.623L123.216 142.617C124.515 138.142 125.813 133.667 127.111 129.208C129.117 122.316 131.068 115.406 133.02 108.495L133.02 108.495C136.245 97.0756 139.471 85.6538 142.943 74.3056C142.69 74.0526 142.5 73.6098 142.626 73.1038C142.753 72.5978 140.22 71.5858 136.42 70.384C135.85 72.0286 135.597 73.9261 135.724 75.8236C135.782 75.9019 135.841 75.9741 135.898 76.0439L135.898 76.0442C136.025 76.2002 136.143 76.3447 136.23 76.5194C137.054 78.0374 136.547 79.8085 135.154 80.694C133.825 81.5155 131.674 81.0742 130.976 79.6224C130.095 78.39 130.179 76.7978 131.227 75.6339C131.417 75.4441 131.607 75.3176 131.797 75.1911C131.227 73.1038 131.481 71.0166 132.241 69.119C129.011 68.1703 125.401 67.1582 121.918 66.2095C121.475 67.4745 121.348 68.8028 121.412 70.1943C121.982 70.4473 122.425 70.8268 122.678 71.3961C122.678 71.4277 122.694 71.4435 122.71 71.4593C122.726 71.4751 122.741 71.4909 122.741 71.5226C123.501 73.2936 123.058 75.3176 121.158 76.1399C119.512 76.8357 117.169 76.0134 116.789 74.0526V73.9261C116.535 72.3448 117.105 70.7636 118.688 70.131H118.752C118.435 68.5498 118.435 66.9052 118.752 65.3872C113.749 63.9957 109.379 62.8572 107.416 62.3512C107.163 63.8059 107.163 65.324 107.479 66.842C108.429 67.4112 108.999 68.4865 109.063 69.625C109.126 71.3961 107.479 72.9141 105.77 72.9141C103.933 72.9141 102.54 71.3961 102.477 69.625C102.413 68.1703 103.49 66.9685 104.82 66.5257C104.376 64.8812 104.313 63.1734 104.566 61.5289C103.624 61.2262 102.484 60.8341 101.195 60.3906L101.194 60.3906L101.194 60.3905C100.059 60 98.808 59.5696 97.4737 59.1254C96.7138 60.9596 93.864 60.6434 93.8007 58.4928V57.9236C93.2941 57.7338 92.7874 57.5441 92.2808 57.4176C91.5209 58.8091 91.1409 60.3904 91.1409 62.0349C91.7109 62.1614 92.2175 62.4777 92.6608 62.8572C93.674 63.7427 93.864 65.2607 93.3574 66.3992C92.9774 67.348 91.8375 68.36 90.6976 68.36C89.8744 68.613 88.9878 68.4865 88.2278 67.854C87.2779 67.095 86.708 65.5137 87.2146 64.3752C87.3413 63.6794 87.8479 63.0469 88.4178 62.6042C88.0379 60.4536 88.3545 58.3663 89.1778 56.4688C85.7581 55.52 82.3384 54.6978 79.172 54.1918C78.412 55.3935 77.4621 56.9748 77.4621 58.4296C78.1587 58.8091 78.792 59.5049 78.9187 60.4536C79.1087 61.7819 78.7287 62.9204 77.5888 63.6794C76.5755 64.3119 75.119 64.0589 74.2324 63.2999C74.2008 63.2683 74.1533 63.2367 74.1058 63.2051C74.0583 63.1734 74.0108 63.1418 73.9791 63.1102C73.5853 62.8644 73.2681 62.5039 73.0571 62.0883C73.0735 62.1441 72.9745 61.9418 72.7759 61.4656C72.7126 61.2126 72.6492 60.8964 72.6492 60.6434C72.5226 59.6314 73.4092 58.4928 74.3591 58.1133C74.4224 56.5953 74.9924 54.8875 75.499 53.6858C71.6993 53.496 68.7229 54.0653 67.6463 56.0261C67.393 58.6193 67.0764 61.1494 66.6964 63.6794C67.1318 63.8087 67.5695 63.938 68.0084 64.0677C69.9317 64.636 71.8814 65.212 73.7891 65.83C74.1691 65.9565 73.9791 66.589 73.5991 66.4625C72.0371 66.0408 70.475 65.5629 68.9129 65.085C68.1319 64.8461 67.3508 64.6071 66.5698 64.3752C66.1265 67.2847 65.6832 70.131 65.1765 73.0406C69.1662 72.9773 73.0925 73.2303 77.0188 73.8629C77.3355 73.8629 77.2088 74.3689 76.8922 74.3056C73.0292 73.7363 69.0395 73.4833 65.1132 73.4833C64.6699 75.9501 64.2266 78.3537 63.72 80.8205C66.7597 80.7572 69.7995 80.8837 72.8392 81.2632C73.2192 81.3265 73.2192 81.959 72.8392 81.8957C69.7995 81.5162 66.7597 81.3897 63.6567 81.453C63.5664 81.8951 63.476 82.3385 63.3855 82.7828L63.3825 82.7977L63.3818 82.8011L63.3817 82.8012L63.3817 82.8014L63.3817 82.8015L63.3817 82.8017C62.8389 85.466 62.2894 88.1632 61.6935 90.8141C63.5806 90.9616 65.4719 91.1049 67.3652 91.2483L67.3655 91.2483L67.3657 91.2483L67.366 91.2484L67.3662 91.2484C72.7795 91.6584 78.2096 92.0697 83.6049 92.5852C83.9849 92.5852 84.0482 93.2177 83.6049 93.2177L82.8127 93.1558C75.7897 92.607 68.7122 92.0539 61.6935 91.3834C61.6619 91.3834 61.646 91.3676 61.6302 91.3518C61.6144 91.336 61.5985 91.3201 61.5669 91.3201C60.9336 94.3562 60.237 97.4555 59.5404 100.492C62.7701 100.934 65.9365 101.124 69.1662 101.124C69.4828 101.124 69.4828 101.63 69.1662 101.63C65.9365 101.693 62.7068 101.44 59.4771 100.871C59.0338 102.579 58.6539 104.286 58.2739 105.994L58.2739 105.994L58.2739 105.994L58.2739 105.994L58.2739 105.994L58.2738 105.994C58.1788 106.374 58.0997 106.769 58.0205 107.165L58.0205 107.165L58.0205 107.165L58.0205 107.165L58.0205 107.165C57.9413 107.56 57.8622 107.955 57.7672 108.335C63.4034 108.588 69.0395 109.157 74.6124 110.169C74.9923 110.232 74.8024 110.801 74.4224 110.738C68.8496 109.853 63.2767 109.22 57.6405 108.777C57.32 110.129 57.0194 111.481 56.7164 112.844C56.4807 113.905 56.2434 114.972 55.994 116.051C59.857 115.925 63.72 116.178 67.5197 116.431C67.8363 116.431 67.8363 116.937 67.5197 116.937H67.5194C63.6565 116.874 59.7936 116.81 55.9307 116.431C55.6774 117.569 55.4241 118.724 55.1708 119.878C54.9175 121.032 54.6641 122.187 54.4108 123.325L55.1106 123.415L55.1115 123.415C60.7721 124.145 66.4866 124.881 72.1426 125.792C72.4592 125.855 72.3959 126.361 72.0793 126.298C66.3956 125.634 60.7697 124.796 55.0912 123.951L54.2842 123.831C54.1945 124.219 54.1049 124.609 54.015 124.999L54.0147 125.001L54.0147 125.001L54.0146 125.001L54.0146 125.001L54.0146 125.001C53.5331 127.093 53.0445 129.217 52.511 131.295C54.8326 131.469 57.1011 131.696 59.4138 131.927L60.047 131.991C60.3636 131.991 60.3636 132.497 60.047 132.497L59.4136 132.433C57.0823 132.201 54.7067 131.964 52.3843 131.674C51.7511 134.331 51.0545 136.924 50.3579 139.517C52.0677 139.581 53.7776 139.707 55.4874 139.897C55.804 139.96 55.804 140.403 55.4874 140.403C54.1749 140.403 52.8971 140.299 51.6027 140.194L51.6024 140.194L51.6021 140.194L51.6018 140.194L51.6015 140.194C51.1475 140.157 50.6915 140.12 50.2312 140.087C49.6613 142.237 49.028 144.388 48.3947 146.475C50.3579 146.538 52.321 146.665 54.2842 146.791C54.6008 146.791 54.6008 147.297 54.2842 147.297C52.2577 147.297 50.2312 147.171 48.2047 147.044C47.5715 149.131 46.8749 151.155 46.1784 153.179L46.1782 153.18C48.648 153.306 51.0545 153.686 53.4609 154.318C53.7142 154.381 53.6509 154.824 53.3343 154.761C50.8645 154.192 48.458 153.749 45.9882 153.559C45.4183 155.204 44.785 156.911 44.1517 158.556C44.1517 158.619 44.0884 158.683 44.0251 158.746C44.0251 158.809 44.0409 158.856 44.0567 158.904C44.0726 158.951 44.0884 158.999 44.0884 159.062C45.355 159.268 46.6216 159.469 47.8882 159.671C51.6878 160.276 55.4874 160.88 59.2871 161.592C59.667 161.655 59.4771 162.288 59.0971 162.225C55.2903 161.647 51.5201 160.96 47.7587 160.274ZM72.9025 61.7187C72.9449 61.8455 72.9966 61.9691 73.0571 62.0883C73.0474 62.0551 72.9969 61.9308 72.9025 61.7187ZM126.351 164.691L134.71 136.861C135.733 133.459 136.772 130.06 137.812 126.66C142.241 112.166 146.678 97.6503 149.909 82.8445C148.643 81.7692 147.629 80.2512 146.743 78.9229C146.236 78.1007 145.793 77.2784 145.349 76.3929C140.172 95.6548 134.42 114.829 128.685 133.951C127.546 137.748 126.408 141.543 125.275 145.337C124.119 149.156 123.026 153.016 121.932 156.884L121.931 156.885L121.931 156.885L121.931 156.885C119.726 164.676 117.513 172.496 114.762 180.061C113.432 183.793 110.836 187.462 106.91 185.944C106.593 186.197 106.213 186.323 105.77 186.197C89.1778 181.706 72.7126 176.646 56.374 171.333L56.1621 171.264C53.4781 170.391 50.221 169.333 47.4448 167.854C47.6981 168.233 47.9672 168.629 48.2363 169.024L48.2364 169.024L48.2371 169.025L48.2372 169.025C48.5061 169.42 48.7749 169.815 49.028 170.194C54.187 171.97 59.4036 173.554 64.6143 175.136C68.8701 176.428 73.122 177.719 77.3355 179.113C77.7154 179.239 77.5888 179.745 77.2088 179.682C67.6463 178.101 58.2738 174.748 49.4713 170.827C49.6642 171.105 49.8571 171.385 50.0507 171.666C51.0007 173.046 51.9654 174.447 53.0176 175.76C53.1443 175.887 53.2076 176.077 53.2076 176.203C59.0191 177.534 64.7658 179.492 70.498 181.444C74.5727 182.833 78.64 184.218 82.7183 185.374C88.0379 186.892 93.3574 188.284 98.7403 189.549C99.69 189.769 100.664 190.023 101.655 190.281C107.202 191.726 113.248 193.3 118.245 189.865C121.412 184.876 122.977 178.286 124.444 172.107L124.444 172.107L124.444 172.106L124.444 172.106L124.444 172.106C125.06 169.512 125.658 166.991 126.351 164.691ZM149.899 78.7787C149.994 78.6322 150.064 78.5246 150.226 78.4169C155.799 73.9261 149.022 65.2607 143.323 65.3872C142.88 65.3872 142.5 65.4505 142.12 65.5137C142.246 66.3992 142.12 67.348 141.803 68.36C141.771 68.4233 141.74 68.4707 141.708 68.5181C141.676 68.5656 141.645 68.613 141.613 68.6763C143.766 69.5618 145.476 70.8268 145.159 72.7876C146.173 74.4321 147.376 76.0766 148.579 77.5314C148.959 77.9741 149.402 78.4168 149.846 78.8595L149.846 78.8597C149.857 78.8435 149.867 78.8277 149.877 78.8124L149.899 78.7787ZM194.618 85.8799C194.698 85.3988 194.808 84.8063 194.934 84.1287C196.119 77.7686 198.701 63.9112 190.059 64.3113C189.742 62.6035 189.172 61.1488 188.159 60.0735C188.253 59.9089 188.35 59.7412 188.448 59.5707C189.671 57.4474 191.145 54.8886 191.262 52.5466C191.262 52.4201 191.199 52.2936 191.135 52.2304V52.1039C190.629 51.0286 189.046 50.6491 187.969 50.3961C187.019 50.1431 185.689 49.8901 184.803 50.5226C184.676 50.5226 184.486 50.5858 184.423 50.7123C183.346 53.0526 182.903 55.6459 182.586 58.176V58.2392C175.75 59.1274 172.182 70.051 170.084 76.4739C169.792 77.3696 169.528 78.1778 169.287 78.8591C166.881 85.5637 164.601 92.3315 162.765 99.2259C162.562 99.9572 162.354 100.695 162.145 101.437L162.144 101.44L162.144 101.44L162.144 101.44C160.851 106.028 159.501 110.818 158.902 115.608C157.952 117.885 158.205 119.782 159.218 121.301C157.164 125.991 156.016 131.209 154.9 136.286C154.571 137.781 154.245 139.265 153.899 140.719C152.189 147.803 150.542 154.887 149.022 162.034C149.009 162.02 148.992 162.007 148.974 161.992L148.951 161.975C148.888 161.927 148.813 161.869 148.769 161.781C148.579 161.591 148.263 161.971 148.453 162.161C148.516 162.224 148.595 162.287 148.674 162.35C148.753 162.414 148.833 162.477 148.896 162.54C148.601 163.957 148.304 165.375 148.006 166.795L148.005 166.799L148.004 166.803L148.004 166.803C145.366 179.395 142.7 192.125 141.107 204.855C141.107 205.045 141.17 205.171 141.233 205.298C141.17 205.551 141.233 205.867 141.423 206.12C141.803 206.5 142.31 206.879 142.88 207.195C142.626 207.512 142.373 207.828 142.246 208.271C142.056 208.777 141.993 209.283 141.93 209.852C141.866 210.738 141.93 211.876 142.88 212.256C144.843 213.015 145.793 209.725 146.109 208.334C146.743 208.334 147.313 208.207 147.756 207.891C147.883 207.828 147.946 207.701 148.009 207.575C148.263 207.575 148.516 207.385 148.643 207.069C152.195 197.826 155.019 188.188 157.829 178.597L157.829 178.597L157.829 178.597L157.829 178.596C159.076 174.34 160.32 170.092 161.625 165.893C162.7 162.451 163.759 159.024 164.818 155.598L164.819 155.596L164.819 155.594L164.82 155.591L164.821 155.589L164.821 155.587L164.822 155.585L164.823 155.583C165.884 152.151 166.944 148.72 168.021 145.273C168.608 143.403 169.233 141.528 169.859 139.648L169.859 139.648L169.859 139.646C171.394 135.039 172.939 130.399 173.974 125.728C174.1 125.696 174.211 125.681 174.322 125.665C174.433 125.649 174.544 125.633 174.67 125.602C175.24 125.475 175.43 125.096 175.43 124.653C175.62 124.526 175.81 124.337 175.873 124.084C176.095 123.388 176.333 122.676 176.57 121.965C176.808 121.253 177.045 120.541 177.267 119.846C177.773 121.048 178.66 122.439 179.61 122.06C179.926 122.313 180.496 122.376 180.813 121.87C187.842 111.054 192.465 98.7199 194.618 85.8799ZM187.652 52.2304C188 52.3104 188.336 52.4468 188.67 52.5825C189.128 52.7683 189.583 52.9528 190.059 52.9894C189.615 53.7648 189.269 54.6373 188.934 55.4793L188.934 55.4802C188.887 55.5994 188.839 55.718 188.792 55.8357C188.539 56.4049 188.286 56.9899 188.032 57.575L188.032 57.5751C187.779 58.1601 187.526 58.7452 187.272 59.3145C186.766 58.935 186.133 58.682 185.436 58.4922C184.803 58.3025 184.169 58.2392 183.536 58.2392C184.296 56.1519 185.056 53.8749 185.246 51.5978C185.728 51.8605 186.331 51.9717 186.909 52.0781C187.166 52.1255 187.418 52.1719 187.652 52.2304ZM166.058 144.83C164.981 148.277 163.92 151.708 162.86 155.14C161.799 158.571 160.738 162.003 159.662 165.45C158.474 169.274 157.232 173.098 155.988 176.928C152.787 186.78 149.575 196.669 147.249 206.689C146.768 206.497 146.251 206.415 145.724 206.33C145.558 206.304 145.39 206.277 145.223 206.247C144.4 205.994 143.641 205.615 142.882 205.235L142.881 205.235L142.881 205.235L142.881 205.235L142.881 205.235L142.88 205.235L142.88 205.235L142.88 205.235L142.88 205.235V204.982C143.006 204.381 143.133 203.796 143.26 203.211C143.386 202.626 143.513 202.04 143.64 201.44L143.64 201.44C144.336 202.325 145.033 203.211 145.856 203.906C146.046 204.033 146.173 203.78 146.109 203.653C145.729 203.179 145.334 202.72 144.938 202.262C144.542 201.803 144.146 201.345 143.766 200.87C143.893 200.206 144.035 199.542 144.178 198.878L144.178 198.877C144.321 198.213 144.463 197.549 144.59 196.886C145.413 197.961 146.299 198.91 147.313 199.795C147.503 199.922 147.756 199.732 147.566 199.542C147.091 199.004 146.6 198.467 146.109 197.929C145.619 197.391 145.128 196.854 144.653 196.316L144.653 196.315C144.906 194.924 145.16 193.533 145.476 192.142C146.173 193.217 146.933 194.355 147.756 195.304C147.946 195.494 148.263 195.241 148.136 195.051C147.376 193.786 146.489 192.648 145.603 191.509L146.553 186.386C147.503 187.588 148.579 188.663 149.782 189.612C149.972 189.738 150.226 189.485 150.036 189.295C148.833 188.22 147.693 187.082 146.616 185.817C146.774 185.026 146.917 184.235 147.059 183.445C147.202 182.654 147.344 181.863 147.503 181.073L147.774 181.416L147.774 181.416C148.623 182.493 149.436 183.522 150.352 184.552C150.542 184.741 150.796 184.488 150.669 184.235C149.966 183.298 149.193 182.396 148.427 181.503L148.426 181.501L148.426 181.501L148.425 181.501L148.421 181.496C148.155 181.185 147.89 180.876 147.629 180.567C147.946 178.859 148.263 177.151 148.643 175.443L152.442 180.377C152.632 180.567 152.885 180.314 152.759 180.061C151.492 178.29 150.099 176.582 148.706 174.874C148.864 174.054 149.022 173.249 149.18 172.445L149.181 172.439C149.339 171.632 149.497 170.826 149.656 170.004C150.669 171.648 151.872 173.166 153.392 174.368C153.582 174.558 153.899 174.178 153.709 173.989C152.189 172.66 150.859 171.079 149.782 169.371C149.941 168.549 150.115 167.711 150.289 166.873C150.463 166.035 150.637 165.197 150.796 164.374C151.745 165.386 152.695 166.462 153.645 167.537L153.645 167.537L153.645 167.537L153.645 167.537L153.645 167.537L153.645 167.537L153.645 167.537L153.645 167.537L153.645 167.537C153.835 167.727 154.152 167.474 154.025 167.284C153.139 166.019 152.062 164.88 150.986 163.805C151.049 163.552 151.096 163.284 151.144 163.015L151.144 163.015C151.191 162.746 151.239 162.477 151.302 162.224C151.429 161.718 151.54 161.196 151.651 160.674L151.651 160.674L151.651 160.673L151.651 160.673L151.651 160.672L151.651 160.672L151.651 160.671L151.651 160.671C151.762 160.15 151.873 159.63 151.999 159.125C152.484 159.61 152.963 160.102 153.441 160.594L153.442 160.594C154.398 161.578 155.355 162.561 156.369 163.489C156.622 163.679 156.938 163.362 156.685 163.173C155.229 161.591 153.645 160.137 152.062 158.682L152.063 158.678L152.063 158.677C152.633 156.085 153.202 153.494 153.772 150.965C155.165 152.673 156.748 154.191 158.458 155.583C158.648 155.772 158.965 155.393 158.775 155.203C157.065 153.622 155.419 152.041 153.899 150.269C154.279 148.562 154.659 146.854 155.039 145.083L155.039 145.083C156.305 146.411 157.572 147.74 158.902 149.068C159.092 149.257 159.472 148.941 159.218 148.751C158.421 147.879 157.601 147.052 156.785 146.23C156.24 145.681 155.698 145.134 155.165 144.577C155.419 143.502 155.672 142.426 155.862 141.351C156.02 140.687 156.179 140.039 156.337 139.39C156.495 138.742 156.653 138.094 156.812 137.43L156.813 137.431C158.143 138.759 159.472 140.087 160.801 141.351C161.055 141.604 161.435 141.225 161.181 140.972C159.789 139.58 158.333 138.253 156.876 136.925L156.876 136.925L156.876 136.924L156.875 136.924C157.445 134.773 158.015 132.559 158.585 130.345C159.493 131.214 160.355 132.106 161.227 133.006L161.227 133.006L161.228 133.007L161.23 133.01L161.23 133.01C161.817 133.616 162.407 134.226 163.018 134.836C163.208 135.026 163.588 134.773 163.398 134.583C162.068 132.749 160.485 131.168 158.775 129.713C159.218 127.752 159.598 125.791 159.915 123.831C160.804 124.803 161.777 125.747 162.741 126.681C163.22 127.145 163.696 127.607 164.158 128.068C164.411 128.321 164.854 127.942 164.601 127.689C163.335 126.108 161.751 124.4 159.978 123.135C159.978 123.008 159.994 122.898 160.01 122.787C160.026 122.676 160.042 122.566 160.042 122.439C162.765 125.032 167.831 126.171 171.884 125.981C170.445 129.853 169.284 133.876 168.129 137.875L168.129 137.876L168.129 137.876L168.129 137.878L168.129 137.878L168.129 137.878L168.128 137.878L168.128 137.879C167.454 140.215 166.782 142.544 166.058 144.83ZM173.467 123.767C170.237 124.273 167.134 124.084 164.095 122.692C161.055 121.301 159.978 119.213 159.978 116.493C160.126 116.051 160.252 115.609 160.381 115.155L160.381 115.154L160.381 115.154L160.381 115.154L160.382 115.154L160.382 115.154L160.382 115.154L160.382 115.153C160.475 114.828 160.569 114.496 160.675 114.153C161.878 115.671 163.145 117.063 164.601 118.328C164.791 118.454 164.981 118.264 164.854 118.075C163.398 116.683 162.068 115.228 160.801 113.647C161.224 112.214 161.589 110.78 161.955 109.347L161.955 109.347L161.955 109.346L161.955 109.346C162.138 108.629 162.321 107.912 162.511 107.196C162.807 107.507 163.103 107.822 163.4 108.138C164.31 109.106 165.229 110.084 166.184 110.991C166.311 111.117 166.438 110.927 166.374 110.801C165.469 109.754 164.528 108.779 163.578 107.794L163.578 107.794C163.265 107.47 162.952 107.145 162.638 106.816C162.86 105.899 163.081 104.966 163.303 104.034L163.303 104.032C163.525 103.1 163.746 102.167 163.968 101.25L167.388 105.235C167.514 105.361 167.704 105.171 167.578 105.045C166.438 103.654 165.235 102.325 164.031 100.997L164.031 100.997C164.474 99.0994 164.981 97.1386 165.488 95.2411C165.852 95.6053 166.213 95.9694 166.573 96.3326L166.573 96.3331L166.574 96.3336L166.574 96.3341C167.651 97.4212 168.718 98.4994 169.857 99.5421C170.047 99.7319 170.301 99.4789 170.174 99.2891C168.717 97.7711 167.198 96.3163 165.614 94.8616C166.121 93.0273 166.691 91.1298 167.261 89.3587V89.2955C169.414 91.5093 171.567 93.723 173.784 95.8736C173.974 96.0633 174.227 95.8103 174.1 95.6206C172.443 93.6552 170.575 91.8591 168.702 90.0592L168.702 90.0591L168.702 90.059L168.702 90.0589L168.701 90.0588L168.701 90.0583L168.701 90.058L168.701 90.0579L168.699 90.0568C168.283 89.6563 167.866 89.2555 167.451 88.8527C167.579 88.4824 167.707 88.1095 167.835 87.735L167.837 87.7295L167.838 87.7273C168.344 86.2496 168.859 84.748 169.414 83.2866C169.726 83.6136 170.038 83.9444 170.35 84.2762L170.351 84.2765C171.308 85.2925 172.275 86.3179 173.277 87.2714C173.467 87.4612 173.72 87.2082 173.53 87.0184C172.686 86.0912 171.786 85.1639 170.886 84.2366L170.886 84.2364L170.885 84.2362L170.885 84.2361L170.885 84.2359L170.885 84.2357L170.885 84.2355L170.885 84.2353L170.882 84.2323C170.432 83.7695 169.983 83.3067 169.541 82.8439C170.237 80.9463 170.997 79.0488 171.757 77.1513C173.372 78.7023 174.865 80.2534 176.416 81.8642L176.416 81.8643L176.507 81.9584C176.697 82.1481 176.95 81.8951 176.76 81.7053C175.24 79.9976 173.594 78.353 171.884 76.7718C172.01 76.4239 172.153 76.076 172.295 75.7281C172.438 75.3802 172.58 75.0324 172.707 74.6845L174.797 69.7509C175.493 70.4149 176.158 71.0946 176.823 71.7744L176.823 71.775C177.488 72.4549 178.153 73.1349 178.85 73.799C179.04 73.9887 179.293 73.7357 179.103 73.546C177.837 72.0279 176.443 70.6997 174.987 69.3714C175.367 68.4859 175.81 67.6004 176.253 66.7149C176.57 66.1456 177.14 65.2601 177.837 64.3746C178.217 64.7857 178.593 65.2008 178.969 65.6159L178.969 65.6161L178.969 65.6163C180.097 66.8614 181.225 68.1065 182.46 69.2449C182.713 69.4346 183.029 69.1816 182.84 68.9286C181.753 67.6551 180.597 66.4167 179.448 65.1872C179.057 64.7681 178.666 64.3499 178.28 63.9318C179.04 62.983 179.99 61.971 181.003 61.2753C182.08 62.73 183.156 64.1848 184.169 65.6396C184.359 65.8926 184.739 65.7028 184.613 65.3866C183.663 63.8053 182.65 62.3505 181.446 60.959C183.663 59.5042 186.069 59.441 187.526 63.5523C188.821 67.2256 187.531 72.761 186.534 77.0431L186.534 77.0432L186.533 77.0444C186.311 77.9968 186.104 78.8872 185.943 79.6813C184.866 84.6149 183.536 89.4852 182.143 94.3556C181.034 98.3219 179.862 102.267 178.692 106.209L178.691 106.209L178.69 106.212L178.69 106.213C176.986 111.95 175.285 117.678 173.784 123.451V123.641C173.657 123.767 173.53 123.767 173.467 123.767ZM187.146 84.1089C187.278 83.5823 187.447 82.9492 187.64 82.232C188.557 78.8139 189.987 73.4855 190.249 68.6756C192.845 76.4555 191.199 83.5396 188.919 91.3195C186.611 99.168 183.567 106.587 180.451 114.181L180.451 114.181L180.306 114.533C179.736 114.533 179.293 114.659 178.787 114.849C181.89 104.665 184.613 94.3556 187.146 84.1089ZM190.629 95.9368C187.969 104.729 184.169 112.951 179.546 120.921C179.356 120.605 178.913 119.846 178.85 119.656C178.533 119.023 178.343 118.201 178.533 117.505C178.723 116.873 179.167 116.367 179.8 116.114C180.006 116.045 180.18 116.018 180.338 115.993C180.616 115.949 180.847 115.913 181.13 115.671C181.32 115.545 181.32 115.228 181.256 115.039L181.193 114.912C186.006 106.626 189.299 97.2651 191.389 87.9672C191.512 87.4123 191.644 86.8424 191.778 86.2606C193.158 80.2775 194.829 73.0303 191.135 67.7269C190.945 67.4739 190.629 67.4739 190.376 67.5371C190.376 66.8414 190.376 66.2088 190.312 65.5763C198.927 67.5571 192.379 89.9523 190.73 95.5918L190.629 95.9368ZM125.276 149.316L125.275 149.32C121.745 160.974 118.214 172.629 114.699 184.299C114.573 184.678 115.143 184.805 115.269 184.425C124.452 162.224 131.924 138.125 137.117 114.659C137.307 113.837 136.041 113.457 135.851 114.343C132.339 126.003 128.811 137.648 125.283 149.293L125.282 149.297L125.281 149.301L125.28 149.305L125.279 149.308L125.277 149.312L125.276 149.316ZM134.997 126.42C138.202 112.574 141.451 98.5424 146.047 85.1842C146.3 84.4251 147.377 84.7414 147.25 85.5637C144.391 100.004 139.923 114.398 135.53 128.551L135.53 128.552L135.53 128.552L135.53 128.552L135.53 128.552C134.766 131.013 134.005 133.466 133.255 135.912C133.128 136.165 132.748 136.038 132.811 135.785C133.548 132.679 134.271 129.555 134.997 126.42ZM105.327 189.422C92.0281 183.919 77.526 180.693 63.4673 177.784C63.2139 177.72 63.0873 178.1 63.3406 178.163C70.5974 180.024 77.7529 182.205 84.9029 184.385C91.605 186.428 98.3022 188.469 105.074 190.244C105.707 190.434 105.897 189.612 105.327 189.422ZM109.949 146.538C110.013 146.158 109.886 145.905 109.633 145.715C109.949 145.146 109.823 144.261 108.999 144.008C106.361 143.21 103.72 142.4 101.077 141.588L101.077 141.588L101.076 141.588L101.076 141.588C88.6183 137.762 76.0869 133.914 63.34 131.357C62.7701 131.231 62.3901 131.547 62.2634 131.927C61.9468 131.99 61.6935 132.18 61.5668 132.559C59.2237 139.39 57.0706 146.727 55.9307 153.812C55.7407 155.077 57.3872 155.519 57.8305 154.318C60.4269 147.739 62.1368 140.276 63.2134 133.318C75.5744 137.808 88.4328 141.123 101.177 144.409C103.515 145.012 105.849 145.614 108.176 146.221C107.068 151.313 105.308 156.188 103.548 161.063C102.794 163.152 102.04 165.241 101.337 167.347C86.8979 162.35 71.8259 158.049 56.8173 155.14C56.0573 155.013 55.7407 156.025 56.5006 156.278C70.5324 160.811 84.8458 164.893 99.069 168.95L99.0691 168.95L99.0692 168.95L99.0693 168.95L101.653 169.688C102.73 170.004 103.236 168.739 102.73 168.043C107.036 161.528 108.746 154.191 109.949 146.538ZM88.0625 155.617C90.9904 156.476 93.9154 157.334 96.8405 158.176C97.6004 158.429 97.2838 159.567 96.4605 159.314C86.0747 156.721 75.5623 153.812 65.5566 149.953C65.1766 149.827 65.3032 149.194 65.7465 149.321C73.2347 151.27 80.6578 153.446 88.0625 155.617ZM99.2468 151.155C91.447 148.48 83.5078 146.223 75.5843 143.97C72.8286 143.187 70.0749 142.404 67.3296 141.604C66.7597 141.414 66.5064 142.3 67.0763 142.49C69.5617 143.357 72.0436 144.239 74.5253 145.12L74.5254 145.12C82.5403 147.967 90.5532 150.813 98.6768 153.179C100.07 153.622 100.577 151.598 99.2468 151.155ZM52.1518 165.435C56.2049 166.137 60.3205 166.85 64.2273 167.98C64.544 168.043 64.4173 168.486 64.0374 168.549C60.1112 167.996 56.1451 167.043 52.2343 166.104C51.2248 165.862 50.2191 165.62 49.2187 165.387C48.9654 165.323 49.092 164.881 49.3453 164.944C50.2752 165.11 51.2118 165.273 52.1518 165.435Z" fill="#272727"/>
<defs>
<clipPath id="clip0">
<rect width="166.707" height="149.916" fill="white" transform="translate(21 186.013) rotate(-77.9166)"/>
</clipPath>
</defs>
</svg>
