<svg width="245" height="262" viewBox="0 0 245 262" fill="none" xmlns="http://www.w3.org/2000/svg">
<path d="M196.785 179.221C196.295 179.241 196.219 177.279 196.69 176.769C196.78 176.569 196.961 176.169 196.942 175.678C196.923 175.188 197.014 174.988 197.104 174.788C197.394 174.678 197.484 174.478 197.375 174.187C197.266 173.897 197.737 173.387 198.117 173.077C198.697 172.857 198.788 172.657 198.298 172.677C197.808 172.696 197.898 172.496 198.459 171.786C198.93 171.276 199.292 170.475 199.073 169.895C199.054 169.404 199.396 168.114 199.848 167.113C200.3 166.112 200.552 165.022 200.443 164.731C200.334 164.441 200.695 163.641 201.275 163.421C201.746 162.911 202.126 162.601 202.017 162.31C201.817 162.22 201.998 161.82 202.288 161.71C202.578 161.6 202.74 160.71 202.612 159.929C202.483 159.148 202.536 157.967 203.006 157.457C203.477 156.947 203.458 156.457 203.259 156.366C203.059 156.276 203.439 155.966 203.91 155.456C204.581 155.036 204.671 154.836 204.471 154.746C204.072 154.565 204.053 154.075 204.124 153.384C204.196 152.694 204.158 151.713 203.849 151.333C203.63 150.752 203.611 150.262 203.811 150.352C204.01 150.442 204.281 149.842 204.262 149.351C204.243 148.861 204.605 148.06 205.076 147.55C205.546 147.04 205.818 146.44 205.799 145.949C205.813 143.788 205.794 143.297 206.265 142.787C206.736 142.277 206.736 142.277 205.937 141.916C205.138 141.556 205.228 141.355 205.59 140.555C205.77 140.155 206.132 139.354 206.022 139.064C206.004 138.574 206.184 138.173 206.764 137.954C207.345 137.734 207.815 137.224 207.796 136.733C207.777 136.243 208.248 135.733 208.538 135.623C208.919 135.313 209.009 135.113 208.591 134.442C207.954 133.19 206.822 129.307 207.312 129.287C207.512 129.377 207.493 128.887 207.183 128.506C206.874 128.126 206.855 127.635 207.055 127.725C207.345 127.616 207.326 127.125 207.307 126.635C207.179 125.854 207.269 125.654 207.759 125.634C208.648 125.795 208.52 125.014 207.612 124.363C206.903 123.802 207.298 121.33 208.168 121.001C209.039 120.671 209.543 118.489 208.834 117.929C208.525 117.548 208.796 116.948 209.248 115.947C210.08 114.637 210.171 114.437 209.372 114.076C208.663 113.515 208.297 111.663 209.077 111.534C209.277 111.624 209.348 110.933 209.31 109.952C209.182 109.172 209.453 108.571 209.743 108.462C210.033 108.352 209.924 108.061 209.814 107.771C209.505 107.391 209.486 106.9 209.776 106.79C210.067 106.68 210.138 105.99 209.919 105.409C209.501 104.738 209.572 104.048 210.043 103.538C210.224 103.137 210.495 102.537 210.186 102.157C209.877 101.776 210.057 101.376 210.638 101.156C211.018 100.846 211.289 100.246 211.27 99.7554C211.251 99.265 211.432 98.8648 211.722 98.7548C212.302 98.535 212.193 98.2447 211.356 96.9031C210.41 95.2713 210.224 93.0193 211.109 90.5278C211.561 89.5273 211.451 89.237 210.743 88.6761C210.234 88.2055 210.125 87.9152 210.305 87.515C210.486 87.1147 210.377 86.8244 210.268 86.5341C209.958 86.1537 210.23 85.5533 211.081 84.7332C211.932 83.913 212.113 83.5128 211.623 83.5325C210.643 83.572 209.897 82.0303 210.349 81.0298C210.62 80.4294 210.601 79.939 210.182 79.2682C209.345 77.9267 208.998 76.5654 209.688 76.6358C210.178 76.6161 210.068 76.3258 209.85 75.7452C209.631 75.1646 209.612 74.6742 209.902 74.5643C210.283 74.2542 210.283 74.2542 209.793 74.274C209.503 74.3839 209.194 74.0034 209.265 73.3129C209.246 72.8225 209.027 72.2419 208.628 72.0615C208.228 71.8811 208.029 71.791 208.3 71.1906C208.571 70.5903 208.461 70.3 207.753 69.7391C206.735 68.7978 206.607 68.0171 207.387 67.8874C207.877 67.8677 207.967 67.6676 206.949 66.7262C206.241 66.1654 205.623 65.4044 205.713 65.2043C205.604 64.914 205.204 64.7336 204.715 64.7533C203.935 64.883 203.825 64.5927 203.497 63.7218C203.279 63.1412 203.35 62.4507 203.64 62.3408C203.93 62.2309 203.602 61.36 202.366 59.838C201.529 58.4964 200.602 57.355 200.602 57.355C200.492 57.0647 200.293 56.9745 200.093 56.8843C199.893 56.7941 199.674 56.2135 199.456 55.6329C199.308 54.3618 198.999 53.9813 198.909 54.1814C198.509 54.0011 198.31 53.9109 198.291 53.4205C198.181 53.1302 197.872 52.7497 197.582 52.8596C197.292 52.9695 196.584 52.4086 195.875 51.8478C195.167 51.2869 194.658 50.8162 194.368 50.9262C194.078 51.0361 193.769 50.6556 193.459 50.2751C193.131 49.4042 192.932 49.314 191.462 49.3732C190.972 49.3929 190.773 49.3027 190.663 49.0125C190.426 47.9414 188.628 47.1297 187.159 47.1889C186.379 47.3186 185.78 47.048 185.67 46.7577C185.561 46.4674 185.162 46.287 184.472 46.2166C183.982 46.2363 183.293 46.1659 183.183 45.8756C183.074 45.5853 182.874 45.4951 182.584 45.605C182.294 45.7149 181.695 45.4443 181.186 44.9737C180.587 44.7031 179.897 44.6326 179.408 44.6524C178.827 44.8722 178.338 44.8919 178.428 44.6918C178.409 44.2014 176.031 43.6096 174.961 43.8491C174.472 43.8689 173.383 43.618 172.783 43.3474C172.184 43.0769 171.295 42.9162 170.715 43.1361C170.425 43.246 169.935 43.2657 170.025 43.0656C170.206 42.6654 165.27 41.8819 162.621 41.8903C161.442 41.8396 159.483 41.9185 158.394 41.6677C157.214 41.617 155.455 41.7861 154.385 42.0256C153.315 42.2652 152.245 42.5048 151.755 42.5245C151.265 42.5442 147.057 42.812 142.268 43.2996C136.01 43.8464 133.38 44.3452 133.49 44.6355C133.399 44.8357 133.109 44.9456 132.91 44.8554C132.51 44.675 131.821 44.6045 131.331 44.6243C130.841 44.644 129.861 44.6835 129.172 44.613C128.482 44.5425 127.992 44.5623 128.102 44.8526C128.211 45.1429 127.921 45.2528 127.721 45.1626C127.522 45.0724 126.452 45.312 125.491 45.8418C121.939 47.8514 119.708 48.5306 119.09 47.7697C118.781 47.3892 118.691 47.5893 118.22 48.0994C118.039 48.4996 117.659 48.8097 117.459 48.7195C117.259 48.6293 115.899 48.9788 114.539 49.3283C113.089 49.8779 110.369 50.5768 108.319 50.8559C106.269 51.1349 104.819 51.6845 104.729 51.8846C104.838 52.1749 101.737 53.1839 98.9984 53.3925C96.9488 53.6715 96.6587 53.7814 95.8264 55.092C95.2652 55.8022 94.704 56.5125 94.414 56.6224C94.1239 56.7323 93.8338 56.8422 93.6531 57.2424C93.5627 57.4426 92.9112 58.3529 91.9505 58.8828C90.9899 59.4126 90.4287 60.1229 90.5381 60.4132C90.6475 60.7035 90.3574 60.8134 90.1576 60.7232C89.9579 60.633 89.5775 60.9431 89.3967 61.3433C89.216 61.7435 88.7452 62.2536 88.2554 62.2734C87.7656 62.2931 87.4755 62.403 87.5849 62.6933C87.6942 62.9836 86.7336 63.5135 85.6826 64.2434C84.6316 64.9734 83.4903 65.9035 83.0195 66.4136C82.7484 67.014 82.3679 67.324 82.0778 67.4339C81.0079 67.6735 79.2863 68.8234 78.164 70.2439C77.5124 71.1542 76.7515 71.7743 76.4615 71.8842C76.1714 71.9941 76.081 72.1942 76.3901 72.5747C76.6992 72.9552 76.6088 73.1553 75.8289 73.285C75.3391 73.3047 75.049 73.4146 74.9587 73.6147C74.8683 73.8148 74.5068 74.6153 73.8553 75.5256C73.2037 76.436 72.8423 77.2364 73.2417 77.4168C73.4414 77.507 73.7505 77.8875 73.6602 78.0876C73.5698 78.2877 73.2797 78.3976 72.9706 78.0171C72.6616 77.6366 72.3715 77.7466 71.5202 78.5667C70.959 79.277 70.6879 79.8773 70.7973 80.1676C70.9066 80.4579 70.4358 80.968 70.1647 81.5684C68.3908 83.8992 67.4682 85.4099 67.8676 85.5902C68.0674 85.6804 67.8866 86.0807 67.3065 86.3005C66.7263 86.5203 66.5456 86.9206 66.7643 87.5011C66.7833 87.9915 66.8926 88.2819 66.4932 88.1015C65.6943 87.7407 64.881 89.5417 65.4992 90.3027C65.7179 90.8833 65.6275 91.0834 65.2281 90.903C64.8286 90.7226 64.2675 91.4329 63.8156 92.4334C62.5315 94.7445 62.0607 95.2547 59.8114 95.4435C58.7414 95.6831 56.6015 96.1622 55.1511 96.7118C51.9601 97.9209 46.4865 100.99 46.3248 101.881C46.0537 102.481 44.7126 103.321 42.5916 104.291C41.7214 104.62 40.4897 105.751 39.548 106.771C38.8061 107.881 37.9549 108.701 37.7552 108.611C37.4651 108.721 37.3747 108.921 37.5744 109.011C37.6838 109.302 36.8515 110.612 35.8195 111.833C34.8779 112.853 34.2453 114.254 34.155 114.454C34.2643 114.744 33.9932 115.344 33.6128 115.654C32.8709 116.765 31.3727 121.148 31.501 121.928C31.6104 122.219 31.4296 122.619 31.0492 122.929C30.7591 123.039 30.2169 124.239 29.8744 125.53C29.532 126.821 29.0991 128.312 28.9184 128.712C28.7377 129.112 28.7757 130.093 28.8137 131.074C28.942 131.855 28.5995 133.146 28.3284 133.746C28.0574 134.346 27.8956 135.237 28.0953 135.327C28.2047 135.617 28.2237 136.108 28.043 136.508C27.8622 136.908 27.7908 137.599 27.8098 138.089C28.1189 138.47 27.9572 139.36 27.5957 140.161C27.2343 140.961 27.1629 141.652 27.472 142.032C27.781 142.413 27.7097 143.103 27.3482 143.904C27.0771 144.504 27.0247 145.685 27.1531 146.466C27.2814 147.246 27.4098 148.027 27.229 148.427C26.7772 149.428 26.9626 151.68 27.5807 152.441C27.9991 153.111 28.1085 153.402 27.5283 153.622C27.1479 153.932 26.9861 154.822 27.5709 157.254C28.0273 158.906 28.1936 160.668 28.1033 160.868C27.8322 161.468 29.4012 166.513 29.91 166.984C30.219 167.364 30.219 167.364 29.9289 167.474C29.6389 167.584 29.6768 168.565 30.1333 170.216C30.4803 171.578 31.1175 172.829 31.3172 172.919C31.5169 173.009 31.5169 173.01 31.3362 173.41C30.9747 174.21 33.5849 183.339 34.6025 184.28C34.8022 184.371 35.1302 185.241 35.4583 186.112C36.7516 189.106 37.2984 190.557 37.6978 190.737C38.2066 191.208 38.5347 192.079 38.8627 192.95C38.9721 193.24 39.1908 193.821 39.4809 193.711C39.6806 193.801 39.79 194.091 39.6996 194.291C39.5189 194.692 40.4461 195.833 43.4465 199.838C44.174 200.889 45.1916 201.831 45.6814 201.811C46.0809 201.991 46.2806 202.082 46.1902 202.282C46.0095 202.682 50.6266 207.899 52.4621 209.691C53.3704 210.342 54.3879 211.284 54.8967 211.754C56.2234 213.076 62.9805 217.814 63.4703 217.794C63.67 217.884 64.0695 218.065 64.5783 218.535C65.0871 219.006 65.6862 219.277 66.1761 219.257C66.6659 219.237 67.265 219.508 67.3744 219.798C67.9022 220.759 73.8938 223.465 74.8734 223.425C75.3632 223.406 75.5629 223.496 75.4726 223.696C75.3822 223.896 75.7816 224.077 76.2714 224.057C76.7612 224.037 77.4508 224.108 77.7598 224.488C78.6681 225.139 85.0212 227.044 85.801 226.915C86.2909 226.895 87.3798 227.146 88.2691 227.306C90.5564 228.098 93.2241 228.58 94.2037 228.541C94.6935 228.521 95.383 228.592 95.4924 228.882C95.6921 228.972 96.7811 229.223 97.9604 229.274C99.1398 229.324 101.208 229.536 102.587 229.677C103.966 229.818 105.636 229.849 106.415 229.719C107.195 229.589 107.685 229.57 107.885 229.66C108.085 229.75 110.334 229.561 113.163 229.152C115.993 228.744 119.222 228.515 120.601 228.656C122.47 228.778 129.926 228.772 131.976 228.493C135.205 228.265 145.885 225.378 146.157 224.778C146.247 224.578 146.827 224.358 147.697 224.028C149.057 223.679 153.57 221.14 153.841 220.539C153.932 220.339 154.802 220.009 155.582 219.88C157.232 219.42 159.914 217.741 159.696 217.16C159.586 216.87 159.786 216.96 160.076 216.85C160.675 217.12 163.267 215.641 163.248 215.15C163.139 214.86 163.429 214.75 163.918 214.73C164.898 214.691 171.875 209.891 172.616 208.781C172.797 208.38 173.848 207.651 174.609 207.03C175.57 206.501 176.421 205.68 176.801 205.37C177.182 205.06 178.504 203.73 179.446 202.71C182.38 199.939 189.005 191.126 188.676 190.255C188.567 189.965 188.838 189.365 189.418 189.145C190.469 188.415 194.217 183.843 193.908 183.463C193.798 183.172 194.36 182.462 195.011 181.552C196.623 180.112 196.985 179.311 196.785 179.221Z" fill="#FFEB26"/>
<g clip-path="url(#clip0)">
<path d="M205.999 139.471C205.81 132.443 201.215 126.112 194.795 123.389C187.494 120.287 180.507 123.263 174.779 127.948C174.653 126.238 174.465 124.466 174.276 122.756C174.465 122.629 174.653 122.566 174.842 122.44C175.535 121.996 175.786 121.11 175.346 120.413C172.954 116.488 169.933 115.918 165.527 115.285C154.826 113.766 143.748 113.766 133.048 113.006C112.592 111.55 91.7576 108.827 71.9935 115.792C71.8047 115.855 71.7418 115.982 71.6159 116.045C70.8606 115.222 69.0352 115.538 68.9723 116.995C67.9652 132.38 68.0911 148.778 74.5742 162.833C63.4333 167.075 46.6276 178.788 59.5938 191.261C74.4483 205.443 102.269 205.253 121.152 205C138.713 204.81 167.415 205.443 181.766 193.224C194.355 182.46 176.731 171.95 166.282 168.405C169.051 164.859 171.066 161.06 172.387 157.072C186.487 164.669 206.565 157.515 205.999 139.471ZM174.716 147.891C178.241 150.677 182.647 151.817 187.053 150.93C190.956 150.107 195.928 147.195 196.62 142.763C197.313 138.268 192.34 134.976 188.69 133.709C184.221 132.19 179.311 132.76 175.283 135.229C175.22 134.026 175.22 132.823 175.094 131.557C179.815 127.188 185.731 123.579 192.34 125.605C199.327 127.758 203.67 134.722 202.852 141.877C201.215 156.502 184.85 160.744 173.52 154.159C173.457 154.159 173.457 154.159 173.395 154.096C174.024 152.07 174.402 150.044 174.716 147.891ZM175.031 145.106C175.22 142.953 175.346 140.737 175.346 138.584C175.535 138.584 175.786 138.458 175.975 138.331C180.57 135.102 191.963 134.216 192.781 141.75C193.662 149.917 180.507 148.968 176.353 145.422C175.912 145.106 175.472 145.042 175.031 145.106ZM72.8747 118.577C87.981 113.259 103.465 113.892 119.201 114.969C126.943 115.475 134.685 116.045 142.427 116.615C148.28 117.058 164.079 115.475 167.919 120.034C171.254 121.616 170.94 122.629 166.848 123.073C165.716 123.579 164.52 124.022 163.324 124.402C163.261 124.022 163.009 123.579 162.631 123.326C153.945 117.438 133.678 118.577 123.544 118.198C107.808 117.628 92.1353 118.704 76.5254 120.92C76.0848 120.983 75.7701 121.173 75.6442 121.49C74.4483 120.667 73.3153 119.78 72.3083 118.767C72.2453 118.704 72.1824 118.704 72.1194 118.641C72.3083 118.704 72.56 118.704 72.8747 118.577ZM159.673 125.352C156.085 126.302 152.372 126.998 148.721 127.568C139.909 129.024 131.034 129.784 122.096 129.847C109.445 129.91 91.5058 130.1 79.1061 123.579C92.3241 121.806 105.542 120.857 118.886 121.047C125.117 121.173 131.349 121.49 137.58 122.06C142.112 122.503 146.644 123.009 151.113 123.706C154.008 124.529 156.841 124.655 159.736 124.212C159.547 124.529 159.484 124.972 159.673 125.352ZM177.486 192.464C173.52 195.946 164.079 197.402 158.918 198.542C147.273 201.074 135.251 201.707 123.355 201.961C111.836 202.151 100.129 202.087 88.7363 199.935C82.5679 198.795 75.1407 197.212 69.7276 193.983C61.6709 191.071 59.2791 183.853 62.5521 172.457C66.5175 169.228 70.9865 166.949 75.896 165.492C75.9589 165.492 75.9589 165.429 76.0219 165.429C77.1549 167.582 78.4767 169.671 79.9873 171.634C90.184 185.309 106.801 190.311 123.292 189.108C138.147 188.032 153.442 182.334 163.89 171.381C164.079 171.191 164.205 170.937 164.394 170.747C172.387 173.09 190.956 180.688 177.486 192.464ZM163.198 167.645C162.694 167.835 162.38 168.215 162.254 168.721C162.065 168.911 161.939 169.101 161.75 169.291C151.805 179.675 137.391 185.119 123.292 186.132C106.36 187.335 89.6176 181.701 80.2391 166.759C71.9306 153.463 71.1123 137.571 71.8047 122.186C83.575 132.063 103.213 132.38 117.627 132.696C134.685 133.076 155.833 132.316 171.569 124.212C171.758 126.238 171.947 128.264 172.136 130.29C172.073 130.354 172.01 130.417 171.947 130.48C171.129 131.24 171.569 132.316 172.262 132.76C172.954 145.296 171.632 157.705 163.198 167.645Z" fill="#272727"/>
<path d="M90.3116 89.9601C88.6751 87.9341 85.9056 86.7312 84.4579 84.7051C80.8072 79.3868 83.8914 76.2212 86.8497 71.9159C89.4304 68.2437 90.8781 64.6982 88.3604 60.7095C87.3533 59.0633 84.7726 60.5829 85.7797 62.229C89.7451 68.497 78.3525 74.1319 78.9189 80.7164C79.1078 82.5525 79.989 84.0087 81.059 85.4016C82.0661 86.6678 83.3879 87.6175 84.5838 88.6939C86.7239 90.5933 99.4383 101.926 83.0732 101.926C81.1849 101.926 81.1849 104.902 83.0732 104.902C91.3187 104.965 95.6617 96.5447 90.3116 89.9601Z" fill="#272727"/>
<path d="M119.325 59.1265C117.563 58.3668 116.052 60.9626 117.814 61.7224C121.339 63.3052 122.095 69.6998 120.269 72.9288C119.451 74.385 116.87 75.5246 115.737 76.8542C114.667 78.0571 113.66 79.2601 113.346 80.9062C112.968 82.6157 113.157 84.0086 113.975 85.5914C114.416 86.4778 115.36 87.1109 115.926 87.8707C116.367 88.3139 116.807 88.6937 117.311 89.0736C121.15 91.7961 119.64 95.8481 112.842 101.103C110.954 101.356 110.954 104.332 112.842 104.079C116.996 103.572 121.276 102.116 123.039 97.8741C125.494 91.986 121.465 90.4032 118.696 86.3512C113.723 79.1335 124.801 76.0311 125.431 69.13C125.871 64.6348 123.228 60.836 119.325 59.1265Z" fill="#272727"/>
<path d="M154.009 75.1448C156.086 71.7259 158.478 69.6999 158.856 65.5212C159.045 63.6218 156.023 63.6218 155.898 65.5212C155.457 70.7762 149.729 73.6253 149.037 78.817C148.848 80.2732 149.037 81.6028 149.54 82.9323C149.981 84.1353 150.862 85.1483 151.554 86.2246C154.072 89.8968 162.444 98.634 146.897 100.28C145.008 100.47 145.008 103.446 146.897 103.256C153.757 102.559 159.737 97.0511 157.219 89.5802C155.331 84.0086 149.729 82.2359 154.009 75.1448Z" fill="#272727"/>
</g>
<defs>
<clipPath id="clip0">
<rect width="151" height="146" fill="white" transform="translate(55 59)"/>
</clipPath>
</defs>
</svg>
