<svg width="275" height="242" viewBox="0 0 275 242" fill="none" xmlns="http://www.w3.org/2000/svg">
<path d="M117.419 57.7845C117.912 58.5616 118.663 59.175 119.32 60.2111C122.326 58.6686 125.662 57.6441 127.237 55.5567C129.468 54.5055 131.019 53.5228 132.734 52.7992L132.57 52.5402C133.932 52.4031 135.129 52.007 136.75 51.7062C137.033 50.4377 137.316 49.1693 137.693 47.478C138.632 47.2457 139.736 47.2724 140.839 47.2992C141.356 46.9716 142.39 46.3165 142.743 45.7299C143.588 45.9204 144.691 45.9471 145.372 45.8786C148.334 42.5495 151.858 40.6794 155.71 39.3273C158.106 38.5352 160.69 36.8974 163.18 35.6824C165.974 36.0901 168.558 34.4523 171.541 34.0144C172.222 33.9459 172.575 33.3593 173.186 32.6089C172.623 31.15 172.225 29.95 171.827 28.7501C172.627 27.1541 173.685 25.3943 174.484 23.7982C174.907 23.8935 175.658 24.5068 176.245 24.8611C178.124 24.3965 179.58 23.8367 181.2 23.5358C185.004 24.3931 185.493 29.1661 189.555 29.8597C189.886 26.3819 188.433 22.9458 190.948 20.6262C193.249 20.2568 194.87 19.956 196.913 19.7504C198.181 20.0362 200.294 20.5125 202.148 21.1525C202.641 21.9297 203.133 22.7068 204.048 23.5792C204.893 23.7697 205.903 24.2192 207.171 24.505C208.156 26.0592 208.718 27.5182 209.703 29.0724C210.807 29.0992 211.652 29.2897 212.755 29.3164C213.506 29.9297 214.163 30.9659 215.242 32.0973C216.182 31.865 216.957 31.3737 217.896 31.1413C219.915 32.0405 219.866 34.2498 220.335 36.1316C222.448 36.6079 224.138 36.9889 226.674 37.5605C227.351 41.4878 228.288 45.2514 228.965 49.1788C229.269 50.8015 228.47 52.3976 228.61 53.7613C229.074 59.639 229.962 65.6119 230.849 71.5848C231.059 73.6304 231.95 75.6075 233.616 77.0932C235.118 78.3198 236.525 79.9693 236.899 82.2739C234.832 83.5842 233.187 84.9897 230.767 86.8865C230.694 90.2006 230.432 94.3602 230.359 97.6743C231.836 100.006 234.278 101 234.98 103.823C233.195 103.864 231.833 104.002 230.048 104.043C229.179 104.957 228.215 106.294 227.087 107.372C227.321 108.313 227.133 109.159 227.272 110.523C225.041 111.574 222.809 112.625 220.578 113.676C219.544 114.331 218.838 115.505 217.969 116.419C216.747 117.92 215.36 119.161 213.879 120.826C211.882 122.818 209.79 125.233 207.792 127.225C205.442 129.804 203.256 132.641 200.742 134.961C199.261 136.626 197.71 137.608 196.066 139.014C195.315 138.4 194.728 138.046 194.399 137.528C192.168 138.579 189.301 141.486 186.926 145.169C185.47 145.729 184.108 145.866 182.651 146.426C182.04 147.176 181.265 147.667 180.654 148.418C180.043 149.168 179.69 149.755 178.82 150.669C179.523 153.492 179.966 156.478 180.574 159.724C178.273 160.093 176.23 160.299 173.928 160.668C172.8 161.746 171.836 163.083 170.967 163.997C168.571 164.789 166.598 165.677 165.141 166.237C164.247 168.255 163.87 169.947 163.071 171.543C162.53 172.975 161.988 174.407 161.024 175.744C160.225 177.34 159.261 178.677 158.297 180.014C156.464 182.265 154.466 184.257 152.469 186.249C151.599 187.164 150.824 187.655 149.79 188.31C148.239 189.293 146.43 190.439 144.88 191.422C144.597 192.69 144.15 193.7 144.126 194.804C141.87 196.96 139.872 198.952 136.795 199.813C133.202 201.001 129.702 201.767 126.108 202.955C123.032 203.816 120.025 205.358 116.714 205.278C115.61 205.251 114.412 205.648 112.792 205.948C111.454 204.981 109.694 203.918 108.098 203.114C105.702 203.906 103.4 204.276 101.521 204.74C98.916 203.487 99.1289 201.536 98.4024 199.818C97.6758 198.1 97.1134 196.641 94.742 196.329C94.4835 196.493 94.1308 197.079 93.614 197.407C93.2613 197.993 93.0028 198.157 92.6501 198.744C92.2275 198.649 91.5465 198.717 91.3823 198.458C90.0447 197.49 89.2238 196.195 88.9199 194.572C88.85 193.891 88.1933 192.854 87.6309 191.396C86.4087 192.896 85.7975 193.647 84.928 194.561C85.4416 198.229 84.0064 201.68 83.6749 205.158C81.3035 204.846 79.6131 204.465 77.2417 204.152C75.8097 203.607 74.7548 201.371 72.125 201.222C71.0669 202.982 69.3277 204.811 69.6073 207.538C70.6167 207.987 71.626 208.437 72.4712 208.628C72.1641 211.001 69.9568 210.947 68.2421 211.671C67.865 213.362 67.3936 215.476 67.0166 217.168C62.3193 218.329 58.0933 217.376 54.3386 214.31C52.9554 211.556 51.4779 209.224 50.0947 206.47C48.8757 203.975 47.3982 201.644 45.7565 199.053C45.5468 197.008 44.9145 194.867 44.9633 192.658C45.4834 188.334 45.745 184.174 45.8425 179.756C45.7726 179.074 46.2196 178.064 46.5723 177.478C47.2078 175.623 47.8433 173.768 46.9525 171.791C46.6242 171.273 46.8127 170.427 47.0013 169.581C48.2268 164.085 47.5034 158.371 48.1421 152.52C48.1909 150.31 48.6622 148.196 49.2977 146.341C50.7573 141.786 50.8515 141.363 49.1643 136.986C50.9035 135.157 53.1595 133.002 54.5703 130.655C56.2395 128.145 58.6353 127.353 60.3744 125.524C61.5268 123.342 62.4207 121.323 63.5731 119.14C64.6068 118.485 66.1574 117.503 68.2249 116.192C68.155 115.51 68.0152 114.147 68.0396 113.042C70.2013 111.309 71.8461 109.904 73.7494 108.334C74.172 108.429 75.0172 108.62 75.8624 108.811C76.3793 108.483 76.732 107.896 77.2489 107.569C78.0941 107.759 78.9393 107.95 79.3619 108.045C80.654 107.226 81.1254 105.112 80.5662 99.6572C81.083 99.3296 81.1773 98.9068 81.6942 98.5792C82.5394 98.7698 83.3846 98.9603 84.2298 99.1508C86.9782 97.772 88.8116 95.5209 89.6357 92.8202C90.4597 90.1195 92.363 88.5502 94.4305 87.2399C95.7226 86.421 96.5922 85.5069 97.6259 84.8517C99.0367 82.5053 100.353 80.5818 101.411 78.822C102.822 76.4756 103.552 74.1977 103.014 71.634C102.57 68.6476 103.23 65.6878 104.407 62.4005C104.875 64.2823 104.851 65.387 105.085 66.3279C105.766 66.2594 106.447 66.1908 107.386 65.9585C108.538 63.7759 109.268 61.498 110.515 58.8926C111.783 59.1784 112.369 59.5327 113.12 60.146C113.613 60.9231 113.683 61.605 114.175 62.3821C114.598 62.4773 115.279 62.4088 115.537 62.245C117.088 61.2623 115.024 58.5767 117.419 57.7845ZM180.627 64.927C181.141 68.5953 181.654 72.2636 182.004 75.6729C182.213 77.7185 182.587 80.0231 183.055 81.9049C183.524 83.7867 184.25 85.5047 186.597 86.9219C186.576 84.0307 186.883 81.6575 186.768 79.1891C185.692 74.0618 182.737 69.3991 180.627 64.927ZM188.187 95.7175C187.481 96.8907 186.965 97.2183 186.87 97.6411C187.925 99.8772 188.722 102.277 189.941 104.772C190.552 104.022 190.81 103.858 191.327 103.53C190.108 101.035 189.312 98.6355 188.187 95.7175ZM123.974 199.588C126.698 199.314 128.742 199.108 130.785 198.902C131.724 198.67 132.499 198.179 131.937 196.72C129.049 196.735 126.817 197.786 123.974 199.588ZM145.755 67.058C145.213 68.4902 144.508 69.6634 143.803 70.8366C144.554 71.45 145.046 72.2271 145.961 73.0994C147.372 70.753 147.749 69.0618 145.755 67.058ZM174.739 116.222C173.939 117.818 174.079 119.182 176.098 120.081C176.475 118.389 176.757 117.121 174.739 116.222ZM141.579 179.354C138.809 177.842 138.809 177.842 137.985 180.542C139.323 181.51 140.356 180.855 141.579 179.354ZM159.34 109.642C158.799 111.075 158.352 112.084 158.069 113.352C158.069 113.352 158.492 113.448 158.656 113.707C159.948 112.888 160.395 111.878 159.34 109.642ZM187.299 89.7446C185.749 90.7273 185.983 91.6682 186.381 92.8681C186.545 93.1271 186.804 92.9633 187.39 93.3176C187.415 92.213 187.181 91.2721 187.299 89.7446ZM140.715 172.276C141.208 173.054 141.536 173.572 142.193 174.608C142.64 173.598 142.993 173.012 143.44 172.002C142.5 172.235 141.819 172.303 140.715 172.276ZM104.688 91.9945C104.266 91.8993 104.101 91.6402 103.843 91.804C103.49 92.3906 103.302 93.2362 102.949 93.8228C103.113 94.0819 103.372 93.9181 103.536 94.1771C104.147 93.4267 104.5 92.8401 104.688 91.9945ZM136.61 196.663C136.774 196.922 136.774 196.922 136.68 197.345C136.938 197.181 137.619 197.112 137.878 196.949C137.714 196.69 137.549 196.431 137.808 196.267C137.385 196.172 137.127 196.335 136.61 196.663ZM201.729 74.7904C201.988 74.6266 202.41 74.7219 202.669 74.5581C202.34 74.04 202.176 73.781 201.848 73.2629C201.59 73.4267 201.59 73.4267 201.331 73.5905C201.237 74.0133 201.401 74.2723 201.729 74.7904Z" fill="#FFEB26"/>
<path d="M75.0011 217.191C74.1104 215.214 73.7122 214.014 75.2628 213.031C75.7553 213.808 76.2478 214.585 77.1629 215.458C76.5517 216.208 75.7764 216.699 75.0011 217.191Z" fill="#FFEB26"/>
<path d="M117.445 56.6804C117.54 56.2576 117.54 56.2576 117.54 56.2576C117.54 56.2576 117.54 56.2576 117.445 56.6804Z" fill="#FFEB26"/>
<path d="M117.582 58.0437C117.677 57.6209 117.348 57.1028 117.443 56.68C117.348 57.1028 117.513 57.3619 117.582 58.0437Z" fill="#FFEB26"/>
<g clip-path="url(#clip0)">
<path d="M207.989 81.5699C204.5 69.4602 199.784 56.6381 192.935 45.953C188.477 38.9591 181.241 33.1957 172.712 36.1746C171.678 35.8508 171.549 36.1098 169.934 36.8869C164.83 39.2829 159.661 45.0464 155.267 48.6081C145.188 56.7028 135.109 64.7976 125.094 72.8924C108.812 86.1677 92.2075 99.2489 75.9257 112.589C75.8611 112.589 75.8611 112.654 75.7965 112.654C71.7906 115.956 67.7202 119.324 63.7143 122.691C63.1975 123.145 63.1328 123.727 63.3267 124.181C56.0903 133.83 66.5572 158.049 79.4793 153.581C79.7377 153.516 79.8669 153.387 79.9962 153.192C81.4176 153.128 82.839 153.063 84.2604 152.998C84.325 152.998 84.325 153.063 84.3897 153.063C84.8419 153.257 85.2296 153.192 85.5526 152.933C85.8757 152.933 86.2634 152.869 86.5864 152.869C96.0841 168.669 94.1458 185.183 87.814 202.02C86.4572 205.517 84.5835 209.078 88.3955 211.604C93.2413 214.842 102.997 214.194 108.296 213.288C110.428 212.899 112.172 212.187 113.658 211.215C123.737 210.244 127.808 198.458 128.583 189.392C129.746 175.728 128.712 161.481 123.221 148.854C129.165 148.012 135.109 147.105 140.988 146.263C152.489 144.515 164.119 142.572 175.555 140.176C175.555 140.241 175.49 140.241 175.49 140.305C175.232 140.629 175.684 141.018 175.943 140.759C176.136 140.5 176.33 140.241 176.524 139.982C186.409 137.909 196.166 135.513 205.793 132.534C206.439 132.34 206.762 131.887 206.826 131.369C220.911 123.404 211.349 93.2264 207.989 81.5699ZM79.35 151.25C79.2854 151.25 79.2854 151.25 79.2854 151.25C71.5322 151.509 67.7202 145.162 65.6526 138.622C64.102 133.83 64.425 129.62 65.6526 124.958C65.7173 124.893 65.8465 124.893 65.9111 124.828C68.4309 122.886 70.8861 120.943 73.3413 119C70.1108 130.074 71.9845 143.802 81.2884 150.991C80.5776 151.055 79.9315 151.12 79.35 151.25ZM84.6481 150.343C75.0858 140.305 72.9536 130.009 76.0549 116.734C76.8949 116.086 77.6702 115.438 78.5101 114.791C73.6643 126.836 77.541 141.147 87.2971 149.954C86.3926 150.084 85.5526 150.213 84.6481 150.343ZM118.246 189.198C117.341 198.134 116.566 208.884 105.323 210.05C102.545 210.309 99.6377 210.309 96.8595 210.115C91.9491 209.726 90.0108 208.69 90.5923 204.351C93.1121 204.416 95.5673 204.416 98.0871 204.351C98.5393 204.351 98.5393 203.639 98.0871 203.639C95.6319 203.574 93.1767 203.574 90.7215 203.639C90.7861 203.38 90.8507 203.121 90.8507 202.862C91.2384 201.048 91.7552 199.235 92.2721 197.487C94.9212 197.616 97.5702 197.875 100.219 198.264C100.607 198.329 100.671 197.681 100.284 197.616C97.6994 197.098 95.0504 196.839 92.4013 196.839C93.0474 194.573 93.6936 192.436 94.3397 190.234C97.1179 190.363 99.9608 190.363 102.739 190.234C103.256 190.234 103.256 189.457 102.739 189.457C100.025 189.392 97.3117 189.327 94.5981 189.457C95.2442 187.061 95.8257 184.6 96.278 182.139C100.478 182.074 104.613 182.269 108.748 182.592C109.265 182.657 109.2 181.88 108.748 181.815C104.613 181.362 100.478 181.297 96.3426 181.556C96.7302 179.16 96.9241 176.764 96.8595 174.174C99.1208 174.303 101.382 174.303 103.644 174.239C104.031 174.239 104.031 173.591 103.644 173.591C101.382 173.526 99.1208 173.526 96.8595 173.656C96.8595 173.526 96.8595 173.397 96.8595 173.203C96.7302 170.806 96.4072 168.475 95.8903 166.144C98.927 166.338 101.899 166.468 104.936 166.532C105.388 166.532 105.388 165.82 104.936 165.82C101.899 165.626 98.7978 165.561 95.7611 165.496C95.115 162.906 94.2104 160.38 93.0474 157.984C96.278 158.049 99.5731 158.114 102.804 157.984C103.256 157.984 103.256 157.272 102.804 157.272C99.4439 157.143 96.0841 157.207 92.6598 157.272C91.8199 155.653 90.8507 154.164 89.6877 152.739C97.3763 152.221 105.065 151.379 112.689 150.343C112.689 150.602 112.754 150.926 112.947 151.12C117.276 156.236 117.858 166.079 118.375 172.361C118.892 177.93 118.827 183.564 118.246 189.198ZM125.934 180.585C125.805 189.457 124.965 199.106 118.956 204.934C121.411 199.494 121.734 192.436 122.122 186.413C122.639 178.707 122.187 171.001 120.765 163.424C119.861 158.502 119.085 153.322 115.338 149.954C117.018 149.76 118.698 149.501 120.378 149.242C124.836 159.021 126.063 169.835 125.934 180.585ZM179.561 135.643C180.401 134.218 181.111 132.664 181.693 131.045C181.887 130.462 181.047 130.268 180.788 130.786C180.142 132.534 179.367 134.218 178.462 135.837C173.681 136.873 168.9 137.909 164.119 138.816C167.22 133.894 169.74 128.649 171.808 123.274C171.937 122.886 171.355 122.627 171.161 123.015C168.771 128.584 165.993 133.83 163.02 139.075C159.273 139.787 155.59 140.5 151.843 141.147C153.2 138.751 154.298 136.226 155.073 133.571C155.203 133.117 154.492 132.923 154.363 133.376C153.458 136.096 152.295 138.751 150.938 141.277C147.902 141.795 144.8 142.313 141.699 142.831C141.118 142.896 140.601 142.961 140.019 143.09C141.505 140.111 142.927 137.132 144.283 134.089C144.477 133.635 143.831 133.182 143.573 133.7C142.022 136.809 140.536 140.046 139.115 143.22C135.626 143.738 132.137 144.191 128.583 144.644C131.232 139.334 133.817 133.894 136.078 128.39C136.272 127.872 135.432 127.548 135.238 128.001C132.524 133.441 130.069 139.075 127.743 144.774C125.74 145.033 123.737 145.292 121.734 145.551C121.411 145.098 120.895 145.033 120.507 145.098C121.864 142.507 122.962 139.852 123.802 137.068C123.931 136.614 123.221 136.42 123.091 136.873C122.058 139.982 120.765 142.896 119.344 145.81C115.726 146.263 112.108 146.652 108.489 147.105C108.748 146.717 108.942 146.328 109.135 146.004C110.363 143.479 111.461 140.953 112.624 138.363C112.818 137.974 112.237 137.65 112.108 138.039C111.397 139.528 110.686 141.083 109.975 142.572C109.782 142.961 107.908 147.429 107.456 147.04C107.262 146.846 106.939 147.04 107.003 147.299C104.871 147.558 102.804 147.817 100.736 148.076C102.222 145.875 103.321 143.414 104.225 140.953C104.419 140.5 103.644 140.305 103.514 140.759C102.481 143.349 101.253 145.745 100.09 148.206C97.5056 148.53 94.9212 148.918 92.3367 149.242C94.0812 146.134 95.8257 142.961 97.441 139.787C97.6994 139.334 96.9887 138.946 96.7949 139.399C94.9858 142.701 93.1767 146.004 91.4968 149.372C91.1737 149.436 90.9153 149.436 90.5923 149.501C89.0416 148.012 87.7494 146.522 86.5218 144.968C86.5864 144.968 86.5864 144.903 86.651 144.903C88.5893 140.694 90.2692 136.29 92.0783 132.016C92.2721 131.498 91.4322 131.239 91.2384 131.757C89.5585 136.031 87.814 140.241 86.2634 144.579C84.3897 142.054 82.9036 139.464 81.8052 136.744C81.8052 136.744 81.8699 136.744 81.8699 136.679C82.6452 133.635 83.7436 130.657 85.165 127.872C85.4234 127.354 84.7127 126.965 84.4543 127.419C83.0328 130.009 82.0637 132.729 81.4176 135.578C80.5776 133.182 80.0608 130.721 79.7377 128.196C79.8023 128.196 79.8023 128.131 79.8023 128.066C81.2238 124.116 82.9682 120.295 84.9712 116.539C85.165 116.151 84.5835 115.827 84.3897 116.215C82.3867 119.712 80.8361 123.274 79.6085 127.095C79.2854 122.627 79.7377 117.964 81.0299 113.107C94.2104 102.487 107.262 91.6722 120.442 80.9871C129.294 73.799 138.081 66.6756 146.868 59.4874C151.261 55.9257 155.655 52.2993 160.048 48.7376C162.31 46.9244 164.571 44.7226 166.962 42.7151C161.664 55.0191 165.153 81.5052 166.445 87.8515C169.352 101.904 177.299 127.678 193.646 132.47C188.735 133.506 184.148 134.607 179.561 135.643ZM197.652 129.426C181.758 128.131 173.681 103.588 170.386 90.8303C168.254 82.6708 167.156 74.317 167.156 65.8985C167.156 56.8324 166.833 44.3341 175.038 39.0239C191.255 36.5631 200.301 68.424 203.79 79.8215C207.343 91.4131 219.748 131.175 197.652 129.426Z" fill="#272727"/>
<path d="M205.729 119.518C199.784 125.735 194.422 126.447 189.77 121.655C188.607 120.684 187.573 119.583 186.539 118.482C184.601 116.216 182.986 113.755 181.629 111.1C178.786 105.595 177.106 99.5728 175.749 93.615C173.359 83.3833 164.443 48.2844 178.98 43.4923C179.432 43.3628 179.303 42.78 178.851 42.7152C168.319 41.6791 169.611 58.1277 169.676 64.733C169.87 77.6846 172.131 90.96 176.202 103.264C179.045 112.006 183.761 121.785 192.483 126.059C198.557 129.038 206.827 127.743 206.956 119.713C206.956 119 205.858 118.806 205.729 119.518Z" fill="#272727"/>
<path d="M177.947 76.3892C177.236 76.1302 176.719 77.2958 177.43 77.6844C184.924 81.3108 188.026 88.9523 185.377 96.8528C184.795 98.666 187.509 99.3136 188.155 97.6299C191.579 88.6933 186.927 79.1738 177.947 76.3892Z" fill="#272727"/>
<path d="M238.356 62.0777C230.086 64.7976 221.363 69.0716 213.739 73.2161C213.223 73.5399 213.546 74.3818 214.127 74.1875C222.526 71.7914 231.701 68.7478 239.519 64.8623C241.07 64.0852 239.971 61.5597 238.356 62.0777Z" fill="#272727"/>
<path d="M242.491 32.0949C230.021 39.4126 218.262 48.2197 206.244 56.2497C205.275 56.8973 206.115 58.2572 207.149 57.8039C220.2 51.3928 233.51 44.2695 244.817 35.1386C246.497 33.7139 244.3 31.0588 242.491 32.0949Z" fill="#272727"/>
<path d="M212.642 24.0649C209.67 25.2953 207.408 28.2741 205.147 30.5407C202.627 33.0015 200.172 35.4623 198.104 38.3116C197.588 39.024 198.621 39.9953 199.332 39.542C202.11 37.7288 204.63 35.4623 207.15 33.2605C209.476 31.1882 212.836 28.9865 214.257 26.1371C214.645 25.1657 213.869 23.6116 212.642 24.0649Z" fill="#272727"/>
<path d="M238.873 79.9511C235.578 80.1454 232.412 82.0234 229.375 83.3185C226.274 84.6137 223.108 85.8441 220.136 87.3335C218.973 87.9163 219.813 89.5353 220.976 89.2763C224.659 88.5639 228.147 87.3335 231.636 86.0384C234.479 85.0022 237.581 84.2251 239.842 82.1529C240.617 81.5053 240.036 79.8863 238.873 79.9511Z" fill="#272727"/>
<path d="M259.031 109.027C247.466 104.689 232.218 101.969 219.813 102.357C218.779 102.357 218.65 103.782 219.554 104.106C226.209 106.372 233.381 107.344 240.229 108.639C246.303 109.805 252.441 111.294 258.643 111.683C260.323 111.812 260.388 109.545 259.031 109.027Z" fill="#272727"/>
<path d="M243.98 127.095C240.814 124.893 236.614 124.051 232.931 123.08C229.765 122.173 226.147 120.878 222.852 121.526C222.335 121.655 222.141 122.367 222.529 122.691C224.984 124.699 228.279 125.282 231.251 126.382C234.934 127.678 238.746 129.815 242.623 130.397C244.561 130.592 245.659 128.26 243.98 127.095Z" fill="#272727"/>
</g>
<defs>
<clipPath id="clip0">
<rect width="199" height="190" fill="white" transform="translate(61 24)"/>
</clipPath>
</defs>
</svg>
