<svg width="271" height="200" viewBox="0 0 271 200" fill="none" xmlns="http://www.w3.org/2000/svg">
<path d="M256.402 107.621C257.215 107.561 258.028 107.502 258.586 107.388C258.299 118.736 250.435 126.837 243.864 136.379C245.84 135.869 246.956 135.642 247.817 135.359C247.104 138.7 244.06 139.215 240.807 139.452C240.315 140.511 239.774 141.793 238.979 143.021C237.656 142.971 236.332 142.922 235.009 142.872C233.145 144.104 231.329 145.114 229.465 146.346C229.418 146.569 229.626 146.846 229.578 147.069C233.085 146.886 236.385 146.425 241.008 146.015C239.91 147.41 239.673 148.524 239.067 148.86C232.486 150.949 225.904 153.037 219.37 154.903C216.533 155.695 213.233 156.155 210.141 156.893C210.189 156.67 210.379 155.779 210.711 154.22C201.738 156.265 193.322 158.195 184.046 160.407C185.482 161.179 186.153 161.788 187.334 162.505C186.17 162.956 185.31 163.238 184.194 163.466C173.452 166.296 162.182 167.851 151.275 166.455C134.308 164.699 118.545 168.554 102.059 168.297C99.9225 168.307 98.1539 169.094 96.4803 169.435C93.976 168.668 92.2373 168.065 90.1959 167.629C82.2853 165.942 74.6299 164.309 67.2297 162.73C63.7766 156.405 57.8301 156.767 53.7472 155.896C49.4865 153.357 45.8964 151.427 42.3537 149.274C43.0066 148.715 43.707 147.933 44.9652 147.037C44.0395 146.374 43.1138 145.711 42.1881 145.048C41.7904 145.662 41.4402 146.053 41.09 146.444C39.9091 145.726 38.6807 145.231 37.9627 144.845C35.3159 144.746 33.1794 144.756 30.7878 144.712C30.6276 144.212 30.42 143.935 30.2598 143.435C32.4261 142.034 34.3372 140.579 36.551 138.956C37.3641 138.897 38.1296 139.06 38.9427 139C38.1296 139.06 37.3641 138.897 36.551 138.956C33.1862 138.471 30.0765 138.04 26.4565 137.501C26.5339 135.888 26.5162 134.72 26.5461 133.329C24.8073 132.725 23.3713 131.953 21.8877 131.404C21.342 128.959 20.7964 126.515 20.5059 124.124C21.2538 123.12 21.7465 122.061 22.5419 120.833C20.9932 119.339 19.2368 117.567 17.4329 116.018C15.6765 114.246 12.7568 112.925 11.861 110.871C10.5973 108.04 9.22092 104.487 10.0462 101.869C11.7442 96.4104 12.9793 90.6201 18.6177 86.7005C24.2561 82.7808 30.7903 80.915 36.7965 77.7723C43.7108 74.1248 51.0879 70.8089 58.8152 67.102C59.3256 67.2109 60.9042 67.3148 62.1801 67.587C62.2276 67.3643 61.9724 67.3098 62.0199 67.0871C64.0437 66.3546 66.3227 65.6766 68.3464 64.9441C73.2546 63.1971 78.4179 61.5044 83.3735 59.5347C84.5367 59.0843 85.3321 57.857 86.2877 57.1295C87.4985 56.4564 88.9644 55.8377 90.1276 55.3874C92.1392 57.2135 94.3231 56.9809 96.1393 55.9712C102.703 52.7147 106.608 51.9179 113.481 52.2197C115.504 51.4872 117.528 50.7547 119.297 49.9678C119.985 51.7445 121.403 51.3485 122.822 50.9526C131.19 49.2451 139.303 47.4831 147.878 46.0527C151.481 45.4241 155.148 45.7408 158.958 45.3894C161.653 45.2656 164.234 44.4193 166.976 44.0728C178.804 42.4048 190.424 40.4597 202.252 38.7917C202.204 39.0144 202.364 39.5143 202.317 39.737C204.709 39.7815 207.308 40.1031 209.747 39.9249C213.86 39.4052 217.32 39.4447 220.767 42.0429C222.108 43.2603 224.915 43.8591 227.835 45.1804C229.229 49.9016 234.303 52.381 238.914 54.5287C245.679 57.8345 247.298 64.0008 251.386 68.5983C250.128 69.4941 249.172 70.2216 248.822 70.6126C250.228 72.7752 251.172 74.6063 252.37 76.4919C252.002 75.7149 251.842 75.215 251.474 74.4381C251.219 74.3836 250.661 74.4975 250.406 74.443C249.468 76.3385 248.53 78.2339 247.848 80.1838C248.103 80.2383 248.311 80.5154 248.566 80.5698C249.919 79.2287 251.065 77.6103 252.418 76.2691C252.038 78.0508 251.355 80.0007 250.625 82.1733C250.625 82.1733 251.088 82.5048 251.806 82.8908C251.218 84.3953 250.375 85.8454 249.835 87.1271C251.146 89.7352 252.25 92.0661 253.721 95.174C254.184 95.5056 255.412 96.0005 256.593 96.7181C256.421 98.7768 256.088 100.336 255.708 102.117C255.791 104.231 255.921 106.121 256.402 107.621C256.004 108.234 255.606 108.848 255.209 109.462L254.906 109.63L254.953 109.407C255.606 108.848 256.004 108.234 256.402 107.621ZM181.405 120.261C180.034 120.435 178.71 120.385 177.34 120.558C177.547 120.836 177.5 121.058 177.707 121.335C178.823 121.108 180.241 120.712 181.405 120.261L181.452 120.039L181.405 120.261ZM75.4306 123.035C72.0182 122.772 69.8994 123.95 69.3769 126.4C67.6083 127.187 66.1423 127.805 64.071 128.761C69.6198 129.013 74.718 126.375 75.4306 123.035ZM164.758 119.504C164.966 119.782 164.966 119.782 165.174 120.059C165.732 119.945 166.497 120.108 166.8 119.94C167.358 119.826 167.5 119.158 168.551 117.985C166.527 118.718 165.619 119.222 164.758 119.504ZM124.163 95.9433C123.955 95.6662 123.748 95.389 123.492 95.3346C122.84 95.8938 122.442 96.5075 121.789 97.0667C122.044 97.1212 122.252 97.3983 122.252 97.3983C122.905 96.8391 123.51 96.5025 124.163 95.9433ZM227.989 139.512C228.196 139.789 228.149 140.012 228.356 140.289C229.17 140.23 229.775 139.893 230.588 139.834C230.38 139.556 230.428 139.334 230.22 139.057C229.407 139.116 228.802 139.453 227.989 139.512ZM182.355 115.807C182.307 116.03 182.515 116.307 182.515 116.307C183.073 116.193 183.631 116.08 184.189 115.966C184.236 115.743 184.028 115.466 184.028 115.466C183.471 115.58 182.913 115.694 182.355 115.807ZM228.665 143.847C228.712 143.625 229.015 143.456 229.062 143.234C228.807 143.179 228.855 142.956 228.855 142.956C228.552 143.125 228.504 143.347 228.457 143.57C228.457 143.57 228.409 143.793 228.665 143.847ZM181.37 161.699C181.625 161.753 181.88 161.808 182.183 161.639C182.183 161.639 182.183 161.639 182.23 161.417C181.927 161.585 181.672 161.531 181.37 161.699ZM179.423 117.045C179.471 116.822 179.518 116.599 179.518 116.599C179.471 116.822 179.471 116.822 179.423 117.045Z" fill="#FFEB26"/>
<path d="M213.693 166.499C211.099 169.904 206.761 168.978 202.903 169.552C206.393 168.201 209.883 166.85 213.693 166.499Z" fill="#FFEB26"/>
<path d="M67.864 63.4448C68.2142 63.0538 68.3092 62.6084 68.6119 62.4402C68.8196 62.7173 69.0748 62.7717 69.0273 62.9944C68.5169 62.8856 68.2142 63.0538 67.864 63.4448Z" fill="#FFEB26"/>
<path d="M240.569 150.578C240.011 150.691 239.708 150.86 240.266 150.746C239.755 150.637 240.058 150.469 240.569 150.578Z" fill="#FFEB26"/>
<path d="M247.817 135.36C247.959 134.691 247.799 134.192 247.941 133.523C248.197 133.578 248.452 133.632 248.707 133.687C248.309 134.3 247.959 134.691 247.817 135.36Z" fill="#FFEB26"/>
<path d="M94.8923 54.3085C94.5896 54.4767 94.3344 54.4223 94.8923 54.3085C94.382 54.1996 94.6371 54.254 94.8923 54.3085Z" fill="#FFEB26"/>
<path d="M80.1322 57.2137L80.4349 57.0454L80.1797 56.991L80.1322 57.2137Z" fill="#FFEB26"/>
<path d="M80.1821 56.9909C79.6243 57.1048 79.3216 57.273 78.7637 57.3869C79.2741 57.4957 79.5768 57.3275 80.1821 56.9909Z" fill="#FFEB26"/>
<path d="M78.7617 57.387L78.9219 57.8868L78.7142 57.6097L78.7617 57.387Z" fill="#FFEB26"/>
<path d="M221.82 162.178L222.122 162.01L221.82 162.178Z" fill="#FFEB26"/>
<path d="M213.646 166.721C213.949 166.553 214.554 166.217 214.857 166.048C214.601 165.994 213.996 166.33 213.646 166.721Z" fill="#FFEB26"/>
<g clip-path="url(#clip0)">
<path d="M218.577 132.124C216.744 132.038 216.744 134.814 218.577 134.901C247.469 135.682 257.245 103.231 244.589 81.3652C228.528 53.8598 188.638 45.7904 159.31 50.1288C143.162 52.4715 128.236 61.4954 120.555 74.5106C120.467 74.5106 120.467 74.4238 120.38 74.4238C89.2187 69.3045 41.0365 69.2177 23.4919 101.669C17.0327 113.643 20.0005 126.745 29.602 135.942C41.8221 147.656 59.454 151.04 75.6893 148.524C77.5223 156.94 70.5394 162.059 64.4293 166.311C63.2946 167.092 63.731 168.741 65.1276 168.914C80.1409 170.216 94.3686 162.146 101.002 148.784C115.317 147.829 130.243 146.007 140.107 134.467C140.543 133.947 140.543 133.339 140.281 132.905C156.604 140.107 177.727 139.76 194.835 138.198C200.771 149.218 211.769 156.419 224.338 157.634C225.386 157.721 226.171 156.333 225.56 155.552C221.021 149.305 218.228 142.363 217.181 134.727C216.919 132.992 214.126 132.992 214.388 134.727C215.348 141.929 217.617 148.437 221.458 154.424C210.372 152.428 201.033 145.226 196.232 134.901C195.621 133.513 193.875 134.294 193.701 135.508C169.522 137.678 137.663 138.632 123.435 114.858C107.287 87.8728 128.148 58.9791 156.08 53.5127C179.997 48.8273 208.365 53.3392 228.179 67.9162C239.09 75.8989 247.731 88.3934 247.818 102.276C247.818 118.675 235.424 132.645 218.577 132.124ZM116.714 106.268C120.38 119.109 128.498 127.179 138.71 132.038C138.536 132.124 138.361 132.211 138.186 132.385C128.672 143.404 114.445 144.966 100.741 145.921C100.13 145.66 99.4312 145.66 99.0821 146.441C93.583 158.242 82.1485 165.704 69.4047 166.137C75.5147 161.452 80.5773 155.552 78.3952 147.222C78.3079 146.788 77.9587 146.441 77.6096 146.354C77.3477 145.921 76.824 145.573 76.1257 145.66C60.3269 148.35 41.7348 145.053 30.4749 132.732C16.509 117.634 24.1902 99.1527 39.3781 88.567C62.3344 72.6017 92.6229 72.6885 119.158 77.1136C114.881 85.5301 113.572 95.5084 116.714 106.268Z" fill="#272727"/>
<path d="M103.618 124.401C93.6674 123.62 83.7167 123.273 73.766 123.62C64.0772 123.967 51.9444 127.178 42.5175 124.401C40.7717 123.881 40.0734 126.57 41.7319 127.091C50.5478 129.607 60.0621 127.004 69.1398 126.57C80.6617 125.963 92.0962 126.31 103.618 127.178C105.364 127.351 105.364 124.575 103.618 124.401Z" fill="#272727"/>
<path d="M93.5804 104.618C78.3052 105.486 63.1174 106.44 47.8422 107.308C46.0965 107.395 46.0092 110.171 47.8422 110.085C63.1174 109.217 78.3052 108.262 93.5804 107.395C95.3261 107.308 95.3261 104.531 93.5804 104.618Z" fill="#272727"/>
<path d="M220.759 108.002C192.304 106.354 163.848 106.093 135.48 107.221C133.647 107.308 133.647 110.085 135.48 109.998C163.936 108.783 192.391 109.043 220.759 110.779C222.592 110.952 222.592 108.176 220.759 108.002Z" fill="#272727"/>
<path d="M222.591 84.6616C195.096 84.6616 167.6 85.0087 140.105 85.6161C138.272 85.7028 138.272 88.4794 140.105 88.3927C166.64 87.7853 193.088 87.4382 219.623 87.4382C219.972 88.0456 220.758 88.3926 221.544 88.0456C222.155 87.7853 222.678 87.525 223.289 87.2647C224.599 86.6573 223.9 84.6616 222.591 84.6616Z" fill="#272727"/>
</g>
<defs>
<clipPath id="clip0">
<rect width="230" height="120" fill="white" transform="translate(20 49)"/>
</clipPath>
</defs>
</svg>
