<svg width="214" height="228" viewBox="0 0 214 228" fill="none" xmlns="http://www.w3.org/2000/svg">
<g clip-path="url(#clip0)">
<path d="M87.4319 12.2099C86.9401 12.1046 86.2023 11.9466 85.658 12.0867L85.6055 12.332C86.1498 12.192 86.6416 12.2973 87.4319 12.2099Z" fill="#FFEB26"/>
<path d="M126.699 215.617C127.191 215.722 127.929 215.88 128.473 215.74L128.526 215.495C128.034 215.389 127.244 215.477 126.699 215.617Z" fill="#FFEB26"/>
<path d="M180.07 29.9907C178.296 29.8675 176.207 31.2164 174.276 31.8292C172.344 32.442 170.465 32.8095 168.78 33.475C168.006 32.2831 167.426 31.3891 166.846 30.4952C164.685 29.7761 162.77 29.1096 160.61 28.3904C159.662 29.2139 158.714 30.0373 157.468 31.0534C156.536 30.5974 155.658 29.8962 154.287 29.0897C152.779 31.3324 151.322 33.3299 149.813 35.5726C149.496 33.452 148.88 31.5241 148.562 29.4035C148.07 29.2982 147.825 29.2456 147.333 29.1403C146.473 30.7523 145.86 32.417 144.754 33.9765C144.157 34.3618 143.262 34.9399 142.367 35.518C142.508 36.0613 142.701 36.3593 143.088 36.9552C142.245 37.288 141.648 37.6733 140.805 38.0061C140.278 36.8668 139.996 35.7802 139.855 35.2369C137.222 36.7257 134.834 38.2673 131.903 39.9488C131.604 40.1415 131.306 40.3342 130.761 40.4743C130.709 40.7196 130.41 40.9123 130.358 41.1576C125.628 33.2175 121.935 25.2425 113.712 20.4033C113.607 20.894 113.204 21.5774 113.098 22.068C111.676 21.5068 110.253 20.9456 108.777 20.6298C107.407 19.8232 106.335 18.824 104.771 17.7195C103.876 18.2976 102.98 18.8756 102.682 19.0683C99.9243 18.7346 97.606 18.7514 95.0944 18.4703C94.2683 17.5237 93.2488 16.2792 92.4228 15.3326C91.8259 15.718 91.2815 15.858 91.2815 15.858C89.5243 14.4555 88.5049 13.211 87.187 12.1591C87.908 13.5963 88.5765 15.2789 89.2976 16.7162C88.9991 16.9089 88.9991 16.9089 88.7007 17.1016C87.4878 15.559 86.2224 14.2618 85.2555 12.7719C85.308 12.5266 85.3605 12.2812 85.413 12.0359C84.131 12.018 82.8489 12.0001 81.5668 11.9822C81.4259 11.4389 81.0917 10.5976 80.8625 9.26567C75.77 10.2281 70.4124 8.8246 65.585 12.153C62.3022 14.2726 58.9144 16.8829 54.488 15.9353C52.6449 17.3367 50.9426 19.2815 49.2571 19.947C46.1319 21.3306 44.8164 23.8713 43.9403 26.7627C43.2742 28.6728 42.1688 30.2322 41.2568 32.0896C41.0109 32.0369 40.765 31.9843 40.5716 31.6863C37.9789 41.3944 35.4913 50.6119 33.0562 59.584C32.636 61.5467 32.1634 63.7547 31.4973 65.6647C30.6736 68.3108 29.0597 71.0442 28.2361 73.6903C26.5721 80.2617 25.154 86.8857 23.736 93.5098C23.4734 94.7364 23.5092 95.7704 21.9812 95.6999C21.912 97.2245 21.7903 98.9945 21.6685 100.765C19.1426 105.355 18.4598 108.545 18.9732 114.556C19.0974 116.379 18.7298 118.096 16.5524 118.656C16.5357 119.935 16.5715 120.969 16.5548 122.249C16.8366 123.335 17.4168 124.229 17.4526 125.263C17.2975 129.592 16.8964 133.868 16.7413 138.197C16.6196 139.967 16.4978 141.737 16.3236 143.752C16.5695 143.804 16.5695 143.804 16.8154 143.857C16.1135 144.733 15.6575 145.662 15.3065 146.1C15.5573 153.338 15.9657 159.84 16.374 166.342C16.7466 171.81 16.0829 177.312 17.1932 182.938C18.3035 188.564 22.5031 191.772 26.3518 195.418C28.0565 197.066 31.4992 197.803 34.0109 198.084C35.7848 198.208 37.8738 196.859 39.8053 196.246C41.7367 195.633 43.6157 195.266 45.3012 194.6C46.0748 195.792 46.655 196.686 47.2351 197.58C49.3958 198.299 51.3106 198.965 53.4713 199.685C54.4191 198.861 55.3669 198.038 56.6132 197.022C57.5443 197.478 58.4229 198.179 59.7933 198.985C61.3022 196.743 62.7585 194.745 64.2674 192.502C64.5849 194.623 65.2009 196.551 65.5185 198.672C66.0103 198.777 66.2562 198.83 66.7481 198.935C67.6075 197.323 68.467 195.711 69.3265 194.099C69.9233 193.713 70.8186 193.135 71.7139 192.557C71.5731 192.014 71.3797 191.716 70.9929 191.12C71.8357 190.787 72.4325 190.402 73.2753 190.069C73.803 191.208 74.0847 192.295 74.2256 192.838C76.859 191.349 79.2464 189.808 82.1782 188.126C82.4767 187.934 82.7751 187.741 83.3194 187.601C83.372 187.355 83.6704 187.163 83.7229 186.917C88.3118 194.314 92.2512 202.342 100.28 206.883C100.385 206.392 100.789 205.709 100.894 205.218C102.317 205.78 103.74 206.341 105.215 206.657C106.586 207.463 107.658 208.462 109.222 209.567C110.064 209.234 110.96 208.656 111.258 208.463C114.016 208.797 116.334 208.78 118.846 209.061C119.672 210.008 120.691 211.253 121.517 212.199C122.114 211.814 122.658 211.674 122.658 211.674C124.416 213.076 125.435 214.321 126.753 215.373C126.032 213.935 125.363 212.253 124.642 210.816C124.941 210.623 124.941 210.623 125.239 210.43C126.452 211.973 127.717 213.27 128.684 214.76C128.632 215.005 128.579 215.251 128.527 215.496C129.809 215.514 131.091 215.532 132.373 215.55C132.514 216.093 132.848 216.934 133.077 218.266C138.17 217.304 143.528 218.707 148.355 215.379C151.638 213.259 155.026 210.649 159.452 211.597C161.295 210.195 162.997 208.25 164.683 207.585C167.808 206.201 169.123 203.66 170 200.769C170.666 198.859 171.771 197.3 172.683 195.442C172.929 195.495 173.175 195.547 173.368 195.845C175.803 186.873 178.291 177.656 180.972 168.736C181.392 166.774 181.865 164.566 182.531 162.656C183.355 160.01 184.969 157.276 185.792 154.63C187.614 147.323 189.032 140.699 190.45 134.075C190.712 132.848 190.677 131.814 192.205 131.885C192.274 130.36 192.396 128.59 192.517 126.82C195.043 122.229 195.726 119.04 195.213 113.028C195.088 111.206 195.456 109.488 197.633 108.928C197.65 107.649 197.614 106.615 197.631 105.336C197.349 104.249 196.769 103.355 196.733 102.321C196.888 97.9925 197.289 93.7165 197.445 89.3879C197.566 87.6179 197.688 85.8479 197.862 83.8325C197.616 83.7799 197.616 83.7799 197.37 83.7273C198.072 82.8512 198.528 81.9225 198.879 81.4845C198.629 74.2466 198.22 67.7447 197.812 61.2428C197.439 55.7749 197.857 50.2196 196.747 44.5937C195.636 38.9679 191.437 35.7597 187.588 32.1134C186.077 30.7635 182.634 30.0265 180.07 29.9907ZM94.8541 78.4583C94.9592 77.9677 95.0642 77.477 95.1168 77.2317C95.3627 77.2843 95.3627 77.2843 95.6086 77.3369C95.5035 77.8276 95.3985 78.3183 95.346 78.5636C95.346 78.5636 95.1001 78.511 94.8541 78.4583ZM98.1227 81.2107C97.9126 82.192 97.9484 83.226 97.7383 84.2074C97.4924 84.1547 97.2465 84.1021 97.0006 84.0494C97.4566 83.1207 97.6667 82.1394 98.1227 81.2107ZM92.0514 89.1478C92.579 90.2871 93.0183 90.6377 92.9133 91.1284C92.8083 91.619 92.7032 92.1097 92.4048 92.3024C92.1589 92.2498 92.1589 92.2498 91.8604 92.4424C92.018 91.7064 91.9297 90.9178 92.0514 89.1478ZM59.2071 111.623C59.453 111.676 59.7514 111.483 59.9974 111.536C60.1382 112.079 60.2266 112.868 60.6134 113.464C60.3674 113.411 60.3149 113.656 60.069 113.604C59.6822 113.008 59.5939 112.219 59.2071 111.623ZM65.635 163.289C63.9303 161.641 63.5602 159.766 65.0691 157.523C67.2656 159.276 67.7431 164.253 65.6207 168.161C65.4965 166.338 65.5658 164.813 65.635 163.289ZM119.279 149.371C119.174 149.862 119.069 150.353 119.017 150.598C118.771 150.545 118.771 150.545 118.525 150.493C118.63 150.002 118.735 149.511 118.787 149.266C118.787 149.266 119.033 149.319 119.279 149.371ZM116.011 146.619C116.221 145.638 116.185 144.604 116.395 143.622C116.641 143.675 116.887 143.728 117.133 143.78C116.677 144.709 116.221 145.638 116.011 146.619ZM122.082 138.682C121.554 137.543 121.115 137.192 121.22 136.701C121.325 136.211 121.43 135.72 121.729 135.527C121.974 135.58 121.974 135.58 122.273 135.387C122.115 136.123 122.204 136.912 122.082 138.682ZM154.926 116.207C154.68 116.154 154.382 116.347 154.136 116.294C153.995 115.751 153.907 114.962 153.52 114.366C153.766 114.419 153.818 114.173 154.064 114.226C154.451 114.822 154.539 115.611 154.926 116.207ZM148.498 64.5411C150.203 66.1889 150.573 68.0642 149.064 70.307C146.868 68.5539 146.39 63.5766 148.513 59.6692C148.391 61.4392 148.374 62.7185 148.498 64.5411Z" fill="#FFEB26"/>
</g>
<path fill-rule="evenodd" clip-rule="evenodd" d="M140.922 45.2952C142.405 44.9249 144.036 44.7028 145.593 44.8508C156.048 45.8877 165.169 61.4403 155.159 68.9204C155.455 69.2907 155.678 69.8091 155.529 70.4016C152.215 87.8342 146.762 104.938 141.345 121.928L141.345 121.929L141.344 121.931L141.343 121.933L141.343 121.935C139.488 127.751 137.638 133.554 135.88 139.352C132.322 151.27 128.69 163.189 125.058 175.108L125.054 175.123C124.572 176.669 124.13 178.323 123.676 180.022C122.175 185.646 120.542 191.759 116.897 196.082C116.86 196.082 116.842 196.082 116.832 196.091C116.823 196.1 116.823 196.119 116.823 196.156C111.812 204.163 98.3367 200.07 89.4006 197.355L89.3919 197.353C87.7524 196.855 86.2659 196.403 85.0128 196.082C82.7597 195.511 80.4643 194.947 78.1425 194.376C64.4946 191.02 49.9355 187.44 37.7052 181.047C37.3344 181.122 36.9637 181.047 36.6671 180.677C36.6458 180.656 36.6245 180.628 36.6032 180.599C36.5878 180.577 36.5724 180.554 36.5569 180.531L36.5562 180.53L36.5288 180.489C36.5008 180.448 36.4727 180.409 36.4446 180.381C36.3333 180.307 36.2219 180.251 36.1106 180.196C35.9995 180.14 35.8884 180.085 35.7773 180.011C35.4065 179.863 35.4065 179.492 35.5548 179.27C32.4405 175.345 29.4745 171.123 27.3983 166.532C25.4704 164.532 24.4323 162.014 25.3221 158.903L25.2996 158.815C25.2344 158.561 25.1814 158.355 25.248 158.089C27.5027 146.704 30.698 135.436 33.8936 124.167C36.373 115.423 38.8527 106.679 40.8936 97.8779C43.1585 88.2638 45.0856 78.5653 47.0135 68.8629C49.125 58.2361 51.2375 47.6047 53.7957 37.0746C53.8699 36.7042 54.1665 36.5562 54.4631 36.4821C55.3529 33.8159 58.1706 32.4087 61.5814 32.3347C63.0644 32.3347 64.5474 32.4828 66.1046 32.8532C68.1808 29.5204 71.1468 26.7802 74.9284 25.5952C80.8604 23.7437 86.3475 26.4099 89.1652 30.8535C90.5741 30.261 91.9829 29.8167 93.4659 29.6686C97.9891 29.0761 102.883 31.4459 105.552 35.1489C106.887 34.4824 108.296 33.8899 109.853 33.6677C114.969 32.8532 120.531 35.4452 123.497 39.5925C124.238 39.2964 124.906 39.0742 125.647 38.926C130.615 37.8152 137.659 40.6294 140.922 45.2952ZM127.575 43.814C126.833 43.8881 126.166 44.0361 125.499 44.1843C125.795 45.7396 125.721 47.3689 125.276 49.1464L132.617 51.146C133.507 49.887 134.619 48.776 135.88 47.8132C135.583 47.3689 135.286 46.9246 134.916 46.5542C132.988 44.6287 130.318 43.5918 127.575 43.814ZM121.458 47.3699C121.421 47.1288 121.383 46.8878 121.346 46.6283C120.976 46.9987 120.605 47.3689 120.382 47.8132L121.569 48.1095C121.555 48.0128 121.541 47.9188 121.527 47.8264L121.499 47.6371L121.458 47.3699ZM110.001 37.4448C108.963 37.667 108.073 37.9633 107.258 38.4076C107.851 40.2592 107.925 42.1847 107.258 44.1843C110.219 44.9237 113.18 45.737 116.141 46.5502L116.156 46.5542C116.971 44.7767 118.158 43.1475 119.715 41.8143C117.861 38.5558 114.747 36.5562 110.001 37.4448ZM101.919 37.9633C100.214 34.6305 96.6544 33.2234 92.9469 33.8899L92.9437 33.8906C92.2032 34.0386 91.4629 34.1865 90.7965 34.4083C91.1673 36.1118 91.3156 37.8892 90.9448 39.7407C91.2941 39.8325 91.6388 39.9243 91.9812 40.0161C92.1636 40.065 92.3454 40.1139 92.5268 40.1629L93.021 40.2962C93.7069 40.4813 94.3928 40.6665 95.0972 40.8516C95.7953 41.035 96.5115 41.2368 97.2279 41.4386L97.2476 41.4441L97.2672 41.4496C97.9836 41.6514 98.6999 41.8532 99.3979 42.0366C99.9911 40.5554 100.807 39.1482 101.919 37.9633ZM84.7904 32.7791C83.0849 30.0388 80.1931 29.1502 77.0788 29.7426C74.3352 30.261 72.1849 31.8904 70.4795 34.0381C71.5192 34.3496 72.5427 34.6935 73.5501 35.032L73.5566 35.0342C74.7022 35.4191 75.8268 35.7969 76.9305 36.1118C77.6677 36.2959 78.405 36.4983 79.1423 36.7007L79.1569 36.7047C79.8977 36.9082 80.6386 37.1117 81.3795 37.2968C82.3434 35.7415 83.604 34.4083 85.0128 33.2234L84.7904 32.7791ZM32.1464 160.842C30.7608 160.589 29.3761 160.337 27.9915 160.089C30.621 168.743 46.4476 172.924 57.2266 175.772L57.2328 175.773L57.2416 175.776L57.2624 175.781C59.8432 176.463 62.1327 177.069 63.8801 177.641C76.189 181.418 88.572 184.973 100.955 188.379C101.474 188.528 101.771 188.75 101.919 189.12C108.743 187.733 112.518 170.823 114.685 161.114C115.179 158.902 115.589 157.063 115.933 155.867C117.453 150.646 118.974 145.406 120.494 140.166L122.048 134.807C123.05 131.355 124.052 127.907 125.054 124.465C127.402 116.395 129.688 108.304 131.973 100.212L131.974 100.209L131.975 100.207L131.975 100.204L131.976 100.202C135.751 86.835 139.527 73.465 143.591 60.1813C143.295 59.885 143.072 59.3667 143.221 58.7742C143.369 58.1817 140.403 56.9967 135.954 55.5896C135.286 57.5151 134.99 59.737 135.138 61.9588C135.207 62.0504 135.276 62.135 135.343 62.2169C135.491 62.3997 135.629 62.5689 135.731 62.7734C136.695 64.5509 136.102 66.6245 134.471 67.6614C132.915 68.6233 130.397 68.1067 129.579 66.4069C128.547 64.9639 128.646 63.0994 129.874 61.7366C129.897 61.7133 129.92 61.6907 129.944 61.669C129.959 61.6544 129.975 61.6401 129.99 61.6262C130.101 61.528 130.211 61.4446 130.321 61.3673C130.347 61.3491 130.373 61.3313 130.398 61.3137L130.461 61.2714L130.541 61.2182C129.874 58.7742 130.17 56.3302 131.06 54.1084C127.278 52.9974 123.052 51.8125 118.974 50.7017C118.454 52.1829 118.306 53.738 118.38 55.3674C119.048 55.6636 119.567 56.108 119.863 56.7745C119.863 56.8486 119.937 56.8486 119.937 56.9226C120.827 58.9963 120.308 61.3662 118.084 62.3291C116.156 63.1437 113.412 62.1809 112.967 59.885V59.737C112.671 57.8855 113.338 56.0339 115.192 55.2933H115.266C114.895 53.4418 114.895 51.5162 115.266 49.7388C109.408 48.1095 104.292 46.7764 101.993 46.184C101.697 47.8873 101.697 49.6648 102.067 51.4423C103.18 52.1088 103.847 53.3678 103.921 54.7008C103.995 56.7745 102.067 58.552 100.065 58.552C97.9149 58.552 96.2836 56.7745 96.2095 54.7008C96.1353 52.9974 97.3959 51.5903 98.953 51.0719C98.434 49.1464 98.3598 47.1467 98.6564 45.2212C97.5524 44.8667 96.2177 44.4076 94.7082 43.8883C93.3789 43.431 91.9141 42.9271 90.3516 42.4069C89.4618 44.5546 86.1251 44.1843 86.0509 41.6663V40.9998C85.4577 40.7776 84.8645 40.5554 84.2713 40.4072C83.3815 42.0366 82.9366 43.8881 82.9366 45.8136C83.604 45.9618 84.1972 46.332 84.7162 46.7764C85.9026 47.8132 86.1251 49.5907 85.5319 50.9238C85.087 52.0347 83.7523 53.2196 82.4176 53.2196C81.4536 53.5159 80.4155 53.3678 79.5257 52.6272C78.4135 51.7384 77.7461 49.887 78.3393 48.5538C78.4876 47.7393 79.0808 46.9987 79.7482 46.4802C79.3033 43.9622 79.674 41.5182 80.638 39.2964C76.6339 38.1854 72.6298 37.2227 68.9223 36.6301C68.0325 38.0374 66.9203 39.8888 66.9203 41.5922C67.7359 42.0366 68.4774 42.8512 68.6257 43.9622C68.8481 45.5173 68.4033 46.8505 67.0685 47.7393C65.8821 48.4799 64.1767 48.1836 63.1386 47.2948C63.1015 47.2578 63.0459 47.2207 62.9903 47.1836L62.9683 47.169C62.9203 47.1369 62.8742 47.1047 62.842 47.0726C62.3809 46.7849 62.0095 46.3629 61.7624 45.8762C61.7815 45.9414 61.6656 45.7044 61.4332 45.1471C61.359 44.8508 61.2848 44.4806 61.2848 44.1843C61.1366 42.9994 62.1746 41.6663 63.2869 41.2219C63.361 39.4445 64.0284 37.4448 64.6216 36.0377C60.1726 35.8156 56.6876 36.4821 55.427 38.778C55.1304 41.8143 54.7597 44.7767 54.3148 47.7393C54.8156 47.888 55.3189 48.0366 55.8237 48.1858L55.845 48.192C58.0989 48.8579 60.3838 49.5331 62.6196 50.2572C63.0644 50.4054 62.842 51.146 62.3971 50.9978C60.5675 50.5039 58.7379 49.9442 56.9084 49.3845C55.9944 49.1049 55.0804 48.8252 54.1665 48.5538C53.6474 51.9606 53.1284 55.2933 52.5351 58.7001C57.2066 58.6261 61.8039 58.9223 66.4012 59.6629C66.7719 59.6629 66.6237 60.2554 66.2529 60.1813C61.7298 59.5148 57.0583 59.2185 52.461 59.2185C51.9419 62.1068 51.4229 64.9212 50.8297 67.8095C54.3889 67.7355 57.9481 67.8836 61.5073 68.3279C61.9522 68.402 61.9522 69.1426 61.5073 69.0685C57.9481 68.6242 54.3889 68.4761 50.7555 68.5501L50.6079 69.2733L50.4344 70.1246C49.7986 73.2459 49.1549 76.4055 48.4569 79.511C50.639 79.6815 52.8261 79.8473 55.0154 80.0132L55.0933 80.0191L55.0966 80.0194L55.0995 80.0198L55.102 80.0202L55.1044 80.0205C61.441 80.5003 67.7972 80.9815 74.1128 81.5847C74.5577 81.5847 74.6318 82.3253 74.1128 82.3253L73.1662 82.2514L73.1501 82.2503C64.9385 81.6084 56.6634 80.9616 48.4569 80.1775C48.4199 80.1775 48.4013 80.1591 48.3828 80.1406C48.3643 80.1221 48.3457 80.1035 48.3086 80.1035C47.5671 83.6583 46.7515 87.2874 45.9358 90.8422C49.7175 91.3606 53.425 91.5828 57.2066 91.5828C57.5774 91.5828 57.5774 92.1753 57.2066 92.1753C53.425 92.2494 49.6433 91.9531 45.8617 91.2866C45.3428 93.2853 44.8981 95.2841 44.4534 97.2828L44.4528 97.2854C44.3416 97.7297 44.2489 98.1925 44.1562 98.6553C44.0635 99.1183 43.9708 99.5812 43.8596 100.026C50.4589 100.322 57.0583 100.988 63.5835 102.173C64.0284 102.247 63.806 102.914 63.361 102.84C56.8359 101.803 50.3107 101.063 43.7113 100.544C43.3359 102.127 42.984 103.71 42.6291 105.306C42.3531 106.548 42.0754 107.797 41.7834 109.061C46.3066 108.913 50.8297 109.209 55.2787 109.505C55.6495 109.505 55.6495 110.098 55.2787 110.098C50.7555 110.024 46.2324 109.95 41.7093 109.505C41.4127 110.838 41.1161 112.19 40.8195 113.542C40.5229 114.893 40.2263 116.245 39.9297 117.578L40.7588 117.685L40.7631 117.686L40.7659 117.686H40.7672C47.3897 118.539 54.0748 119.4 60.6916 120.466C61.0624 120.54 60.9882 121.133 60.6175 121.059C53.9622 120.281 47.3745 119.301 40.7254 118.311L39.7814 118.17C39.6761 118.626 39.5709 119.083 39.4653 119.542C38.9016 121.991 38.3297 124.477 37.7052 126.91C40.42 127.113 43.0727 127.378 45.7769 127.649L46.529 127.724C46.8998 127.724 46.8998 128.317 46.529 128.317L45.7868 128.243C43.0573 127.971 40.276 127.693 37.5569 127.354C36.8154 130.464 35.9997 133.501 35.1841 136.537C37.1861 136.611 39.1882 136.76 41.1902 136.982C41.561 137.056 41.561 137.574 41.1902 137.574C39.654 137.574 38.1583 137.453 36.6432 137.329C36.1107 137.286 35.5757 137.242 35.0358 137.204C34.3684 139.722 33.6269 142.24 32.8854 144.684C35.1803 144.758 37.4752 144.906 39.77 145.053L39.7814 145.054C40.1521 145.054 40.1521 145.647 39.7814 145.647C37.4086 145.647 35.0358 145.499 32.663 145.35C31.9215 147.794 31.1058 150.164 30.2902 152.534C33.182 152.683 35.9997 153.127 38.8174 153.867C39.114 153.941 39.0399 154.46 38.6691 154.386C35.7773 153.719 32.9596 153.201 30.0677 152.979C29.4004 154.904 28.6589 156.904 27.9174 158.829C27.9174 158.84 27.9158 158.851 27.9129 158.862L27.909 158.874L27.9039 158.887C27.8904 158.917 27.8677 158.947 27.841 158.977L27.8241 158.996C27.8066 159.014 27.7878 159.033 27.7691 159.052C27.7691 159.126 27.7876 159.181 27.8061 159.237C27.8137 159.259 27.8212 159.282 27.8275 159.306C27.8367 159.341 27.8432 159.378 27.8432 159.422C29.3248 159.662 30.8064 159.898 32.288 160.134L32.2902 160.134C36.7399 160.843 41.1895 161.551 45.6392 162.384C46.0841 162.458 45.8617 163.199 45.4168 163.125C40.9639 162.449 36.5538 161.645 32.154 160.843L32.1464 160.842ZM61.5814 45.4434C61.631 45.5918 61.6916 45.7367 61.7624 45.8762C61.7511 45.8375 61.692 45.6919 61.5814 45.4434ZM124.164 166.013L133.952 133.427C135.149 129.444 136.366 125.464 137.583 121.483C142.769 104.512 147.964 87.5158 151.748 70.1795C150.265 68.9204 149.078 67.143 148.04 65.5877C147.447 64.6249 146.928 63.6621 146.409 62.6253C140.347 85.1776 133.613 107.627 126.898 130.016L126.897 130.019C125.563 134.465 124.23 138.909 122.903 143.351C121.55 147.823 120.271 152.343 118.989 156.872C116.407 165.995 113.815 175.151 110.595 184.01C109.037 188.379 105.997 192.675 101.4 190.897C101.029 191.194 100.584 191.342 100.065 191.194C80.638 185.935 61.359 180.011 42.2283 173.79L41.9798 173.709C38.8373 172.687 35.0237 171.448 31.7732 169.716C32.0692 170.16 32.3836 170.622 32.6981 171.084L33.0507 171.602C33.1623 171.766 33.2731 171.93 33.3821 172.092C33.4648 172.214 33.5466 172.336 33.6269 172.457C39.6675 174.536 45.7754 176.39 51.8765 178.243C56.8597 179.756 61.8383 181.267 66.7719 182.899C67.2169 183.047 67.0685 183.64 66.6237 183.566C55.427 181.714 44.4528 177.789 34.146 173.197L34.2906 173.406L34.6206 173.884L34.8249 174.181C35.9371 175.796 37.0666 177.436 38.2984 178.974C38.4467 179.122 38.5208 179.344 38.5208 179.492C45.3255 181.051 52.0542 183.343 58.7661 185.629C63.537 187.255 68.2995 188.877 73.0747 190.231C79.3033 192.008 85.5319 193.638 91.8346 195.119C92.9466 195.377 94.0876 195.674 95.2472 195.976C101.742 197.667 108.821 199.511 114.673 195.489C118.381 189.647 120.213 181.931 121.931 174.696C122.652 171.659 123.353 168.707 124.164 166.013ZM151.736 65.4188C151.847 65.2473 151.929 65.1212 152.119 64.9953C158.644 59.737 150.71 49.5907 144.036 49.7388C143.517 49.7388 143.072 49.8129 142.627 49.887C142.776 50.9238 142.627 52.0347 142.257 53.2196C142.204 53.3239 142.152 53.3914 142.1 53.4739C142.09 53.4891 142.081 53.5049 142.071 53.5214C142.059 53.5426 142.047 53.5652 142.034 53.59C144.555 54.6268 146.557 56.108 146.187 58.4038C147.373 60.3295 148.782 62.255 150.191 63.9584C150.635 64.4766 151.154 64.9948 151.673 65.513L151.674 65.5137L151.711 65.4566L151.736 65.4188ZM204.244 72.8943C204.31 72.5294 204.384 72.1307 204.464 71.7024L204.468 71.683C205.855 64.236 208.878 48.0106 198.759 48.479C198.388 46.4795 197.721 44.776 196.534 43.5171C196.645 43.3244 196.758 43.1279 196.873 42.9282C198.305 40.442 200.03 37.4461 200.168 34.7039C200.168 34.5558 200.094 34.4076 200.019 34.3336V34.1854C199.426 32.9264 197.573 32.4821 196.312 32.1858C195.2 31.8895 193.643 31.5934 192.604 32.334C192.456 32.334 192.234 32.408 192.16 32.5562C190.899 35.2964 190.38 38.3328 190.009 41.2952V41.3693C182.005 42.4092 177.827 55.1995 175.371 62.72L175.37 62.7236L175.368 62.7299C175.026 63.7747 174.718 64.7178 174.438 65.513C171.62 73.3633 168.951 81.2877 166.8 89.3602C166.563 90.2172 166.319 91.0813 166.074 91.9517C164.56 97.3244 162.979 102.933 162.277 108.542C161.165 111.208 161.462 113.43 162.648 115.207C160.242 120.699 158.899 126.81 157.591 132.754C157.206 134.505 156.824 136.241 156.419 137.944C154.417 146.239 152.489 154.533 150.71 162.902C150.689 162.881 150.662 162.86 150.632 162.837L150.626 162.833C150.604 162.816 150.581 162.798 150.558 162.779C150.544 162.767 150.53 162.755 150.516 162.742C150.477 162.704 150.44 162.66 150.413 162.606C150.191 162.384 149.82 162.828 150.042 163.05C150.191 163.198 150.413 163.346 150.561 163.495C150.215 165.156 149.867 166.819 149.518 168.485C146.429 183.23 143.307 198.135 141.441 213.041C141.441 213.138 141.455 213.221 141.478 213.297C141.506 213.393 141.548 213.476 141.589 213.559C141.515 213.855 141.589 214.226 141.812 214.522C142.257 214.966 142.85 215.411 143.517 215.781C143.221 216.151 142.924 216.522 142.776 217.04C142.553 217.632 142.479 218.225 142.405 218.891C142.331 219.928 142.405 221.261 143.517 221.706C145.816 222.594 146.928 218.743 147.299 217.114C148.04 217.114 148.708 216.966 149.227 216.596C149.375 216.522 149.449 216.373 149.523 216.225C149.82 216.225 150.117 216.003 150.265 215.633C154.425 204.81 157.731 193.525 161.021 182.296C162.481 177.311 163.938 172.337 165.466 167.42C166.726 163.385 167.967 159.368 169.209 155.351C170.451 151.333 171.694 147.314 172.955 143.276C173.643 141.086 174.374 138.89 175.108 136.688L175.108 136.686C176.905 131.292 178.714 125.86 179.925 120.391C180.073 120.354 180.203 120.336 180.333 120.317C180.387 120.31 180.441 120.302 180.496 120.293C180.515 120.29 180.533 120.287 180.552 120.283L180.591 120.276C180.639 120.267 180.689 120.256 180.741 120.243C181.408 120.095 181.63 119.651 181.63 119.132C181.853 118.984 182.075 118.762 182.149 118.466C182.409 117.651 182.687 116.817 182.965 115.984L182.968 115.976C183.245 115.146 183.522 114.316 183.781 113.504C184.374 114.911 185.412 116.54 186.524 116.096C186.895 116.392 187.562 116.466 187.933 115.874C196.164 103.209 201.577 88.7678 204.098 73.7335C204.123 73.5827 204.15 73.4224 204.18 73.2533C204.2 73.1377 204.222 73.018 204.244 72.8943ZM195.941 34.3336C196.348 34.4274 196.742 34.587 197.133 34.7459C197.669 34.9635 198.202 35.1795 198.759 35.2223C198.24 36.1299 197.834 37.151 197.443 38.1365L197.442 38.1376C197.387 38.2776 197.331 38.4169 197.276 38.5551C196.979 39.2222 196.682 39.9077 196.385 40.5934C196.089 41.2778 195.793 41.9623 195.496 42.6283C194.903 42.184 194.162 41.8877 193.346 41.6655C192.604 41.4434 191.863 41.3693 191.121 41.3693C192.011 38.9253 192.901 36.2592 193.124 33.593C193.688 33.9005 194.395 34.0307 195.071 34.1553C195.372 34.2108 195.667 34.2653 195.941 34.3336ZM170.656 142.758C169.396 146.793 168.154 150.809 166.913 154.826C165.67 158.845 164.428 162.864 163.167 166.901C161.776 171.379 160.322 175.857 158.865 180.341C155.118 191.877 151.357 203.456 148.634 215.188C148.071 214.964 147.465 214.867 146.849 214.768L146.843 214.767L146.839 214.766L146.835 214.766C146.744 214.751 146.652 214.737 146.561 214.722C146.461 214.705 146.361 214.688 146.261 214.67C145.297 214.374 144.407 213.929 143.517 213.485V213.189C143.599 212.802 143.681 212.42 143.762 212.041C143.829 211.731 143.896 211.423 143.962 211.115C144.11 210.43 144.259 209.745 144.407 209.042C145.223 210.078 146.038 211.115 147.002 211.93C147.225 212.078 147.373 211.782 147.299 211.634C146.854 211.078 146.391 210.542 145.927 210.005L145.926 210.003L145.925 210.002L145.756 209.806L145.592 209.616C145.477 209.481 145.361 209.347 145.247 209.211C145.013 208.936 144.782 208.658 144.555 208.375C144.704 207.597 144.87 206.82 145.037 206.042C145.204 205.265 145.371 204.487 145.519 203.709C146.483 204.968 147.521 206.079 148.708 207.116C148.93 207.264 149.227 207.042 149.004 206.82C148.808 206.597 148.608 206.374 148.408 206.151C148.041 205.745 147.67 205.338 147.299 204.931L147.296 204.928C146.722 204.3 146.149 203.671 145.593 203.043L145.594 203.039C145.89 201.411 146.187 199.783 146.557 198.155C147.373 199.414 148.263 200.747 149.227 201.858C149.449 202.08 149.82 201.784 149.672 201.561C148.782 200.08 147.744 198.747 146.706 197.414L147.818 191.415C148.93 192.822 150.191 194.081 151.6 195.192C151.822 195.34 152.119 195.044 151.896 194.822C150.487 193.563 149.153 192.23 147.892 190.749C148.077 189.825 148.244 188.901 148.41 187.976L148.411 187.972C148.578 187.046 148.745 186.12 148.93 185.194L149.248 185.597C150.243 186.857 151.194 188.062 152.267 189.267C152.489 189.49 152.786 189.193 152.638 188.897C151.814 187.8 150.909 186.743 150.012 185.698L150.002 185.685L149.794 185.443C149.681 185.31 149.568 185.178 149.455 185.046C149.329 184.898 149.203 184.75 149.078 184.602C149.449 182.602 149.82 180.602 150.265 178.603L154.714 184.379C154.936 184.602 155.233 184.305 155.085 184.009C153.602 181.935 151.97 179.936 150.339 177.936C150.421 177.511 150.503 177.089 150.585 176.67C150.688 176.139 150.792 175.611 150.896 175.083L150.975 174.676L151.116 173.96L151.202 173.521C151.285 173.094 151.368 172.666 151.451 172.234C152.638 174.159 154.047 175.937 155.826 177.344C156.049 177.566 156.419 177.122 156.197 176.899C154.417 175.344 152.86 173.493 151.6 171.493C151.785 170.531 151.989 169.551 152.192 168.571L152.192 168.57L152.193 168.569L152.193 168.568L152.194 168.561C152.398 167.582 152.601 166.603 152.786 165.642C153.898 166.827 155.01 168.086 156.123 169.345C156.345 169.567 156.716 169.271 156.568 169.049C155.53 167.568 154.269 166.235 153.008 164.976C153.083 164.679 153.138 164.365 153.194 164.05C153.249 163.735 153.305 163.42 153.379 163.124C153.527 162.532 153.657 161.922 153.787 161.312L153.787 161.31L153.787 161.308C153.917 160.697 154.047 160.087 154.195 159.495C154.763 160.063 155.323 160.639 155.884 161.215C157.004 162.367 158.125 163.519 159.311 164.605C159.608 164.828 159.979 164.457 159.682 164.235C157.976 162.384 156.123 160.68 154.269 158.977C154.936 155.94 155.604 152.904 156.271 149.942C157.902 151.941 159.756 153.719 161.758 155.348C161.981 155.57 162.351 155.126 162.129 154.904C160.127 153.052 158.199 151.2 156.419 149.127C156.864 147.127 157.309 145.128 157.754 143.054C159.237 144.609 160.72 146.164 162.277 147.72C162.5 147.942 162.945 147.572 162.648 147.349C161.714 146.328 160.754 145.36 159.798 144.397C159.161 143.754 158.526 143.114 157.902 142.461C158.199 141.202 158.496 139.943 158.718 138.684C158.852 138.122 158.986 137.57 159.12 137.021C159.254 136.47 159.388 135.923 159.522 135.371C159.625 134.949 159.728 134.524 159.83 134.093L159.836 134.099C161.391 135.652 162.946 137.205 164.502 138.684C164.798 138.981 165.243 138.536 164.947 138.24C163.317 136.612 161.613 135.059 159.91 133.505L159.904 133.5C160.572 130.982 161.239 128.39 161.906 125.798C162.969 126.815 163.979 127.859 165 128.914C165.688 129.625 166.38 130.34 167.097 131.056C167.319 131.278 167.764 130.982 167.542 130.76C165.985 128.612 164.131 126.761 162.129 125.057C162.648 122.761 163.093 120.466 163.464 118.17C164.504 119.308 165.644 120.413 166.772 121.507C167.333 122.051 167.89 122.591 168.432 123.132C168.728 123.428 169.247 122.984 168.951 122.687C167.468 120.836 165.614 118.836 163.538 117.355C163.538 117.207 163.556 117.077 163.575 116.948C163.583 116.89 163.591 116.831 163.598 116.772C163.606 116.698 163.612 116.622 163.612 116.54C166.8 119.577 172.732 120.91 177.478 120.688C175.793 125.221 174.433 129.932 173.082 134.615C172.292 137.352 171.504 140.08 170.656 142.758ZM179.332 118.096C175.55 118.688 171.917 118.466 168.357 116.837C164.798 115.207 163.538 112.763 163.538 109.579C163.711 109.061 163.858 108.543 164.01 108.01C164.086 107.742 164.164 107.471 164.246 107.194C164.281 107.077 164.317 106.958 164.353 106.839C165.762 108.616 167.245 110.245 168.951 111.726C169.173 111.875 169.396 111.652 169.247 111.43C167.542 109.801 165.985 108.098 164.502 106.246C164.996 104.568 165.424 102.891 165.852 101.213L165.853 101.211L166.022 100.549L166.102 100.236L166.221 99.7733C166.314 99.4129 166.408 99.0524 166.504 98.6919C166.85 99.0562 167.197 99.4248 167.544 99.7947L167.545 99.7954L167.546 99.7962L167.547 99.7969L167.547 99.7976L167.548 99.7984L167.551 99.8016L167.553 99.8035C168.616 100.935 169.689 102.077 170.804 103.136C170.953 103.284 171.101 103.061 171.027 102.913C169.972 101.694 168.876 100.558 167.77 99.4109L167.766 99.4061L167.762 99.4028L167.762 99.4021L167.76 99.3999L167.755 99.3952L167.753 99.393C167.387 99.0134 167.019 98.6327 166.652 98.2474C166.739 97.8888 166.825 97.5282 166.912 97.1663L167.016 96.7321C167.154 96.1542 167.292 95.5735 167.43 94.9928C167.689 93.8991 167.949 92.8054 168.209 91.7302L172.213 96.396C172.362 96.5441 172.584 96.3219 172.436 96.1738C171.102 94.5454 169.694 92.991 168.286 91.4365L168.283 91.434C168.802 89.2122 169.396 86.9163 169.989 84.6945C170.236 84.9411 170.481 85.1876 170.726 85.4341L171.204 85.9169L171.261 85.9747C172.522 87.2474 173.772 88.5098 175.105 89.7306C175.328 89.9528 175.624 89.6565 175.476 89.4343C173.77 87.6569 171.991 85.9535 170.137 84.2501C170.73 82.1024 171.398 79.8806 172.065 77.8069V77.7328C174.586 80.325 177.107 82.917 179.702 85.4351C179.925 85.6572 180.221 85.361 180.073 85.1388C178.133 82.8377 175.945 80.7344 173.752 78.6267L173.751 78.626L173.727 78.6026C173.246 78.1408 172.766 77.6788 172.287 77.2144L172.51 76.5676L172.74 75.8976C173.333 74.1671 173.936 72.4086 174.586 70.6972C174.952 71.0806 175.317 71.4685 175.684 71.8576C176.805 73.0468 177.936 74.2468 179.109 75.3629C179.332 75.5851 179.628 75.2888 179.406 75.0667C178.417 73.9801 177.362 72.8934 176.307 71.8069C175.78 71.2642 175.253 70.7214 174.734 70.1787C175.55 67.9569 176.44 65.7351 177.33 63.5133C179.22 65.3291 180.969 67.145 182.784 69.0308L182.891 69.1419C183.113 69.364 183.41 69.0678 183.187 68.8456C181.408 66.846 179.48 64.9204 177.478 63.069C177.548 62.8756 177.623 62.6823 177.7 62.4889L177.756 62.349L177.842 62.1366L177.96 61.8469C178.127 61.4396 178.294 61.0322 178.442 60.6249L180.889 54.8483C181.705 55.6261 182.484 56.4225 183.262 57.219C184.041 58.0149 184.819 58.8108 185.634 59.5881C185.857 59.8103 186.153 59.514 185.931 59.2919C184.448 57.5144 182.817 55.9591 181.111 54.4039C181.556 53.3671 182.075 52.3302 182.594 51.2933C182.965 50.6268 183.632 49.59 184.448 48.5531C184.893 49.0346 185.333 49.5206 185.774 50.0067C187.094 51.4647 188.415 52.9227 189.861 54.2557C190.158 54.4779 190.528 54.1817 190.306 53.8855C189.036 52.396 187.683 50.9476 186.34 49.5098L186.34 49.509L186.339 49.5083L186.338 49.5076L186.337 49.5068L186.337 49.5061L186.336 49.5054L186.334 49.5036L186.331 49.5003L185.741 48.8683C185.482 48.5902 185.224 48.3124 184.967 48.0347C185.857 46.9238 186.969 45.7389 188.155 44.9242C189.416 46.6276 190.677 48.3309 191.863 50.0343C192.085 50.3306 192.53 50.1084 192.382 49.738C191.27 47.8866 190.083 46.1832 188.675 44.5538C191.27 42.8505 194.087 42.7765 195.793 47.5903C197.309 51.8915 195.799 58.3728 194.631 63.3866C194.371 64.5025 194.128 65.5455 193.939 66.4757C192.679 72.2523 191.121 77.955 189.49 83.6576C188.191 88.3034 186.819 92.9246 185.448 97.5411L185.447 97.5433C183.452 104.26 181.46 110.967 179.702 117.725V117.948C179.625 118.025 179.547 118.062 179.48 118.079C179.419 118.096 179.367 118.096 179.332 118.096ZM195.348 71.6599C195.502 71.0432 195.701 70.3018 195.927 69.4618C197.001 65.4596 198.675 59.2208 198.981 53.5892C202.022 62.6986 200.094 70.9933 197.424 80.1028C194.723 89.2919 191.158 97.9783 187.51 106.869L187.34 107.283C186.672 107.283 186.153 107.431 185.56 107.653C189.194 95.7295 192.382 83.6576 195.348 71.6599ZM199.426 85.5092C196.312 95.8035 191.863 105.431 186.45 114.763C186.228 114.393 185.709 113.504 185.634 113.282C185.264 112.541 185.041 111.578 185.264 110.764C185.486 110.023 186.005 109.431 186.747 109.134C186.989 109.054 187.192 109.022 187.377 108.993C187.702 108.942 187.973 108.899 188.304 108.616C188.526 108.468 188.526 108.098 188.452 107.875L188.378 107.727C194.013 98.0253 197.869 87.0645 200.316 76.1776C200.366 75.9529 200.417 75.7261 200.469 75.4974C200.567 75.0647 200.669 74.6251 200.772 74.1795C202.387 67.1738 204.345 58.6881 200.019 52.4783C199.797 52.1821 199.426 52.1821 199.13 52.2561C199.13 51.4415 199.13 50.7008 199.056 49.9602C209.142 52.2796 201.475 78.5022 199.544 85.1052L199.426 85.5092ZM135.287 107.061C131.172 120.722 127.039 134.365 122.906 148.008C118.772 161.656 114.637 175.304 110.521 188.971C110.373 189.416 111.04 189.564 111.188 189.119C121.94 163.124 130.69 134.907 136.77 107.431C136.992 106.468 135.509 106.024 135.287 107.061ZM134.287 121.202C138.041 104.989 141.844 88.5599 147.225 72.919C147.522 72.0302 148.782 72.4005 148.634 73.3633C145.286 90.2713 140.055 107.126 134.912 123.697C134.017 126.579 133.126 129.452 132.247 132.315C132.099 132.611 131.654 132.463 131.728 132.167C132.59 128.531 133.437 124.872 134.287 121.202ZM99.5467 194.97C83.9752 188.527 66.9949 184.75 50.5336 181.343C50.237 181.269 50.0887 181.713 50.3853 181.787C58.8822 183.966 67.2606 186.52 75.6326 189.072L75.6407 189.075C83.4853 191.466 91.3243 193.855 99.2501 195.933C99.9916 196.155 100.214 195.192 99.5467 194.97ZM104.959 144.757C105.033 144.313 104.885 144.017 104.588 143.794C104.959 143.128 104.811 142.091 103.847 141.795C100.758 140.862 97.6666 139.912 94.5715 138.962C79.9839 134.482 65.3105 129.977 50.3848 126.983C49.7174 126.835 49.2725 127.205 49.1242 127.649C48.7535 127.723 48.4569 127.946 48.3086 128.39C45.565 136.388 43.0439 144.98 41.7092 153.274C41.4868 154.755 43.4147 155.274 43.9337 153.867C46.9739 146.164 48.9759 137.425 50.2365 129.279C64.7105 134.536 79.7669 138.418 94.6899 142.265L94.7448 142.279C97.4634 142.98 100.178 143.68 102.883 144.387C101.585 150.349 99.5247 156.057 97.464 161.764C96.5809 164.211 95.6978 166.657 94.8747 169.123C77.9685 163.272 60.3209 158.236 42.7473 154.829C41.8575 154.681 41.4868 155.866 42.3766 156.162C58.8033 161.469 75.5595 166.248 92.2103 170.997L92.2133 170.998L95.2455 171.863C96.506 172.234 97.0992 170.752 96.506 169.938C101.548 162.31 103.55 153.719 104.959 144.757ZM79.3317 155.388L79.3414 155.391L79.351 155.394C82.773 156.398 86.1917 157.4 89.6105 158.384C90.5003 158.681 90.1295 160.014 89.1656 159.717C77.005 156.681 64.6961 153.274 52.9804 148.756C52.5355 148.608 52.6838 147.868 53.2028 148.016C61.9698 150.298 70.6606 152.846 79.3298 155.388L79.3317 155.388ZM92.4276 150.164C83.2944 147.031 73.9978 144.388 64.7197 141.751C61.4937 140.833 58.27 139.917 55.0561 138.981C54.3887 138.758 54.0921 139.795 54.7595 140.017C57.6703 141.033 60.5771 142.066 63.4835 143.098C72.8675 146.431 82.249 149.763 91.7603 152.534C93.3916 153.052 93.9848 150.682 92.4276 150.164ZM37.2841 166.884C42.03 167.706 46.849 168.541 51.4236 169.864C51.7943 169.938 51.6461 170.456 51.2011 170.53C46.6039 169.883 41.9599 168.767 37.3807 167.667C36.1988 167.383 35.0213 167.101 33.8501 166.827C33.5535 166.753 33.7017 166.235 33.9983 166.309C35.087 166.504 36.1836 166.694 37.2841 166.884Z" fill="#272727"/>
<defs>
<clipPath id="clip0">
<rect width="195.196" height="175.536" fill="white" transform="translate(0.8125 190.979) rotate(-77.9166)"/>
</clipPath>
</defs>
</svg>
