<svg width="186" height="203" viewBox="0 0 186 203" fill="none" xmlns="http://www.w3.org/2000/svg">
<path d="M153.386 171.926C151.576 170.155 148.491 169.455 149.055 166.464C151.77 162.806 154.441 159.379 156.839 156.138C156.013 154.196 155.282 152.39 154.837 151.591C152.675 149.159 150.979 147.41 149.097 145.387C152.248 143.837 154.896 142.43 158.32 140.693C156.532 138.808 154.815 137.174 153.098 135.54C153.29 130.096 153.597 124.675 153.789 119.231C152.962 119.194 152.366 119.201 151.539 119.164C152.441 115.642 153.3 112.349 154.159 109.056C155.985 101.896 157.373 94.5338 159.544 87.4384C162.985 76.7704 169.214 67.1046 172.123 56.0981C173.465 50.8716 174.995 45.9185 174.223 40.5317C173.902 38.446 173.99 36.0803 172.963 34.5764C170.63 31.1584 167.612 28.2072 164.66 24.9109C163.473 25.521 162.631 26.1961 161.739 26.5045C159.682 27.3079 157.581 28.3413 155.402 28.5262C152.007 28.8393 148.606 28.5556 144.565 28.5085C141.448 24.8237 136.133 25.8469 131.488 25.2096C129.747 25.5962 128.122 26.0045 126.129 26.4628C126.261 23.867 126.515 21.8897 126.654 19.8908C126.308 19.8257 125.963 19.7607 125.503 19.6739C124.529 22.9449 123.555 26.2158 122.445 29.5801C118.447 29.303 115.386 26.5818 111.82 25.9096C111.872 24.3708 111.924 22.832 111.969 20.6963C108.605 19.5857 104.45 17.6113 100.194 16.809C95.7076 15.9633 90.911 16.1312 86.3163 15.8607C72.9856 14.5391 59.4248 13.174 45.7989 12.1541C41.3192 11.9053 36.7311 12.2316 32.5314 12.3929C27.6926 19.1046 30.4262 25.4568 32.4696 31.679C34.28 33.4497 37.3859 34.0352 36.9371 37.0477C34.2226 40.7053 31.7815 44.1761 29.3621 47.532C30.3022 49.496 31.0556 51.1866 31.3857 51.9636C33.6845 54.3028 35.2648 56.0302 37.2619 58.0744C34.2041 59.7613 31.5565 61.1681 28.2253 63.0417C30.1507 64.8341 31.7527 66.4465 33.5848 68.1022C33.5076 73.5672 33.3154 79.0106 33.2599 84.3606C34.0868 84.3973 34.6836 84.3907 35.5323 84.3124C34.745 87.8568 33.8861 91.1494 33.1422 94.4637C31.546 101.667 30.3883 109.073 28.217 116.168C25.1 127.017 19.1005 136.726 16.422 147.776C15.1944 153.024 13.7802 157.998 14.6666 163.407C15.0099 165.378 15.0146 167.88 16.0415 169.384C18.5119 172.709 21.5293 175.66 24.5032 178.841C25.5753 178.209 26.4173 177.534 27.3093 177.226C29.3667 176.422 31.3741 175.252 33.5531 175.067C36.8542 174.618 40.3919 174.808 44.4549 174.74C47.7089 178.331 53.024 177.308 57.5971 177.694C59.3593 177.192 60.9849 176.784 62.9772 176.326C62.8453 178.921 62.7067 180.92 62.6832 182.941C63.0283 183.006 63.3734 183.071 63.8335 183.158C64.8075 179.887 65.6664 176.594 66.662 173.208C69.2578 173.34 71.4284 174.464 73.6423 175.358C73.5905 176.897 73.4953 178.666 73.3134 180.895C76.656 182.12 80.6737 184.188 85.0233 185.127C89.488 186.088 94.2845 185.92 98.9509 186.442C112.49 187.922 126.007 189.517 139.568 190.882C144.005 191.361 148.593 191.035 152.886 191.01C157.911 184.572 155.178 178.22 153.386 171.926ZM52.0951 126.626L52.3686 126.439L52.3035 126.784L52.0951 126.626ZM52.2808 120.585C52.4693 118.953 52.7729 117.343 52.9614 115.711C53.3065 115.776 53.6516 115.841 54.0184 115.791C53.8299 117.423 53.6413 119.055 53.4745 120.572C53.1077 120.622 52.7409 120.672 52.2808 120.585ZM56.4823 118.518C56.3955 118.979 56.4238 119.46 56.3371 119.921C56.107 119.877 55.8553 119.949 55.7402 119.927C55.712 119.445 55.662 119.079 55.6337 118.597C55.8854 118.525 56.1155 118.568 56.4823 118.518ZM55.2915 122.94C55.1765 122.918 55.0831 122.781 55.0831 122.781C55.1048 122.666 55.2415 122.573 55.2849 122.343C55.3999 122.365 55.4933 122.501 55.4933 122.501C55.4499 122.731 55.3132 122.825 55.2915 122.94ZM55.3312 126.521C55.2161 126.499 55.0794 126.593 54.9861 126.456C54.871 126.434 54.9144 126.204 54.8211 126.067C55.0511 126.111 55.3029 126.039 55.4179 126.061C55.4896 126.312 55.3529 126.406 55.3312 126.521ZM58.586 121.893L58.651 121.548L58.8594 121.706L58.586 121.893ZM108.01 32.2196C108.168 32.0112 108.19 31.8961 108.348 31.6878C108.355 32.2846 108.405 32.6514 108.34 32.9965L108.225 32.9748C108.175 32.608 108.082 32.4713 108.01 32.2196ZM82.4111 164.86C82.4761 164.515 82.5195 164.285 82.4695 163.918C82.5845 163.94 82.6996 163.962 82.8146 163.984C82.7496 164.329 82.5911 164.537 82.4111 164.86ZM110.626 34.1421C110.51 34.1204 110.417 33.9837 110.302 33.962C110.482 33.6386 110.684 33.2001 110.864 32.8767C110.979 32.8984 111.072 33.0351 111.187 33.0568C111.007 33.3802 110.806 33.8187 110.626 34.1421ZM106.297 41.3072C105.858 41.1055 105.513 41.0404 105.19 40.8603C105.622 40.4653 106.032 40.1852 106.464 39.7901C106.377 40.2503 106.29 40.7104 106.297 41.3072ZM102.042 46.8186C101.575 46.135 101.108 45.4514 100.641 44.7678C101.505 43.9776 102.484 43.2092 103.347 42.419C102.951 43.8927 102.439 45.3448 102.042 46.8186ZM107.43 29.6087C107.408 29.7237 107.387 29.8388 107.365 29.9538C107.25 29.9321 107.25 29.9321 107.135 29.9104C107.25 29.9321 107.25 29.9321 107.343 30.0688C107.415 30.3206 107.372 30.5506 107.421 30.9174C107.235 30.644 107.185 30.2772 106.998 30.0038L107.113 30.0255C106.998 30.0038 106.998 30.0038 106.998 30.0038C106.998 30.0038 107.02 29.8887 106.905 29.8671C107.063 29.6587 107.2 29.5653 107.43 29.6087ZM107.058 35.3755C106.862 36.4108 106.761 37.5828 106.544 38.7331C105.393 38.5163 104.358 38.3211 103.093 38.0826C103.987 35.8687 105.497 35.4387 107.058 35.3755ZM72.1421 172.574C72.2505 171.998 72.3373 171.538 72.3307 170.941C72.5607 170.985 72.7908 171.028 73.1359 171.093C73.0275 171.668 73.0558 172.15 72.9474 172.725C72.7173 172.682 72.3722 172.617 72.1421 172.574ZM116.223 31.6235C116.331 31.0483 116.303 30.5665 116.411 29.9913C116.641 30.0347 116.986 30.0997 117.216 30.1431C117.108 30.7183 117.021 31.1784 116.913 31.7536C116.704 31.5952 116.474 31.5518 116.223 31.6235ZM136.098 76.5861L135.824 76.7728L135.889 76.4277L136.098 76.5861ZM132.808 80.1353C132.923 80.1569 133.017 80.2937 133.017 80.2937C132.995 80.4087 132.858 80.502 132.815 80.7321C132.7 80.7104 132.606 80.5737 132.606 80.5737C132.765 80.3653 132.786 80.2503 132.808 80.1353ZM129.449 81.527L129.24 81.3686L129.514 81.1819L129.449 81.527ZM132.884 76.5758C132.999 76.5975 133.135 76.5041 133.229 76.6409C133.344 76.6626 133.3 76.8926 133.279 77.0077C133.049 76.9643 132.818 76.9209 132.682 77.0143C132.725 76.7842 132.747 76.6692 132.884 76.5758ZM131.502 84.5348C131.589 84.0747 131.676 83.6146 131.648 83.1328C131.878 83.1761 132.129 83.1045 132.244 83.1261C132.273 83.608 132.323 83.9748 132.351 84.4566C132.214 84.5499 131.869 84.4849 131.502 84.5348ZM133.851 87.2409C134.04 85.6088 134.343 83.9983 134.51 82.4812C134.855 82.5462 135.315 82.6329 135.682 82.583C135.379 84.1934 135.19 85.8256 134.886 87.4361C134.541 87.371 134.196 87.306 133.851 87.2409Z" fill="#FFEB26"/>
<g clip-path="url(#clip0)">
<path d="M146.869 180.809C149.746 163.345 149.621 145.254 150.746 127.539C151.872 109.762 153.248 91.9845 153.936 74.1445C153.936 73.3933 153.623 72.83 153.185 72.3918C153.373 72.0788 153.435 71.6406 153.31 71.2024C149.496 58.8709 145.056 46.3516 139.991 34.4582C139.866 34.1453 139.678 33.9575 139.491 33.8323C139.553 33.7071 139.616 33.5819 139.616 33.3941C139.928 32.5803 138.74 31.6414 138.177 32.5177C138.115 32.6429 138.052 32.7681 137.927 32.8933C137.802 32.7681 137.677 32.7055 137.489 32.6429C116.729 29.3253 95.9677 26.1955 75.0192 23.5664C70.2041 22.9405 48.3802 16.9312 46.8794 25.8825C46.5042 26.0077 46.129 26.3207 46.0665 26.8215C41.314 49.6066 41.9393 74.2071 40.376 97.4304C38.8126 121.029 36.7491 144.566 34.9981 168.165C34.9356 169.041 35.3733 169.667 35.9361 170.042C36.7491 174.299 39.6881 175.426 44.0029 176.24C54.6335 178.243 66.0144 178.18 76.7701 178.931C98.6566 180.496 120.481 182.124 142.367 182.937C143.555 183 144.306 182.124 144.493 181.247C145.056 182.186 146.682 182.061 146.869 180.809ZM147.995 65.8817C144.618 65.1306 141.241 64.442 137.865 63.816C135.363 63.3779 132.487 63.1901 130.048 62.4389C127.297 61.6252 127.359 62.5015 127.484 59.8725C127.609 56.4296 132.112 50.6082 133.675 47.4783C135.301 44.1607 136.739 40.9057 138.115 37.5255C140.929 47.0402 144.306 56.6174 147.995 65.8817ZM143.055 179.244C125.421 178.243 107.786 177.241 90.2146 176.052C81.7102 175.488 73.2057 174.737 64.7638 173.923C59.386 173.423 42.6897 174.424 38.8126 169.479C38.8752 169.291 38.9377 169.041 39.0002 168.791C40.6886 144.566 42.1269 120.278 44.0654 96.1159C45.8789 73.7689 49.7559 50.483 48.6303 28.0108C53.3203 22.1267 65.9519 26.1329 72.5178 26.9466C79.459 27.823 86.4627 28.6994 93.4038 29.5757C107.911 31.4536 122.482 32.8307 137.052 34.3956C133.863 39.3408 131.111 44.4737 128.422 49.7318C126.796 52.8616 121.919 58.8083 122.794 62.6267C123.482 65.6313 126.984 65.6939 129.423 66.1947C135.989 67.5092 142.68 68.5734 149.308 69.2619C149.683 70.2635 150.121 71.265 150.496 72.2666C150.184 72.517 149.996 72.9551 149.934 73.5185C148.495 91.9219 147.745 110.388 146.682 128.791C145.681 145.692 143.618 162.906 144.306 179.87C144.055 179.557 143.68 179.307 143.055 179.244Z" fill="#272727"/>
<path d="M117.792 50.1701C108.975 48.2296 99.6579 47.854 90.7157 46.6021C81.711 45.2875 72.7062 43.7226 63.639 42.6585C62.5134 42.5333 62.2632 44.0982 63.3263 44.3486C80.2727 48.793 100.096 52.6739 117.667 52.2984C118.981 52.2358 118.981 50.4205 117.792 50.1701Z" fill="#272727"/>
<path d="M116.855 64.1917C99.4705 60.4359 80.9608 58.7458 63.264 57.3061C62.1384 57.2435 61.8882 58.7458 62.9513 58.9962C80.2104 63.3154 98.9077 66.633 116.73 66.6956C118.293 66.6956 118.23 64.4421 116.855 64.1917Z" fill="#272727"/>
<path d="M137.552 81.2806C112.539 77.5248 87.2756 72.2041 61.8872 72.0789C60.574 72.0789 60.6366 74.0194 61.8247 74.3323C86.5252 79.7156 112.164 80.6546 137.177 83.7844C138.74 84.0348 139.178 81.5309 137.552 81.2806Z" fill="#272727"/>
<path d="M136.865 95.4899C111.039 93.5494 85.4009 89.6058 59.5749 87.3523C58.1366 87.2271 57.824 89.2302 59.1997 89.5432C84.4004 95.4273 110.414 97.5555 136.24 99.3708C138.741 99.496 139.429 95.6776 136.865 95.4899Z" fill="#272727"/>
<path d="M135.301 111.202C110.788 105.505 83.2109 103.878 58.0727 104.253C56.2592 104.253 56.1342 107.258 57.9476 107.446C70.7668 108.635 83.5861 109.136 96.4053 110.2C109.225 111.264 121.981 113.455 134.8 114.081C136.676 114.206 137.177 111.64 135.301 111.202Z" fill="#272727"/>
<path d="M134.863 123.909C109.538 121.468 82.8987 120.028 57.4478 120.716C55.8845 120.779 55.7594 123.283 57.3228 123.471C82.6486 126.35 109.225 127.226 134.676 126.976C136.489 126.976 136.614 124.097 134.863 123.909Z" fill="#272727"/>
<path d="M134.239 142.187C108.476 138.118 81.5239 136.115 55.4477 136.491C53.6968 136.491 53.5717 139.433 55.3226 139.621C81.4614 141.561 107.6 143.439 133.676 145.505C135.802 145.63 136.365 142.563 134.239 142.187Z" fill="#272727"/>
<path d="M133.989 160.09C107.85 157.022 81.2109 154.957 54.8845 154.393C53.3212 154.331 53.2587 156.96 54.7595 157.148C80.7731 160.34 107.162 162.593 133.301 164.221C135.927 164.346 136.74 160.403 133.989 160.09Z" fill="#272727"/>
</g>
<defs>
<clipPath id="clip0">
<rect width="119" height="162" fill="white" transform="translate(35 21)"/>
</clipPath>
</defs>
</svg>
