<svg width="83" height="113" viewBox="0 0 83 113" fill="none" xmlns="http://www.w3.org/2000/svg">
<g clip-path="url(#clip0)">
<path d="M78.0281 111.472C80.0344 99.2899 79.9472 86.6712 80.7322 74.3146C81.5173 61.9143 82.4768 49.514 82.9566 37.07C82.9566 36.546 82.7385 36.1531 82.4332 35.8474C82.5641 35.6291 82.6077 35.3235 82.5205 35.0178C79.8599 26.4162 76.7632 17.6836 73.2304 9.38762C73.1432 9.1693 73.0123 9.03831 72.8815 8.95098C72.9251 8.86366 72.9687 8.77633 72.9687 8.64534C73.1868 8.07772 72.3581 7.42278 71.9656 8.03406C71.9219 8.12139 71.8783 8.20871 71.7911 8.29604C71.7039 8.20871 71.6166 8.16505 71.4858 8.12139C57.0055 5.80724 42.5252 3.62409 27.9141 1.79024C24.5557 1.35361 9.33393 -2.83804 8.28716 3.40578C8.02547 3.4931 7.76378 3.71142 7.72016 4.06072C4.4054 19.9541 4.84155 37.1137 3.75117 53.3127C2.66078 69.7736 1.22148 86.1909 0.000248935 102.652C-0.0433664 103.263 0.261941 103.7 0.654479 103.962C1.22148 106.931 3.2714 107.717 6.28086 108.284C13.6955 109.682 21.6335 109.638 29.1353 110.162C44.4007 111.254 59.6224 112.389 74.8878 112.956C75.7165 113 76.2399 112.389 76.3707 111.777C76.7632 112.432 77.8972 112.345 78.0281 111.472ZM78.8132 31.3065C76.4579 30.7825 74.1027 30.3022 71.7475 29.8656C70.0029 29.5599 67.9966 29.429 66.2956 28.905C64.3765 28.3374 64.4201 28.9487 64.5073 27.1148C64.5946 24.7133 67.7349 20.6527 68.8253 18.4695C69.9593 16.1554 70.9624 13.8849 71.9219 11.5271C73.8846 18.1639 76.2399 24.8443 78.8132 31.3065ZM75.3676 110.38C63.068 109.682 50.7685 108.983 38.5126 108.153C32.5809 107.76 26.6492 107.237 20.7611 106.669C17.0102 106.32 5.36494 107.018 2.66078 103.569C2.7044 103.438 2.74802 103.263 2.79163 103.089C3.96924 86.1909 4.9724 69.2497 6.32447 52.3957C7.58932 36.808 10.2935 20.5654 9.50839 4.89032C12.7795 0.785993 21.5898 3.58043 26.1695 4.14805C31.0108 4.75933 35.8957 5.37061 40.737 5.9819C50.8557 7.29179 61.0181 8.25238 71.1805 9.34395C68.9561 12.7933 67.037 16.3737 65.1616 20.0414C64.0276 22.2246 60.6256 26.3725 61.2362 29.036C61.7159 31.1318 64.1584 31.1755 65.8594 31.5248C70.439 32.4417 75.1059 33.184 79.7291 33.6643C79.9908 34.3629 80.2961 35.0615 80.5578 35.7601C80.3397 35.9348 80.2089 36.2404 80.1652 36.6334C79.1621 49.4703 78.6387 62.3509 77.8972 75.1878C77.1994 86.9769 75.7601 98.9842 76.2399 110.817C76.0654 110.599 75.8037 110.424 75.3676 110.38Z" fill="#272727"/>
<path d="M57.7469 20.3469C51.5972 18.9934 45.0985 18.7314 38.8615 17.8582C32.5809 16.9412 26.3003 15.8497 19.976 15.1074C19.191 15.0201 19.0165 16.1116 19.758 16.2863C31.5777 19.3864 45.4038 22.0935 57.6597 21.8315C58.5756 21.7878 58.5756 20.5216 57.7469 20.3469Z" fill="#272727"/>
<path d="M57.0927 30.1275C44.9676 27.5077 32.0575 26.3288 19.7143 25.3246C18.9292 25.2809 18.7548 26.3288 19.4962 26.5035C31.5341 29.5162 44.5751 31.8304 57.0054 31.874C58.0958 31.874 58.0522 30.3022 57.0927 30.1275Z" fill="#272727"/>
<path d="M71.5287 42.0475C54.0826 39.4277 36.462 35.7164 18.7542 35.629C17.8382 35.629 17.8819 36.9826 18.7105 37.2009C35.9386 40.9559 53.8209 41.6109 71.267 43.794C72.3574 43.9687 72.6627 42.2222 71.5287 42.0475Z" fill="#272727"/>
<path d="M71.048 51.959C53.0349 50.6055 35.1526 47.8547 17.1395 46.2828C16.1363 46.1955 15.9183 47.5927 16.8778 47.811C34.4548 51.9154 52.5988 53.3999 70.6119 54.6661C72.3565 54.7535 72.8363 52.09 71.048 51.959Z" fill="#272727"/>
<path d="M69.9599 62.9184C52.8627 58.9451 33.6283 57.8099 16.0949 58.0718C14.8301 58.0718 14.7429 60.1677 16.0077 60.2987C24.9489 61.1283 33.89 61.4776 42.8311 62.2198C51.7723 62.9621 60.6698 64.4903 69.611 64.9269C70.9194 65.0143 71.2684 63.2241 69.9599 62.9184Z" fill="#272727"/>
<path d="M69.6554 71.782C51.9912 70.0792 33.411 69.0749 15.6596 69.5552C14.5692 69.5989 14.482 71.3454 15.5724 71.4764C33.2366 73.4849 51.7731 74.0962 69.5245 73.9215C70.7894 73.9215 70.8766 71.913 69.6554 71.782Z" fill="#272727"/>
<path d="M69.2168 84.5317C51.2473 81.6936 32.4491 80.2963 14.2615 80.5583C13.0403 80.5583 12.953 82.6105 14.1743 82.7415C32.4055 84.095 50.6367 85.4049 68.8243 86.8458C70.3072 86.9331 70.6997 84.7936 69.2168 84.5317Z" fill="#272727"/>
<path d="M69.0426 97.0193C50.8114 94.8798 32.2313 93.4389 13.8692 93.046C12.7789 93.0023 12.7352 94.8361 13.782 94.9671C31.926 97.1939 50.3317 98.7658 68.5629 99.9011C70.3947 99.9884 70.9617 97.2376 69.0426 97.0193Z" fill="#272727"/>
</g>
<defs>
<clipPath id="clip0">
<rect width="83" height="113" fill="white"/>
</clipPath>
</defs>
</svg>
