<svg width="1280" height="311" viewBox="0 0 1280 311" fill="none" xmlns="http://www.w3.org/2000/svg">
<g clip-path="url(#clip0)">
<path d="M1290.97 270.87L1285.11 182.813L1280.05 106.982C1265.56 103.008 1275.07 104.708 1266.74 98.6035C1262.59 96.5835 1262.61 98.6479 1258.46 96.6279C1254.31 94.6079 1250.2 96.7167 1243.98 94.7189C1241.92 94.7411 1229.49 90.7455 1227.44 92.8321C1225.4 94.9187 1221.27 94.9631 1219.21 94.9853L1215.08 95.0297L1204.75 95.1407C1200.62 95.1851 1198.54 93.1429 1194.41 93.1873L1184.08 93.2983C1175.85 95.4515 1171.76 99.6247 1169.65 95.5181C1169.63 93.4537 1165.5 93.498 1161.37 93.5424C1157.24 93.5868 1150.98 87.4602 1134.46 87.6378C1132.39 87.66 1128.29 89.7688 1128.27 87.7044C1126.18 85.6622 1122.03 83.6422 1119.96 83.6644C1117.87 81.6222 1111.7 83.7532 1107.57 83.7976C1105.51 83.8198 1101.4 85.9286 1101.4 85.9286C1082.84 88.1928 1095.21 85.9952 1082.86 90.2572C1080.8 90.2794 1076.69 92.3882 1074.6 90.346C1070.43 86.2616 1066.34 90.4348 1062.19 88.4148C1060.15 90.5014 1058.08 90.5236 1056.02 90.5458C1056.02 90.5458 1033.28 88.7255 1029.2 92.8988C1027.15 94.9854 1023 92.9654 1020.94 92.9876C985.88 97.4938 1004.4 91.1007 963.123 93.6091L952.799 93.7201C952.799 93.7201 950.734 93.7423 948.691 95.8289L944.562 95.8733C942.475 93.8311 942.497 95.8955 934.238 95.9843C930.086 93.9643 923.936 98.1598 917.741 98.2264C915.698 100.313 911.591 102.422 909.526 102.444C907.461 102.466 909.548 104.508 901.311 106.662C893.074 108.815 890.965 104.708 886.857 106.817C868.429 121.468 864.211 113.254 858.061 117.45C855.996 117.472 849.824 119.603 849.801 117.539C847.692 113.432 845.649 115.519 841.498 113.499C826.977 107.461 820.849 113.721 810.436 105.574C808.349 103.532 806.307 105.618 800.112 105.685C767.075 106.04 783.549 101.734 764.966 101.933C756.706 102.022 758.771 102 756.684 99.9579C752.554 100.002 746.315 95.94 744.251 95.9622C742.186 95.9844 740.121 96.0067 738.034 93.9644C729.686 85.7956 727.71 94.0754 709.015 83.9532C698.735 88.193 696.648 86.1508 690.454 86.2174C682.195 86.3061 686.302 84.1974 678.043 84.2862C673.913 84.3306 675.956 82.2439 671.826 82.2883C663.567 82.3771 669.717 78.1817 661.458 78.2705C661.435 76.2061 651.156 80.4459 651.156 80.4459L642.896 80.5347C634.659 82.6879 626.355 78.6479 618.118 80.8011L605.729 80.9343C603.664 80.9565 593.362 83.1319 591.297 83.1541C585.103 83.2207 529.308 79.6912 506.617 81.9998C498.38 84.1531 508.704 84.0421 485.991 84.2863C481.861 84.3306 479.774 82.2884 475.667 84.3972L469.472 84.4638L465.343 84.5082C459.126 82.5104 457.105 86.6615 446.759 84.708C442.629 84.7524 444.716 86.7947 440.587 86.8391L422.003 87.0389L415.809 87.1054C411.679 87.1498 405.507 89.2808 399.312 89.3474C388.988 89.4584 393.051 83.2208 366.253 87.6382C357.993 87.727 333.127 79.7358 324.912 83.9534C320.782 83.9978 316.674 86.1066 312.523 84.0866C308.371 82.0666 300.178 88.3486 289.832 86.3952C287.767 86.4174 285.724 88.504 279.507 86.5062L262.989 86.6838C260.924 86.706 258.859 86.7282 256.816 88.8148L254.752 88.837C246.492 88.9258 246.537 93.0546 242.407 93.099C230.018 93.2322 234.125 91.1234 217.585 89.2366C215.52 89.2588 198.957 85.3075 196.892 85.3297C190.653 81.2675 170.005 81.4895 167.918 79.4473C163.81 81.5561 161.701 77.4495 157.571 77.4939C157.571 77.4939 155.529 79.5805 153.441 77.5383C147.203 73.476 134.814 73.6092 132.771 75.6958C128.663 77.8046 91.4304 72.011 85.2359 72.0776C79.0636 74.2086 81.1284 74.1864 76.9987 74.2308C50.1115 70.3906 -1.79025 67.333 -5.91992 67.3774L-0.768879 144.706L-3.00063 211C1.12904 210.956 10.3906 217.408 16.6073 219.406C20.7814 223.49 24.8888 221.381 26.9758 223.424C29.0628 225.466 29.0629 225.466 33.1925 225.421C37.3222 225.377 39.3648 223.29 43.4945 223.246L45.5593 223.224C49.7112 225.244 51.7539 223.157 53.8187 223.135L60.0132 223.068C74.4449 220.849 66.23 225.066 99.2895 226.775C101.354 226.753 105.506 228.773 111.678 226.642C113.721 224.556 119.937 226.553 122.024 228.596C124.089 228.573 124.134 232.702 130.328 232.636C132.393 232.613 142.739 234.567 146.847 232.458C148.889 230.371 150.976 232.414 155.106 232.369C157.149 230.283 161.301 232.303 165.43 232.258C167.473 230.172 173.69 232.169 173.69 232.169C177.819 232.125 179.906 234.167 186.123 236.165C190.23 234.056 192.317 236.098 192.34 238.163C211.012 246.221 198.534 238.096 210.968 242.092C213.032 242.07 217.14 239.961 221.292 241.981C223.357 241.959 235.768 243.89 235.768 243.89C237.833 243.868 241.94 241.759 246.092 243.779L252.286 243.712L254.351 243.69C264.653 241.515 285.39 249.55 289.498 247.442L291.563 247.419C293.628 247.397 297.779 249.417 299.844 249.395C301.931 251.437 304.018 253.479 318.45 251.26L330.839 251.126C357.682 250.838 337.034 251.06 353.53 248.818C363.854 248.707 363.832 246.642 370.049 248.64C402.975 237.963 398.89 242.136 419.516 239.85C419.494 237.785 421.581 239.828 423.623 237.741L433.948 237.63C436.012 237.608 440.186 241.692 442.251 241.67L454.64 241.537C458.77 241.492 458.748 239.428 462.877 239.384C475.266 239.25 464.92 237.297 483.504 237.097C483.504 237.097 483.481 235.033 491.741 234.944L504.13 234.811C514.476 236.764 526.843 234.567 528.908 234.544L541.297 234.411C545.426 234.367 551.643 236.365 559.903 236.276C582.66 240.16 570.227 236.165 597.092 237.941C601.221 237.896 603.308 239.938 603.308 239.938C605.373 239.916 609.503 239.872 611.59 241.914C613.677 243.956 617.807 243.912 621.936 243.867C634.348 245.799 634.37 247.863 636.412 245.777L642.607 245.71C642.607 245.71 648.779 243.579 657.016 241.426C659.081 241.403 667.363 243.379 669.428 243.357L671.492 243.335C675.6 241.226 677.709 245.333 679.73 241.181C683.815 237.008 683.859 241.137 687.989 241.093C706.528 236.764 698.313 240.982 704.508 240.915C710.702 240.849 714.921 249.062 716.963 246.975C721.071 244.866 723.113 242.78 725.2 244.822C727.265 244.8 727.243 242.735 731.395 244.755C741.763 248.773 739.654 244.667 745.893 248.729C754.197 252.769 750.067 252.813 756.239 250.682L758.282 248.596L760.347 248.573L766.541 248.507C768.606 248.485 768.628 250.549 770.693 250.527L774.823 250.482C776.888 250.46 776.954 256.653 783.127 254.522L785.191 254.5C787.278 256.542 793.384 248.218 795.516 254.389C801.688 252.258 801.688 252.258 803.775 254.3C803.775 254.3 809.992 256.298 812.034 254.212L816.164 254.167C820.271 252.058 822.358 254.101 826.488 254.056C828.509 249.905 834.703 249.839 836.79 251.881C842.962 249.75 842.94 247.685 845.027 249.728C847.092 249.705 851.2 247.597 853.264 247.574C859.415 243.379 859.459 247.508 863.566 245.399L867.696 245.355L869.761 245.332C873.913 247.352 873.979 253.546 892.563 253.346C904.952 253.213 896.715 255.366 904.974 255.277C906.995 251.126 917.319 251.015 923.558 255.077C925.622 255.055 925.6 252.991 927.665 252.969C929.73 252.946 931.773 250.86 933.837 250.838C940.01 248.706 940.054 252.835 944.162 250.727C946.226 250.704 948.313 252.747 950.356 250.66C952.376 246.509 956.551 250.593 960.636 246.42C966.786 242.225 985.392 244.089 993.651 244C997.781 243.956 995.738 246.043 1001.96 248.041C1006.11 250.061 1006.11 250.061 1010.24 250.016C1016.41 247.885 1014.39 252.036 1018.5 249.927C1022.6 247.819 1026.73 247.774 1030.86 247.73C1032.93 247.708 1034.99 247.685 1035.01 249.75C1043.25 247.597 1055.66 249.528 1057.73 249.506C1059.81 251.548 1063.92 249.439 1068.05 249.395C1072.18 249.35 1072.14 245.221 1082.48 247.175C1084.55 247.153 1082.51 249.239 1084.59 251.281C1086.66 251.259 1084.61 253.346 1090.79 251.215L1101.11 251.104C1105.24 251.059 1111.48 255.122 1111.52 259.25C1115.65 259.206 1123.85 252.924 1142.56 265.111C1144.63 265.089 1150.76 258.829 1154.93 262.913C1159.08 264.933 1161.12 262.847 1163.23 266.953C1165.34 271.06 1167.43 273.102 1171.52 268.929C1175.6 264.756 1177.71 268.862 1181.79 264.689C1185.88 260.516 1187.97 262.558 1198.29 262.447L1204.49 262.38C1210.66 260.249 1222.98 253.923 1223.11 266.309L1231.37 266.221C1237.63 272.347 1270.45 251.348 1274.8 271.948C1285.17 275.965 1284.78 270.937 1290.97 270.87Z" fill="#40DCFF"/>
<path fill-rule="evenodd" clip-rule="evenodd" d="M-0.000611305 0H1280V101.507C1280.02 101.512 1280.04 101.517 1280.05 101.522L1285.11 177.354L1290.97 265.41C1288.72 265.434 1287.34 266.116 1285.99 266.779C1283.64 267.939 1281.4 269.044 1274.8 266.488C1272.07 253.572 1258.16 257.009 1246.61 259.861C1239.74 261.557 1233.71 263.046 1231.37 260.761L1223.11 260.85C1223 249.906 1213.36 253.569 1206.86 256.041C1206.01 256.367 1205.2 256.672 1204.49 256.921L1198.29 256.987C1195.2 257.02 1192.85 256.861 1190.96 256.733C1186.54 256.432 1184.66 256.305 1181.79 259.229C1179.75 261.316 1178.2 261.332 1176.65 261.349C1175.11 261.366 1173.56 261.382 1171.51 263.469C1167.43 267.642 1165.34 265.6 1163.23 261.493C1161.93 258.955 1160.65 258.783 1158.89 258.545C1157.79 258.397 1156.52 258.225 1154.93 257.453C1152 254.584 1148.1 256.819 1145.33 258.411C1144.15 259.086 1143.18 259.644 1142.56 259.651C1127.53 249.862 1119.28 251.989 1114.48 253.228C1113.31 253.532 1112.34 253.782 1111.52 253.791C1111.48 249.662 1105.24 245.6 1101.11 245.644L1090.79 245.755C1086.67 247.176 1086.21 246.722 1085.74 246.268C1085.51 246.041 1085.28 245.814 1084.59 245.822C1083.55 244.801 1083.54 243.768 1083.53 242.994C1083.52 242.22 1083.52 241.704 1082.48 241.715C1075.77 240.447 1073.43 241.742 1071.48 242.819C1070.43 243.401 1069.5 243.919 1068.05 243.935C1066.59 243.951 1065.13 244.225 1063.76 244.483C1061.26 244.952 1059.07 245.365 1057.73 244.046C1057.29 244.051 1056.38 243.967 1055.15 243.853C1050.57 243.431 1041.5 242.595 1035.01 244.29C1034.99 242.226 1032.93 242.248 1030.86 242.27C1026.73 242.314 1022.6 242.359 1018.5 244.468C1016.57 245.455 1015.99 245.07 1015.29 244.6C1014.48 244.066 1013.52 243.423 1010.24 244.556C1006.11 244.601 1006.11 244.601 1001.96 242.581C998.847 241.582 997.803 240.561 997.021 239.795C996.238 239.029 995.716 238.518 993.651 238.541C991.816 238.56 989.47 238.484 986.863 238.398C977.738 238.1 965.42 237.697 960.636 240.96C958.594 243.047 956.529 243.069 954.722 243.089C952.915 243.108 951.367 243.125 950.356 245.2C948.995 246.591 947.613 246.147 946.232 245.703C945.541 245.481 944.85 245.259 944.162 245.267C942.212 246.268 941.177 245.863 939.968 245.39C938.631 244.866 937.079 244.259 933.838 245.378C932.805 245.389 931.778 245.916 930.752 246.443C929.725 246.97 928.698 247.498 927.665 247.509C926.633 247.52 926.122 248.041 925.612 248.563C925.101 249.085 924.59 249.606 923.558 249.618C917.319 245.555 906.995 245.666 904.974 249.817C901.262 249.857 900.882 249.444 900.465 248.989C899.953 248.432 899.383 247.813 892.563 247.886C878.626 248.036 875.104 244.59 872.462 242.005C871.582 241.143 870.799 240.378 869.761 239.873L867.696 239.895L863.567 239.939C861.823 240.834 860.812 240.606 859.755 240.367C858.322 240.043 856.805 239.7 853.265 242.115C852.232 242.126 850.689 242.658 849.146 243.191C847.603 243.724 846.06 244.257 845.028 244.268C843.76 243.027 843.27 243.302 841.697 244.187C840.681 244.759 839.212 245.585 836.79 246.421C834.703 244.379 828.509 244.445 826.489 248.596C825.026 248.612 823.819 248.366 822.688 248.135C820.627 247.715 818.817 247.346 816.164 248.707L812.035 248.752C809.992 250.839 803.775 248.841 803.775 248.841C801.688 246.798 801.688 246.798 795.516 248.929C794.233 245.214 791.509 246.753 789.089 248.121C787.489 249.024 786.022 249.853 785.192 249.04L783.127 249.063C779.078 250.461 777.657 248.277 776.575 246.615C776.008 245.743 775.534 245.015 774.823 245.023L770.694 245.067C769.661 245.078 769.139 244.568 768.618 244.057C768.096 243.546 767.574 243.036 766.542 243.047L760.347 243.114L758.282 243.136L756.24 245.222C753.519 246.162 752.8 246.679 752.135 246.616C751.292 246.538 750.536 245.528 745.893 243.269C742.774 241.238 741.742 241.249 740.193 241.266C738.644 241.282 736.579 241.304 731.395 239.296C728.627 237.949 727.714 238.417 726.802 238.886C726.345 239.12 725.889 239.355 725.201 239.362C723.571 237.768 721.969 238.69 719.389 240.175C718.665 240.592 717.864 241.053 716.964 241.515C716.029 242.47 714.64 241.269 712.814 239.692C710.648 237.821 707.869 235.419 704.508 235.455C702.36 235.478 701.945 234.987 701.546 234.514C700.794 233.625 700.101 232.805 687.989 235.633C686.412 235.65 685.431 235.058 684.592 234.552C683.236 233.734 682.255 233.143 679.73 235.722C678.61 238.022 677.463 237.786 675.963 237.478C674.758 237.23 673.324 236.935 671.493 237.875L669.428 237.897C668.396 237.908 665.809 237.42 663.222 236.932C660.636 236.443 658.049 235.955 657.017 235.966C648.78 238.119 642.607 240.25 642.607 240.25L636.413 240.317C635.26 241.494 634.751 241.35 632.295 240.653C630.4 240.116 627.344 239.249 621.937 238.408C617.807 238.452 613.677 238.496 611.59 236.454C609.503 234.412 605.374 234.456 603.309 234.479C603.309 234.479 601.222 232.436 597.092 232.481C584.743 231.665 580.697 232.068 577.721 232.365C574.222 232.713 572.199 232.915 559.903 230.816C555.065 230.868 550.927 230.204 547.5 229.654C545.076 229.265 543.008 228.933 541.297 228.951L528.908 229.085C528.483 229.089 527.62 229.186 526.428 229.32C521.834 229.836 512.345 230.902 504.13 229.351L491.74 229.484C483.481 229.573 483.503 231.637 483.503 231.637C473.273 231.747 471.81 232.389 470.495 232.965C469.421 233.436 468.446 233.864 462.877 233.924C460.812 233.946 459.785 234.473 458.759 235C457.732 235.528 456.705 236.055 454.64 236.077L442.251 236.21C441.219 236.221 439.659 235.206 438.099 234.19C436.54 233.175 434.98 232.159 433.947 232.17L423.623 232.281C422.602 233.324 421.569 233.336 420.795 233.344C420.021 233.352 419.505 233.358 419.516 234.39C413.446 235.063 409.517 235.176 406.154 235.273C398.089 235.506 393.286 235.645 370.048 243.18C366.399 242.007 364.899 242.235 362.194 242.645C360.291 242.933 357.793 243.312 353.53 243.358C345.821 244.406 346.223 244.915 346.101 245.19C345.961 245.504 345.138 245.513 330.839 245.667L318.45 245.8C304.018 248.02 301.931 245.977 299.844 243.935C298.812 243.946 297.258 243.447 295.703 242.947C294.149 242.448 292.595 241.948 291.563 241.96L289.498 241.982C287.639 242.936 282.377 241.814 276.218 240.5C268.762 238.91 259.992 237.039 254.351 238.23L252.286 238.253L246.092 238.319C243.106 236.866 240.143 237.549 237.946 238.056C237.088 238.253 236.347 238.424 235.768 238.43C235.768 238.43 223.357 236.499 221.292 236.521C218.305 235.068 215.342 235.751 213.146 236.257C212.288 236.455 211.547 236.626 210.967 236.632C205.516 234.88 204.853 235.458 204.255 235.981C203.488 236.65 202.825 237.228 192.34 232.703C192.317 230.639 190.23 228.596 186.123 230.705C183.748 229.942 181.976 229.173 180.463 228.515C178.014 227.452 176.242 226.682 173.69 226.71C173.69 226.71 167.473 224.712 165.43 226.798C163.967 226.814 162.502 226.571 161.128 226.343C158.624 225.927 156.425 225.562 155.106 226.909C153.529 226.926 152.249 226.639 151.157 226.393C149.389 225.996 148.109 225.709 146.847 226.998C143.719 228.604 136.973 227.854 133.022 227.415C131.784 227.278 130.821 227.171 130.328 227.176C126.401 227.218 124.946 225.574 123.88 224.37C123.265 223.676 122.78 223.128 122.024 223.136C119.937 221.094 113.721 219.096 111.678 221.182C107.134 222.751 103.685 222.07 101.357 221.611C100.523 221.446 99.834 221.31 99.2893 221.316C82.2109 220.433 76.1474 218.88 72.2865 217.892C68.6737 216.967 66.9894 216.535 60.013 217.609L53.8186 217.675C53.1933 217.682 52.5702 217.878 51.8899 218.092C50.3233 218.584 48.454 219.172 45.5592 217.764L43.4944 217.786C41.4295 217.808 39.8865 218.341 38.3434 218.874C36.8003 219.407 35.2572 219.939 33.1924 219.962C30.8175 219.987 29.8083 219.998 28.9827 219.614C28.3725 219.331 27.8625 218.832 26.9757 217.964C26.1112 217.118 24.9001 216.984 23.4812 216.827C21.4746 216.606 19.0522 216.339 16.6072 213.946C14.3611 213.224 11.3363 211.981 8.19385 210.689C2.63868 208.406 -3.28418 205.972 -5.92188 206L-5.92004 138.5V61.9177C-5.21582 61.9101 -3.12232 61.9927 -0.000611305 62.1541V0Z" fill="#40DCFF"/>
</g>
<defs>
<clipPath id="clip0">
<rect width="1280" height="311" fill="white"/>
</clipPath>
</defs>
</svg>
