<svg width="1280" height="311" viewBox="0 0 1280 311" fill="none" xmlns="http://www.w3.org/2000/svg">
<g clip-path="url(#clip0)">
<path d="M1290.97 270.87L1285.11 182.813L1280.05 106.982C1265.56 103.008 1275.07 104.708 1266.74 98.6035C1262.59 96.5835 1262.61 98.6479 1258.46 96.6279C1254.31 94.6079 1250.2 96.7167 1243.98 94.7189C1241.92 94.7411 1229.49 90.7455 1227.44 92.8321C1225.4 94.9187 1221.27 94.9631 1219.21 94.9853L1215.08 95.0297L1204.75 95.1407C1200.62 95.1851 1198.54 93.1429 1194.41 93.1873L1184.08 93.2983C1175.85 95.4515 1171.76 99.6247 1169.65 95.5181C1169.63 93.4537 1165.5 93.498 1161.37 93.5424C1157.24 93.5868 1150.98 87.4602 1134.46 87.6378C1132.39 87.66 1128.29 89.7688 1128.27 87.7044C1126.18 85.6622 1122.03 83.6422 1119.96 83.6644C1117.87 81.6222 1111.7 83.7532 1107.57 83.7976C1105.51 83.8198 1101.4 85.9286 1101.4 85.9286C1082.84 88.1928 1095.21 85.9952 1082.86 90.2572C1080.8 90.2794 1076.69 92.3882 1074.6 90.346C1070.43 86.2616 1066.34 90.4348 1062.19 88.4148C1060.15 90.5014 1058.08 90.5236 1056.02 90.5458C1056.02 90.5458 1033.28 88.7255 1029.2 92.8988C1027.15 94.9854 1023 92.9654 1020.94 92.9876C985.881 97.4938 1004.4 91.1007 963.124 93.6091L952.8 93.7201C952.8 93.7201 950.735 93.7423 948.692 95.8289L944.563 95.8733C942.476 93.8311 942.498 95.8955 934.239 95.9843C930.087 93.9643 923.937 98.1598 917.742 98.2264C915.699 100.313 911.592 102.422 909.527 102.444C907.462 102.466 909.549 104.508 901.312 106.662C893.075 108.815 890.966 104.708 886.858 106.817C868.43 121.468 864.212 113.254 858.062 117.45C855.997 117.472 849.825 119.603 849.802 117.539C847.693 113.432 845.65 115.519 841.499 113.499C826.978 107.461 820.85 113.721 810.437 105.574C808.35 103.532 806.308 105.618 800.113 105.685C767.076 106.04 783.55 101.734 764.967 101.933C756.707 102.022 758.772 102 756.685 99.9579C752.555 100.002 746.316 95.94 744.252 95.9622C742.187 95.9844 740.122 96.0067 738.035 93.9644C729.687 85.7956 727.711 94.0754 709.016 83.9532C698.736 88.193 696.649 86.1508 690.455 86.2174C682.196 86.3061 686.303 84.1974 678.044 84.2862C673.914 84.3306 675.957 82.2439 671.827 82.2883C663.568 82.3771 669.718 78.1817 661.459 78.2705C661.436 76.2061 651.157 80.4459 651.157 80.4459L642.897 80.5347C634.66 82.6879 626.356 78.6479 618.119 80.8011L605.73 80.9343C603.665 80.9565 593.363 83.1319 591.298 83.1541C585.104 83.2207 529.309 79.6912 506.618 81.9998C498.381 84.1531 508.705 84.0421 485.992 84.2863C481.862 84.3306 479.775 82.2884 475.668 84.3972L469.473 84.4638L465.344 84.5082C459.127 82.5104 457.106 86.6615 446.76 84.708C442.63 84.7524 444.717 86.7947 440.588 86.8391L422.004 87.0389L415.81 87.1054C411.68 87.1498 405.508 89.2808 399.313 89.3474C388.989 89.4584 393.052 83.2208 366.254 87.6382C357.994 87.727 333.128 79.7358 324.913 83.9534C320.783 83.9978 316.675 86.1066 312.524 84.0866C308.372 82.0666 300.179 88.3486 289.833 86.3952C287.768 86.4174 285.725 88.504 279.508 86.5062L262.99 86.6838C260.925 86.706 258.86 86.7282 256.817 88.8148L254.753 88.837C246.493 88.9258 246.538 93.0546 242.408 93.099C230.019 93.2322 234.126 91.1234 217.586 89.2366C215.521 89.2588 198.958 85.3075 196.893 85.3297C190.654 81.2675 170.006 81.4895 167.919 79.4473C163.811 81.5561 161.702 77.4495 157.572 77.4939C157.572 77.4939 155.53 79.5805 153.442 77.5383C147.204 73.476 134.815 73.6092 132.772 75.6958C128.664 77.8046 91.431 72.011 85.2365 72.0776C79.0642 74.2086 81.129 74.1864 76.9993 74.2308C50.1121 70.3906 -1.78962 67.333 -5.91929 67.3774L-0.768247 144.706L-3 211C1.12967 210.956 10.3912 217.408 16.6079 219.406C20.782 223.49 24.8894 221.381 26.9764 223.424C29.0634 225.466 29.0635 225.466 33.1931 225.421L33.1931 225.421C37.3228 225.377 39.3654 223.29 43.4951 223.246L45.5599 223.224C49.7118 225.244 51.7545 223.157 53.8193 223.135L60.0138 223.068C74.4455 220.849 66.2306 225.066 99.2901 226.775C101.355 226.753 105.507 228.773 111.679 226.642C113.722 224.556 119.938 226.553 122.025 228.596C124.09 228.573 124.135 232.702 130.329 232.636C132.394 232.613 142.74 234.567 146.848 232.458C148.89 230.371 150.977 232.414 155.107 232.369C157.15 230.283 161.302 232.303 165.431 232.258C167.474 230.172 173.691 232.169 173.691 232.169C177.82 232.125 179.907 234.167 186.124 236.165C190.231 234.056 192.318 236.098 192.341 238.163C211.013 246.221 198.535 238.096 210.969 242.092C213.033 242.07 217.141 239.961 221.293 241.981C223.358 241.959 235.769 243.89 235.769 243.89C237.834 243.868 241.941 241.759 246.093 243.779L252.287 243.712L254.352 243.69C264.654 241.515 285.391 249.55 289.499 247.442L291.564 247.419C293.629 247.397 297.78 249.417 299.845 249.395C301.932 251.437 304.019 253.479 318.451 251.26L330.84 251.126C357.683 250.838 337.035 251.06 353.531 248.818C363.855 248.707 363.833 246.642 370.05 248.64C402.976 237.963 398.891 242.136 419.517 239.85C419.495 237.785 421.582 239.828 423.624 237.741L433.949 237.63C436.013 237.608 440.187 241.692 442.252 241.67L454.641 241.537C458.771 241.492 458.749 239.428 462.878 239.384C475.267 239.25 464.921 237.297 483.505 237.097C483.505 237.097 483.482 235.033 491.742 234.944L504.131 234.811C514.477 236.764 526.844 234.567 528.909 234.544L541.298 234.411C545.427 234.367 551.644 236.365 559.904 236.276C582.661 240.16 570.228 236.165 597.093 237.941C601.222 237.896 603.309 239.938 603.309 239.938C605.374 239.916 609.504 239.872 611.591 241.914C613.678 243.956 617.808 243.912 621.937 243.867C634.349 245.799 634.371 247.863 636.413 245.777L642.608 245.71C642.608 245.71 648.78 243.579 657.017 241.426C659.082 241.403 667.364 243.379 669.429 243.357L671.493 243.335C675.601 241.226 677.71 245.333 679.731 241.181C683.816 237.008 683.86 241.137 687.99 241.093C706.529 236.764 698.314 240.982 704.509 240.915C710.703 240.849 714.922 249.062 716.964 246.975C721.072 244.866 723.114 242.78 725.201 244.822C727.266 244.8 727.244 242.735 731.396 244.755C741.764 248.773 739.655 244.667 745.894 248.729C754.198 252.769 750.068 252.813 756.24 250.682L758.283 248.596L760.348 248.573L766.542 248.507C768.607 248.485 768.629 250.549 770.694 250.527L774.824 250.482C776.889 250.46 776.955 256.653 783.128 254.522L785.192 254.5C787.279 256.542 793.385 248.218 795.517 254.389C801.689 252.258 801.689 252.258 803.776 254.3C803.776 254.3 809.993 256.298 812.035 254.212L816.165 254.167C820.272 252.058 822.359 254.101 826.489 254.056C828.51 249.905 834.704 249.839 836.791 251.881C842.963 249.75 842.941 247.685 845.028 249.728C847.093 249.705 851.201 247.597 853.265 247.574C859.416 243.379 859.46 247.508 863.567 245.399L867.697 245.355L869.762 245.332C873.914 247.352 873.98 253.546 892.564 253.346C904.953 253.213 896.716 255.366 904.975 255.277C906.996 251.126 917.32 251.015 923.559 255.077C925.623 255.055 925.601 252.991 927.666 252.969C929.731 252.946 931.774 250.86 933.838 250.838C940.011 248.706 940.055 252.835 944.163 250.727C946.227 250.704 948.314 252.747 950.357 250.66C952.377 246.509 956.552 250.593 960.637 246.42C966.787 242.225 985.393 244.089 993.652 244C997.782 243.956 995.739 246.043 1001.96 248.041C1006.11 250.061 1006.11 250.061 1010.24 250.016C1016.41 247.885 1014.39 252.036 1018.5 249.927C1022.6 247.819 1026.73 247.774 1030.86 247.73C1032.93 247.708 1034.99 247.685 1035.01 249.75C1043.25 247.597 1055.66 249.528 1057.73 249.506C1059.81 251.548 1063.92 249.439 1068.05 249.395C1072.18 249.35 1072.14 245.221 1082.48 247.175C1084.55 247.153 1082.51 249.239 1084.59 251.281C1086.66 251.259 1084.61 253.346 1090.79 251.215L1101.11 251.104C1105.24 251.059 1111.48 255.122 1111.52 259.25C1115.65 259.206 1123.85 252.924 1142.56 265.111C1144.63 265.089 1150.76 258.829 1154.93 262.913C1159.08 264.933 1161.12 262.847 1163.23 266.953C1165.34 271.06 1167.43 273.102 1171.52 268.929C1175.6 264.756 1177.71 268.862 1181.79 264.689C1185.88 260.516 1187.97 262.558 1198.29 262.447L1204.49 262.38C1210.66 260.249 1222.98 253.923 1223.11 266.309L1231.37 266.221C1237.63 272.347 1270.45 251.348 1274.8 271.948C1285.17 275.965 1284.78 270.937 1290.97 270.87Z" fill="#272727" fill-opacity="0.3"/>
<path fill-rule="evenodd" clip-rule="evenodd" d="M-2.623e-05 0H1280V101.507C1280.02 101.512 1280.04 101.517 1280.05 101.522L1285.11 177.354L1290.97 265.41C1288.72 265.434 1287.34 266.116 1285.99 266.779C1283.64 267.939 1281.4 269.044 1274.8 266.488C1272.07 253.572 1258.16 257.009 1246.61 259.861C1239.74 261.557 1233.71 263.046 1231.37 260.761L1223.11 260.85C1223 249.906 1213.36 253.569 1206.86 256.041C1206.01 256.367 1205.2 256.672 1204.49 256.921L1198.29 256.987C1195.2 257.02 1192.85 256.861 1190.96 256.733C1186.54 256.432 1184.66 256.305 1181.79 259.229C1179.75 261.316 1178.2 261.332 1176.65 261.349C1175.11 261.366 1173.56 261.382 1171.51 263.469C1167.43 267.642 1165.34 265.6 1163.23 261.493C1161.93 258.955 1160.65 258.783 1158.89 258.545C1157.79 258.397 1156.52 258.225 1154.93 257.453C1152 254.584 1148.1 256.819 1145.33 258.411C1144.15 259.086 1143.18 259.644 1142.56 259.651C1127.53 249.862 1119.28 251.989 1114.48 253.228C1113.31 253.532 1112.34 253.782 1111.52 253.791C1111.48 249.662 1105.24 245.6 1101.11 245.644L1090.79 245.755C1086.67 247.176 1086.21 246.722 1085.74 246.268C1085.51 246.041 1085.28 245.814 1084.59 245.822C1083.55 244.801 1083.54 243.768 1083.53 242.994C1083.52 242.22 1083.52 241.704 1082.48 241.715C1075.77 240.447 1073.43 241.742 1071.48 242.819C1070.43 243.401 1069.5 243.919 1068.05 243.935C1066.59 243.951 1065.13 244.225 1063.76 244.483C1061.26 244.952 1059.07 245.365 1057.73 244.046C1057.29 244.051 1056.38 243.967 1055.15 243.853C1050.57 243.431 1041.5 242.595 1035.01 244.29C1034.99 242.226 1032.93 242.248 1030.86 242.27C1026.73 242.314 1022.6 242.359 1018.5 244.468C1016.57 245.455 1015.99 245.07 1015.29 244.6C1014.48 244.066 1013.52 243.423 1010.24 244.556C1006.11 244.601 1006.11 244.601 1001.96 242.581L1001.96 242.581C998.848 241.582 997.804 240.561 997.022 239.795C996.239 239.029 995.717 238.518 993.652 238.541C991.817 238.56 989.471 238.484 986.864 238.398C977.739 238.1 965.421 237.697 960.637 240.96C958.595 243.047 956.53 243.069 954.723 243.089C952.916 243.108 951.368 243.125 950.357 245.2C948.996 246.591 947.614 246.147 946.233 245.703C945.542 245.481 944.851 245.259 944.163 245.267C942.213 246.268 941.178 245.863 939.969 245.39C938.632 244.866 937.08 244.259 933.839 245.378C932.806 245.389 931.779 245.916 930.753 246.443C929.726 246.97 928.699 247.498 927.666 247.509C926.634 247.52 926.123 248.041 925.613 248.563C925.102 249.085 924.591 249.606 923.559 249.618C917.32 245.555 906.996 245.666 904.975 249.817C901.263 249.857 900.883 249.444 900.466 248.989C899.954 248.432 899.384 247.813 892.564 247.886C878.627 248.036 875.105 244.59 872.463 242.005C871.583 241.143 870.8 240.378 869.762 239.873L867.697 239.895L863.568 239.939C861.824 240.834 860.813 240.606 859.756 240.367C858.323 240.043 856.806 239.7 853.266 242.115C852.233 242.126 850.69 242.658 849.147 243.191C847.604 243.724 846.061 244.257 845.029 244.268C843.761 243.027 843.271 243.302 841.698 244.187C840.682 244.759 839.213 245.585 836.791 246.421C834.704 244.379 828.51 244.445 826.49 248.596C825.027 248.612 823.82 248.366 822.689 248.135C820.628 247.715 818.818 247.346 816.165 248.707L812.036 248.752C809.993 250.839 803.776 248.841 803.776 248.841C801.689 246.798 801.689 246.798 795.517 248.929C794.234 245.214 791.51 246.753 789.09 248.121C787.49 249.024 786.023 249.853 785.193 249.04L783.128 249.063C779.079 250.461 777.658 248.277 776.576 246.615C776.009 245.743 775.535 245.015 774.824 245.023L770.695 245.067C769.662 245.078 769.14 244.568 768.619 244.057C768.097 243.546 767.575 243.036 766.543 243.047L760.348 243.114L758.283 243.136L756.241 245.222C753.52 246.162 752.801 246.679 752.136 246.616C751.293 246.538 750.537 245.528 745.894 243.269C742.775 241.238 741.743 241.249 740.194 241.266C738.645 241.282 736.58 241.304 731.396 239.296C728.628 237.949 727.715 238.417 726.803 238.886C726.346 239.12 725.89 239.355 725.202 239.362C723.572 237.768 721.97 238.69 719.39 240.175C718.666 240.592 717.865 241.053 716.965 241.515C716.03 242.47 714.641 241.269 712.815 239.692C710.649 237.821 707.87 235.419 704.509 235.455C702.361 235.478 701.946 234.987 701.547 234.514C700.795 233.625 700.102 232.805 687.99 235.633C686.413 235.65 685.432 235.058 684.593 234.552C683.237 233.734 682.256 233.143 679.731 235.722C678.611 238.022 677.464 237.786 675.964 237.478C674.759 237.23 673.325 236.935 671.494 237.875L669.429 237.897C668.397 237.908 665.81 237.42 663.223 236.932C660.637 236.443 658.05 235.955 657.018 235.966C648.781 238.119 642.608 240.25 642.608 240.25L636.414 240.317C635.261 241.494 634.752 241.35 632.296 240.653C630.401 240.116 627.345 239.249 621.938 238.408C617.808 238.452 613.678 238.496 611.591 236.454C609.504 234.412 605.375 234.456 603.31 234.479C603.31 234.479 601.223 232.436 597.093 232.481C584.744 231.665 580.698 232.068 577.722 232.365C574.223 232.713 572.2 232.915 559.904 230.816C555.066 230.868 550.928 230.204 547.501 229.654C545.077 229.265 543.009 228.933 541.298 228.951L528.909 229.085C528.484 229.089 527.621 229.186 526.429 229.32C521.835 229.836 512.346 230.902 504.131 229.351L491.741 229.484C483.482 229.573 483.504 231.637 483.504 231.637C473.274 231.747 471.811 232.389 470.496 232.965C469.422 233.436 468.447 233.864 462.878 233.924C460.813 233.946 459.786 234.473 458.76 235C457.733 235.528 456.706 236.055 454.641 236.077L442.252 236.21C441.22 236.221 439.66 235.206 438.1 234.19C436.541 233.175 434.981 232.159 433.948 232.17L423.624 232.281C422.603 233.324 421.57 233.336 420.796 233.344C420.022 233.352 419.506 233.358 419.517 234.39C413.447 235.063 409.518 235.176 406.155 235.273C398.09 235.506 393.287 235.645 370.049 243.18C366.4 242.007 364.9 242.235 362.195 242.645C360.292 242.933 357.794 243.312 353.531 243.358C345.822 244.406 346.224 244.915 346.102 245.19C345.962 245.504 345.139 245.513 330.84 245.667L318.451 245.8C304.019 248.02 301.932 245.977 299.845 243.935C298.813 243.946 297.259 243.447 295.704 242.947C294.15 242.448 292.596 241.948 291.564 241.96L289.499 241.982C287.64 242.936 282.378 241.814 276.219 240.5C268.763 238.91 259.993 237.039 254.352 238.23L252.287 238.253L246.093 238.319C243.107 236.866 240.144 237.549 237.947 238.056C237.089 238.253 236.348 238.424 235.769 238.43C235.769 238.43 223.358 236.499 221.293 236.521C218.306 235.068 215.343 235.751 213.147 236.257C212.289 236.455 211.548 236.626 210.968 236.632C205.517 234.88 204.854 235.458 204.256 235.981C203.489 236.65 202.826 237.228 192.341 232.703C192.318 230.639 190.231 228.596 186.124 230.705C183.749 229.942 181.977 229.173 180.464 228.515C178.015 227.452 176.243 226.682 173.691 226.71C173.691 226.71 167.474 224.712 165.431 226.798C163.968 226.814 162.503 226.571 161.129 226.343C158.625 225.927 156.426 225.562 155.107 226.909C153.53 226.926 152.25 226.639 151.158 226.393C149.39 225.996 148.11 225.709 146.848 226.998C143.72 228.604 136.974 227.854 133.023 227.415C131.785 227.278 130.822 227.171 130.329 227.176C126.402 227.218 124.947 225.574 123.881 224.37C123.266 223.676 122.781 223.128 122.025 223.136C119.938 221.094 113.722 219.096 111.679 221.182C107.135 222.751 103.686 222.07 101.358 221.611C100.524 221.446 99.8346 221.31 99.2899 221.316C82.2115 220.433 76.148 218.88 72.2871 217.892C68.6743 216.967 66.99 216.535 60.0136 217.609L53.8192 217.675C53.1939 217.682 52.5708 217.878 51.8905 218.092C50.3239 218.584 48.4546 219.172 45.5598 217.764L43.495 217.786C41.4301 217.808 39.8871 218.341 38.344 218.874C36.8009 219.407 35.2578 219.939 33.193 219.962C30.8181 219.987 29.8089 219.998 28.9833 219.614C28.3731 219.331 27.8631 218.832 26.9763 217.964C26.1118 217.118 24.9007 216.984 23.4818 216.827C21.4752 216.606 19.0528 216.339 16.6078 213.946C14.3617 213.224 11.3369 211.981 8.19443 210.689C2.63926 208.406 -3.2836 205.972 -5.92129 206L-5.91946 138.5V61.9177C-5.21524 61.9101 -3.12173 61.9927 -2.623e-05 62.1541V0Z" fill="#40DCFF"/>
</g>
<defs>
<clipPath id="clip0">
<rect width="1280" height="311" fill="white" transform="matrix(-1 0 0 1 1280 0)"/>
</clipPath>
</defs>
</svg>
