<svg width="1280" height="311" viewBox="0 0 1280 311" fill="none" xmlns="http://www.w3.org/2000/svg">
<g clip-path="url(#clip0)">
<path d="M1287.44 64.4486L1281.58 152.505L1276.52 228.337C1262.03 232.311 1271.54 230.611 1263.21 236.715C1259.06 238.735 1259.08 236.671 1254.93 238.691C1250.78 240.711 1246.67 238.602 1240.45 240.6C1238.39 240.578 1225.96 244.573 1223.91 242.487C1221.87 240.4 1217.74 240.356 1215.68 240.333L1211.55 240.289L1201.22 240.178C1197.09 240.134 1195 242.176 1190.88 242.131L1180.55 242.02C1172.31 239.867 1168.23 235.694 1166.12 239.801C1166.1 241.865 1161.97 241.821 1157.84 241.776C1153.71 241.732 1147.45 247.858 1130.93 247.681C1128.86 247.659 1124.76 245.55 1124.73 247.614C1122.65 249.656 1118.5 251.676 1116.43 251.654C1114.34 253.697 1108.17 251.565 1104.04 251.521C1101.98 251.499 1097.87 249.39 1097.87 249.39C1079.31 247.126 1091.67 249.323 1079.33 245.061C1077.27 245.039 1073.16 242.93 1071.07 244.973C1066.9 249.057 1062.81 244.884 1058.66 246.904C1056.62 244.817 1054.55 244.795 1052.49 244.773C1052.49 244.773 1029.75 246.593 1025.67 242.42C1023.62 240.333 1019.47 242.353 1017.41 242.331C982.349 237.825 1000.87 244.218 959.592 241.709L949.268 241.598C949.268 241.598 947.203 241.576 945.16 239.49L941.031 239.445C938.943 241.487 938.966 239.423 930.706 239.334C926.554 241.354 920.404 237.159 914.21 237.092C912.167 235.006 908.06 232.897 905.995 232.875C903.93 232.852 906.017 230.81 897.78 228.657C889.543 226.504 887.433 230.61 883.326 228.502C864.898 213.851 860.68 222.064 854.529 217.869C852.465 217.847 846.292 215.716 846.27 217.78C844.161 221.887 842.118 219.8 837.966 221.82C823.446 227.858 817.318 221.598 806.905 229.745C804.818 231.787 802.775 229.7 796.581 229.634C763.544 229.278 780.018 233.585 761.434 233.385C753.175 233.296 755.24 233.318 753.153 235.361C749.023 235.316 742.784 239.379 740.719 239.356C738.655 239.334 736.59 239.312 734.503 241.354C726.155 249.523 724.178 241.243 705.484 251.365C695.204 247.126 693.117 249.168 686.923 249.101C678.663 249.012 682.771 251.121 674.511 251.032C670.382 250.988 672.424 253.075 668.295 253.03C660.035 252.941 666.186 257.137 657.926 257.048C657.904 259.112 647.624 254.873 647.624 254.873L639.365 254.784C631.128 252.631 622.824 256.671 614.587 254.517L602.198 254.384C600.133 254.362 589.831 252.187 587.766 252.164C581.572 252.098 525.777 255.627 503.086 253.319C494.849 251.165 505.173 251.276 482.46 251.032C478.33 250.988 476.243 253.03 472.135 250.921L465.941 250.855L461.811 250.81C455.595 252.808 453.574 248.657 443.228 250.61C439.098 250.566 441.185 248.524 437.055 248.479L418.472 248.28L412.277 248.213C408.148 248.169 401.975 246.038 395.781 245.971C385.457 245.86 389.52 252.098 362.721 247.68C354.462 247.591 329.595 255.583 321.38 251.365C317.251 251.321 313.143 249.212 308.991 251.232C304.839 253.252 296.647 246.97 286.3 248.923C284.235 248.901 282.193 246.814 275.976 248.812L259.457 248.635C257.393 248.612 255.328 248.59 253.285 246.504L251.22 246.481C242.961 246.393 243.005 242.264 238.876 242.219C226.487 242.086 230.594 244.195 214.053 246.082C211.988 246.06 195.425 250.011 193.36 249.989C187.122 254.051 166.473 253.829 164.386 255.871C160.279 253.762 158.17 257.869 154.04 257.825C154.04 257.825 151.997 255.738 149.91 257.78C143.671 261.842 131.282 261.709 129.24 259.623C125.132 257.514 87.8991 263.307 81.7046 263.241C75.5323 261.11 77.5971 261.132 73.4674 261.088C46.5802 264.928 -5.32151 267.985 -9.45117 267.941L-4.30011 190.612L-6.53185 124.318C-2.40218 124.363 6.85935 117.91 13.076 115.913C17.2501 111.828 21.3575 113.937 23.4446 111.895C25.5316 109.853 25.5316 109.853 29.6612 109.897H29.6613C33.7909 109.941 35.8336 112.028 39.9632 112.072L42.0281 112.095C46.1799 110.075 48.2226 112.161 50.2874 112.183L56.482 112.25C70.9136 114.47 62.6987 110.252 95.7582 108.543C97.8231 108.565 101.975 106.545 108.147 108.676C110.189 110.763 116.406 108.765 118.493 106.723C120.558 106.745 120.602 102.616 126.797 102.683C128.862 102.705 139.208 100.752 143.316 102.86C145.358 104.947 147.445 102.905 151.575 102.949C153.617 105.036 157.769 103.016 161.899 103.06C163.942 105.147 170.158 103.149 170.158 103.149C174.288 103.193 176.375 101.151 182.592 99.1533C186.699 101.262 188.786 99.2199 188.808 97.1555C207.481 89.0976 195.003 97.2221 207.436 93.2264C209.501 93.2486 213.609 95.3574 217.761 93.3374C219.825 93.3596 232.237 91.4284 232.237 91.4284C234.301 91.4506 238.409 93.5594 242.561 91.5394L248.755 91.606L250.82 91.6282C261.122 93.8036 281.859 85.768 285.967 87.8768L288.032 87.899C290.096 87.9212 294.248 85.9012 296.313 85.9234C298.4 83.8812 300.487 81.8389 314.919 84.0587L327.308 84.1919C354.151 84.4805 333.502 84.2585 349.999 86.5006C360.323 86.6116 360.301 88.676 366.517 86.6782C399.444 97.3554 395.358 93.1822 415.985 95.4686C415.962 97.533 418.049 95.4908 420.092 97.5774L430.416 97.6884C432.481 97.7106 436.655 93.6262 438.72 93.6484L451.109 93.7816C455.239 93.826 455.217 95.8904 459.346 95.9348C471.735 96.068 461.389 98.0214 479.972 98.2212C479.972 98.2212 479.95 100.286 488.209 100.375L500.598 100.508C510.945 98.5542 523.312 100.752 525.377 100.774L537.766 100.907C541.895 100.952 548.112 98.9538 556.371 99.0426C579.129 95.158 566.695 99.1536 593.561 97.3778C597.69 97.4222 599.777 95.38 599.777 95.38C601.842 95.4022 605.972 95.4466 608.059 93.4043C610.146 91.3621 614.275 91.4065 618.405 91.4509C630.816 89.5197 630.838 87.4553 632.881 89.5419L639.076 89.6085C639.076 89.6085 645.248 91.7395 653.485 93.8927C655.55 93.9149 663.831 91.9393 665.896 91.9615L667.961 91.9837C672.069 94.0925 674.178 89.9859 676.198 94.1369C680.284 98.3102 680.328 94.1813 684.458 94.2257C702.997 98.5544 694.782 94.3367 700.976 94.4033C707.171 94.4699 711.389 86.2567 713.432 88.3433C717.539 90.4521 719.582 92.5387 721.669 90.4965C723.734 90.5187 723.712 92.5831 727.864 90.5631C738.232 86.5453 736.123 90.6519 742.362 86.5897C750.666 82.5496 746.536 82.5052 752.708 84.6362L754.751 86.7229L756.816 86.7451L763.01 86.8117C765.075 86.8339 765.097 84.7694 767.162 84.7916L771.292 84.836C773.356 84.8582 773.423 78.665 779.595 80.796L781.66 80.8182C783.747 78.776 789.853 87.1002 791.984 80.9292C798.157 83.0602 798.157 83.0602 800.244 81.018C800.244 81.018 806.46 79.0202 808.503 81.1068L812.633 81.1512C816.74 83.26 818.827 81.2178 822.957 81.2622C824.977 85.4132 831.172 85.4798 833.259 83.4376C839.431 85.5686 839.409 87.633 841.496 85.5908C843.561 85.613 847.668 87.7218 849.733 87.744C855.883 91.9395 855.928 87.8107 860.035 89.9195L864.165 89.9639L866.23 89.9861C870.381 87.9661 870.448 81.7728 889.032 81.9726C901.421 82.1058 893.184 79.9526 901.443 80.0414C903.463 84.1924 913.787 84.3034 920.026 80.2412C922.091 80.2634 922.069 82.3278 924.134 82.35C926.199 82.3722 928.241 84.4588 930.306 84.481C936.478 86.612 936.523 82.4832 940.63 84.592C942.695 84.6142 944.782 82.572 946.825 84.6586C948.845 88.8096 953.019 84.7252 957.105 88.8984C963.255 93.0939 981.86 91.2293 990.12 91.3181C994.249 91.3625 992.207 89.2758 998.423 87.278C1002.58 85.258 1002.58 85.258 1006.71 85.3024C1012.88 87.4334 1010.86 83.2824 1014.97 85.3912C1019.07 87.5 1023.2 87.5444 1027.33 87.5888C1029.4 87.611 1031.46 87.6332 1031.48 85.5688C1039.72 87.722 1052.13 85.7908 1054.2 85.813C1056.28 83.7708 1060.39 85.8796 1064.52 85.924C1068.65 85.9684 1068.61 90.0972 1078.95 88.1438C1081.02 88.166 1078.97 86.0794 1081.06 84.0371C1083.13 84.0593 1081.08 81.9727 1087.26 84.1037L1097.58 84.2147C1101.71 84.2591 1107.95 80.1969 1107.99 76.0681C1112.12 76.1125 1120.32 82.3945 1139.03 70.2078C1141.1 70.23 1147.22 76.4899 1151.4 72.4055C1155.55 70.3854 1157.59 72.4721 1159.7 68.3654C1161.81 64.2588 1163.9 62.2166 1167.98 66.3898C1172.07 70.563 1174.18 66.4564 1178.26 70.6296C1182.35 74.8029 1184.44 72.7606 1194.76 72.8716L1200.95 72.9382C1207.13 75.0693 1219.45 81.3957 1219.58 69.0092L1227.84 69.098C1234.1 62.9714 1266.92 83.9707 1271.27 63.371C1281.64 59.3531 1281.25 64.382 1287.44 64.4486Z" fill="white"/>
<path d="M1287.44 64.4486L1281.58 152.505L1276.52 228.337C1262.03 232.311 1271.54 230.611 1263.21 236.715C1259.06 238.735 1259.08 236.671 1254.93 238.691C1250.78 240.711 1246.67 238.602 1240.45 240.6C1238.39 240.578 1225.96 244.573 1223.91 242.487C1221.87 240.4 1217.74 240.356 1215.68 240.333L1211.55 240.289L1201.22 240.178C1197.09 240.134 1195 242.176 1190.88 242.131L1180.55 242.02C1172.31 239.867 1168.23 235.694 1166.12 239.801C1166.1 241.865 1161.97 241.821 1157.84 241.776C1153.71 241.732 1147.45 247.858 1130.93 247.681C1128.86 247.659 1124.76 245.55 1124.73 247.614C1122.65 249.656 1118.5 251.676 1116.43 251.654C1114.34 253.697 1108.17 251.565 1104.04 251.521C1101.98 251.499 1097.87 249.39 1097.87 249.39C1079.31 247.126 1091.67 249.323 1079.33 245.061C1077.27 245.039 1073.16 242.93 1071.07 244.973C1066.9 249.057 1062.81 244.884 1058.66 246.904C1056.62 244.817 1054.55 244.795 1052.49 244.773C1052.49 244.773 1029.75 246.593 1025.67 242.42C1023.62 240.333 1019.47 242.353 1017.41 242.331C982.349 237.825 1000.87 244.218 959.592 241.709L949.268 241.598C949.268 241.598 947.203 241.576 945.16 239.49L941.031 239.445C938.943 241.487 938.966 239.423 930.706 239.334C926.554 241.354 920.404 237.159 914.21 237.092C912.167 235.006 908.06 232.897 905.995 232.875C903.93 232.852 906.017 230.81 897.78 228.657C889.543 226.504 887.433 230.61 883.326 228.502C864.898 213.851 860.68 222.064 854.529 217.869C852.465 217.847 846.292 215.716 846.27 217.78C844.161 221.887 842.118 219.8 837.966 221.82C823.446 227.858 817.318 221.598 806.905 229.745C804.818 231.787 802.775 229.7 796.581 229.634C763.544 229.278 780.018 233.585 761.434 233.385C753.175 233.296 755.24 233.318 753.153 235.361C749.023 235.316 742.784 239.379 740.719 239.356C738.655 239.334 736.59 239.312 734.503 241.354C726.155 249.523 724.178 241.243 705.484 251.365C695.204 247.126 693.117 249.168 686.923 249.101C678.663 249.012 682.771 251.121 674.511 251.032C670.382 250.988 672.424 253.075 668.295 253.03C660.035 252.941 666.186 257.137 657.926 257.048C657.904 259.112 647.624 254.873 647.624 254.873L639.365 254.784C631.128 252.631 622.824 256.671 614.587 254.517L602.198 254.384C600.133 254.362 589.831 252.187 587.766 252.164C581.572 252.098 525.777 255.627 503.086 253.319C494.849 251.165 505.173 251.276 482.46 251.032C478.33 250.988 476.243 253.03 472.135 250.921L465.941 250.855L461.811 250.81C455.595 252.808 453.574 248.657 443.228 250.61C439.098 250.566 441.185 248.524 437.055 248.479L418.472 248.28L412.277 248.213C408.148 248.169 401.975 246.038 395.781 245.971C385.457 245.86 389.52 252.098 362.721 247.68C354.462 247.591 329.595 255.583 321.38 251.365C317.251 251.321 313.143 249.212 308.991 251.232C304.839 253.252 296.647 246.97 286.3 248.923C284.235 248.901 282.193 246.814 275.976 248.812L259.457 248.635C257.393 248.612 255.328 248.59 253.285 246.504L251.22 246.481C242.961 246.393 243.005 242.264 238.876 242.219C226.487 242.086 230.594 244.195 214.053 246.082C211.988 246.06 195.425 250.011 193.36 249.989C187.122 254.051 166.473 253.829 164.386 255.871C160.279 253.762 158.17 257.869 154.04 257.825C154.04 257.825 151.997 255.738 149.91 257.78C143.671 261.842 131.282 261.709 129.24 259.623C125.132 257.514 87.8991 263.307 81.7046 263.241C75.5323 261.11 77.5971 261.132 73.4674 261.088C46.5802 264.928 -5.32151 267.985 -9.45117 267.941L-4.30011 190.612L-6.53185 124.318C-2.40218 124.363 6.85935 117.91 13.076 115.913C17.2501 111.828 21.3575 113.937 23.4446 111.895C25.5316 109.853 25.5316 109.853 29.6612 109.897H29.6613C33.7909 109.941 35.8336 112.028 39.9632 112.072L42.0281 112.095C46.1799 110.075 48.2226 112.161 50.2874 112.183L56.482 112.25C70.9136 114.47 62.6987 110.252 95.7582 108.543C97.8231 108.565 101.975 106.545 108.147 108.676C110.189 110.763 116.406 108.765 118.493 106.723C120.558 106.745 120.602 102.616 126.797 102.683C128.862 102.705 139.208 100.752 143.316 102.86C145.358 104.947 147.445 102.905 151.575 102.949C153.617 105.036 157.769 103.016 161.899 103.06C163.942 105.147 170.158 103.149 170.158 103.149C174.288 103.193 176.375 101.151 182.592 99.1533C186.699 101.262 188.786 99.2199 188.808 97.1555C207.481 89.0976 195.003 97.2221 207.436 93.2264C209.501 93.2486 213.609 95.3574 217.761 93.3374C219.825 93.3596 232.237 91.4284 232.237 91.4284C234.301 91.4506 238.409 93.5594 242.561 91.5394L248.755 91.606L250.82 91.6282C261.122 93.8036 281.859 85.768 285.967 87.8768L288.032 87.899C290.096 87.9212 294.248 85.9012 296.313 85.9234C298.4 83.8812 300.487 81.8389 314.919 84.0587L327.308 84.1919C354.151 84.4805 333.502 84.2585 349.999 86.5006C360.323 86.6116 360.301 88.676 366.517 86.6782C399.444 97.3554 395.358 93.1822 415.985 95.4686C415.962 97.533 418.049 95.4908 420.092 97.5774L430.416 97.6884C432.481 97.7106 436.655 93.6262 438.72 93.6484L451.109 93.7816C455.239 93.826 455.217 95.8904 459.346 95.9348C471.735 96.068 461.389 98.0214 479.972 98.2212C479.972 98.2212 479.95 100.286 488.209 100.375L500.598 100.508C510.945 98.5542 523.312 100.752 525.377 100.774L537.766 100.907C541.895 100.952 548.112 98.9538 556.371 99.0426C579.129 95.158 566.695 99.1536 593.561 97.3778C597.69 97.4222 599.777 95.38 599.777 95.38C601.842 95.4022 605.972 95.4466 608.059 93.4043C610.146 91.3621 614.275 91.4065 618.405 91.4509C630.816 89.5197 630.838 87.4553 632.881 89.5419L639.076 89.6085C639.076 89.6085 645.248 91.7395 653.485 93.8927C655.55 93.9149 663.831 91.9393 665.896 91.9615L667.961 91.9837C672.069 94.0925 674.178 89.9859 676.198 94.1369C680.284 98.3102 680.328 94.1813 684.458 94.2257C702.997 98.5544 694.782 94.3367 700.976 94.4033C707.171 94.4699 711.389 86.2567 713.432 88.3433C717.539 90.4521 719.582 92.5387 721.669 90.4965C723.734 90.5187 723.712 92.5831 727.864 90.5631C738.232 86.5453 736.123 90.6519 742.362 86.5897C750.666 82.5496 746.536 82.5052 752.708 84.6362L754.751 86.7229L756.816 86.7451L763.01 86.8117C765.075 86.8339 765.097 84.7694 767.162 84.7916L771.292 84.836C773.356 84.8582 773.423 78.665 779.595 80.796L781.66 80.8182C783.747 78.776 789.853 87.1002 791.984 80.9292C798.157 83.0602 798.157 83.0602 800.244 81.018C800.244 81.018 806.46 79.0202 808.503 81.1068L812.633 81.1512C816.74 83.26 818.827 81.2178 822.957 81.2622C824.977 85.4132 831.172 85.4798 833.259 83.4376C839.431 85.5686 839.409 87.633 841.496 85.5908C843.561 85.613 847.668 87.7218 849.733 87.744C855.883 91.9395 855.928 87.8107 860.035 89.9195L864.165 89.9639L866.23 89.9861C870.381 87.9661 870.448 81.7728 889.032 81.9726C901.421 82.1058 893.184 79.9526 901.443 80.0414C903.463 84.1924 913.787 84.3034 920.026 80.2412C922.091 80.2634 922.069 82.3278 924.134 82.35C926.199 82.3722 928.241 84.4588 930.306 84.481C936.478 86.612 936.523 82.4832 940.63 84.592C942.695 84.6142 944.782 82.572 946.825 84.6586C948.845 88.8096 953.019 84.7252 957.105 88.8984C963.255 93.0939 981.86 91.2293 990.12 91.3181C994.249 91.3625 992.207 89.2758 998.423 87.278C1002.58 85.258 1002.58 85.258 1006.71 85.3024C1012.88 87.4334 1010.86 83.2824 1014.97 85.3912C1019.07 87.5 1023.2 87.5444 1027.33 87.5888C1029.4 87.611 1031.46 87.6332 1031.48 85.5688C1039.72 87.722 1052.13 85.7908 1054.2 85.813C1056.28 83.7708 1060.39 85.8796 1064.52 85.924C1068.65 85.9684 1068.61 90.0972 1078.95 88.1438C1081.02 88.166 1078.97 86.0794 1081.06 84.0371C1083.13 84.0593 1081.08 81.9727 1087.26 84.1037L1097.58 84.2147C1101.71 84.2591 1107.95 80.1969 1107.99 76.0681C1112.12 76.1125 1120.32 82.3945 1139.03 70.2078C1141.1 70.23 1147.22 76.4899 1151.4 72.4055C1155.55 70.3854 1157.59 72.4721 1159.7 68.3654C1161.81 64.2588 1163.9 62.2166 1167.98 66.3898C1172.07 70.563 1174.18 66.4564 1178.26 70.6296C1182.35 74.8029 1184.44 72.7606 1194.76 72.8716L1200.95 72.9382C1207.13 75.0693 1219.45 81.3957 1219.58 69.0092L1227.84 69.098C1234.1 62.9714 1266.92 83.9707 1271.27 63.371C1281.64 59.3531 1281.25 64.382 1287.44 64.4486Z" fill="white"/>
<path fill-rule="evenodd" clip-rule="evenodd" d="M1281.57 157.965L1287.44 69.9081C1285.19 69.8839 1283.8 69.2027 1282.46 68.5393C1280.11 67.3796 1277.86 66.2746 1271.27 68.8305C1268.54 81.7458 1254.62 78.3091 1243.08 75.4578C1236.21 73.7613 1230.18 72.2721 1227.84 74.5575L1219.58 74.4687C1219.46 85.412 1209.83 81.7489 1203.33 79.2772C1202.48 78.9513 1201.67 78.646 1200.95 78.3978L1194.76 78.3312C1191.67 78.2979 1189.32 78.4576 1187.43 78.5857C1183.01 78.8858 1181.13 79.0135 1178.26 76.0891C1176.22 74.0025 1174.67 73.9859 1173.12 73.9692C1171.57 73.9526 1170.03 73.9359 1167.98 71.8493C1163.9 67.6761 1161.81 69.7183 1159.7 73.8249C1158.4 76.363 1157.12 76.5354 1155.35 76.7737C1154.26 76.921 1152.98 77.0934 1151.4 77.865C1148.47 80.7341 1144.57 78.4989 1141.79 76.907C1140.62 76.2328 1139.65 75.674 1139.03 75.6674C1124 85.4561 1115.75 83.3291 1110.95 82.0901C1109.77 81.7866 1108.8 81.5363 1107.99 81.5276C1107.95 85.6564 1101.71 89.7187 1097.58 89.6742L1087.25 89.5632C1083.14 88.1426 1082.68 88.5964 1082.21 89.0502C1081.98 89.2771 1081.75 89.5041 1081.06 89.4967C1080.02 90.5177 1080.01 91.5499 1080 92.3241C1079.99 93.0983 1079.98 93.6144 1078.95 93.6033C1072.23 94.8715 1069.9 93.5761 1067.95 92.4991C1066.9 91.9172 1065.97 91.399 1064.52 91.3835C1063.06 91.3677 1061.6 91.0929 1060.23 90.8354C1057.73 90.3659 1055.54 89.9537 1054.2 91.2725C1053.76 91.2677 1052.85 91.3514 1051.61 91.4653C1047.04 91.887 1037.97 92.7235 1031.48 91.0283C1031.46 93.0927 1029.39 93.0705 1027.33 93.0483C1023.2 93.0039 1019.07 92.9595 1014.97 90.8507C1013.04 89.863 1012.46 90.2485 1011.76 90.7186C1010.95 91.2522 1009.99 91.8948 1006.71 90.7619C1004.75 90.7409 1003.72 90.7298 1002.74 90.9385C1001.64 91.1705 1000.61 91.6741 998.424 92.7375C995.316 93.7364 994.272 94.7575 993.49 95.5234C992.707 96.2892 992.185 96.7998 990.12 96.7776C988.285 96.7578 985.939 96.8346 983.332 96.9198C974.207 97.2182 961.889 97.6211 957.105 94.3579C955.063 92.2713 952.998 92.2491 951.191 92.2297C949.384 92.2103 947.836 92.1936 946.825 90.1181C945.464 88.727 944.082 89.171 942.701 89.615C942.01 89.8369 941.319 90.0589 940.631 90.0515C938.681 89.0502 937.647 89.4552 936.437 89.9286C935.1 90.4523 933.548 91.0597 930.307 89.9405C929.274 89.9294 928.248 89.4022 927.221 88.875C926.194 88.3478 925.167 87.8206 924.135 87.8095C923.102 87.7984 922.591 87.2767 922.081 86.7551C921.57 86.2334 921.059 85.7118 920.027 85.7007C913.788 89.7629 903.464 89.6519 901.444 85.5009C897.731 85.461 897.352 85.874 896.934 86.3288C896.422 86.8858 895.853 87.5054 889.032 87.4321C875.095 87.2822 871.573 90.7285 868.931 93.3132C868.051 94.1748 867.268 94.9406 866.23 95.4456L864.166 95.4234L860.036 95.379C858.293 94.4839 857.281 94.7125 856.224 94.9514C854.791 95.2754 853.274 95.6183 849.734 93.2036C848.702 93.1925 847.158 92.6597 845.615 92.127C844.072 91.5942 842.529 91.0614 841.497 91.0503C840.229 92.2912 839.739 92.0159 838.166 91.1308C837.15 90.5592 835.681 89.7333 833.26 88.8971C831.173 90.9393 824.978 90.8727 822.958 86.7217C821.495 86.706 820.288 86.9521 819.157 87.1828C817.096 87.6033 815.286 87.9725 812.633 86.6107L808.504 86.5663C806.461 84.4797 800.245 86.4775 800.245 86.4775C798.157 88.5197 798.157 88.5197 791.985 86.3887C790.702 90.1042 787.978 88.5651 785.558 87.1976C783.958 86.2938 782.491 85.4651 781.661 86.2777L779.596 86.2555C775.547 84.8576 774.126 87.0417 773.044 88.7036C772.477 89.5752 772.003 90.3032 771.292 90.2955L767.163 90.2511C766.13 90.2401 765.609 90.7506 765.087 91.2612C764.565 91.7717 764.043 92.2823 763.011 92.2712L756.816 92.2046L754.752 92.1824L752.709 90.0957C749.988 89.1562 749.269 88.6396 748.604 88.7017C747.761 88.7805 747.005 89.7903 742.363 92.0492C739.243 94.0803 738.211 94.0692 736.662 94.0525C735.113 94.0359 733.049 94.0137 727.864 96.0226C725.096 97.3693 724.184 96.9007 723.271 96.432C722.814 96.1977 722.358 95.9634 721.67 95.956C720.04 97.5505 718.438 96.6281 715.859 95.1432C715.134 94.7263 714.333 94.2651 713.433 93.8028C712.498 92.8483 711.109 94.049 709.283 95.6265C707.117 97.4976 704.338 99.899 700.977 99.8628C698.829 99.8398 698.414 100.332 698.015 100.804C697.263 101.693 696.57 102.513 684.458 99.6852C682.881 99.6683 681.9 100.26 681.061 100.766C679.705 101.584 678.724 102.176 676.199 99.5965C675.079 97.2958 673.932 97.5317 672.433 97.8402C671.227 98.0883 669.793 98.3832 667.962 97.4432L665.897 97.421C664.865 97.4099 662.278 97.8983 659.691 98.3866C657.105 98.875 654.518 99.3634 653.486 99.3523C645.249 97.199 639.076 95.068 639.076 95.068L632.882 95.0014C631.729 93.8239 631.22 93.9683 628.764 94.6648C626.869 95.2024 623.813 96.0691 618.406 96.9104C614.276 96.866 610.147 96.8216 608.059 98.8639C605.972 100.906 601.843 100.862 599.778 100.839C599.778 100.839 597.691 102.882 593.561 102.837C581.212 103.654 577.166 103.25 574.19 102.954C570.691 102.605 568.668 102.403 556.372 104.502C551.534 104.45 547.397 105.114 543.969 105.664C541.546 106.053 539.477 106.385 537.766 106.367L525.377 106.234C524.952 106.229 524.089 106.132 522.897 105.998C518.303 105.482 508.814 104.416 500.599 105.967L488.21 105.834C479.95 105.745 479.972 103.681 479.972 103.681C469.742 103.571 468.279 102.929 466.964 102.353C465.89 101.882 464.915 101.454 459.346 101.394C457.281 101.372 456.255 100.845 455.228 100.318C454.201 99.7905 453.174 99.2633 451.109 99.2411L438.72 99.1079C437.688 99.0968 436.128 100.112 434.568 101.128C433.009 102.143 431.449 103.159 430.416 103.148L420.092 103.037C419.071 101.994 418.039 101.983 417.264 101.974C416.49 101.966 415.974 101.96 415.985 100.928C409.916 100.255 405.986 100.142 402.623 100.045C394.558 99.8118 389.755 99.6731 366.518 92.1377C362.868 93.3106 361.368 93.0833 358.663 92.6732C356.761 92.3847 354.262 92.0059 349.999 91.9601C342.827 90.9853 342.676 90.4763 342.591 90.1886C342.48 89.8146 342.48 89.8146 327.308 89.6515L314.919 89.5182C300.487 87.2984 298.4 89.3407 296.313 91.3829C295.281 91.3718 293.727 91.8712 292.172 92.3707C290.618 92.8701 289.064 93.3696 288.032 93.3585L285.967 93.3363C284.109 92.3822 278.846 93.5045 272.687 94.8183C265.232 96.4084 256.461 98.2789 250.82 97.0877L248.755 97.0655L242.561 96.9989C239.575 98.4518 236.612 97.7688 234.415 97.2625C233.557 97.0649 232.817 96.8942 232.237 96.8879C232.237 96.8879 219.826 98.8191 217.761 98.7969C214.775 100.25 211.811 99.5668 209.615 99.0606C208.757 98.8629 208.016 98.6922 207.437 98.6859C201.985 100.438 201.323 99.8598 200.724 99.3373C199.957 98.6681 199.294 98.0901 188.809 102.615C188.786 104.679 186.699 106.722 182.592 104.613C180.217 105.376 178.445 106.145 176.932 106.803C174.483 107.866 172.711 108.636 170.159 108.608C170.159 108.608 163.942 110.606 161.899 108.52C160.436 108.504 158.971 108.747 157.597 108.975C155.093 109.391 152.894 109.756 151.575 108.409C149.998 108.392 148.718 108.679 147.626 108.925C145.858 109.322 144.578 109.609 143.316 108.32C140.188 106.714 133.443 107.464 129.491 107.903C128.253 108.04 127.29 108.147 126.797 108.142C122.87 108.1 121.415 109.744 120.349 110.948C119.734 111.642 119.249 112.19 118.493 112.182C116.406 114.224 110.19 116.222 108.147 114.136C103.603 112.567 100.154 113.248 97.8263 113.707C96.9925 113.872 96.3027 114.008 95.758 114.002C78.6796 114.885 72.6161 116.438 68.7552 117.426C65.1424 118.351 63.4581 118.783 56.4818 117.709L50.2872 117.643C49.6621 117.636 49.0389 117.44 48.3586 117.226C46.7921 116.734 44.9227 116.146 42.0279 117.554L39.9631 117.532C37.8982 117.51 36.3552 116.977 34.8121 116.444C33.269 115.911 31.7259 115.379 29.6611 115.356H29.661C25.5314 115.312 25.5314 115.312 23.4444 117.354C22.5799 118.2 21.3688 118.334 19.9499 118.491C17.9432 118.712 15.521 118.979 13.0759 121.372C10.8298 122.094 7.80491 123.337 4.66245 124.629C-0.892767 126.912 -6.81551 129.346 -9.45312 129.318L-9.45134 196.818L-9.45136 273.4C-8.5074 273.41 -5.06739 273.259 -0.00065136 272.972V311H1280V181.605L1281.57 157.965Z" fill="white"/>
</g>
<defs>
<clipPath id="clip0">
<rect width="1280" height="311" fill="white"/>
</clipPath>
</defs>
</svg>
