<svg width="1280" height="311" viewBox="0 0 1280 311" fill="none" xmlns="http://www.w3.org/2000/svg">
<g clip-path="url(#clip0)">
<path d="M1287.44 64.4487L1281.58 152.505L1276.52 228.337C1262.03 232.311 1271.54 230.611 1263.21 236.715C1259.06 238.735 1259.08 236.671 1254.93 238.691C1250.78 240.711 1246.67 238.602 1240.45 240.6C1238.39 240.578 1225.96 244.573 1223.91 242.487C1221.87 240.4 1217.74 240.356 1215.68 240.333L1211.55 240.289L1201.22 240.178C1197.09 240.134 1195 242.176 1190.88 242.131L1180.55 242.02C1172.31 239.867 1168.23 235.694 1166.12 239.801C1166.1 241.865 1161.97 241.821 1157.84 241.776C1153.71 241.732 1147.45 247.858 1130.93 247.681C1128.86 247.659 1124.76 245.55 1124.73 247.614C1122.65 249.656 1118.5 251.676 1116.43 251.654C1114.34 253.697 1108.17 251.565 1104.04 251.521C1101.98 251.499 1097.87 249.39 1097.87 249.39C1079.31 247.126 1091.67 249.323 1079.33 245.061C1077.27 245.039 1073.16 242.93 1071.07 244.973C1066.9 249.057 1062.81 244.884 1058.66 246.904C1056.62 244.817 1054.55 244.795 1052.49 244.773C1052.49 244.773 1029.75 246.593 1025.67 242.42C1023.62 240.333 1019.47 242.353 1017.41 242.331C982.35 237.825 1000.87 244.218 959.593 241.709L949.269 241.598C949.269 241.598 947.204 241.576 945.161 239.49L941.032 239.445C938.944 241.487 938.967 239.423 930.707 239.334C926.555 241.354 920.405 237.159 914.211 237.092C912.168 235.006 908.061 232.897 905.996 232.875C903.931 232.852 906.018 230.81 897.781 228.657C889.544 226.504 887.434 230.61 883.327 228.502C864.899 213.851 860.681 222.064 854.53 217.869C852.466 217.847 846.293 215.716 846.271 217.78C844.162 221.887 842.119 219.8 837.967 221.82C823.447 227.858 817.319 221.598 806.906 229.745C804.819 231.787 802.776 229.7 796.582 229.634C763.545 229.278 780.019 233.585 761.435 233.385C753.176 233.296 755.241 233.318 753.154 235.361C749.024 235.316 742.785 239.379 740.72 239.356C738.656 239.334 736.591 239.312 734.504 241.354C726.156 249.523 724.179 241.243 705.485 251.365C695.205 247.126 693.118 249.168 686.924 249.101C678.664 249.012 682.772 251.121 674.512 251.032C670.383 250.988 672.425 253.075 668.296 253.03C660.036 252.941 666.187 257.137 657.927 257.048C657.905 259.112 647.625 254.873 647.625 254.873L639.366 254.784C631.129 252.631 622.825 256.671 614.588 254.517L602.199 254.384C600.134 254.362 589.832 252.187 587.767 252.164C581.573 252.098 525.778 255.627 503.087 253.319C494.85 251.165 505.174 251.276 482.461 251.032C478.331 250.988 476.244 253.03 472.136 250.921L465.942 250.855L461.812 250.81C455.596 252.808 453.575 248.657 443.229 250.61C439.099 250.566 441.186 248.524 437.056 248.479L418.473 248.28L412.278 248.213C408.149 248.169 401.976 246.038 395.782 245.971C385.458 245.86 389.521 252.098 362.722 247.68C354.463 247.591 329.596 255.583 321.381 251.365C317.252 251.321 313.144 249.212 308.992 251.232C304.84 253.252 296.648 246.97 286.301 248.923C284.236 248.901 282.194 246.814 275.977 248.812L259.458 248.635C257.394 248.612 255.329 248.59 253.286 246.504L251.221 246.481C242.962 246.393 243.006 242.264 238.877 242.219C226.488 242.086 230.595 244.195 214.054 246.082C211.989 246.06 195.426 250.011 193.361 249.989C187.123 254.051 166.474 253.829 164.387 255.871C160.28 253.762 158.171 257.869 154.041 257.825C154.041 257.825 151.998 255.738 149.911 257.78C143.672 261.842 131.283 261.709 129.241 259.623C125.133 257.514 87.8997 263.307 81.7052 263.241C75.5329 261.11 77.5977 261.132 73.468 261.088C46.5808 264.928 -5.32093 267.985 -9.45059 267.941L-4.29953 190.612L-6.53127 124.318C-2.4016 124.363 6.85993 117.91 13.0766 115.913C17.2507 111.828 21.3581 113.937 23.4452 111.895C25.5322 109.853 25.5322 109.853 29.6618 109.897L29.6619 109.897C33.7915 109.941 35.8342 112.028 39.9638 112.072L42.0287 112.095C46.1805 110.075 48.2232 112.161 50.288 112.183L56.4826 112.25C70.9142 114.47 62.6993 110.252 95.7588 108.543C97.8237 108.565 101.976 106.545 108.148 108.676C110.19 110.763 116.407 108.765 118.494 106.723C120.559 106.745 120.603 102.616 126.798 102.683C128.863 102.705 139.209 100.752 143.317 102.86C145.359 104.947 147.446 102.905 151.576 102.949C153.618 105.036 157.77 103.016 161.9 103.06C163.943 105.147 170.159 103.149 170.159 103.149C174.289 103.193 176.376 101.151 182.593 99.1534C186.7 101.262 188.787 99.22 188.809 97.1556C207.482 89.0977 195.004 97.2222 207.437 93.2265C209.502 93.2487 213.61 95.3575 217.762 93.3375C219.826 93.3597 232.238 91.4285 232.238 91.4285C234.302 91.4507 238.41 93.5595 242.562 91.5395L248.756 91.6061L250.821 91.6283C261.123 93.8037 281.86 85.7681 285.968 87.8769L288.033 87.8991C290.097 87.9213 294.249 85.9013 296.314 85.9235C298.401 83.8813 300.488 81.839 314.92 84.0588L327.309 84.192C354.152 84.4806 333.503 84.2586 350 86.5007C360.324 86.6117 360.302 88.6761 366.518 86.6783C399.445 97.3555 395.359 93.1823 415.986 95.4687C415.963 97.5331 418.05 95.4909 420.093 97.5775L430.417 97.6885C432.482 97.7107 436.656 93.6263 438.721 93.6485L451.11 93.7817C455.24 93.8261 455.218 95.8905 459.347 95.9349C471.736 96.0681 461.39 98.0215 479.973 98.2213C479.973 98.2213 479.951 100.286 488.21 100.375L500.599 100.508C510.946 98.5543 523.313 100.752 525.378 100.774L537.767 100.907C541.896 100.952 548.113 98.9539 556.372 99.0427C579.13 95.1581 566.696 99.1537 593.562 97.3779C597.691 97.4223 599.778 95.3801 599.778 95.3801C601.843 95.4023 605.973 95.4467 608.06 93.4044C610.147 91.3622 614.276 91.4066 618.406 91.451C630.817 89.5198 630.839 87.4554 632.882 89.542L639.077 89.6086C639.077 89.6086 645.249 91.7396 653.486 93.8928C655.551 93.915 663.832 91.9394 665.897 91.9616L667.962 91.9838C672.07 94.0926 674.179 89.986 676.199 94.137C680.285 98.3103 680.329 94.1814 684.459 94.2258C702.998 98.5545 694.783 94.3368 700.977 94.4034C707.172 94.47 711.39 86.2568 713.433 88.3434C717.54 90.4522 719.583 92.5388 721.67 90.4966C723.735 90.5188 723.713 92.5832 727.865 90.5632C738.233 86.5454 736.124 90.652 742.363 86.5898C750.667 82.5497 746.537 82.5053 752.709 84.6363L754.752 86.723L756.817 86.7452L763.011 86.8118C765.076 86.834 765.098 84.7695 767.163 84.7917L771.293 84.8361C773.357 84.8583 773.424 78.6651 779.596 80.7961L781.661 80.8183C783.748 78.7761 789.854 87.1003 791.985 80.9293C798.158 83.0603 798.158 83.0603 800.245 81.0181C800.245 81.0181 806.461 79.0203 808.504 81.1069L812.634 81.1513C816.741 83.2601 818.828 81.2179 822.958 81.2623C824.978 85.4133 831.173 85.4799 833.26 83.4377C839.432 85.5687 839.41 87.6331 841.497 85.5909C843.562 85.6131 847.669 87.7219 849.734 87.7441C855.884 91.9396 855.929 87.8108 860.036 89.9196L864.166 89.964L866.231 89.9862C870.382 87.9662 870.449 81.7729 889.033 81.9727C901.422 82.1059 893.185 79.9527 901.444 80.0415C903.464 84.1925 913.788 84.3035 920.027 80.2413C922.092 80.2635 922.07 82.3279 924.135 82.3501C926.2 82.3723 928.242 84.4589 930.307 84.4811C936.479 86.6121 936.524 82.4833 940.631 84.5921C942.696 84.6143 944.783 82.5721 946.826 84.6587C948.846 88.8097 953.02 84.7253 957.106 88.8985C963.256 93.094 981.861 91.2294 990.121 91.3182C994.25 91.3626 992.208 89.2759 998.424 87.2781C1002.58 85.2581 1002.58 85.2581 1006.71 85.3025C1012.88 87.4335 1010.86 83.2825 1014.97 85.3913C1019.07 87.5001 1023.2 87.5445 1027.33 87.5889C1029.4 87.6111 1031.46 87.6333 1031.48 85.5689C1039.72 87.7221 1052.13 85.7909 1054.2 85.8131C1056.28 83.7709 1060.39 85.8797 1064.52 85.9241C1068.65 85.9685 1068.61 90.0973 1078.95 88.1439C1081.02 88.1661 1078.97 86.0795 1081.06 84.0372C1083.13 84.0594 1081.08 81.9728 1087.26 84.1038L1097.58 84.2148C1101.71 84.2592 1107.95 80.197 1107.99 76.0682C1112.12 76.1126 1120.32 82.3946 1139.03 70.2079C1141.1 70.2301 1147.22 76.49 1151.4 72.4056C1155.55 70.3855 1157.59 72.4722 1159.7 68.3655C1161.81 64.2589 1163.9 62.2167 1167.98 66.3899C1172.07 70.5631 1174.18 66.4565 1178.26 70.6297C1182.35 74.803 1184.44 72.7607 1194.76 72.8717L1200.95 72.9383C1207.13 75.0694 1219.45 81.3958 1219.58 69.0093L1227.84 69.0981C1234.1 62.9715 1266.92 83.9708 1271.27 63.3711C1281.64 59.3532 1281.25 64.3821 1287.44 64.4487Z" fill="white"/>
<path d="M1287.44 64.4487L1281.58 152.505L1276.52 228.337C1262.03 232.311 1271.54 230.611 1263.21 236.715C1259.06 238.735 1259.08 236.671 1254.93 238.691C1250.78 240.711 1246.67 238.602 1240.45 240.6C1238.39 240.578 1225.96 244.573 1223.91 242.487C1221.87 240.4 1217.74 240.356 1215.68 240.333L1211.55 240.289L1201.22 240.178C1197.09 240.134 1195 242.176 1190.88 242.131L1180.55 242.02C1172.31 239.867 1168.23 235.694 1166.12 239.801C1166.1 241.865 1161.97 241.821 1157.84 241.776C1153.71 241.732 1147.45 247.858 1130.93 247.681C1128.86 247.659 1124.76 245.55 1124.73 247.614C1122.65 249.656 1118.5 251.676 1116.43 251.654C1114.34 253.697 1108.17 251.565 1104.04 251.521C1101.98 251.499 1097.87 249.39 1097.87 249.39C1079.31 247.126 1091.67 249.323 1079.33 245.061C1077.27 245.039 1073.16 242.93 1071.07 244.973C1066.9 249.057 1062.81 244.884 1058.66 246.904C1056.62 244.817 1054.55 244.795 1052.49 244.773C1052.49 244.773 1029.75 246.593 1025.67 242.42C1023.62 240.333 1019.47 242.353 1017.41 242.331C982.35 237.825 1000.87 244.218 959.593 241.709L949.269 241.598C949.269 241.598 947.204 241.576 945.161 239.49L941.032 239.445C938.944 241.487 938.967 239.423 930.707 239.334C926.555 241.354 920.405 237.159 914.211 237.092C912.168 235.006 908.061 232.897 905.996 232.875C903.931 232.852 906.018 230.81 897.781 228.657C889.544 226.504 887.434 230.61 883.327 228.502C864.899 213.851 860.681 222.064 854.53 217.869C852.466 217.847 846.293 215.716 846.271 217.78C844.162 221.887 842.119 219.8 837.967 221.82C823.447 227.858 817.319 221.598 806.906 229.745C804.819 231.787 802.776 229.7 796.582 229.634C763.545 229.278 780.019 233.585 761.435 233.385C753.176 233.296 755.241 233.318 753.154 235.361C749.024 235.316 742.785 239.379 740.72 239.356C738.656 239.334 736.591 239.312 734.504 241.354C726.156 249.523 724.179 241.243 705.485 251.365C695.205 247.126 693.118 249.168 686.924 249.101C678.664 249.012 682.772 251.121 674.512 251.032C670.383 250.988 672.425 253.075 668.296 253.03C660.036 252.941 666.187 257.137 657.927 257.048C657.905 259.112 647.625 254.873 647.625 254.873L639.366 254.784C631.129 252.631 622.825 256.671 614.588 254.517L602.199 254.384C600.134 254.362 589.832 252.187 587.767 252.164C581.573 252.098 525.778 255.627 503.087 253.319C494.85 251.165 505.174 251.276 482.461 251.032C478.331 250.988 476.244 253.03 472.136 250.921L465.942 250.855L461.812 250.81C455.596 252.808 453.575 248.657 443.229 250.61C439.099 250.566 441.186 248.524 437.056 248.479L418.473 248.28L412.278 248.213C408.149 248.169 401.976 246.038 395.782 245.971C385.458 245.86 389.521 252.098 362.722 247.68C354.463 247.591 329.596 255.583 321.381 251.365C317.252 251.321 313.144 249.212 308.992 251.232C304.84 253.252 296.648 246.97 286.301 248.923C284.236 248.901 282.194 246.814 275.977 248.812L259.458 248.635C257.394 248.612 255.329 248.59 253.286 246.504L251.221 246.481C242.962 246.393 243.006 242.264 238.877 242.219C226.488 242.086 230.595 244.195 214.054 246.082C211.989 246.06 195.426 250.011 193.361 249.989C187.123 254.051 166.474 253.829 164.387 255.871C160.28 253.762 158.171 257.869 154.041 257.825C154.041 257.825 151.998 255.738 149.911 257.78C143.672 261.842 131.283 261.709 129.241 259.623C125.133 257.514 87.8997 263.307 81.7052 263.241C75.5329 261.11 77.5977 261.132 73.468 261.088C46.5808 264.928 -5.32093 267.985 -9.45059 267.941L-4.29953 190.612L-6.53127 124.318C-2.4016 124.363 6.85993 117.91 13.0766 115.913C17.2507 111.828 21.3581 113.937 23.4452 111.895C25.5322 109.853 25.5322 109.853 29.6618 109.897L29.6619 109.897C33.7915 109.941 35.8342 112.028 39.9638 112.072L42.0287 112.095C46.1805 110.075 48.2232 112.161 50.288 112.183L56.4826 112.25C70.9142 114.47 62.6993 110.252 95.7588 108.543C97.8237 108.565 101.976 106.545 108.148 108.676C110.19 110.763 116.407 108.765 118.494 106.723C120.559 106.745 120.603 102.616 126.798 102.683C128.863 102.705 139.209 100.752 143.317 102.86C145.359 104.947 147.446 102.905 151.576 102.949C153.618 105.036 157.77 103.016 161.9 103.06C163.943 105.147 170.159 103.149 170.159 103.149C174.289 103.193 176.376 101.151 182.593 99.1534C186.7 101.262 188.787 99.22 188.809 97.1556C207.482 89.0977 195.004 97.2222 207.437 93.2265C209.502 93.2487 213.61 95.3575 217.762 93.3375C219.826 93.3597 232.238 91.4285 232.238 91.4285C234.302 91.4507 238.41 93.5595 242.562 91.5395L248.756 91.6061L250.821 91.6283C261.123 93.8037 281.86 85.7681 285.968 87.8769L288.033 87.8991C290.097 87.9213 294.249 85.9013 296.314 85.9235C298.401 83.8813 300.488 81.839 314.92 84.0588L327.309 84.192C354.152 84.4806 333.503 84.2586 350 86.5007C360.324 86.6117 360.302 88.6761 366.518 86.6783C399.445 97.3555 395.359 93.1823 415.986 95.4687C415.963 97.5331 418.05 95.4909 420.093 97.5775L430.417 97.6885C432.482 97.7107 436.656 93.6263 438.721 93.6485L451.11 93.7817C455.24 93.8261 455.218 95.8905 459.347 95.9349C471.736 96.0681 461.39 98.0215 479.973 98.2213C479.973 98.2213 479.951 100.286 488.21 100.375L500.599 100.508C510.946 98.5543 523.313 100.752 525.378 100.774L537.767 100.907C541.896 100.952 548.113 98.9539 556.372 99.0427C579.13 95.1581 566.696 99.1537 593.562 97.3779C597.691 97.4223 599.778 95.3801 599.778 95.3801C601.843 95.4023 605.973 95.4467 608.06 93.4044C610.147 91.3622 614.276 91.4066 618.406 91.451C630.817 89.5198 630.839 87.4554 632.882 89.542L639.077 89.6086C639.077 89.6086 645.249 91.7396 653.486 93.8928C655.551 93.915 663.832 91.9394 665.897 91.9616L667.962 91.9838C672.07 94.0926 674.179 89.986 676.199 94.137C680.285 98.3103 680.329 94.1814 684.459 94.2258C702.998 98.5545 694.783 94.3368 700.977 94.4034C707.172 94.47 711.39 86.2568 713.433 88.3434C717.54 90.4522 719.583 92.5388 721.67 90.4966C723.735 90.5188 723.713 92.5832 727.865 90.5632C738.233 86.5454 736.124 90.652 742.363 86.5898C750.667 82.5497 746.537 82.5053 752.709 84.6363L754.752 86.723L756.817 86.7452L763.011 86.8118C765.076 86.834 765.098 84.7695 767.163 84.7917L771.293 84.8361C773.357 84.8583 773.424 78.6651 779.596 80.7961L781.661 80.8183C783.748 78.7761 789.854 87.1003 791.985 80.9293C798.158 83.0603 798.158 83.0603 800.245 81.0181C800.245 81.0181 806.461 79.0203 808.504 81.1069L812.634 81.1513C816.741 83.2601 818.828 81.2179 822.958 81.2623C824.978 85.4133 831.173 85.4799 833.26 83.4377C839.432 85.5687 839.41 87.6331 841.497 85.5909C843.562 85.6131 847.669 87.7219 849.734 87.7441C855.884 91.9396 855.929 87.8108 860.036 89.9196L864.166 89.964L866.231 89.9862C870.382 87.9662 870.449 81.7729 889.033 81.9727C901.422 82.1059 893.185 79.9527 901.444 80.0415C903.464 84.1925 913.788 84.3035 920.027 80.2413C922.092 80.2635 922.07 82.3279 924.135 82.3501C926.2 82.3723 928.242 84.4589 930.307 84.4811C936.479 86.6121 936.524 82.4833 940.631 84.5921C942.696 84.6143 944.783 82.5721 946.826 84.6587C948.846 88.8097 953.02 84.7253 957.106 88.8985C963.256 93.094 981.861 91.2294 990.121 91.3182C994.25 91.3626 992.208 89.2759 998.424 87.2781C1002.58 85.2581 1002.58 85.2581 1006.71 85.3025C1012.88 87.4335 1010.86 83.2825 1014.97 85.3913C1019.07 87.5001 1023.2 87.5445 1027.33 87.5889C1029.4 87.6111 1031.46 87.6333 1031.48 85.5689C1039.72 87.7221 1052.13 85.7909 1054.2 85.8131C1056.28 83.7709 1060.39 85.8797 1064.52 85.9241C1068.65 85.9685 1068.61 90.0973 1078.95 88.1439C1081.02 88.1661 1078.97 86.0795 1081.06 84.0372C1083.13 84.0594 1081.08 81.9728 1087.26 84.1038L1097.58 84.2148C1101.71 84.2592 1107.95 80.197 1107.99 76.0682C1112.12 76.1126 1120.32 82.3946 1139.03 70.2079C1141.1 70.2301 1147.22 76.49 1151.4 72.4056C1155.55 70.3855 1157.59 72.4722 1159.7 68.3655C1161.81 64.2589 1163.9 62.2167 1167.98 66.3899C1172.07 70.5631 1174.18 66.4565 1178.26 70.6297C1182.35 74.803 1184.44 72.7607 1194.76 72.8717L1200.95 72.9383C1207.13 75.0694 1219.45 81.3958 1219.58 69.0093L1227.84 69.0981C1234.1 62.9715 1266.92 83.9708 1271.27 63.3711C1281.64 59.3532 1281.25 64.3821 1287.44 64.4487Z" fill="#272727" fill-opacity="0.3"/>
<path fill-rule="evenodd" clip-rule="evenodd" d="M1281.57 157.965L1287.44 69.9081C1285.19 69.8839 1283.8 69.2027 1282.46 68.5393C1280.11 67.3796 1277.86 66.2746 1271.27 68.8305C1268.54 81.7458 1254.62 78.3091 1243.08 75.4578C1236.21 73.7613 1230.18 72.2721 1227.84 74.5575L1219.58 74.4687C1219.46 85.412 1209.83 81.7489 1203.33 79.2772C1202.48 78.9513 1201.67 78.646 1200.95 78.3978L1194.76 78.3312C1191.67 78.2979 1189.32 78.4576 1187.43 78.5857C1183.01 78.8858 1181.13 79.0135 1178.26 76.0891C1176.22 74.0025 1174.67 73.9859 1173.12 73.9692C1171.57 73.9526 1170.03 73.9359 1167.98 71.8493C1163.9 67.6761 1161.81 69.7183 1159.7 73.8249C1158.4 76.363 1157.12 76.5354 1155.35 76.7737C1154.26 76.921 1152.98 77.0934 1151.4 77.865C1148.47 80.7341 1144.57 78.4989 1141.79 76.907C1140.62 76.2328 1139.65 75.674 1139.03 75.6674C1124 85.4561 1115.75 83.3291 1110.95 82.0901C1109.77 81.7866 1108.8 81.5363 1107.99 81.5276C1107.95 85.6564 1101.71 89.7187 1097.58 89.6742L1087.25 89.5632C1083.14 88.1426 1082.68 88.5964 1082.21 89.0502C1081.98 89.2771 1081.75 89.5041 1081.06 89.4967C1080.02 90.5177 1080.01 91.5499 1080 92.3241C1079.99 93.0983 1079.98 93.6144 1078.95 93.6033C1072.23 94.8715 1069.9 93.5761 1067.95 92.4991C1066.9 91.9172 1065.97 91.399 1064.52 91.3835C1063.06 91.3677 1061.6 91.0929 1060.23 90.8354C1057.73 90.3659 1055.54 89.9537 1054.2 91.2725C1053.76 91.2677 1052.85 91.3514 1051.61 91.4653C1047.04 91.887 1037.97 92.7235 1031.48 91.0283C1031.46 93.0927 1029.39 93.0705 1027.33 93.0483C1023.2 93.0039 1019.07 92.9595 1014.97 90.8507C1013.04 89.863 1012.46 90.2485 1011.76 90.7186C1010.95 91.2522 1009.99 91.8948 1006.71 90.7619C1004.75 90.7409 1003.72 90.7298 1002.74 90.9385C1001.64 91.1705 1000.61 91.6741 998.424 92.7375C995.316 93.7364 994.272 94.7575 993.49 95.5234C992.707 96.2892 992.185 96.7998 990.12 96.7776C988.285 96.7578 985.939 96.8346 983.332 96.9198C974.207 97.2182 961.889 97.6211 957.105 94.3579C955.063 92.2713 952.998 92.2491 951.191 92.2297C949.384 92.2103 947.836 92.1936 946.825 90.1181C945.464 88.727 944.082 89.171 942.701 89.615C942.01 89.8369 941.319 90.0589 940.631 90.0515C938.681 89.0502 937.647 89.4552 936.437 89.9286C935.1 90.4523 933.548 91.0597 930.307 89.9405C929.274 89.9294 928.248 89.4022 927.221 88.875C926.194 88.3478 925.167 87.8206 924.135 87.8095C923.102 87.7984 922.591 87.2767 922.081 86.7551C921.57 86.2334 921.059 85.7118 920.027 85.7007C913.788 89.7629 903.464 89.6519 901.444 85.5009C897.731 85.461 897.352 85.874 896.934 86.3288C896.422 86.8858 895.853 87.5054 889.032 87.4321C875.095 87.2822 871.573 90.7285 868.931 93.3132C868.051 94.1748 867.268 94.9406 866.23 95.4456L864.166 95.4234L860.036 95.379C858.293 94.4839 857.281 94.7125 856.224 94.9514C854.791 95.2754 853.274 95.6183 849.734 93.2036C848.702 93.1925 847.158 92.6597 845.615 92.127C844.072 91.5942 842.529 91.0614 841.497 91.0503C840.229 92.2912 839.739 92.0159 838.166 91.1308C837.15 90.5592 835.681 89.7333 833.26 88.8971C831.173 90.9393 824.978 90.8727 822.958 86.7217C821.495 86.706 820.288 86.9521 819.157 87.1828C817.096 87.6033 815.286 87.9725 812.633 86.6107L808.504 86.5663C806.461 84.4797 800.245 86.4775 800.245 86.4775C798.157 88.5197 798.157 88.5197 791.985 86.3887C790.702 90.1042 787.978 88.5651 785.558 87.1976C783.958 86.2938 782.491 85.4651 781.661 86.2777L779.596 86.2555C775.547 84.8576 774.126 87.0417 773.044 88.7036C772.477 89.5752 772.003 90.3032 771.292 90.2955L767.163 90.2511C766.13 90.2401 765.609 90.7506 765.087 91.2612C764.565 91.7717 764.043 92.2823 763.011 92.2712L756.816 92.2046L754.752 92.1824L752.709 90.0957C749.988 89.1562 749.269 88.6396 748.604 88.7017C747.761 88.7805 747.005 89.7903 742.363 92.0492C739.243 94.0803 738.211 94.0692 736.662 94.0525C735.113 94.0359 733.049 94.0137 727.864 96.0226C725.096 97.3693 724.184 96.9007 723.271 96.432C722.814 96.1977 722.358 95.9634 721.67 95.956C720.04 97.5505 718.438 96.6281 715.859 95.1432C715.134 94.7263 714.333 94.2651 713.433 93.8028C712.498 92.8483 711.109 94.049 709.283 95.6265C707.117 97.4976 704.338 99.899 700.977 99.8628C698.829 99.8398 698.414 100.332 698.015 100.804C697.263 101.693 696.57 102.513 684.458 99.6852C682.881 99.6683 681.9 100.26 681.061 100.766C679.705 101.584 678.724 102.176 676.199 99.5965C675.079 97.2958 673.932 97.5317 672.433 97.8402C671.227 98.0883 669.793 98.3832 667.962 97.4432L665.897 97.421C664.865 97.4099 662.278 97.8983 659.691 98.3866C657.105 98.875 654.518 99.3634 653.486 99.3523C645.249 97.199 639.076 95.068 639.076 95.068L632.882 95.0014C631.729 93.8239 631.22 93.9683 628.764 94.6648C626.869 95.2024 623.813 96.0691 618.406 96.9104C614.276 96.866 610.147 96.8216 608.059 98.8639C605.972 100.906 601.843 100.862 599.778 100.839C599.778 100.839 597.691 102.882 593.561 102.837C581.212 103.654 577.166 103.25 574.19 102.954C570.691 102.605 568.668 102.403 556.372 104.502C551.534 104.45 547.397 105.114 543.969 105.664C541.546 106.053 539.477 106.385 537.766 106.367L525.377 106.234C524.952 106.229 524.089 106.132 522.897 105.998C518.303 105.482 508.814 104.416 500.599 105.967L488.21 105.834C479.95 105.745 479.972 103.681 479.972 103.681C469.742 103.571 468.279 102.929 466.964 102.353C465.89 101.882 464.915 101.454 459.346 101.394C457.281 101.372 456.255 100.845 455.228 100.318C454.201 99.7905 453.174 99.2633 451.109 99.2411L438.72 99.1079C437.688 99.0968 436.128 100.112 434.568 101.128C433.009 102.143 431.449 103.159 430.416 103.148L420.092 103.037C419.071 101.994 418.039 101.983 417.264 101.974C416.49 101.966 415.974 101.96 415.985 100.928C409.916 100.255 405.986 100.142 402.623 100.045C394.558 99.8118 389.755 99.6731 366.518 92.1377C362.868 93.3106 361.368 93.0833 358.663 92.6732C356.761 92.3847 354.262 92.0059 349.999 91.9601C342.827 90.9853 342.676 90.4763 342.591 90.1886C342.48 89.8146 342.48 89.8146 327.308 89.6515L314.919 89.5182C300.487 87.2984 298.4 89.3407 296.313 91.3829C295.281 91.3718 293.727 91.8712 292.172 92.3707C290.618 92.8701 289.064 93.3696 288.032 93.3585L285.967 93.3363C284.109 92.3822 278.846 93.5045 272.687 94.8183C265.232 96.4084 256.461 98.2789 250.82 97.0877L248.755 97.0655L242.561 96.9989C239.575 98.4518 236.612 97.7688 234.415 97.2625C233.557 97.0649 232.817 96.8942 232.237 96.8879C232.237 96.8879 219.826 98.8191 217.761 98.7969C214.775 100.25 211.811 99.5668 209.615 99.0606C208.757 98.8629 208.016 98.6922 207.437 98.6859C201.985 100.438 201.323 99.8598 200.724 99.3373C199.957 98.6681 199.294 98.0901 188.809 102.615C188.786 104.679 186.699 106.722 182.592 104.613C180.217 105.376 178.445 106.145 176.932 106.803C174.483 107.866 172.711 108.636 170.159 108.608C170.159 108.608 163.942 110.606 161.899 108.52C160.436 108.504 158.971 108.747 157.597 108.975C155.093 109.391 152.894 109.756 151.575 108.409C149.998 108.392 148.718 108.679 147.626 108.925C145.858 109.322 144.578 109.609 143.316 108.32C140.188 106.714 133.443 107.464 129.491 107.903C128.253 108.04 127.29 108.147 126.797 108.142C122.87 108.1 121.415 109.744 120.349 110.948C119.734 111.642 119.249 112.19 118.493 112.182C116.406 114.224 110.19 116.222 108.147 114.136C103.603 112.567 100.154 113.248 97.8263 113.707C96.9925 113.872 96.3027 114.008 95.758 114.002C78.6796 114.885 72.6161 116.438 68.7552 117.426C65.1424 118.351 63.4581 118.783 56.4818 117.709L50.2872 117.643C49.6621 117.636 49.0389 117.44 48.3586 117.226C46.7921 116.734 44.9227 116.146 42.0279 117.554L39.9631 117.532C37.8982 117.51 36.3552 116.977 34.8121 116.444C33.269 115.911 31.7259 115.379 29.6611 115.356H29.661C25.5314 115.312 25.5314 115.312 23.4444 117.354C22.5799 118.2 21.3688 118.334 19.9499 118.491C17.9432 118.712 15.521 118.979 13.0759 121.372C10.8298 122.094 7.80492 123.337 4.66246 124.629C-0.892762 126.912 -6.8155 129.346 -9.45312 129.318L-9.45134 196.818L-9.45136 273.4C-8.5074 273.41 -5.06739 273.259 -0.000646591 272.972V311H1280V181.605L1281.57 157.965Z" fill="white"/>
</g>
<defs>
<clipPath id="clip0">
<rect width="1280" height="311" fill="white"/>
</clipPath>
</defs>
</svg>
