<svg width="1280" height="311" viewBox="0 0 1280 311" fill="none" xmlns="http://www.w3.org/2000/svg">
<g clip-path="url(#clip0)">
<path d="M-10.9691 64.4487L-5.10267 152.505L-0.0506783 228.337C14.4476 232.311 4.93572 230.611 13.2616 236.715C17.4134 238.735 17.3914 236.671 21.5432 238.691C25.695 240.711 29.8025 238.602 36.0192 240.6C38.084 240.578 50.5174 244.573 52.56 242.487C54.6027 240.4 58.7323 240.356 60.7971 240.333L64.9268 240.289L75.251 240.178C79.3807 240.134 81.4677 242.176 85.5973 242.131L95.9216 242.02C104.159 239.867 108.244 235.694 110.353 239.801C110.375 241.865 114.505 241.821 118.635 241.776C122.764 241.732 129.026 247.858 145.544 247.681C147.609 247.659 151.717 245.55 151.739 247.614C153.826 249.656 157.978 251.676 160.042 251.654C162.129 253.697 168.302 251.565 172.431 251.521C174.496 251.499 178.604 249.39 178.604 249.39C197.165 247.126 184.798 249.323 197.143 245.061C199.208 245.039 203.315 242.93 205.402 244.973C209.576 249.057 213.662 244.884 217.813 246.904C219.856 244.817 221.921 244.795 223.986 244.773C223.986 244.773 246.721 246.593 250.806 242.42C252.849 240.333 257 242.353 259.065 242.331C294.123 237.825 275.605 244.218 316.88 241.709L327.204 241.598C327.204 241.598 329.269 241.576 331.312 239.49L335.441 239.445C337.528 241.487 337.506 239.423 345.765 239.334C349.917 241.354 356.067 237.159 362.262 237.092C364.305 235.006 368.412 232.897 370.477 232.875C372.542 232.852 370.455 230.81 378.692 228.657C386.929 226.504 389.038 230.61 393.146 228.502C411.574 213.851 415.792 222.064 421.942 217.869C424.007 217.847 430.179 215.716 430.202 217.78C432.311 221.887 434.353 219.8 438.505 221.82C453.026 227.858 459.154 221.598 469.567 229.745C471.654 231.787 473.696 229.7 479.891 229.634C512.928 229.278 496.454 233.585 515.037 233.385C523.297 233.296 521.232 233.318 523.319 235.361C527.449 235.316 533.687 239.379 535.752 239.356C537.817 239.334 539.882 239.312 541.969 241.354C550.317 249.523 552.293 241.243 570.988 251.365C581.267 247.126 583.354 249.168 589.549 249.101C597.808 249.012 593.701 251.121 601.96 251.032C606.09 250.988 604.047 253.075 608.177 253.03C616.436 252.941 610.286 257.137 618.545 257.048C618.568 259.112 628.847 254.873 628.847 254.873L637.107 254.784C645.344 252.631 653.648 256.671 661.885 254.517L674.274 254.384C676.339 254.362 686.641 252.187 688.705 252.164C694.9 252.098 750.695 255.627 773.386 253.319C781.623 251.165 771.299 251.276 794.012 251.032C798.142 250.988 800.229 253.03 804.336 250.921L810.531 250.855L814.66 250.81C820.877 252.808 822.898 248.657 833.244 250.61C837.374 250.566 835.287 248.524 839.416 248.479L858 248.28L864.194 248.213C868.324 248.169 874.496 246.038 880.691 245.971C891.015 245.86 886.952 252.098 913.75 247.68C922.01 247.591 946.876 255.583 955.091 251.365C959.221 251.321 963.329 249.212 967.48 251.232C971.632 253.252 979.825 246.97 990.171 248.923C992.236 248.901 994.279 246.814 1000.5 248.812L1017.01 248.635C1019.08 248.612 1021.14 248.59 1023.19 246.504L1025.25 246.481C1033.51 246.393 1033.47 242.264 1037.6 242.219C1049.99 242.086 1045.88 244.195 1062.42 246.082C1064.48 246.06 1081.05 250.011 1083.11 249.989C1089.35 254.051 1110 253.829 1112.09 255.871C1116.19 253.762 1118.3 257.869 1122.43 257.825C1122.43 257.825 1124.47 255.738 1126.56 257.78C1132.8 261.842 1145.19 261.709 1147.23 259.623C1151.34 257.514 1188.57 263.307 1194.77 263.241C1200.94 261.11 1198.87 261.132 1203 261.088C1229.89 264.928 1281.79 267.985 1285.92 267.941L1280.77 190.612L1283 124.318C1278.87 124.363 1269.61 117.91 1263.4 115.913C1259.22 111.828 1255.11 113.937 1253.03 111.895C1250.94 109.853 1250.94 109.853 1246.81 109.897L1246.81 109.897C1242.68 109.941 1240.64 112.028 1236.51 112.072L1234.44 112.095C1230.29 110.075 1228.25 112.161 1226.18 112.183L1219.99 112.25C1205.56 114.47 1213.77 110.252 1180.71 108.543C1178.65 108.565 1174.5 106.545 1168.32 108.676C1166.28 110.763 1160.07 108.765 1157.98 106.723C1155.91 106.745 1155.87 102.616 1149.67 102.683C1147.61 102.705 1137.26 100.752 1133.16 102.86C1131.11 104.947 1129.03 102.905 1124.9 102.949C1122.85 105.036 1118.7 103.016 1114.57 103.06C1112.53 105.147 1106.31 103.149 1106.31 103.149C1102.18 103.193 1100.1 101.151 1093.88 99.1534C1089.77 101.262 1087.69 99.22 1087.66 97.1556C1068.99 89.0977 1081.47 97.2222 1069.04 93.2265C1066.97 93.2487 1062.86 95.3575 1058.71 93.3375C1056.65 93.3597 1044.24 91.4285 1044.24 91.4285C1042.17 91.4507 1038.06 93.5595 1033.91 91.5395L1027.72 91.6061L1025.65 91.6283C1015.35 93.8037 994.612 85.7681 990.505 87.8769L988.44 87.8991C986.375 87.9213 982.223 85.9013 980.159 85.9235C978.072 83.8813 975.985 81.839 961.553 84.0588L949.164 84.192C922.321 84.4806 942.969 84.2586 926.473 86.5007C916.149 86.6117 916.171 88.6761 909.954 86.6783C877.028 97.3555 881.113 93.1823 860.487 95.4687C860.509 97.5331 858.422 95.4909 856.38 97.5775L846.055 97.6885C843.991 97.7107 839.816 93.6263 837.752 93.6485L825.363 93.7817C821.233 93.8261 821.255 95.8905 817.125 95.9349C804.736 96.0681 815.083 98.0215 796.499 98.2213C796.499 98.2213 796.522 100.286 788.262 100.375L775.873 100.508C765.527 98.5543 753.16 100.752 751.095 100.774L738.706 100.907C734.576 100.952 728.36 98.9539 720.1 99.0427C697.343 95.1581 709.776 99.1537 682.911 97.3779C678.781 97.4223 676.694 95.3801 676.694 95.3801C674.63 95.4023 670.5 95.4467 668.413 93.4044C666.326 91.3622 662.196 91.4066 658.067 91.451C645.655 89.5198 645.633 87.4554 643.591 89.542L637.396 89.6086C637.396 89.6086 631.224 91.7396 622.986 93.8928C620.922 93.915 612.64 91.9394 610.575 91.9616L608.511 91.9838C604.403 94.0926 602.294 89.986 600.273 94.137C596.188 98.3103 596.144 94.1814 592.014 94.2258C573.475 98.5545 581.69 94.3368 575.495 94.4034C569.301 94.47 565.082 86.2568 563.04 88.3434C558.932 90.4522 556.89 92.5388 554.803 90.4966C552.738 90.5188 552.76 92.5832 548.608 90.5632C538.24 86.5454 540.349 90.652 534.11 86.5898C525.806 82.5497 529.936 82.5053 523.763 84.6363L521.721 86.723L519.656 86.7452L513.462 86.8118C511.397 86.834 511.374 84.7695 509.31 84.7917L505.18 84.8361C503.115 84.8583 503.049 78.6651 496.876 80.7961L494.811 80.8183C492.724 78.7761 486.619 87.1003 484.487 80.9293C478.315 83.0603 478.315 83.0603 476.228 81.0181C476.228 81.0181 470.011 79.0203 467.969 81.1069L463.839 81.1513C459.732 83.2601 457.644 81.2179 453.515 81.2623C451.494 85.4133 445.3 85.4799 443.213 83.4377C437.04 85.5687 437.063 87.6331 434.976 85.5909C432.911 85.6131 428.803 87.7219 426.738 87.7441C420.588 91.9396 420.544 87.8108 416.436 89.9196L412.307 89.964L410.242 89.9862C406.09 87.9662 406.024 81.7729 387.44 81.9727C375.051 82.1059 383.288 79.9527 375.029 80.0415C373.008 84.1925 362.684 84.3035 356.445 80.2413C354.381 80.2635 354.403 82.3279 352.338 82.3501C350.273 82.3723 348.23 84.4589 346.166 84.4811C339.993 86.6121 339.949 82.4833 335.841 84.5921C333.777 84.6143 331.69 82.5721 329.647 84.6587C327.626 88.8097 323.452 84.7253 319.367 88.8985C313.217 93.094 294.611 91.2294 286.352 91.3182C282.222 91.3626 284.265 89.2759 278.048 87.2781C273.896 85.2581 273.896 85.2581 269.767 85.3025C263.594 87.4335 265.615 83.2825 261.507 85.3913C257.4 87.5001 253.271 87.5445 249.142 87.5889C247.077 87.6111 245.012 87.6333 244.99 85.5689C236.753 87.7221 224.341 85.7909 222.277 85.8131C220.19 83.7709 216.082 85.8797 211.952 85.9241C207.823 85.9685 207.867 90.0973 197.521 88.1439C195.456 88.1661 197.499 86.0795 195.412 84.0372C193.347 84.0594 195.389 81.9728 189.217 84.1038L178.893 84.2148C174.763 84.2592 168.524 80.197 168.48 76.0682C164.35 76.1126 156.158 82.3946 137.441 70.2079C135.376 70.2301 129.248 76.49 125.074 72.4056C120.922 70.3855 118.88 72.4722 116.77 68.3655C114.661 64.2589 112.574 62.2167 108.489 66.3899C104.404 70.5631 102.294 66.4565 98.209 70.6297C94.1237 74.803 92.0368 72.7607 81.7126 72.8717L75.518 72.9383C69.3458 75.0694 57.0233 81.3958 56.8901 69.0093L48.6308 69.0981C42.3698 62.9715 9.55433 83.9708 5.20273 63.3711C-5.16589 59.3532 -4.77464 64.3821 -10.9691 64.4487Z" fill="#40DCFF"/>
<path d="M-10.9691 64.4487L-5.10267 152.505L-0.0506783 228.337C14.4476 232.311 4.93572 230.611 13.2616 236.715C17.4134 238.735 17.3914 236.671 21.5432 238.691C25.695 240.711 29.8025 238.602 36.0192 240.6C38.084 240.578 50.5174 244.573 52.56 242.487C54.6027 240.4 58.7323 240.356 60.7971 240.333L64.9268 240.289L75.251 240.178C79.3807 240.134 81.4677 242.176 85.5973 242.131L95.9216 242.02C104.159 239.867 108.244 235.694 110.353 239.801C110.375 241.865 114.505 241.821 118.635 241.776C122.764 241.732 129.026 247.858 145.544 247.681C147.609 247.659 151.717 245.55 151.739 247.614C153.826 249.656 157.978 251.676 160.042 251.654C162.129 253.697 168.302 251.565 172.431 251.521C174.496 251.499 178.604 249.39 178.604 249.39C197.165 247.126 184.798 249.323 197.143 245.061C199.208 245.039 203.315 242.93 205.402 244.973C209.576 249.057 213.662 244.884 217.813 246.904C219.856 244.817 221.921 244.795 223.986 244.773C223.986 244.773 246.721 246.593 250.806 242.42C252.849 240.333 257 242.353 259.065 242.331C294.123 237.825 275.605 244.218 316.88 241.709L327.204 241.598C327.204 241.598 329.269 241.576 331.312 239.49L335.441 239.445C337.528 241.487 337.506 239.423 345.765 239.334C349.917 241.354 356.067 237.159 362.262 237.092C364.305 235.006 368.412 232.897 370.477 232.875C372.542 232.852 370.455 230.81 378.692 228.657C386.929 226.504 389.038 230.61 393.146 228.502C411.574 213.851 415.792 222.064 421.942 217.869C424.007 217.847 430.179 215.716 430.202 217.78C432.311 221.887 434.353 219.8 438.505 221.82C453.026 227.858 459.154 221.598 469.567 229.745C471.654 231.787 473.696 229.7 479.891 229.634C512.928 229.278 496.454 233.585 515.037 233.385C523.297 233.296 521.232 233.318 523.319 235.361C527.449 235.316 533.687 239.379 535.752 239.356C537.817 239.334 539.882 239.312 541.969 241.354C550.317 249.523 552.293 241.243 570.988 251.365C581.267 247.126 583.354 249.168 589.549 249.101C597.808 249.012 593.701 251.121 601.96 251.032C606.09 250.988 604.047 253.075 608.177 253.03C616.436 252.941 610.286 257.137 618.545 257.048C618.568 259.112 628.847 254.873 628.847 254.873L637.107 254.784C645.344 252.631 653.648 256.671 661.885 254.517L674.274 254.384C676.339 254.362 686.641 252.187 688.705 252.164C694.9 252.098 750.695 255.627 773.386 253.319C781.623 251.165 771.299 251.276 794.012 251.032C798.142 250.988 800.229 253.03 804.336 250.921L810.531 250.855L814.66 250.81C820.877 252.808 822.898 248.657 833.244 250.61C837.374 250.566 835.287 248.524 839.416 248.479L858 248.28L864.194 248.213C868.324 248.169 874.496 246.038 880.691 245.971C891.015 245.86 886.952 252.098 913.75 247.68C922.01 247.591 946.876 255.583 955.091 251.365C959.221 251.321 963.329 249.212 967.48 251.232C971.632 253.252 979.825 246.97 990.171 248.923C992.236 248.901 994.279 246.814 1000.5 248.812L1017.01 248.635C1019.08 248.612 1021.14 248.59 1023.19 246.504L1025.25 246.481C1033.51 246.393 1033.47 242.264 1037.6 242.219C1049.99 242.086 1045.88 244.195 1062.42 246.082C1064.48 246.06 1081.05 250.011 1083.11 249.989C1089.35 254.051 1110 253.829 1112.09 255.871C1116.19 253.762 1118.3 257.869 1122.43 257.825C1122.43 257.825 1124.47 255.738 1126.56 257.78C1132.8 261.842 1145.19 261.709 1147.23 259.623C1151.34 257.514 1188.57 263.307 1194.77 263.241C1200.94 261.11 1198.87 261.132 1203 261.088C1229.89 264.928 1281.79 267.985 1285.92 267.941L1280.77 190.612L1283 124.318C1278.87 124.363 1269.61 117.91 1263.4 115.913C1259.22 111.828 1255.11 113.937 1253.03 111.895C1250.94 109.853 1250.94 109.853 1246.81 109.897L1246.81 109.897C1242.68 109.941 1240.64 112.028 1236.51 112.072L1234.44 112.095C1230.29 110.075 1228.25 112.161 1226.18 112.183L1219.99 112.25C1205.56 114.47 1213.77 110.252 1180.71 108.543C1178.65 108.565 1174.5 106.545 1168.32 108.676C1166.28 110.763 1160.07 108.765 1157.98 106.723C1155.91 106.745 1155.87 102.616 1149.67 102.683C1147.61 102.705 1137.26 100.752 1133.16 102.86C1131.11 104.947 1129.03 102.905 1124.9 102.949C1122.85 105.036 1118.7 103.016 1114.57 103.06C1112.53 105.147 1106.31 103.149 1106.31 103.149C1102.18 103.193 1100.1 101.151 1093.88 99.1534C1089.77 101.262 1087.69 99.22 1087.66 97.1556C1068.99 89.0977 1081.47 97.2222 1069.04 93.2265C1066.97 93.2487 1062.86 95.3575 1058.71 93.3375C1056.65 93.3597 1044.24 91.4285 1044.24 91.4285C1042.17 91.4507 1038.06 93.5595 1033.91 91.5395L1027.72 91.6061L1025.65 91.6283C1015.35 93.8037 994.612 85.7681 990.505 87.8769L988.44 87.8991C986.375 87.9213 982.223 85.9013 980.159 85.9235C978.072 83.8813 975.985 81.839 961.553 84.0588L949.164 84.192C922.321 84.4806 942.969 84.2586 926.473 86.5007C916.149 86.6117 916.171 88.6761 909.954 86.6783C877.028 97.3555 881.113 93.1823 860.487 95.4687C860.509 97.5331 858.422 95.4909 856.38 97.5775L846.055 97.6885C843.991 97.7107 839.816 93.6263 837.752 93.6485L825.363 93.7817C821.233 93.8261 821.255 95.8905 817.125 95.9349C804.736 96.0681 815.083 98.0215 796.499 98.2213C796.499 98.2213 796.522 100.286 788.262 100.375L775.873 100.508C765.527 98.5543 753.16 100.752 751.095 100.774L738.706 100.907C734.576 100.952 728.36 98.9539 720.1 99.0427C697.343 95.1581 709.776 99.1537 682.911 97.3779C678.781 97.4223 676.694 95.3801 676.694 95.3801C674.63 95.4023 670.5 95.4467 668.413 93.4044C666.326 91.3622 662.196 91.4066 658.067 91.451C645.655 89.5198 645.633 87.4554 643.591 89.542L637.396 89.6086C637.396 89.6086 631.224 91.7396 622.986 93.8928C620.922 93.915 612.64 91.9394 610.575 91.9616L608.511 91.9838C604.403 94.0926 602.294 89.986 600.273 94.137C596.188 98.3103 596.144 94.1814 592.014 94.2258C573.475 98.5545 581.69 94.3368 575.495 94.4034C569.301 94.47 565.082 86.2568 563.04 88.3434C558.932 90.4522 556.89 92.5388 554.803 90.4966C552.738 90.5188 552.76 92.5832 548.608 90.5632C538.24 86.5454 540.349 90.652 534.11 86.5898C525.806 82.5497 529.936 82.5053 523.763 84.6363L521.721 86.723L519.656 86.7452L513.462 86.8118C511.397 86.834 511.374 84.7695 509.31 84.7917L505.18 84.8361C503.115 84.8583 503.049 78.6651 496.876 80.7961L494.811 80.8183C492.724 78.7761 486.619 87.1003 484.487 80.9293C478.315 83.0603 478.315 83.0603 476.228 81.0181C476.228 81.0181 470.011 79.0203 467.969 81.1069L463.839 81.1513C459.732 83.2601 457.644 81.2179 453.515 81.2623C451.494 85.4133 445.3 85.4799 443.213 83.4377C437.04 85.5687 437.063 87.6331 434.976 85.5909C432.911 85.6131 428.803 87.7219 426.738 87.7441C420.588 91.9396 420.544 87.8108 416.436 89.9196L412.307 89.964L410.242 89.9862C406.09 87.9662 406.024 81.7729 387.44 81.9727C375.051 82.1059 383.288 79.9527 375.029 80.0415C373.008 84.1925 362.684 84.3035 356.445 80.2413C354.381 80.2635 354.403 82.3279 352.338 82.3501C350.273 82.3723 348.23 84.4589 346.166 84.4811C339.993 86.6121 339.949 82.4833 335.841 84.5921C333.777 84.6143 331.69 82.5721 329.647 84.6587C327.626 88.8097 323.452 84.7253 319.367 88.8985C313.217 93.094 294.611 91.2294 286.352 91.3182C282.222 91.3626 284.265 89.2759 278.048 87.2781C273.896 85.2581 273.896 85.2581 269.767 85.3025C263.594 87.4335 265.615 83.2825 261.507 85.3913C257.4 87.5001 253.271 87.5445 249.142 87.5889C247.077 87.6111 245.012 87.6333 244.99 85.5689C236.753 87.7221 224.341 85.7909 222.277 85.8131C220.19 83.7709 216.082 85.8797 211.952 85.9241C207.823 85.9685 207.867 90.0973 197.521 88.1439C195.456 88.1661 197.499 86.0795 195.412 84.0372C193.347 84.0594 195.389 81.9728 189.217 84.1038L178.893 84.2148C174.763 84.2592 168.524 80.197 168.48 76.0682C164.35 76.1126 156.158 82.3946 137.441 70.2079C135.376 70.2301 129.248 76.49 125.074 72.4056C120.922 70.3855 118.88 72.4722 116.77 68.3655C114.661 64.2589 112.574 62.2167 108.489 66.3899C104.404 70.5631 102.294 66.4565 98.209 70.6297C94.1237 74.803 92.0368 72.7607 81.7126 72.8717L75.518 72.9383C69.3458 75.0694 57.0233 81.3958 56.8901 69.0093L48.6308 69.0981C42.3698 62.9715 9.55433 83.9708 5.20273 63.3711C-5.16589 59.3532 -4.77464 64.3821 -10.9691 64.4487Z" fill="#272727" fill-opacity="0.3"/>
<path fill-rule="evenodd" clip-rule="evenodd" d="M-5.10231 157.965L-10.9688 69.9081C-8.71477 69.8839 -7.33275 69.2026 -5.98703 68.5393C-3.63439 67.3796 -1.39271 66.2746 5.20309 68.8305C7.9314 81.7458 21.8485 78.3091 33.395 75.4578C40.2649 73.7613 46.2956 72.2721 48.6312 74.5575L56.8905 74.4687C57.0081 85.412 66.6401 81.749 73.1395 79.2773C73.9966 78.9513 74.7992 78.646 75.5184 78.3977L81.713 78.3312C84.8025 78.2979 87.1544 78.4575 89.043 78.5857C93.4652 78.8858 95.3466 79.0135 98.2094 76.0891C100.252 74.0025 101.801 73.9859 103.349 73.9692C104.898 73.9526 106.447 73.9359 108.489 71.8493C112.574 67.6761 114.661 69.7183 116.771 73.8249C118.074 76.363 119.352 76.5354 121.119 76.7737C122.21 76.9209 123.488 77.0934 125.074 77.865C128.006 80.7341 131.903 78.4989 134.678 76.907C135.853 76.2328 136.827 75.674 137.441 75.6673C152.475 85.4561 160.719 83.3291 165.521 82.0901C166.698 81.7866 167.668 81.5363 168.48 81.5276C168.525 85.6564 174.764 89.7186 178.893 89.6742L189.217 89.5632C193.332 88.1426 193.796 88.5964 194.26 89.0502C194.492 89.2771 194.724 89.504 195.412 89.4966C196.455 90.5178 196.467 91.55 196.475 92.3241C196.483 93.0983 196.489 93.6144 197.521 93.6033C204.238 94.8715 206.576 93.5761 208.519 92.4991C209.569 91.9172 210.504 91.399 211.953 91.3835C213.416 91.3677 214.876 91.0929 216.244 90.8354C218.739 90.3659 220.929 89.9537 222.277 91.2725C222.716 91.2677 223.623 91.3514 224.859 91.4653C229.433 91.887 238.505 92.7235 244.99 91.0283C245.012 93.0927 247.077 93.0705 249.142 93.0483C253.272 93.0039 257.399 92.9595 261.507 90.8507C263.431 89.863 264.01 90.2485 264.717 90.7186C265.519 91.2522 266.485 91.8948 269.766 90.7619C271.722 90.7409 272.751 90.7298 273.734 90.9385C274.827 91.1705 275.862 91.674 278.048 92.7375C281.156 93.7364 282.2 94.7575 282.982 95.5234C283.765 96.2892 284.287 96.7998 286.352 96.7776C288.187 96.7578 290.533 96.8346 293.14 96.9198C302.265 97.2182 314.583 97.6211 319.367 94.3579C321.409 92.2713 323.474 92.2491 325.281 92.2297C327.088 92.2103 328.636 92.1936 329.647 90.1181C331.008 88.727 332.39 89.171 333.771 89.6149C334.462 89.8369 335.153 90.0589 335.841 90.0515C337.791 89.0502 338.826 89.4552 340.035 89.9286C341.372 90.4523 342.924 91.0597 346.165 89.9405C347.198 89.9294 348.224 89.4022 349.251 88.875C350.278 88.3478 351.305 87.8206 352.337 87.8095C353.37 87.7984 353.881 87.2767 354.391 86.7551C354.902 86.2334 355.413 85.7118 356.445 85.7007C362.684 89.7629 373.008 89.6519 375.028 85.5009C378.741 85.461 379.12 85.874 379.538 86.3288C380.05 86.8858 380.619 87.5054 387.44 87.4321C401.377 87.2822 404.899 90.7285 407.541 93.3132C408.421 94.1747 409.204 94.9406 410.242 95.4456L412.307 95.4234L416.436 95.379C418.179 94.4839 419.191 94.7125 420.248 94.9514C421.681 95.2754 423.198 95.6183 426.738 93.2036C427.77 93.1925 429.314 92.6597 430.857 92.127C432.4 91.5942 433.943 91.0614 434.975 91.0503C436.243 92.2912 436.733 92.0159 438.306 91.1308C439.322 90.5592 440.791 89.7333 443.212 88.8971C445.299 90.9393 451.494 90.8727 453.514 86.7217C454.977 86.706 456.184 86.9521 457.315 87.1828C459.376 87.6033 461.186 87.9725 463.839 86.6107L467.968 86.5663C470.011 84.4797 476.228 86.4775 476.228 86.4775C478.315 88.5197 478.315 88.5197 484.487 86.3887C485.77 90.1042 488.494 88.5651 490.914 87.1976C492.514 86.2938 493.981 85.4651 494.811 86.2777L496.876 86.2555C500.925 84.8576 502.346 87.0417 503.428 88.7036C503.995 89.5752 504.469 90.3032 505.18 90.2955L509.309 90.2511C510.342 90.24 510.863 90.7506 511.385 91.2612C511.907 91.7717 512.429 92.2823 513.461 92.2712L519.656 92.2046L521.72 92.1824L523.763 90.0957C526.484 89.1562 527.203 88.6396 527.868 88.7017C528.711 88.7805 529.467 89.7903 534.109 92.0492C537.229 94.0803 538.261 94.0692 539.81 94.0525C541.359 94.0359 543.423 94.0137 548.608 96.0226C551.376 97.3693 552.288 96.9007 553.201 96.432C553.658 96.1977 554.114 95.9634 554.802 95.956C556.432 97.5505 558.034 96.6281 560.613 95.1432C561.338 94.7263 562.139 94.2651 563.039 93.8028C563.974 92.8483 565.363 94.049 567.189 95.6265C569.355 97.4976 572.134 99.899 575.495 99.8628C577.643 99.8398 578.058 100.332 578.457 100.804C579.209 101.693 579.902 102.513 592.014 99.6852C593.591 99.6683 594.572 100.26 595.411 100.766C596.767 101.584 597.748 102.176 600.273 99.5964C601.393 97.2958 602.54 97.5317 604.039 97.8402C605.245 98.0883 606.679 98.3832 608.51 97.4432L610.575 97.421C611.607 97.4099 614.194 97.8983 616.781 98.3866C619.367 98.875 621.954 99.3634 622.986 99.3523C631.223 97.199 637.396 95.068 637.396 95.068L643.59 95.0014C644.743 93.8239 645.252 93.9683 647.708 94.6648C649.603 95.2024 652.659 96.0691 658.066 96.9104C662.196 96.866 666.326 96.8216 668.413 98.8639C670.5 100.906 674.629 100.862 676.694 100.839C676.694 100.839 678.781 102.882 682.911 102.837C695.26 103.654 699.306 103.25 702.282 102.954C705.781 102.605 707.804 102.403 720.1 104.502C724.938 104.45 729.075 105.114 732.503 105.664C734.926 106.053 736.995 106.385 738.706 106.367L751.095 106.234C751.52 106.229 752.383 106.132 753.575 105.998C758.169 105.482 767.658 104.416 775.873 105.967L788.262 105.834C796.522 105.745 796.5 103.681 796.5 103.681C806.73 103.571 808.193 102.929 809.508 102.353C810.582 101.882 811.557 101.454 817.126 101.394C819.191 101.372 820.217 100.845 821.244 100.318C822.271 99.7905 823.298 99.2633 825.363 99.2411L837.752 99.1079C838.784 99.0968 840.344 100.112 841.904 101.128C843.463 102.143 845.023 103.159 846.056 103.148L856.38 103.037C857.401 101.994 858.433 101.983 859.208 101.974C859.982 101.966 860.498 101.96 860.487 100.928C866.556 100.255 870.486 100.142 873.849 100.045C881.914 99.8118 886.717 99.6731 909.954 92.1377C913.604 93.3106 915.104 93.0833 917.809 92.6732C919.711 92.3847 922.21 92.0059 926.473 91.9601C933.646 90.9853 933.796 90.4763 933.881 90.1886C933.992 89.8146 933.992 89.8146 949.164 89.6514L961.553 89.5182C975.985 87.2984 978.072 89.3407 980.159 91.3829C981.191 91.3718 982.745 91.8712 984.3 92.3707C985.854 92.8701 987.408 93.3696 988.44 93.3585L990.505 93.3363C992.363 92.3822 997.626 93.5045 1003.79 94.8183C1011.24 96.4084 1020.01 98.2789 1025.65 97.0877L1027.72 97.0655L1033.91 96.9989C1036.9 98.4518 1039.86 97.7688 1042.06 97.2625C1042.91 97.0649 1043.66 96.8941 1044.24 96.8879C1044.24 96.8879 1056.65 98.8191 1058.71 98.7969C1061.7 100.25 1064.66 99.5668 1066.86 99.0606C1067.71 98.8629 1068.46 98.6922 1069.04 98.6859C1074.49 100.438 1075.15 99.8598 1075.75 99.3373C1076.52 98.6681 1077.18 98.0901 1087.66 102.615C1087.69 104.679 1089.77 106.722 1093.88 104.613C1096.25 105.376 1098.03 106.145 1099.54 106.803C1101.99 107.866 1103.76 108.636 1106.31 108.608C1106.31 108.608 1112.53 110.606 1114.57 108.52C1116.04 108.504 1117.5 108.747 1118.88 108.975C1121.38 109.391 1123.58 109.756 1124.9 108.409C1126.47 108.392 1127.75 108.679 1128.85 108.925C1130.61 109.322 1131.89 109.609 1133.16 108.32C1136.28 106.714 1143.03 107.464 1146.98 107.903C1148.22 108.04 1149.18 108.147 1149.67 108.142C1153.6 108.1 1155.06 109.744 1156.12 110.948C1156.74 111.642 1157.22 112.19 1157.98 112.182C1160.07 114.224 1166.28 116.222 1168.32 114.136C1172.87 112.567 1176.32 113.248 1178.65 113.707C1179.48 113.872 1180.17 114.008 1180.71 114.002C1197.79 114.885 1203.86 116.438 1207.72 117.426C1211.33 118.351 1213.01 118.783 1219.99 117.709L1226.18 117.643C1226.81 117.636 1227.43 117.44 1228.11 117.226C1229.68 116.734 1231.55 116.146 1234.44 117.554L1236.51 117.532C1238.57 117.51 1240.12 116.977 1241.66 116.444C1243.2 115.911 1244.75 115.379 1246.81 115.356C1249.19 115.331 1250.19 115.32 1251.02 115.704C1251.63 115.987 1252.14 116.486 1253.03 117.354C1253.89 118.2 1255.1 118.334 1256.52 118.491C1258.53 118.712 1260.95 118.979 1263.4 121.372C1265.64 122.094 1268.67 123.337 1271.81 124.629C1277.36 126.912 1283.29 129.346 1285.93 129.318L1285.92 196.818V273.4C1285.22 273.408 1283.12 273.325 1280 273.164V311H2.57492e-05V233.81C-0.0167235 233.806 -0.033505 233.801 -0.0503188 233.797L-5.10231 157.965Z" fill="#40DCFF"/>
</g>
<defs>
<clipPath id="clip0">
<rect width="1280" height="311" fill="white"/>
</clipPath>
</defs>
</svg>
