<svg width="1280" height="311" viewBox="0 0 1280 311" fill="none" xmlns="http://www.w3.org/2000/svg">
<g clip-path="url(#clip0)">
<path d="M1287.44 64.4486L1281.58 152.505L1276.52 228.337C1262.03 232.31 1271.54 230.611 1263.21 236.715C1259.06 238.735 1259.08 236.671 1254.93 238.691C1250.78 240.711 1246.67 238.602 1240.45 240.6C1238.39 240.577 1225.96 244.573 1223.91 242.486C1221.87 240.4 1217.74 240.355 1215.68 240.333L1211.55 240.289L1201.22 240.178C1197.09 240.133 1195 242.176 1190.88 242.131L1180.55 242.02C1172.31 239.867 1168.23 235.694 1166.12 239.8C1166.1 241.865 1161.97 241.82 1157.84 241.776C1153.71 241.732 1147.45 247.858 1130.93 247.681C1128.86 247.659 1124.76 245.55 1124.73 247.614C1122.65 249.656 1118.5 251.676 1116.43 251.654C1114.34 253.696 1108.17 251.565 1104.04 251.521C1101.98 251.499 1097.87 249.39 1097.87 249.39C1079.31 247.126 1091.67 249.323 1079.33 245.061C1077.27 245.039 1073.16 242.93 1071.07 244.973C1066.9 249.057 1062.81 244.884 1058.66 246.904C1056.62 244.817 1054.55 244.795 1052.49 244.773C1052.49 244.773 1029.75 246.593 1025.67 242.42C1023.62 240.333 1019.47 242.353 1017.41 242.331C982.35 237.825 1000.87 244.218 959.593 241.709L949.269 241.598C949.269 241.598 947.204 241.576 945.161 239.49L941.032 239.445C938.944 241.487 938.967 239.423 930.707 239.334C926.555 241.354 920.405 237.159 914.211 237.092C912.168 235.006 908.061 232.897 905.996 232.875C903.931 232.852 906.018 230.81 897.781 228.657C889.544 226.504 887.434 230.61 883.327 228.501C864.899 213.851 860.681 222.064 854.53 217.869C852.466 217.846 846.293 215.715 846.271 217.78C844.162 221.886 842.119 219.8 837.967 221.82C823.447 227.858 817.319 221.598 806.906 229.745C804.819 231.787 802.776 229.7 796.582 229.634C763.545 229.278 780.019 233.585 761.435 233.385C753.176 233.296 755.241 233.318 753.154 235.361C749.024 235.316 742.785 239.378 740.72 239.356C738.656 239.334 736.591 239.312 734.504 241.354C726.156 249.523 724.179 241.243 705.485 251.365C695.205 247.125 693.118 249.168 686.924 249.101C678.664 249.012 682.772 251.121 674.512 251.032C670.383 250.988 672.425 253.074 668.296 253.03C660.036 252.941 666.187 257.137 657.927 257.048C657.905 259.112 647.625 254.873 647.625 254.873L639.366 254.784C631.129 252.63 622.825 256.671 614.588 254.517L602.199 254.384C600.134 254.362 589.832 252.187 587.767 252.164C581.573 252.098 525.778 255.627 503.087 253.319C494.85 251.165 505.174 251.276 482.461 251.032C478.331 250.988 476.244 253.03 472.136 250.921L465.942 250.855L461.812 250.81C455.596 252.808 453.575 248.657 443.229 250.61C439.099 250.566 441.186 248.524 437.056 248.479L418.473 248.279L412.278 248.213C408.149 248.168 401.976 246.038 395.782 245.971C385.458 245.86 389.521 252.098 362.722 247.68C354.463 247.591 329.596 255.583 321.381 251.365C317.252 251.321 313.144 249.212 308.992 251.232C304.84 253.252 296.648 246.97 286.301 248.923C284.236 248.901 282.194 246.814 275.977 248.812L259.458 248.635C257.394 248.612 255.329 248.59 253.286 246.504L251.221 246.481C242.962 246.393 243.006 242.264 238.877 242.219C226.488 242.086 230.595 244.195 214.054 246.082C211.989 246.06 195.426 250.011 193.361 249.989C187.123 254.051 166.474 253.829 164.387 255.871C160.28 253.762 158.171 257.869 154.041 257.824C154.041 257.824 151.998 255.738 149.911 257.78C143.672 261.842 131.283 261.709 129.241 259.622C125.133 257.514 87.8997 263.307 81.7052 263.241C75.5329 261.11 77.5977 261.132 73.468 261.087C46.5808 264.928 -5.32093 267.985 -9.45059 267.941L-4.29953 190.612L-6.53127 124.318C-2.4016 124.362 6.85993 117.91 13.0766 115.913C17.2507 111.828 21.3581 113.937 23.4452 111.895C25.5322 109.853 25.5322 109.853 29.6618 109.897L29.6619 109.897C33.7915 109.941 35.8342 112.028 39.9638 112.072L42.0287 112.095C46.1805 110.075 48.2232 112.161 50.288 112.183L56.4826 112.25C70.9142 114.47 62.6993 110.252 95.7588 108.543C97.8237 108.565 101.976 106.545 108.148 108.676C110.19 110.763 116.407 108.765 118.494 106.723C120.559 106.745 120.603 102.616 126.798 102.683C128.863 102.705 139.209 100.751 143.317 102.86C145.359 104.947 147.446 102.905 151.576 102.949C153.618 105.036 157.77 103.016 161.9 103.06C163.943 105.147 170.159 103.149 170.159 103.149C174.289 103.193 176.376 101.151 182.593 99.1532C186.7 101.262 188.787 99.2199 188.809 97.1554C207.482 89.0976 195.004 97.222 207.437 93.2264C209.502 93.2486 213.61 95.3574 217.762 93.3374C219.826 93.3596 232.238 91.4284 232.238 91.4284C234.302 91.4506 238.41 93.5594 242.562 91.5394L248.756 91.606L250.821 91.6282C261.123 93.8036 281.86 85.7679 285.968 87.8768L288.033 87.899C290.097 87.9212 294.249 85.9011 296.314 85.9233C298.401 83.8811 300.488 81.8389 314.92 84.0587L327.309 84.1919C354.152 84.4805 333.503 84.2585 350 86.5005C360.324 86.6115 360.302 88.6759 366.518 86.6781C399.445 97.3554 395.359 93.1822 415.986 95.4686C415.963 97.533 418.05 95.4908 420.093 97.5774L430.417 97.6884C432.482 97.7106 436.656 93.6262 438.721 93.6484L451.11 93.7816C455.24 93.826 455.218 95.8904 459.347 95.9348C471.736 96.068 461.39 98.0214 479.973 98.2212C479.973 98.2212 479.951 100.286 488.21 100.374L500.599 100.508C510.946 98.5542 523.313 100.752 525.378 100.774L537.767 100.907C541.896 100.952 548.113 98.9538 556.372 99.0426C579.13 95.1579 566.696 99.1536 593.562 97.3778C597.691 97.4222 599.778 95.3799 599.778 95.3799C601.843 95.4021 605.973 95.4465 608.06 93.4043C610.147 91.3621 614.276 91.4065 618.406 91.4509C630.817 89.5197 630.839 87.4553 632.882 89.5419L639.077 89.6085C639.077 89.6085 645.249 91.7395 653.486 93.8927C655.551 93.9149 663.832 91.9393 665.897 91.9615L667.962 91.9837C672.07 94.0925 674.179 89.9859 676.199 94.1369C680.285 98.3101 680.329 94.1813 684.459 94.2257C702.998 98.5543 694.783 94.3367 700.977 94.4033C707.172 94.4699 711.39 86.2567 713.433 88.3433C717.54 90.4521 719.583 92.5387 721.67 90.4965C723.735 90.5187 723.713 92.5831 727.865 90.5631C738.233 86.5453 736.124 90.6519 742.363 86.5896C750.667 82.5496 746.537 82.5052 752.709 84.6362L754.752 86.7228L756.817 86.745L763.011 86.8116C765.076 86.8338 765.098 84.7694 767.163 84.7916L771.293 84.836C773.357 84.8582 773.424 78.665 779.596 80.796L781.661 80.8182C783.748 78.776 789.854 87.1002 791.985 80.9292C798.158 83.0602 798.158 83.0602 800.245 81.018C800.245 81.018 806.461 79.0202 808.504 81.1068L812.634 81.1512C816.741 83.26 818.828 81.2178 822.958 81.2622C824.978 85.4132 831.173 85.4798 833.26 83.4376C839.432 85.5686 839.41 87.633 841.497 85.5908C843.562 85.613 847.669 87.7218 849.734 87.744C855.884 91.9395 855.929 87.8106 860.036 89.9195L864.166 89.9638L866.231 89.986C870.382 87.966 870.449 81.7728 889.033 81.9726C901.422 82.1058 893.185 79.9525 901.444 80.0413C903.464 84.1924 913.788 84.3034 920.027 80.2411C922.092 80.2633 922.07 82.3278 924.135 82.35C926.2 82.3722 928.242 84.4588 930.307 84.481C936.479 86.612 936.524 82.4832 940.631 84.592C942.696 84.6142 944.783 82.572 946.826 84.6586C948.846 88.8096 953.02 84.7252 957.106 88.8984C963.256 93.0938 981.861 91.2292 990.121 91.318C994.25 91.3624 992.208 89.2758 998.424 87.278C1002.58 85.258 1002.58 85.258 1006.71 85.3024C1012.88 87.4334 1010.86 83.2824 1014.97 85.3912C1019.07 87.5 1023.2 87.5444 1027.33 87.5888C1029.4 87.611 1031.46 87.6332 1031.48 85.5687C1039.72 87.722 1052.13 85.7907 1054.2 85.8129C1056.28 83.7707 1060.39 85.8795 1064.52 85.9239C1068.65 85.9683 1068.61 90.0972 1078.95 88.1438C1081.02 88.166 1078.97 86.0793 1081.06 84.0371C1083.13 84.0593 1081.08 81.9727 1087.26 84.1037L1097.58 84.2147C1101.71 84.2591 1107.95 80.1969 1107.99 76.0681C1112.12 76.1125 1120.32 82.3945 1139.03 70.2078C1141.1 70.23 1147.22 76.4899 1151.4 72.4054C1155.55 70.3854 1157.59 72.472 1159.7 68.3654C1161.81 64.2588 1163.9 62.2166 1167.98 66.3898C1172.07 70.563 1174.18 66.4564 1178.26 70.6296C1182.35 74.8028 1184.44 72.7606 1194.76 72.8716L1200.95 72.9382C1207.13 75.0692 1219.45 81.3957 1219.58 69.0092L1227.84 69.098C1234.1 62.9714 1266.92 83.9707 1271.27 63.371C1281.64 59.3531 1281.25 64.382 1287.44 64.4486Z" fill="white"/>
<path d="M1287.44 64.4486L1281.58 152.505L1276.52 228.337C1262.03 232.31 1271.54 230.611 1263.21 236.715C1259.06 238.735 1259.08 236.671 1254.93 238.691C1250.78 240.711 1246.67 238.602 1240.45 240.6C1238.39 240.577 1225.96 244.573 1223.91 242.486C1221.87 240.4 1217.74 240.355 1215.68 240.333L1211.55 240.289L1201.22 240.178C1197.09 240.133 1195 242.176 1190.88 242.131L1180.55 242.02C1172.31 239.867 1168.23 235.694 1166.12 239.8C1166.1 241.865 1161.97 241.82 1157.84 241.776C1153.71 241.732 1147.45 247.858 1130.93 247.681C1128.86 247.659 1124.76 245.55 1124.73 247.614C1122.65 249.656 1118.5 251.676 1116.43 251.654C1114.34 253.696 1108.17 251.565 1104.04 251.521C1101.98 251.499 1097.87 249.39 1097.87 249.39C1079.31 247.126 1091.67 249.323 1079.33 245.061C1077.27 245.039 1073.16 242.93 1071.07 244.973C1066.9 249.057 1062.81 244.884 1058.66 246.904C1056.62 244.817 1054.55 244.795 1052.49 244.773C1052.49 244.773 1029.75 246.593 1025.67 242.42C1023.62 240.333 1019.47 242.353 1017.41 242.331C982.35 237.825 1000.87 244.218 959.593 241.709L949.269 241.598C949.269 241.598 947.204 241.576 945.161 239.49L941.032 239.445C938.944 241.487 938.967 239.423 930.707 239.334C926.555 241.354 920.405 237.159 914.211 237.092C912.168 235.006 908.061 232.897 905.996 232.875C903.931 232.852 906.018 230.81 897.781 228.657C889.544 226.504 887.434 230.61 883.327 228.501C864.899 213.851 860.681 222.064 854.53 217.869C852.466 217.846 846.293 215.715 846.271 217.78C844.162 221.886 842.119 219.8 837.967 221.82C823.447 227.858 817.319 221.598 806.906 229.745C804.819 231.787 802.776 229.7 796.582 229.634C763.545 229.278 780.019 233.585 761.435 233.385C753.176 233.296 755.241 233.318 753.154 235.361C749.024 235.316 742.785 239.378 740.72 239.356C738.656 239.334 736.591 239.312 734.504 241.354C726.156 249.523 724.179 241.243 705.485 251.365C695.205 247.125 693.118 249.168 686.924 249.101C678.664 249.012 682.772 251.121 674.512 251.032C670.383 250.988 672.425 253.074 668.296 253.03C660.036 252.941 666.187 257.137 657.927 257.048C657.905 259.112 647.625 254.873 647.625 254.873L639.366 254.784C631.129 252.63 622.825 256.671 614.588 254.517L602.199 254.384C600.134 254.362 589.832 252.187 587.767 252.164C581.573 252.098 525.778 255.627 503.087 253.319C494.85 251.165 505.174 251.276 482.461 251.032C478.331 250.988 476.244 253.03 472.136 250.921L465.942 250.855L461.812 250.81C455.596 252.808 453.575 248.657 443.229 250.61C439.099 250.566 441.186 248.524 437.056 248.479L418.473 248.279L412.278 248.213C408.149 248.168 401.976 246.038 395.782 245.971C385.458 245.86 389.521 252.098 362.722 247.68C354.463 247.591 329.596 255.583 321.381 251.365C317.252 251.321 313.144 249.212 308.992 251.232C304.84 253.252 296.648 246.97 286.301 248.923C284.236 248.901 282.194 246.814 275.977 248.812L259.458 248.635C257.394 248.612 255.329 248.59 253.286 246.504L251.221 246.481C242.962 246.393 243.006 242.264 238.877 242.219C226.488 242.086 230.595 244.195 214.054 246.082C211.989 246.06 195.426 250.011 193.361 249.989C187.123 254.051 166.474 253.829 164.387 255.871C160.28 253.762 158.171 257.869 154.041 257.824C154.041 257.824 151.998 255.738 149.911 257.78C143.672 261.842 131.283 261.709 129.241 259.622C125.133 257.514 87.8997 263.307 81.7052 263.241C75.5329 261.11 77.5977 261.132 73.468 261.087C46.5808 264.928 -5.32093 267.985 -9.45059 267.941L-4.29953 190.612L-6.53127 124.318C-2.4016 124.362 6.85993 117.91 13.0766 115.913C17.2507 111.828 21.3581 113.937 23.4452 111.895C25.5322 109.853 25.5322 109.853 29.6618 109.897L29.6619 109.897C33.7915 109.941 35.8342 112.028 39.9638 112.072L42.0287 112.095C46.1805 110.075 48.2232 112.161 50.288 112.183L56.4826 112.25C70.9142 114.47 62.6993 110.252 95.7588 108.543C97.8237 108.565 101.976 106.545 108.148 108.676C110.19 110.763 116.407 108.765 118.494 106.723C120.559 106.745 120.603 102.616 126.798 102.683C128.863 102.705 139.209 100.751 143.317 102.86C145.359 104.947 147.446 102.905 151.576 102.949C153.618 105.036 157.77 103.016 161.9 103.06C163.943 105.147 170.159 103.149 170.159 103.149C174.289 103.193 176.376 101.151 182.593 99.1532C186.7 101.262 188.787 99.2199 188.809 97.1554C207.482 89.0976 195.004 97.222 207.437 93.2264C209.502 93.2486 213.61 95.3574 217.762 93.3374C219.826 93.3596 232.238 91.4284 232.238 91.4284C234.302 91.4506 238.41 93.5594 242.562 91.5394L248.756 91.606L250.821 91.6282C261.123 93.8036 281.86 85.7679 285.968 87.8768L288.033 87.899C290.097 87.9212 294.249 85.9011 296.314 85.9233C298.401 83.8811 300.488 81.8389 314.92 84.0587L327.309 84.1919C354.152 84.4805 333.503 84.2585 350 86.5005C360.324 86.6115 360.302 88.6759 366.518 86.6781C399.445 97.3554 395.359 93.1822 415.986 95.4686C415.963 97.533 418.05 95.4908 420.093 97.5774L430.417 97.6884C432.482 97.7106 436.656 93.6262 438.721 93.6484L451.11 93.7816C455.24 93.826 455.218 95.8904 459.347 95.9348C471.736 96.068 461.39 98.0214 479.973 98.2212C479.973 98.2212 479.951 100.286 488.21 100.374L500.599 100.508C510.946 98.5542 523.313 100.752 525.378 100.774L537.767 100.907C541.896 100.952 548.113 98.9538 556.372 99.0426C579.13 95.1579 566.696 99.1536 593.562 97.3778C597.691 97.4222 599.778 95.3799 599.778 95.3799C601.843 95.4021 605.973 95.4465 608.06 93.4043C610.147 91.3621 614.276 91.4065 618.406 91.4509C630.817 89.5197 630.839 87.4553 632.882 89.5419L639.077 89.6085C639.077 89.6085 645.249 91.7395 653.486 93.8927C655.551 93.9149 663.832 91.9393 665.897 91.9615L667.962 91.9837C672.07 94.0925 674.179 89.9859 676.199 94.1369C680.285 98.3101 680.329 94.1813 684.459 94.2257C702.998 98.5543 694.783 94.3367 700.977 94.4033C707.172 94.4699 711.39 86.2567 713.433 88.3433C717.54 90.4521 719.583 92.5387 721.67 90.4965C723.735 90.5187 723.713 92.5831 727.865 90.5631C738.233 86.5453 736.124 90.6519 742.363 86.5896C750.667 82.5496 746.537 82.5052 752.709 84.6362L754.752 86.7228L756.817 86.745L763.011 86.8116C765.076 86.8338 765.098 84.7694 767.163 84.7916L771.293 84.836C773.357 84.8582 773.424 78.665 779.596 80.796L781.661 80.8182C783.748 78.776 789.854 87.1002 791.985 80.9292C798.158 83.0602 798.158 83.0602 800.245 81.018C800.245 81.018 806.461 79.0202 808.504 81.1068L812.634 81.1512C816.741 83.26 818.828 81.2178 822.958 81.2622C824.978 85.4132 831.173 85.4798 833.26 83.4376C839.432 85.5686 839.41 87.633 841.497 85.5908C843.562 85.613 847.669 87.7218 849.734 87.744C855.884 91.9395 855.929 87.8106 860.036 89.9195L864.166 89.9638L866.231 89.986C870.382 87.966 870.449 81.7728 889.033 81.9726C901.422 82.1058 893.185 79.9525 901.444 80.0413C903.464 84.1924 913.788 84.3034 920.027 80.2411C922.092 80.2633 922.07 82.3278 924.135 82.35C926.2 82.3722 928.242 84.4588 930.307 84.481C936.479 86.612 936.524 82.4832 940.631 84.592C942.696 84.6142 944.783 82.572 946.826 84.6586C948.846 88.8096 953.02 84.7252 957.106 88.8984C963.256 93.0938 981.861 91.2292 990.121 91.318C994.25 91.3624 992.208 89.2758 998.424 87.278C1002.58 85.258 1002.58 85.258 1006.71 85.3024C1012.88 87.4334 1010.86 83.2824 1014.97 85.3912C1019.07 87.5 1023.2 87.5444 1027.33 87.5888C1029.4 87.611 1031.46 87.6332 1031.48 85.5687C1039.72 87.722 1052.13 85.7907 1054.2 85.8129C1056.28 83.7707 1060.39 85.8795 1064.52 85.9239C1068.65 85.9683 1068.61 90.0972 1078.95 88.1438C1081.02 88.166 1078.97 86.0793 1081.06 84.0371C1083.13 84.0593 1081.08 81.9727 1087.26 84.1037L1097.58 84.2147C1101.71 84.2591 1107.95 80.1969 1107.99 76.0681C1112.12 76.1125 1120.32 82.3945 1139.03 70.2078C1141.1 70.23 1147.22 76.4899 1151.4 72.4054C1155.55 70.3854 1157.59 72.472 1159.7 68.3654C1161.81 64.2588 1163.9 62.2166 1167.98 66.3898C1172.07 70.563 1174.18 66.4564 1178.26 70.6296C1182.35 74.8028 1184.44 72.7606 1194.76 72.8716L1200.95 72.9382C1207.13 75.0692 1219.45 81.3957 1219.58 69.0092L1227.84 69.098C1234.1 62.9714 1266.92 83.9707 1271.27 63.371C1281.64 59.3531 1281.25 64.382 1287.44 64.4486Z" fill="#272727" fill-opacity="0.3"/>
<path fill-rule="evenodd" clip-rule="evenodd" d="M1281.57 157.965L1287.44 69.908C1285.19 69.8838 1283.8 69.2025 1282.46 68.5392C1280.11 67.3795 1277.86 66.2745 1271.27 68.8304C1268.54 81.7457 1254.62 78.309 1243.08 75.4577C1236.21 73.7612 1230.18 72.272 1227.84 74.5574L1219.58 74.4686C1219.46 85.4119 1209.83 81.7488 1203.33 79.2771C1202.48 78.9512 1201.67 78.6459 1200.95 78.3976L1194.76 78.331C1191.67 78.2978 1189.32 78.4574 1187.43 78.5856C1183.01 78.8857 1181.13 79.0134 1178.26 76.089C1176.22 74.0024 1174.67 73.9858 1173.12 73.9691C1171.57 73.9525 1170.03 73.9358 1167.98 71.8492C1163.9 67.676 1161.81 69.7182 1159.7 73.8248C1158.4 76.3628 1157.12 76.5353 1155.35 76.7736C1154.26 76.9208 1152.98 77.0933 1151.4 77.8648C1148.47 80.734 1144.57 78.4987 1141.79 76.9069C1140.62 76.2326 1139.65 75.6738 1139.03 75.6672C1124 85.456 1115.75 83.329 1110.95 82.09C1109.77 81.7864 1108.8 81.5362 1107.99 81.5275C1107.95 85.6563 1101.71 89.7185 1097.58 89.6741L1087.25 89.5631C1083.14 88.1424 1082.68 88.5963 1082.21 89.0501C1081.98 89.277 1081.75 89.5039 1081.06 89.4965C1080.02 90.5176 1080.01 91.5498 1080 92.324C1079.99 93.0981 1079.98 93.6143 1078.95 93.6032C1072.23 94.8714 1069.9 93.576 1067.95 92.499C1066.9 91.9171 1065.97 91.3989 1064.52 91.3833C1063.06 91.3676 1061.6 91.0928 1060.23 90.8353C1057.73 90.3658 1055.54 89.9536 1054.2 91.2723C1053.76 91.2676 1052.85 91.3513 1051.61 91.4652C1047.04 91.8869 1037.97 92.7234 1031.48 91.0282C1031.46 93.0926 1029.39 93.0704 1027.33 93.0482C1023.2 93.0038 1019.07 92.9594 1014.97 90.8506C1013.04 89.8629 1012.46 90.2484 1011.76 90.7185C1010.95 91.2521 1009.99 91.8947 1006.71 90.7618C1004.75 90.7407 1003.72 90.7297 1002.74 90.9384C1001.64 91.1703 1000.61 91.6739 998.424 92.7374C995.316 93.7363 994.272 94.7574 993.49 95.5233C992.707 96.2891 992.185 96.7996 990.12 96.7774C988.285 96.7577 985.939 96.8344 983.332 96.9197C974.207 97.2181 961.889 97.6209 957.105 94.3578C955.063 92.2712 952.998 92.249 951.191 92.2296C949.384 92.2102 947.836 92.1935 946.825 90.118C945.464 88.7269 944.082 89.1709 942.701 89.6148C942.01 89.8368 941.319 90.0588 940.631 90.0514C938.681 89.0501 937.647 89.4551 936.437 89.9285C935.1 90.4521 933.548 91.0596 930.307 89.9404C929.274 89.9293 928.248 89.4021 927.221 88.8749C926.194 88.3477 925.167 87.8205 924.135 87.8094C923.102 87.7983 922.591 87.2766 922.081 86.755C921.57 86.2333 921.059 85.7117 920.027 85.7006C913.788 89.7628 903.464 89.6518 901.444 85.5008C897.731 85.4608 897.352 85.8739 896.934 86.3287C896.422 86.8857 895.853 87.5053 889.032 87.432C875.095 87.2821 871.573 90.7284 868.931 93.3131C868.051 94.1746 867.268 94.9405 866.23 95.4455L864.166 95.4233L860.036 95.3789C858.293 94.4838 857.281 94.7124 856.224 94.9513C854.791 95.2753 853.274 95.6182 849.734 93.2034C848.702 93.1923 847.158 92.6596 845.615 92.1268C844.072 91.5941 842.529 91.0613 841.497 91.0502C840.229 92.2911 839.739 92.0158 838.166 91.1306C837.15 90.5591 835.681 89.7332 833.26 88.897C831.173 90.9392 824.978 90.8726 822.958 86.7216C821.495 86.7059 820.288 86.952 819.157 87.1827C817.096 87.6032 815.286 87.9724 812.633 86.6106L808.504 86.5662C806.461 84.4796 800.245 86.4774 800.245 86.4774C798.157 88.5196 798.157 88.5196 791.985 86.3886C790.702 90.1041 787.978 88.5649 785.558 87.1975C783.958 86.2937 782.491 85.465 781.661 86.2776L779.596 86.2554C775.547 84.8575 774.126 87.0415 773.044 88.7035C772.477 89.5751 772.003 90.3031 771.292 90.2954L767.163 90.251C766.13 90.2399 765.609 90.7505 765.087 91.261C764.565 91.7716 764.043 92.2822 763.011 92.271L756.816 92.2045L754.752 92.1823L752.709 90.0956C749.988 89.1561 749.269 88.6394 748.604 88.7016C747.761 88.7804 747.005 89.7902 742.363 92.049C739.243 94.0802 738.211 94.0691 736.662 94.0524C735.113 94.0358 733.049 94.0136 727.864 96.0225C725.096 97.3692 724.184 96.9006 723.271 96.4319C722.814 96.1976 722.358 95.9633 721.67 95.9559C720.04 97.5504 718.438 96.6279 715.859 95.1431C715.134 94.7262 714.333 94.265 713.433 93.8027C712.498 92.8482 711.109 94.0489 709.283 95.6264C707.117 97.4975 704.338 99.8989 700.977 99.8627C698.829 99.8396 698.414 100.331 698.015 100.804C697.263 101.693 696.57 102.513 684.458 99.6851C682.881 99.6682 681.9 100.26 681.061 100.766C679.705 101.584 678.724 102.176 676.199 99.5963C675.079 97.2956 673.932 97.5316 672.433 97.8401C671.227 98.0882 669.793 98.3831 667.962 97.4431L665.897 97.4209C664.865 97.4098 662.278 97.8982 659.691 98.3865C657.105 98.8749 654.518 99.3632 653.486 99.3521C645.249 97.1989 639.076 95.0679 639.076 95.0679L632.882 95.0013C631.729 93.8238 631.22 93.9682 628.764 94.6647C626.869 95.2023 623.813 96.069 618.406 96.9103C614.276 96.8659 610.147 96.8215 608.059 98.8637C605.972 100.906 601.843 100.862 599.778 100.839C599.778 100.839 597.691 102.882 593.561 102.837C581.212 103.653 577.166 103.25 574.19 102.953C570.691 102.605 568.668 102.403 556.372 104.502C551.534 104.45 547.397 105.114 543.969 105.664C541.546 106.053 539.477 106.385 537.766 106.367L525.377 106.233C524.952 106.229 524.089 106.132 522.897 105.998C518.303 105.482 508.814 104.416 500.599 105.967L488.21 105.834C479.95 105.745 479.972 103.681 479.972 103.681C469.742 103.571 468.279 102.929 466.964 102.353C465.89 101.882 464.915 101.454 459.346 101.394C457.281 101.372 456.255 100.845 455.228 100.318C454.201 99.7904 453.174 99.2632 451.109 99.241L438.72 99.1078C437.688 99.0967 436.128 100.112 434.568 101.128C433.009 102.143 431.449 103.159 430.416 103.148L420.092 103.037C419.071 101.993 418.039 101.982 417.264 101.974C416.49 101.966 415.974 101.96 415.985 100.928C409.916 100.255 405.986 100.142 402.623 100.045C394.558 99.8117 389.755 99.673 366.518 92.1375C362.868 93.3105 361.368 93.0832 358.663 92.673C356.761 92.3846 354.262 92.0058 349.999 91.9599C342.827 90.9852 342.676 90.4762 342.591 90.1885C342.48 89.8145 342.48 89.8145 327.308 89.6513L314.919 89.5181C300.487 87.2983 298.4 89.3405 296.313 91.3828C295.281 91.3717 293.727 91.8711 292.172 92.3706C290.618 92.87 289.064 93.3695 288.032 93.3584L285.967 93.3362C284.109 92.3821 278.846 93.5044 272.687 94.8182C265.232 96.4083 256.461 98.2788 250.82 97.0876L248.755 97.0654L242.561 96.9988C239.575 98.4516 236.612 97.7687 234.415 97.2624C233.557 97.0648 232.817 96.894 232.237 96.8878C232.237 96.8878 219.826 98.819 217.761 98.7968C214.775 100.25 211.811 99.5667 209.615 99.0604C208.757 98.8628 208.016 98.692 207.437 98.6858C201.985 100.438 201.323 99.8596 200.724 99.3372C199.957 98.668 199.294 98.0899 188.809 102.615C188.786 104.679 186.699 106.721 182.592 104.613C180.217 105.376 178.445 106.145 176.932 106.803C174.483 107.866 172.711 108.636 170.159 108.608C170.159 108.608 163.942 110.606 161.899 108.519C160.436 108.504 158.971 108.747 157.597 108.975C155.093 109.391 152.894 109.756 151.575 108.408C149.998 108.392 148.718 108.679 147.626 108.925C145.858 109.322 144.578 109.609 143.316 108.32C140.188 106.714 133.443 107.464 129.491 107.903C128.253 108.04 127.29 108.147 126.797 108.142C122.87 108.1 121.415 109.744 120.349 110.947C119.734 111.642 119.249 112.19 118.493 112.182C116.406 114.224 110.19 116.222 108.147 114.136C103.603 112.567 100.154 113.248 97.8263 113.707C96.9925 113.872 96.3027 114.008 95.758 114.002C78.6796 114.885 72.6161 116.438 68.7552 117.426C65.1424 118.351 63.4581 118.782 56.4818 117.709L50.2872 117.643C49.6621 117.636 49.0389 117.44 48.3586 117.226C46.7921 116.733 44.9227 116.146 42.0279 117.554L39.9631 117.532C37.8982 117.51 36.3552 116.977 34.8121 116.444C33.269 115.911 31.7259 115.379 29.6611 115.356H29.661C25.5314 115.312 25.5314 115.312 23.4444 117.354C22.5799 118.2 21.3688 118.334 19.9499 118.49C17.9432 118.712 15.521 118.979 13.0759 121.372C10.8298 122.094 7.80492 123.337 4.66246 124.629C-0.892762 126.912 -6.8155 129.346 -9.45312 129.318L-9.45134 196.818L-9.45136 273.4C-8.5074 273.41 -5.06739 273.258 -0.000646591 272.972V311H1280V181.605L1281.57 157.965Z" fill="white"/>
</g>
<defs>
<clipPath id="clip0">
<rect width="1280" height="311" fill="white"/>
</clipPath>
</defs>
</svg>
