<svg width="47" height="47" viewBox="0 0 47 47" fill="none" xmlns="http://www.w3.org/2000/svg">
<path d="M33.9575 10.6925C33.4927 10.6925 33.0383 10.8303 32.6519 11.0886C32.2654 11.3468 31.9642 11.7138 31.7863 12.1432C31.6085 12.5726 31.5619 13.0451 31.6526 13.501C31.7433 13.9568 31.9671 14.3756 32.2958 14.7042C32.6244 15.0329 33.0431 15.2567 33.499 15.3474C33.9549 15.438 34.4274 15.3915 34.8568 15.2136C35.2862 15.0358 35.6532 14.7346 35.9114 14.3481C36.1696 13.9617 36.3075 13.5073 36.3075 13.0425C36.3075 12.4193 36.0599 11.8215 35.6192 11.3808C35.1785 10.9401 34.5807 10.6925 33.9575 10.6925V10.6925ZM42.9658 15.4317C42.9277 13.8069 42.6234 12.1993 42.065 10.6729C41.567 9.36699 40.792 8.18444 39.7933 7.20669C38.8236 6.2029 37.6383 5.43278 36.327 4.9546C34.8047 4.37917 33.1954 4.06789 31.5683 4.03419C29.4925 3.91669 28.8266 3.91669 23.5 3.91669C18.1733 3.91669 17.5075 3.91669 15.4316 4.03419C13.8045 4.06789 12.1952 4.37917 10.6729 4.9546C9.36408 5.43762 8.17979 6.20708 7.20663 7.20669C6.20284 8.17641 5.43272 9.36171 4.95454 10.6729C4.37911 12.1952 4.06783 13.8046 4.03413 15.4317C3.91663 17.5075 3.91663 18.1734 3.91663 23.5C3.91663 28.8267 3.91663 29.4925 4.03413 31.5684C4.06783 33.1954 4.37911 34.8048 4.95454 36.3271C5.43272 37.6383 6.20284 38.8236 7.20663 39.7934C8.17979 40.793 9.36408 41.5624 10.6729 42.0454C12.1952 42.6209 13.8045 42.9322 15.4316 42.9659C17.5075 43.0834 18.1733 43.0834 23.5 43.0834C28.8266 43.0834 29.4925 43.0834 31.5683 42.9659C33.1954 42.9322 34.8047 42.6209 36.327 42.0454C37.6383 41.5673 38.8236 40.7971 39.7933 39.7934C40.7964 38.8192 41.5721 37.6357 42.065 36.3271C42.6234 34.8008 42.9277 33.1932 42.9658 31.5684C42.9658 29.4925 43.0833 28.8267 43.0833 23.5C43.0833 18.1734 43.0833 17.5075 42.9658 15.4317V15.4317ZM39.4408 31.3334C39.4265 32.5764 39.2014 33.8081 38.775 34.9759C38.4623 35.8281 37.9601 36.5982 37.3062 37.2279C36.671 37.8752 35.9025 38.3764 35.0541 38.6967C33.8864 39.1231 32.6547 39.3483 31.4116 39.3625C29.4533 39.4604 28.7287 39.48 23.5783 39.48C18.4279 39.48 17.7033 39.48 15.745 39.3625C14.4542 39.3867 13.169 39.1879 11.9458 38.775C11.1346 38.4383 10.4014 37.9384 9.79163 37.3063C9.14163 36.6772 8.64569 35.9064 8.34246 35.0542C7.86434 33.8697 7.59916 32.6101 7.55913 31.3334C7.55913 29.375 7.44163 28.6504 7.44163 23.5C7.44163 18.3496 7.44163 17.625 7.55913 15.6667C7.5679 14.3958 7.7999 13.1364 8.24454 11.9459C8.5893 11.1193 9.11848 10.3824 9.79163 9.79169C10.3866 9.11835 11.1219 8.58358 11.9458 8.22502C13.1395 7.79427 14.3976 7.56913 15.6666 7.55919C17.625 7.55919 18.3495 7.44169 23.5 7.44169C28.6504 7.44169 29.375 7.44169 31.3333 7.55919C32.5764 7.57344 33.808 7.79859 34.9758 8.22502C35.8657 8.5553 36.6645 9.09226 37.3062 9.79169C37.948 10.3932 38.4494 11.1287 38.775 11.9459C39.2102 13.1383 39.4355 14.3973 39.4408 15.6667C39.5387 17.625 39.5583 18.3496 39.5583 23.5C39.5583 28.6504 39.5387 29.375 39.4408 31.3334ZM23.5 13.4538C21.5138 13.4576 19.5734 14.0501 17.9239 15.1564C16.2744 16.2626 14.9898 17.833 14.2324 19.669C13.475 21.5051 13.2789 23.5244 13.6687 25.4719C14.0586 27.4194 15.0169 29.2077 16.4227 30.6107C17.8285 32.0137 19.6186 32.9686 21.5668 33.3546C23.5151 33.7407 25.534 33.5406 27.3686 32.7797C29.2032 32.0187 30.771 30.731 31.874 29.0794C32.9771 27.4277 33.5658 25.4861 33.5658 23.5C33.5684 22.1784 33.3097 20.8692 32.8045 19.6479C32.2993 18.4266 31.5576 17.3172 30.6222 16.3835C29.6867 15.4499 28.5759 14.7104 27.3536 14.2076C26.1313 13.7048 24.8216 13.4486 23.5 13.4538V13.4538ZM23.5 30.0213C22.2102 30.0213 20.9494 29.6388 19.8769 28.9222C18.8045 28.2057 17.9687 27.1872 17.4751 25.9956C16.9815 24.804 16.8524 23.4928 17.104 22.2278C17.3556 20.9628 17.9767 19.8008 18.8887 18.8888C19.8008 17.9768 20.9627 17.3557 22.2277 17.1041C23.4927 16.8525 24.8039 16.9816 25.9955 17.4752C27.1871 17.9687 28.2056 18.8046 28.9222 19.877C29.6387 20.9494 30.0212 22.2102 30.0212 23.5C30.0212 24.3564 29.8525 25.2044 29.5248 25.9956C29.1971 26.7868 28.7167 27.5057 28.1112 28.1112C27.5056 28.7168 26.7867 29.1971 25.9955 29.5249C25.2043 29.8526 24.3563 30.0213 23.5 30.0213V30.0213Z" fill="white"/>
</svg>
