<svg width="47" height="47" viewBox="0 0 47 47" fill="none" xmlns="http://www.w3.org/2000/svg">
<path d="M45.0416 19.0154C45.1385 16.2123 44.5255 13.4303 43.2596 10.9275C42.4006 9.90052 41.2086 9.20748 39.8912 8.96914C34.4422 8.47471 28.9706 8.27206 23.5 8.36205C18.0492 8.26797 12.5974 8.46408 7.16747 8.94955C6.09395 9.14483 5.10049 9.64837 4.3083 10.3987C2.5458 12.0241 2.34997 14.805 2.15414 17.155C1.87001 21.3802 1.87001 25.6197 2.15414 29.845C2.21079 31.1676 2.40773 32.4806 2.74164 33.7616C2.97776 34.7507 3.45549 35.6658 4.13205 36.425C4.92962 37.2151 5.94622 37.7472 7.04997 37.9525C11.272 38.4736 15.5261 38.6896 19.7791 38.5987C26.6333 38.6966 32.6454 38.5987 39.7541 38.0504C40.885 37.8578 41.9302 37.3249 42.7504 36.5229C43.2986 35.9744 43.7082 35.303 43.945 34.5646C44.6453 32.4155 44.9893 30.1664 44.9633 27.9062C45.0416 26.8096 45.0416 20.1904 45.0416 19.0154V19.0154ZM19.0741 29.0812V16.9591L30.6675 23.0496C27.4166 24.8512 23.1279 26.8879 19.0741 29.0812Z" fill="white"/>
</svg>
