<svg width="46" height="47" viewBox="0 0 46 47" fill="none" xmlns="http://www.w3.org/2000/svg">
<path d="M23.5 4C12.7713 4 4 12.7713 4 23.5C4 34.2287 12.7713 43 23.5 43C34.2287 43 43 34.2287 43 23.5C43 12.7713 34.3225 4 23.5 4ZM32.47 32.1775C32.0812 32.7613 31.3963 32.9575 30.8125 32.5638C26.23 29.74 20.4787 29.155 13.6488 30.7113C12.97 30.9124 12.385 30.4249 12.1876 29.8338C11.9974 29.155 12.4801 28.5712 13.0638 28.375C20.4787 26.7175 26.9149 27.3963 31.9801 30.52C32.6662 30.8125 32.7601 31.5925 32.4688 32.1775H32.47ZM34.8112 26.8138C34.3225 27.4999 33.4462 27.7924 32.7601 27.3025C27.4987 24.0838 19.5001 23.1137 13.3624 25.0612C12.5812 25.2513 11.6988 24.865 11.5087 24.0826C11.3125 23.3026 11.6988 22.4263 12.4801 22.2301C19.6024 20.0838 28.3738 21.1624 34.4176 24.8638C35.0074 25.1563 35.2999 26.1325 34.8112 26.8126V26.8138ZM35.0087 21.355C28.7626 17.6463 18.3325 17.26 12.385 19.1137C11.4088 19.405 10.4362 18.8212 10.1437 17.9388C9.85244 16.9675 10.4362 15.9901 11.3125 15.6976C18.2387 13.6488 29.6437 14.0413 36.8624 18.3313C37.7387 18.82 38.0287 19.9888 37.5412 20.8651C37.0525 21.5512 35.8837 21.8413 35.0074 21.3538L35.0087 21.355Z" fill="white"/>
</svg>
