<svg width="47" height="47" viewBox="0 0 47 47" fill="none" xmlns="http://www.w3.org/2000/svg">
<path d="M43.0833 11.3584C41.6113 11.997 40.0546 12.4191 38.4616 12.6117C40.1422 11.6077 41.4016 10.0282 42.0062 8.16629C40.4269 9.10642 38.6981 9.76879 36.895 10.1246C35.6897 8.81758 34.0847 7.94754 32.3317 7.65096C30.5787 7.35438 28.7768 7.64804 27.2086 8.48587C25.6405 9.32371 24.3948 10.6583 23.6669 12.2804C22.939 13.9025 22.7701 15.7203 23.1866 17.4488C19.9934 17.2873 16.8699 16.4558 14.019 15.0084C11.1681 13.5611 8.65353 11.5301 6.63871 9.04754C5.93202 10.2816 5.56068 11.6792 5.56163 13.1013C5.55912 14.422 5.88322 15.7228 6.50506 16.8879C7.12691 18.053 8.0272 19.0462 9.12579 19.7792C7.84891 19.7445 6.59932 19.4018 5.48329 18.7805V18.8784C5.49286 20.7288 6.14128 22.5191 7.31887 23.9465C8.49645 25.3739 10.1309 26.3507 11.9458 26.7117C11.2472 26.9243 10.5218 27.0364 9.79163 27.0446C9.28616 27.0387 8.78195 26.9929 8.28371 26.9075C8.80053 28.4993 9.80068 29.8904 11.145 30.8872C12.4893 31.884 14.1109 32.437 15.7841 32.4692C12.9586 34.6924 9.47023 35.9058 5.87496 35.9159C5.22036 35.918 4.56627 35.8788 3.91663 35.7984C7.58738 38.1685 11.8651 39.4266 16.2345 39.4213C19.2498 39.4526 22.241 38.8828 25.0336 37.7451C27.8261 36.6074 30.364 34.9247 32.4989 32.7953C34.6338 30.6658 36.3231 28.1323 37.4679 25.3426C38.6127 22.553 39.1902 19.5633 39.1666 16.548V15.51C40.7033 14.364 42.0287 12.9592 43.0833 11.3584V11.3584Z" fill="white"/>
</svg>
