<svg width="1280" height="352" viewBox="0 0 1280 352" fill="none" xmlns="http://www.w3.org/2000/svg">
<g clip-path="url(#clip0)">
<path d="M1277.27 3.3837C1279.33 3.2686 1275.68 -1.31448 1279.92 0.516634L1279.92 184.642C1274.22 186.621 1272.62 186.794 1272.24 186.721C1272.19 186.974 1271.66 187.765 1269.07 189.939C1265.06 192.23 1264.95 190.169 1260.94 192.46C1256.93 194.752 1252.69 192.921 1246.62 195.327C1244.56 195.443 1232.42 200.256 1230.24 198.31C1228.07 196.363 1223.94 196.594 1221.88 196.709L1217.76 196.939L1207.45 197.515C1203.32 197.745 1201.38 199.921 1197.25 200.151L1186.95 200.727C1178.58 199.126 1174.23 195.234 1172.4 199.471C1172.51 201.533 1168.39 201.763 1164.27 201.993C1160.14 202.223 1154.3 208.753 1137.81 209.673C1135.75 209.789 1131.51 207.957 1131.62 210.019C1129.68 212.195 1125.67 214.487 1123.61 214.602C1121.66 216.778 1115.36 215.062 1111.24 215.292C1109.17 215.408 1104.94 213.576 1104.94 213.576C1086.27 212.551 1098.75 213.922 1086.15 210.49C1084.09 210.605 1079.85 208.774 1077.9 210.95C1074.01 215.303 1069.66 211.411 1065.65 213.702C1063.47 211.756 1061.41 211.871 1059.35 211.986C1059.35 211.986 1036.78 215.314 1032.43 211.421C1030.25 209.475 1026.24 211.767 1024.18 211.882C988.903 209.716 1007.8 214.864 966.454 215.105L956.145 215.68C956.145 215.68 954.083 215.795 951.906 213.849L947.783 214.079C945.836 216.256 945.721 214.194 937.474 214.655C933.466 216.946 927.05 213.169 920.865 213.514C918.688 211.568 914.45 209.737 912.388 209.852C910.326 209.967 912.273 207.791 903.911 206.19C895.549 204.589 893.717 208.827 889.479 206.996C870.117 193.602 866.454 202.078 860.039 198.301C857.977 198.416 851.677 196.7 851.792 198.761C849.96 202.999 847.784 201.053 843.775 203.344C829.688 210.334 823.158 204.495 813.309 213.316C811.363 215.492 809.186 213.546 803.001 213.892C770.013 215.733 786.737 218.935 768.181 219.971C759.934 220.431 761.996 220.316 760.049 222.493C755.926 222.723 749.971 227.191 747.909 227.306C745.847 227.421 743.786 227.536 741.839 229.713C734.052 238.418 731.53 230.288 713.55 241.631C703.011 238.084 701.064 240.26 694.879 240.605C686.632 241.066 690.871 242.897 682.624 243.357C678.5 243.588 680.677 245.534 676.554 245.764C668.307 246.224 674.722 250.002 666.475 250.462C666.59 252.524 656.051 248.976 656.051 248.976L647.804 249.437C639.442 247.836 631.425 252.419 623.063 250.818L610.693 251.509C608.631 251.624 598.207 250.138 596.146 250.253C589.96 250.599 534.523 257.829 511.729 257.034C503.367 255.433 513.676 254.857 490.997 256.124C486.873 256.354 484.927 258.53 480.688 256.699L474.503 257.044L470.379 257.275C464.309 259.681 462.017 255.674 451.824 258.311C447.7 258.541 449.647 256.364 445.523 256.595L426.968 257.631L420.782 257.976C416.659 258.206 410.359 256.49 404.173 256.835C393.865 257.411 398.333 263.365 371.3 260.739C363.054 261.199 338.773 270.826 330.296 267.163C326.172 267.394 321.934 265.562 317.925 267.854C313.917 270.145 305.325 264.422 295.131 267.059C293.069 267.174 290.893 265.228 284.822 267.634L268.328 268.555C266.267 268.67 264.205 268.785 262.028 266.839L259.966 266.954C251.719 267.415 251.489 263.292 247.366 263.522C234.995 264.213 239.234 266.044 222.855 269.026C220.793 269.141 204.529 274.185 202.468 274.3C196.513 278.768 175.895 279.919 173.949 282.095C169.71 280.264 167.878 284.502 163.755 284.732C163.755 284.732 161.578 282.786 159.631 284.962C153.676 289.43 141.306 290.121 139.129 288.175C134.891 286.344 98.1245 294.6 91.9392 294.945C85.6389 293.229 87.7007 293.114 83.5772 293.344C57.0047 298.963 4.04591 303.412 -0.0775794 303.643L-0.0781251 222.642L-0.0775789 160.185C4.04591 159.955 7.59891 154.911 13.6691 152.505C17.5624 148.152 21.8009 149.983 23.7476 147.807C25.6943 145.63 25.6943 145.63 29.8177 145.4C33.9412 145.17 36.1181 147.116 40.2415 146.886L42.3033 146.771C46.3117 144.479 48.4885 146.425 50.5503 146.31L56.7355 145.965C71.2828 147.22 62.8056 143.558 95.6784 139.655C97.7402 139.54 101.749 137.248 108.049 138.964C110.226 140.911 116.296 138.504 118.242 136.328C120.304 136.213 120.074 132.09 126.259 131.745C128.321 131.629 138.515 128.993 142.753 130.824C144.93 132.77 146.877 130.593 151 130.363C153.177 132.309 157.185 130.018 161.309 129.788C163.486 131.734 169.556 129.327 169.556 129.327C173.679 129.097 175.626 126.921 181.696 124.514C185.935 126.345 187.881 124.169 187.766 122.107C205.862 112.826 193.952 121.762 206.092 116.949C208.154 116.834 212.392 118.665 216.401 116.373C218.462 116.258 230.718 113.506 230.718 113.506C232.779 113.391 237.018 115.222 241.026 112.931L247.212 112.585L249.273 112.47C259.697 113.956 279.854 104.56 284.093 106.391L286.155 106.276C288.216 106.161 292.225 103.869 294.286 103.754C296.233 101.577 298.18 99.401 312.727 100.657L325.098 99.966C351.9 98.4696 331.283 99.6206 347.892 100.761C358.201 100.186 358.316 102.247 364.386 99.8403C397.949 108.305 393.595 104.413 414.328 105.323C414.443 107.384 416.39 105.208 418.566 107.154L428.875 106.579C430.937 106.463 434.83 102.111 436.892 101.995L449.262 101.305C453.386 101.075 453.501 103.136 457.625 102.906C469.995 102.215 459.801 104.852 478.357 103.816C478.357 103.816 478.472 105.877 486.719 105.417L499.09 104.726C509.283 102.089 521.769 103.46 523.83 103.345L536.201 102.654C540.324 102.424 546.395 100.017 554.642 99.557C577.091 94.1682 564.95 98.9815 591.638 95.4238C595.761 95.1936 597.708 93.0172 597.708 93.0172C599.77 92.902 603.893 92.6718 605.84 90.4954C607.786 88.319 611.91 88.0888 616.033 87.8585C628.289 85.1066 628.174 83.0453 630.351 84.9915L636.536 84.6462C636.536 84.6462 642.836 86.3621 651.198 87.963C653.26 87.8479 661.392 85.3262 663.454 85.2111L665.515 85.096C669.754 86.9271 671.585 82.6893 673.877 86.6969C678.231 90.5893 678.001 86.4667 682.124 86.2364C700.91 89.3231 692.433 85.6609 698.618 85.3156C704.804 84.9703 708.467 76.4948 710.644 78.441C714.882 80.2721 717.059 82.2183 719.006 80.0419C721.067 79.9268 721.182 81.9881 725.191 79.6966C735.269 74.9984 733.438 79.2361 739.393 74.7682C747.41 70.1851 743.286 70.4153 749.586 72.1313L751.763 74.0775L753.825 73.9624L760.01 73.6171C762.072 73.502 761.957 71.4407 764.019 71.3256L768.142 71.0953C770.204 70.9802 769.859 64.7963 776.159 66.5123L778.221 66.3972C780.167 64.2207 786.813 72.1207 788.529 65.8216C794.83 67.5376 794.83 67.5376 796.776 65.3612C796.776 65.3612 802.847 62.9546 805.023 64.9008L809.147 64.6706C813.385 66.5017 815.332 64.3252 819.456 64.095C821.747 68.1026 827.933 67.7572 829.879 65.5808C836.18 67.2968 836.295 69.3581 838.241 67.1817C840.303 67.0666 844.542 68.8977 846.604 68.7826C853.019 72.5599 852.789 68.4373 857.027 70.2684L861.151 70.0382L863.212 69.9231C867.221 67.6315 866.876 61.4476 885.431 60.4116C897.802 59.721 889.44 58.1201 897.687 57.6596C899.979 61.6672 910.287 61.0916 916.242 56.6237C918.304 56.5086 918.419 58.5699 920.481 58.4548C922.543 58.3397 924.72 60.2859 926.781 60.1708C933.082 61.8868 932.851 57.7641 937.09 59.5953C939.152 59.4802 941.098 57.3037 943.275 59.2499C945.567 63.2575 949.46 58.9046 953.814 62.7971C960.229 66.5744 978.67 63.4771 986.917 63.0167C991.041 62.7864 988.864 60.8402 994.934 58.4336C998.942 56.142 998.942 56.142 1003.07 55.9118C1009.37 57.6278 1007.07 53.6203 1011.31 55.4514C1015.55 57.2825 1019.67 57.0523 1023.8 56.8221C1025.86 56.707 1027.92 56.5919 1027.81 54.5305C1036.17 56.1314 1048.42 53.3795 1050.49 53.2644C1052.43 51.0879 1056.67 52.919 1060.79 52.6888C1064.92 52.4586 1065.15 56.5813 1075.34 53.9444C1077.4 53.8293 1075.23 51.8831 1077.17 49.7067C1079.24 49.5916 1077.06 47.6453 1083.36 49.3613L1093.67 48.7858C1097.79 48.5556 1103.75 44.0876 1103.52 39.965C1107.64 39.7348 1116.23 45.4583 1134.1 32.0544C1136.16 31.9393 1142.69 37.7779 1146.58 33.4251C1150.59 31.1336 1152.77 33.0798 1154.6 28.842C1156.43 24.6043 1158.38 22.4278 1162.73 26.3203C1167.08 30.2127 1168.92 25.9749 1173.27 29.8674C1177.62 33.7598 1179.57 31.5834 1189.88 31.0079L1196.06 30.6625C1202.36 32.3785 1215.08 37.8719 1214.39 25.5039L1222.64 25.0435C1228.48 18.5142 1262.62 37.2857 1265.59 16.4423C1275.67 11.7441 1271.08 3.72902 1277.27 3.3837Z" fill="white"/>
<path d="M1277.27 3.3837C1279.33 3.2686 1275.68 -1.31448 1279.92 0.516634L1279.92 184.642C1274.22 186.621 1272.62 186.794 1272.24 186.721C1272.19 186.974 1271.66 187.765 1269.07 189.939C1265.06 192.23 1264.95 190.169 1260.94 192.46C1256.93 194.752 1252.69 192.921 1246.62 195.327C1244.56 195.443 1232.42 200.256 1230.24 198.31C1228.07 196.363 1223.94 196.594 1221.88 196.709L1217.76 196.939L1207.45 197.515C1203.32 197.745 1201.38 199.921 1197.25 200.151L1186.95 200.727C1178.58 199.126 1174.23 195.234 1172.4 199.471C1172.51 201.533 1168.39 201.763 1164.27 201.993C1160.14 202.223 1154.3 208.753 1137.81 209.673C1135.75 209.789 1131.51 207.957 1131.62 210.019C1129.68 212.195 1125.67 214.487 1123.61 214.602C1121.66 216.778 1115.36 215.062 1111.24 215.292C1109.17 215.408 1104.94 213.576 1104.94 213.576C1086.27 212.551 1098.75 213.922 1086.15 210.49C1084.09 210.605 1079.85 208.774 1077.9 210.95C1074.01 215.303 1069.66 211.411 1065.65 213.702C1063.47 211.756 1061.41 211.871 1059.35 211.986C1059.35 211.986 1036.78 215.314 1032.43 211.421C1030.25 209.475 1026.24 211.767 1024.18 211.882C988.903 209.716 1007.8 214.864 966.454 215.105L956.145 215.68C956.145 215.68 954.083 215.795 951.906 213.849L947.783 214.079C945.836 216.256 945.721 214.194 937.474 214.655C933.466 216.946 927.05 213.169 920.865 213.514C918.688 211.568 914.45 209.737 912.388 209.852C910.326 209.967 912.273 207.791 903.911 206.19C895.549 204.589 893.717 208.827 889.479 206.996C870.117 193.602 866.454 202.078 860.039 198.301C857.977 198.416 851.677 196.7 851.792 198.761C849.96 202.999 847.784 201.053 843.775 203.344C829.688 210.334 823.158 204.495 813.309 213.316C811.363 215.492 809.186 213.546 803.001 213.892C770.013 215.733 786.737 218.935 768.181 219.971C759.934 220.431 761.996 220.316 760.049 222.493C755.926 222.723 749.971 227.191 747.909 227.306C745.847 227.421 743.786 227.536 741.839 229.713C734.052 238.418 731.53 230.288 713.55 241.631C703.011 238.084 701.064 240.26 694.879 240.605C686.632 241.066 690.871 242.897 682.624 243.357C678.5 243.588 680.677 245.534 676.554 245.764C668.307 246.224 674.722 250.002 666.475 250.462C666.59 252.524 656.051 248.976 656.051 248.976L647.804 249.437C639.442 247.836 631.425 252.419 623.063 250.818L610.693 251.509C608.631 251.624 598.207 250.138 596.146 250.253C589.96 250.599 534.523 257.829 511.729 257.034C503.367 255.433 513.676 254.857 490.997 256.124C486.873 256.354 484.927 258.53 480.688 256.699L474.503 257.044L470.379 257.275C464.309 259.681 462.017 255.674 451.824 258.311C447.7 258.541 449.647 256.364 445.523 256.595L426.968 257.631L420.782 257.976C416.659 258.206 410.359 256.49 404.173 256.835C393.865 257.411 398.333 263.365 371.3 260.739C363.054 261.199 338.773 270.826 330.296 267.163C326.172 267.394 321.934 265.562 317.925 267.854C313.917 270.145 305.325 264.422 295.131 267.059C293.069 267.174 290.893 265.228 284.822 267.634L268.328 268.555C266.267 268.67 264.205 268.785 262.028 266.839L259.966 266.954C251.719 267.415 251.489 263.292 247.366 263.522C234.995 264.213 239.234 266.044 222.855 269.026C220.793 269.141 204.529 274.185 202.468 274.3C196.513 278.768 175.895 279.919 173.949 282.095C169.71 280.264 167.878 284.502 163.755 284.732C163.755 284.732 161.578 282.786 159.631 284.962C153.676 289.43 141.306 290.121 139.129 288.175C134.891 286.344 98.1245 294.6 91.9392 294.945C85.6389 293.229 87.7007 293.114 83.5772 293.344C57.0047 298.963 4.04591 303.412 -0.0775794 303.643L-0.0781251 222.642L-0.0775789 160.185C4.04591 159.955 7.59891 154.911 13.6691 152.505C17.5624 148.152 21.8009 149.983 23.7476 147.807C25.6943 145.63 25.6943 145.63 29.8177 145.4C33.9412 145.17 36.1181 147.116 40.2415 146.886L42.3033 146.771C46.3117 144.479 48.4885 146.425 50.5503 146.31L56.7355 145.965C71.2828 147.22 62.8056 143.558 95.6784 139.655C97.7402 139.54 101.749 137.248 108.049 138.964C110.226 140.911 116.296 138.504 118.242 136.328C120.304 136.213 120.074 132.09 126.259 131.745C128.321 131.629 138.515 128.993 142.753 130.824C144.93 132.77 146.877 130.593 151 130.363C153.177 132.309 157.185 130.018 161.309 129.788C163.486 131.734 169.556 129.327 169.556 129.327C173.679 129.097 175.626 126.921 181.696 124.514C185.935 126.345 187.881 124.169 187.766 122.107C205.862 112.826 193.952 121.762 206.092 116.949C208.154 116.834 212.392 118.665 216.401 116.373C218.462 116.258 230.718 113.506 230.718 113.506C232.779 113.391 237.018 115.222 241.026 112.931L247.212 112.585L249.273 112.47C259.697 113.956 279.854 104.56 284.093 106.391L286.155 106.276C288.216 106.161 292.225 103.869 294.286 103.754C296.233 101.577 298.18 99.401 312.727 100.657L325.098 99.966C351.9 98.4696 331.283 99.6206 347.892 100.761C358.201 100.186 358.316 102.247 364.386 99.8403C397.949 108.305 393.595 104.413 414.328 105.323C414.443 107.384 416.39 105.208 418.566 107.154L428.875 106.579C430.937 106.463 434.83 102.111 436.892 101.995L449.262 101.305C453.386 101.075 453.501 103.136 457.625 102.906C469.995 102.215 459.801 104.852 478.357 103.816C478.357 103.816 478.472 105.877 486.719 105.417L499.09 104.726C509.283 102.089 521.769 103.46 523.83 103.345L536.201 102.654C540.324 102.424 546.395 100.017 554.642 99.557C577.091 94.1682 564.95 98.9815 591.638 95.4238C595.761 95.1936 597.708 93.0172 597.708 93.0172C599.77 92.902 603.893 92.6718 605.84 90.4954C607.786 88.319 611.91 88.0888 616.033 87.8585C628.289 85.1066 628.174 83.0453 630.351 84.9915L636.536 84.6462C636.536 84.6462 642.836 86.3621 651.198 87.963C653.26 87.8479 661.392 85.3262 663.454 85.2111L665.515 85.096C669.754 86.9271 671.585 82.6893 673.877 86.6969C678.231 90.5893 678.001 86.4667 682.124 86.2364C700.91 89.3231 692.433 85.6609 698.618 85.3156C704.804 84.9703 708.467 76.4948 710.644 78.441C714.882 80.2721 717.059 82.2183 719.006 80.0419C721.067 79.9268 721.182 81.9881 725.191 79.6966C735.269 74.9984 733.438 79.2361 739.393 74.7682C747.41 70.1851 743.286 70.4153 749.586 72.1313L751.763 74.0775L753.825 73.9624L760.01 73.6171C762.072 73.502 761.957 71.4407 764.019 71.3256L768.142 71.0953C770.204 70.9802 769.859 64.7963 776.159 66.5123L778.221 66.3972C780.167 64.2207 786.813 72.1207 788.529 65.8216C794.83 67.5376 794.83 67.5376 796.776 65.3612C796.776 65.3612 802.847 62.9546 805.023 64.9008L809.147 64.6706C813.385 66.5017 815.332 64.3252 819.456 64.095C821.747 68.1026 827.933 67.7572 829.879 65.5808C836.18 67.2968 836.295 69.3581 838.241 67.1817C840.303 67.0666 844.542 68.8977 846.604 68.7826C853.019 72.5599 852.789 68.4373 857.027 70.2684L861.151 70.0382L863.212 69.9231C867.221 67.6315 866.876 61.4476 885.431 60.4116C897.802 59.721 889.44 58.1201 897.687 57.6596C899.979 61.6672 910.287 61.0916 916.242 56.6237C918.304 56.5086 918.419 58.5699 920.481 58.4548C922.543 58.3397 924.72 60.2859 926.781 60.1708C933.082 61.8868 932.851 57.7641 937.09 59.5953C939.152 59.4802 941.098 57.3037 943.275 59.2499C945.567 63.2575 949.46 58.9046 953.814 62.7971C960.229 66.5744 978.67 63.4771 986.917 63.0167C991.041 62.7864 988.864 60.8402 994.934 58.4336C998.942 56.142 998.942 56.142 1003.07 55.9118C1009.37 57.6278 1007.07 53.6203 1011.31 55.4514C1015.55 57.2825 1019.67 57.0523 1023.8 56.8221C1025.86 56.707 1027.92 56.5919 1027.81 54.5305C1036.17 56.1314 1048.42 53.3795 1050.49 53.2644C1052.43 51.0879 1056.67 52.919 1060.79 52.6888C1064.92 52.4586 1065.15 56.5813 1075.34 53.9444C1077.4 53.8293 1075.23 51.8831 1077.17 49.7067C1079.24 49.5916 1077.06 47.6453 1083.36 49.3613L1093.67 48.7858C1097.79 48.5556 1103.75 44.0876 1103.52 39.965C1107.64 39.7348 1116.23 45.4583 1134.1 32.0544C1136.16 31.9393 1142.69 37.7779 1146.58 33.4251C1150.59 31.1336 1152.77 33.0798 1154.6 28.842C1156.43 24.6043 1158.38 22.4278 1162.73 26.3203C1167.08 30.2127 1168.92 25.9749 1173.27 29.8674C1177.62 33.7598 1179.57 31.5834 1189.88 31.0079L1196.06 30.6625C1202.36 32.3785 1215.08 37.8719 1214.39 25.5039L1222.64 25.0435C1228.48 18.5142 1262.62 37.2857 1265.59 16.4423C1275.67 11.7441 1271.08 3.72902 1277.27 3.3837Z" fill="#272727" fill-opacity="0.3"/>
<path fill-rule="evenodd" clip-rule="evenodd" d="M1277.85 7.31452C1277.99 8.13563 1278.14 8.97776 1277.27 9.02628C1274.44 9.18423 1273.86 10.947 1273.11 13.2631C1272.21 16.0102 1271.06 19.5358 1265.59 22.0849C1263.72 35.153 1249.61 32.649 1237.9 30.5715C1230.93 29.3355 1224.82 28.2504 1222.64 30.6861L1214.39 31.1465C1215 42.0734 1205.15 39.0587 1198.5 37.0245C1197.62 36.7563 1196.8 36.505 1196.06 36.3051L1189.88 36.6504C1186.79 36.8227 1184.46 37.1383 1182.58 37.3917C1178.19 37.9851 1176.32 38.2375 1173.27 35.51C1171.09 33.5637 1169.55 33.6501 1168 33.7364C1166.45 33.8227 1164.91 33.9091 1162.73 31.9628C1158.38 28.0704 1156.43 30.2468 1154.6 34.4846C1153.47 37.1037 1152.2 37.3607 1150.46 37.7158C1149.38 37.9354 1148.11 38.1924 1146.58 39.0677C1143.85 42.1254 1139.81 40.1541 1136.94 38.7502C1135.72 38.1556 1134.71 37.6627 1134.1 37.697C1119.75 48.4635 1111.38 46.8892 1106.51 45.9721C1105.31 45.7475 1104.33 45.5623 1103.52 45.6076C1103.75 49.7302 1097.79 54.1982 1093.67 54.4284L1083.36 55.0039C1079.16 53.8599 1078.73 54.3436 1078.29 54.8272C1078.08 55.069 1077.86 55.3109 1077.17 55.3492C1076.2 56.4374 1076.26 57.4681 1076.3 58.2411C1076.34 59.0141 1076.37 59.5294 1075.34 59.587C1068.72 61.2989 1066.31 60.1617 1064.29 59.2163C1063.21 58.7055 1062.24 58.2507 1060.79 58.3314C1059.33 58.413 1057.86 58.2358 1056.48 58.0698C1053.96 57.7672 1051.74 57.5015 1050.49 58.9069C1050.05 58.9314 1049.15 59.0752 1047.92 59.271C1043.39 59.9958 1034.39 61.4335 1027.81 60.1731C1027.92 62.2344 1025.86 62.3495 1023.8 62.4647C1019.67 62.6949 1015.55 62.9251 1011.31 61.094C1009.33 60.2363 1008.78 60.6595 1008.1 61.1756C1007.34 61.7613 1006.42 62.4667 1003.07 61.5544C998.942 61.7846 998.942 61.7846 994.934 64.0762C991.899 65.2795 990.925 66.3677 990.195 67.1839C989.465 68 988.979 68.5441 986.917 68.6592C985.084 68.7615 982.748 68.9941 980.153 69.2524C971.068 70.1567 958.804 71.3776 953.814 68.4396C951.637 66.4934 949.576 66.6085 947.772 66.7092C945.967 66.8099 944.421 66.8963 943.275 64.8925C941.824 63.595 940.475 64.1298 939.126 64.6646C938.452 64.9321 937.777 65.1995 937.09 65.2378C935.077 64.3684 934.072 64.8412 932.897 65.394C931.598 66.0054 930.09 66.7146 926.781 65.8134C925.75 65.8709 924.691 65.4131 923.631 64.9554C922.572 64.4976 921.512 64.0398 920.481 64.0974C919.45 64.1549 918.906 63.6684 918.362 63.1818C917.818 62.6953 917.273 62.2087 916.242 62.2663C910.287 66.7342 899.979 67.3098 897.687 63.3022C893.98 63.5092 893.629 63.9466 893.242 64.4281C892.768 65.0179 892.241 65.674 885.431 66.0542C871.515 66.8312 868.23 70.5039 865.766 73.2584C864.945 74.1766 864.215 74.9928 863.213 75.5656L861.151 75.6808L857.027 75.911C855.228 75.1338 854.234 75.4291 853.196 75.7378C851.787 76.1563 850.296 76.5993 846.604 74.4252C845.573 74.4827 843.997 74.0537 842.422 73.6247C840.847 73.1957 839.272 72.7667 838.241 72.8243C837.059 74.1467 836.552 73.9046 834.923 73.1259C833.871 72.6232 832.351 71.8967 829.879 71.2234C827.933 73.3998 821.747 73.7451 819.456 69.7376C817.995 69.8192 816.807 70.1449 815.694 70.4503C813.665 71.0069 811.884 71.4956 809.147 70.3131L805.023 70.5433C802.847 68.5971 796.776 71.0038 796.776 71.0038C794.83 73.1802 794.83 73.1802 788.529 71.4642C787.496 75.2568 784.676 73.9021 782.17 72.6986C780.514 71.9031 778.995 71.1737 778.221 72.0397L776.159 72.1548C772.026 71.0292 770.753 73.3029 769.784 75.033C769.276 75.9404 768.851 76.6983 768.142 76.7379L764.019 76.9681C762.988 77.0257 762.501 77.5698 762.014 78.1139C761.528 78.658 761.041 79.2021 760.01 79.2597L753.825 79.605L751.763 79.7201L749.586 77.7739C746.809 77.0173 746.057 76.5496 745.398 76.6558C744.562 76.7905 743.875 77.8482 739.393 80.4107C736.415 82.6447 735.384 82.7023 733.838 82.7886C732.292 82.8749 730.23 82.99 725.191 85.3391C722.518 86.8668 721.577 86.4599 720.635 86.053C720.164 85.8495 719.693 85.6461 719.006 85.6845C717.486 87.3838 715.825 86.5698 713.153 85.2598C712.403 84.8919 711.573 84.485 710.643 84.0836C709.648 83.1933 708.341 84.4837 706.624 86.1791C704.588 88.19 701.974 90.7708 698.618 90.9582C696.474 91.0779 696.092 91.5963 695.725 92.0939C695.034 93.0316 694.397 93.8956 682.124 91.879C680.549 91.9669 679.61 92.6228 678.807 93.1829C677.508 94.0893 676.568 94.7451 673.877 92.3394C672.607 90.1183 671.478 90.43 670.003 90.8374C668.816 91.1651 667.405 91.5548 665.515 90.7386L663.454 90.8537C662.423 90.9112 659.874 91.5704 657.326 92.2296C654.778 92.8888 652.229 93.5481 651.198 93.6056C642.836 92.0047 636.536 90.2887 636.536 90.2887L630.351 90.6341C629.122 89.5357 628.624 89.7137 626.22 90.5718C624.364 91.2343 621.373 92.3022 616.033 93.5011C611.91 93.7313 607.786 93.9615 605.84 96.138C603.893 98.3144 599.77 98.5446 597.708 98.6597C597.708 98.6597 595.761 100.836 591.638 101.066C579.37 102.702 575.307 102.568 572.317 102.47C568.803 102.355 566.771 102.288 554.642 105.2C549.811 105.469 545.727 106.407 542.343 107.184C539.951 107.733 537.909 108.202 536.201 108.297L523.83 108.988C523.406 109.011 522.539 108.972 521.34 108.918C516.722 108.708 507.183 108.275 499.09 110.369L486.719 111.059C478.472 111.52 478.357 109.459 478.357 109.459C468.142 110.029 466.64 109.486 465.289 108.998C464.186 108.6 463.185 108.238 457.625 108.548C455.563 108.663 454.503 108.206 453.443 107.748C452.384 107.29 451.324 106.832 449.262 106.947L436.892 107.638C435.861 107.696 434.372 108.813 432.884 109.93C431.395 111.047 429.906 112.164 428.875 112.221L418.566 112.797C417.478 111.824 416.447 111.881 415.674 111.924C414.901 111.967 414.385 111.996 414.328 110.966C408.227 110.698 404.299 110.846 400.937 110.972C392.875 111.276 388.073 111.457 364.386 105.483C360.822 106.896 359.311 106.769 356.584 106.539C354.667 106.378 352.148 106.166 347.892 106.404C340.671 105.908 340.486 105.41 340.382 105.129C340.247 104.763 340.247 104.763 325.098 105.609L312.727 106.299C298.18 105.044 296.233 107.22 294.286 109.396C293.256 109.454 291.738 110.056 290.221 110.657C288.703 111.259 287.185 111.861 286.155 111.918L284.093 112.033C282.175 111.205 276.999 112.675 270.941 114.395C263.608 116.477 254.981 118.926 249.273 118.113L247.212 118.228L241.026 118.573C238.143 120.221 235.141 119.737 232.916 119.378C232.047 119.238 231.297 119.116 230.718 119.149C230.718 119.149 218.462 121.901 216.401 122.016C213.518 123.664 210.516 123.179 208.29 122.82C207.421 122.68 206.671 122.559 206.092 122.591C200.769 124.702 200.069 124.169 199.437 123.687C198.627 123.071 197.928 122.538 187.766 127.75C187.881 129.811 185.935 131.988 181.696 130.157C179.378 131.076 177.661 131.962 176.194 132.718C173.821 133.942 172.104 134.828 169.556 134.97C169.556 134.97 163.486 137.377 161.309 135.43C159.848 135.512 158.402 135.852 157.046 136.171C154.575 136.752 152.406 137.263 151 136.006C149.425 136.094 148.168 136.466 147.094 136.783C145.356 137.297 144.099 137.669 142.753 136.466C139.526 135.072 132.845 136.268 128.931 136.969C127.705 137.189 126.751 137.36 126.259 137.387C122.338 137.606 120.995 139.343 120.012 140.615C119.445 141.349 118.997 141.928 118.242 141.97C116.296 144.147 110.226 146.553 108.049 144.607C103.41 143.344 100.014 144.253 97.7225 144.866C96.9015 145.086 96.2223 145.267 95.6784 145.298C78.6964 147.314 72.7496 149.266 68.9629 150.509C65.4196 151.672 63.7677 152.214 56.7355 151.607L50.5503 151.953C49.926 151.988 49.2912 151.833 48.5982 151.665C47.0024 151.278 45.098 150.815 42.3033 152.413L40.2415 152.528C38.1798 152.643 36.6047 152.214 35.0296 151.785C33.4546 151.356 31.8795 150.927 29.8177 151.042C25.6943 151.273 25.6943 151.273 23.7476 153.449C22.9413 154.351 21.7417 154.565 20.3363 154.815C18.3488 155.17 15.9497 155.597 13.6691 158.147C10.8643 159.259 8.59689 160.934 6.56233 162.437C4.19369 164.187 2.1406 165.704 -0.0775789 165.828L-0.0780628 221.164L-13 222V437H1324V135.5L1279.92 138.352V6.15921C1277.47 5.09983 1277.66 6.18736 1277.85 7.31452Z" fill="white"/>
</g>
<defs>
<clipPath id="clip0">
<rect width="1280" height="352" fill="white"/>
</clipPath>
</defs>
</svg>
