<svg width="1280" height="311" viewBox="0 0 1280 311" fill="none" xmlns="http://www.w3.org/2000/svg">
<g clip-path="url(#clip0)">
<path d="M-10.973 270.87L-5.1066 182.813L-0.0546283 106.981C14.4436 103.008 4.93177 104.708 13.2576 98.6033C17.4095 96.5833 17.3874 98.6477 21.5392 96.6277C25.6911 94.6076 29.7985 96.7165 36.0152 94.7187C38.08 94.7409 50.5135 90.7452 52.5561 92.8318C54.5987 94.9184 58.7284 94.9628 60.7932 94.985L64.9228 95.0294L75.2471 95.1404C79.3767 95.1848 81.4637 93.1426 85.5934 93.187L95.9176 93.298C104.155 95.4512 108.24 99.6245 110.349 95.5178C110.371 93.4534 114.501 93.4978 118.631 93.5422C122.76 93.5866 129.022 87.46 145.54 87.6375C147.605 87.6597 151.713 89.7686 151.735 87.7041C153.822 85.6619 157.974 83.6419 160.038 83.6641C162.125 81.6219 168.298 83.7529 172.427 83.7973C174.492 83.8195 178.6 85.9283 178.6 85.9283C197.161 88.1925 184.794 85.9949 197.139 90.2569C199.204 90.2791 203.311 92.388 205.398 90.3457C209.572 86.2613 213.658 90.4345 217.809 88.4145C219.852 90.5011 221.917 90.5233 223.982 90.5455C223.982 90.5455 246.717 88.7253 250.802 92.8985C252.845 94.9851 256.996 92.9651 259.061 92.9873C294.119 97.4935 275.601 91.1005 316.876 93.6089L327.2 93.7199C327.2 93.7199 329.265 93.7421 331.308 95.8287L335.437 95.8731C337.524 93.8309 337.502 95.8953 345.761 95.9841C349.913 93.9641 356.063 98.1595 362.258 98.2261C364.301 100.313 368.408 102.422 370.473 102.444C372.538 102.466 370.451 104.508 378.688 106.661C386.925 108.815 389.034 104.708 393.142 106.817C411.57 121.467 415.788 113.254 421.938 117.45C424.003 117.472 430.175 119.603 430.198 117.538C432.307 113.432 434.35 115.518 438.501 113.498C453.022 107.461 459.15 113.72 469.563 105.574C471.65 103.531 473.692 105.618 479.887 105.685C512.924 106.04 496.45 101.733 515.033 101.933C523.293 102.022 521.228 102 523.315 99.9577C527.445 100.002 533.684 95.9398 535.748 95.962C537.813 95.9842 539.878 96.0064 541.965 93.9642C550.313 85.7953 552.289 94.0752 570.984 83.9529C581.264 88.1927 583.351 86.1505 589.545 86.2171C597.804 86.3059 593.697 84.1971 601.956 84.2859C606.086 84.3303 604.043 82.2437 608.173 82.2881C616.432 82.3769 610.282 78.1815 618.541 78.2703C618.564 76.2058 628.843 80.4457 628.843 80.4457L637.103 80.5345C645.34 82.6877 653.644 78.6476 661.881 80.8008L674.27 80.934C676.335 80.9562 686.637 83.1316 688.702 83.1538C694.896 83.2204 750.691 79.691 773.382 81.9996C781.619 84.1528 771.295 84.0418 794.008 84.286C798.138 84.3304 800.225 82.2882 804.332 84.397L810.527 84.4636L814.656 84.508C820.873 82.5102 822.894 86.6612 833.24 84.7078C837.37 84.7522 835.283 86.7944 839.412 86.8388L857.996 87.0386L864.19 87.1052C868.32 87.1496 874.492 89.2806 880.687 89.3472C891.011 89.4582 886.948 83.2206 913.746 87.638C922.006 87.7268 946.872 79.7355 955.087 83.9531C959.217 83.9975 963.325 86.1063 967.476 84.0863C971.628 82.0663 979.821 88.3483 990.167 86.3949C992.232 86.4171 994.275 88.5037 1000.49 86.5059L1017.01 86.6835C1019.08 86.7057 1021.14 86.7279 1023.18 88.8145L1025.25 88.8367C1033.51 88.9255 1033.46 93.0544 1037.59 93.0988C1049.98 93.232 1045.87 91.1231 1062.41 89.2363C1064.48 89.2585 1081.04 85.3073 1083.11 85.3295C1089.35 81.2673 1109.99 81.4893 1112.08 79.447C1116.19 81.5558 1118.3 77.4492 1122.43 77.4936C1122.43 77.4936 1124.47 79.5802 1126.56 77.538C1132.8 73.4758 1145.19 73.609 1147.23 75.6956C1151.34 77.8044 1188.57 72.0107 1194.76 72.0773C1200.94 74.2083 1198.87 74.1862 1203 74.2306C1229.89 70.3903 1281.79 67.3328 1285.92 67.3772L1280.77 144.706L1283 211C1278.87 210.956 1269.61 217.408 1263.39 219.405C1259.22 223.49 1255.11 221.381 1253.02 223.423C1250.94 225.465 1250.94 225.465 1246.81 225.421L1246.81 225.421C1242.68 225.377 1240.63 223.29 1236.5 223.246L1234.44 223.223C1230.29 225.243 1228.25 223.157 1226.18 223.135L1219.99 223.068C1205.55 220.848 1213.77 225.066 1180.71 226.775C1178.65 226.753 1174.49 228.773 1168.32 226.642C1166.28 224.555 1160.06 226.553 1157.97 228.595C1155.91 228.573 1155.87 232.702 1149.67 232.635C1147.61 232.613 1137.26 234.567 1133.15 232.458C1131.11 230.371 1129.02 232.413 1124.89 232.369C1122.85 230.282 1118.7 232.302 1114.57 232.258C1112.53 230.171 1106.31 232.169 1106.31 232.169C1102.18 232.125 1100.09 234.167 1093.88 236.165C1089.77 234.056 1087.68 236.098 1087.66 238.163C1068.99 246.22 1081.46 238.096 1069.03 242.092C1066.97 242.069 1062.86 239.961 1058.71 241.981C1056.64 241.958 1044.23 243.89 1044.23 243.89C1042.17 243.867 1038.06 241.759 1033.91 243.779L1027.71 243.712L1025.65 243.69C1015.35 241.514 994.609 249.55 990.501 247.441L988.436 247.419C986.371 247.397 982.22 249.417 980.155 249.395C978.068 251.437 975.981 253.479 961.549 251.259L949.16 251.126C922.317 250.838 942.965 251.06 926.469 248.818C916.145 248.707 916.167 246.642 909.95 248.64C877.024 237.963 881.109 242.136 860.483 239.85C860.505 237.785 858.418 239.827 856.376 237.741L846.051 237.63C843.987 237.608 839.813 241.692 837.748 241.67L825.359 241.537C821.229 241.492 821.251 239.428 817.122 239.383C804.733 239.25 815.079 237.297 796.495 237.097C796.495 237.097 796.518 235.033 788.258 234.944L775.869 234.811C765.523 236.764 753.156 234.566 751.091 234.544L738.702 234.411C734.573 234.367 728.356 236.364 720.096 236.276C697.339 240.16 709.772 236.165 682.907 237.94C678.778 237.896 676.691 239.938 676.691 239.938C674.626 239.916 670.496 239.872 668.409 241.914C666.322 243.956 662.192 243.912 658.063 243.867C645.651 245.798 645.629 247.863 643.587 245.776L637.392 245.71C637.392 245.71 631.22 243.579 622.983 241.425C620.918 241.403 612.636 243.379 610.571 243.357L608.507 243.334C604.399 241.226 602.29 245.332 600.269 241.181C596.184 237.008 596.14 241.137 592.01 241.092C573.471 236.764 581.686 240.981 575.491 240.915C569.297 240.848 565.078 249.062 563.036 246.975C558.928 244.866 556.886 242.779 554.799 244.822C552.734 244.799 552.756 242.735 548.604 244.755C538.236 248.773 540.345 244.666 534.106 248.729C525.802 252.769 529.932 252.813 523.76 250.682L521.717 248.595L519.652 248.573L513.458 248.507C511.393 248.484 511.371 250.549 509.306 250.527L505.176 250.482C503.111 250.46 503.045 256.653 496.872 254.522L494.808 254.5C492.721 256.542 486.615 248.218 484.483 254.389C478.311 252.258 478.311 252.258 476.224 254.3C476.224 254.3 470.007 256.298 467.965 254.211L463.835 254.167C459.728 252.058 457.641 254.1 453.511 254.056C451.49 249.905 445.296 249.838 443.209 251.881C437.037 249.75 437.059 247.685 434.972 249.727C432.907 249.705 428.799 247.596 426.735 247.574C420.584 243.379 420.54 247.508 416.433 245.399L412.303 245.354L410.238 245.332C406.086 247.352 406.02 253.545 387.436 253.346C375.047 253.212 383.284 255.366 375.025 255.277C373.004 251.126 362.68 251.015 356.441 255.077C354.377 255.055 354.399 252.99 352.334 252.968C350.269 252.946 348.226 250.859 346.162 250.837C339.989 248.706 339.945 252.835 335.837 250.726C333.773 250.704 331.686 252.746 329.643 250.66C327.623 246.509 323.448 250.593 319.363 246.42C313.213 242.224 294.607 244.089 286.348 244C282.218 243.956 284.261 246.042 278.044 248.04C273.892 250.06 273.892 250.06 269.763 250.016C263.59 247.885 265.611 252.036 261.503 249.927C257.396 247.818 253.267 247.774 249.138 247.729C247.073 247.707 245.008 247.685 244.986 249.75C236.749 247.596 224.338 249.528 222.273 249.505C220.186 251.548 216.078 249.439 211.949 249.394C207.819 249.35 207.863 245.221 197.517 247.175C195.452 247.152 197.495 249.239 195.408 251.281C193.343 251.259 195.385 253.346 189.213 251.215L178.889 251.104C174.759 251.059 168.52 255.121 168.476 259.25C164.346 259.206 156.154 252.924 137.437 265.11C135.372 265.088 129.244 258.828 125.07 262.913C120.918 264.933 118.876 262.846 116.766 266.953C114.657 271.06 112.57 273.102 108.485 268.929C104.4 264.755 102.29 268.862 98.2051 264.689C94.1198 260.515 92.0329 262.558 81.7087 262.447L75.5141 262.38C69.3418 260.249 57.0194 253.923 56.8862 266.309L48.6269 266.22C42.3659 272.347 9.55042 251.348 5.19883 271.947C-5.16979 275.965 -4.77855 270.936 -10.973 270.87Z" fill="#272727" fill-opacity="0.3"/>
<path fill-rule="evenodd" clip-rule="evenodd" d="M1280 0H5.29329e-05V101.507C-0.0180163 101.512 -0.0361237 101.517 -0.0542684 101.522L-5.10624 177.354L-10.9727 265.41C-8.71868 265.434 -7.33666 266.116 -5.99094 266.779C-3.6383 267.939 -1.39661 269.044 5.19919 266.488C7.92749 253.572 21.8446 257.009 33.391 259.861C40.261 261.557 46.2917 263.046 48.6273 260.761L56.8866 260.85C57.0042 249.906 66.6362 253.569 73.1355 256.041C73.9927 256.367 74.7953 256.672 75.5145 256.921L81.7091 256.987C84.7986 257.02 87.1505 256.861 89.0391 256.733C93.4613 256.432 95.3427 256.305 98.2054 259.229C100.248 261.316 101.797 261.332 103.345 261.349C104.894 261.366 106.443 261.382 108.485 263.469C112.571 267.642 114.658 265.6 116.767 261.493C118.07 258.955 119.348 258.783 121.115 258.545C122.206 258.397 123.485 258.225 125.07 257.453C128.003 254.584 131.899 256.819 134.674 258.411C135.849 259.086 136.823 259.644 137.437 259.651C152.471 249.862 160.715 251.989 165.518 253.228C166.694 253.532 167.664 253.782 168.476 253.791C168.521 249.662 174.76 245.6 178.889 245.644L189.213 245.755C193.328 247.176 193.792 246.722 194.256 246.268C194.488 246.041 194.72 245.814 195.408 245.822C196.452 244.801 196.463 243.768 196.471 242.994C196.479 242.22 196.485 241.704 197.517 241.715C204.234 240.447 206.572 241.742 208.515 242.819C209.565 243.401 210.5 243.919 211.949 243.935C213.412 243.951 214.872 244.225 216.241 244.483C218.735 244.952 220.925 245.365 222.273 244.046C222.712 244.051 223.619 243.967 224.855 243.853C229.429 243.431 238.501 242.595 244.986 244.29C245.008 242.226 247.073 242.248 249.138 242.27C253.268 242.314 257.395 242.359 261.503 244.468C263.427 245.455 264.006 245.07 264.713 244.6C265.515 244.066 266.481 243.423 269.763 244.556C273.892 244.601 273.892 244.601 278.043 242.581L278.044 242.581C281.152 241.582 282.196 240.561 282.978 239.795C283.761 239.029 284.283 238.518 286.348 238.541C288.183 238.56 290.529 238.484 293.136 238.398C302.261 238.1 314.579 237.697 319.363 240.96C321.405 243.047 323.47 243.069 325.277 243.089C327.084 243.108 328.632 243.125 329.643 245.2C331.004 246.591 332.386 246.147 333.767 245.703C334.458 245.481 335.149 245.259 335.837 245.267C337.787 246.268 338.822 245.863 340.031 245.39C341.368 244.866 342.92 244.259 346.161 245.378C347.194 245.389 348.221 245.916 349.247 246.443C350.274 246.97 351.301 247.498 352.334 247.509C353.366 247.52 353.877 248.041 354.387 248.563C354.898 249.085 355.409 249.606 356.441 249.618C362.68 245.555 373.004 245.666 375.025 249.817C378.737 249.857 379.117 249.444 379.534 248.989C380.046 248.432 380.616 247.813 387.436 247.886C401.373 248.036 404.895 244.59 407.537 242.005C408.417 241.143 409.2 240.378 410.238 239.873L412.303 239.895L416.432 239.939C418.176 240.834 419.187 240.606 420.244 240.367C421.677 240.043 423.194 239.7 426.734 242.115C427.767 242.126 429.31 242.658 430.853 243.191C432.396 243.724 433.939 244.257 434.971 244.268C436.239 243.027 436.729 243.302 438.302 244.187C439.318 244.759 440.787 245.585 443.209 246.421C445.296 244.379 451.49 244.445 453.51 248.596C454.973 248.612 456.18 248.366 457.311 248.135C459.372 247.715 461.182 247.346 463.835 248.707L467.964 248.752C470.007 250.839 476.224 248.841 476.224 248.841C478.311 246.798 478.311 246.798 484.483 248.929C485.766 245.214 488.49 246.753 490.91 248.121C492.51 249.024 493.977 249.853 494.807 249.04L496.872 249.063C500.921 250.461 502.342 248.277 503.424 246.615C503.991 245.743 504.465 245.015 505.176 245.023L509.305 245.067C510.338 245.078 510.86 244.568 511.381 244.057C511.903 243.546 512.425 243.036 513.457 243.047L519.652 243.114L521.717 243.136L523.759 245.222C526.48 246.162 527.199 246.679 527.864 246.616C528.707 246.538 529.463 245.528 534.106 243.269C537.225 241.238 538.257 241.249 539.806 241.266C541.355 241.282 543.42 241.304 548.604 239.296C551.372 237.949 552.285 238.417 553.197 238.886C553.654 239.12 554.11 239.355 554.798 239.362C556.428 237.768 558.03 238.69 560.61 240.175C561.334 240.592 562.135 241.053 563.035 241.515C563.97 242.47 565.359 241.269 567.185 239.692C569.351 237.821 572.13 235.419 575.491 235.455C577.639 235.478 578.054 234.987 578.453 234.514C579.205 233.625 579.898 232.805 592.01 235.633C593.587 235.65 594.568 235.058 595.407 234.552C596.763 233.734 597.744 233.143 600.269 235.722C601.389 238.022 602.536 237.786 604.036 237.478C605.241 237.23 606.675 236.935 608.506 237.875L610.571 237.897C611.603 237.908 614.19 237.42 616.777 236.932C619.363 236.443 621.95 235.955 622.982 235.966C631.219 238.119 637.392 240.25 637.392 240.25L643.586 240.317C644.739 241.494 645.248 241.35 647.704 240.653C649.599 240.116 652.655 239.249 658.062 238.408C662.192 238.452 666.322 238.496 668.409 236.454C670.496 234.412 674.625 234.456 676.69 234.479C676.69 234.479 678.777 232.436 682.907 232.481C695.256 231.665 699.302 232.068 702.278 232.365C705.777 232.713 707.8 232.915 720.096 230.816C724.934 230.868 729.072 230.204 732.499 229.654C734.923 229.265 736.991 228.933 738.702 228.951L751.091 229.085C751.516 229.089 752.379 229.186 753.571 229.32C758.165 229.836 767.654 230.902 775.869 229.351L788.259 229.484C796.518 229.573 796.496 231.637 796.496 231.637C806.726 231.747 808.189 232.389 809.504 232.965C810.578 233.436 811.553 233.864 817.122 233.924C819.187 233.946 820.214 234.473 821.24 235C822.267 235.528 823.294 236.055 825.359 236.077L837.748 236.21C838.78 236.221 840.34 235.206 841.9 234.19C843.459 233.175 845.019 232.159 846.052 232.17L856.376 232.281C857.397 233.324 858.43 233.336 859.204 233.344C859.978 233.352 860.494 233.358 860.483 234.39C866.553 235.063 870.482 235.176 873.845 235.273C881.91 235.506 886.713 235.645 909.951 243.18C913.6 242.007 915.1 242.235 917.805 242.645C919.708 242.933 922.206 243.312 926.469 243.358C934.178 244.406 933.776 244.915 933.898 245.19C934.038 245.504 934.861 245.513 949.16 245.667L961.549 245.8C975.981 248.02 978.068 245.977 980.155 243.935C981.187 243.946 982.741 243.447 984.296 242.947C985.85 242.448 987.404 241.948 988.436 241.96L990.501 241.982C992.36 242.936 997.622 241.814 1003.78 240.5C1011.24 238.91 1020.01 237.039 1025.65 238.23L1027.71 238.253L1033.91 238.319C1036.89 236.866 1039.86 237.549 1042.05 238.056C1042.91 238.253 1043.65 238.424 1044.23 238.43C1044.23 238.43 1056.64 236.499 1058.71 236.521C1061.69 235.068 1064.66 235.751 1066.85 236.257C1067.71 236.455 1068.45 236.626 1069.03 236.632C1074.48 234.88 1075.15 235.458 1075.74 235.981C1076.51 236.65 1077.17 237.228 1087.66 232.703C1087.68 230.639 1089.77 228.596 1093.88 230.705C1096.25 229.942 1098.02 229.173 1099.54 228.515C1101.99 227.452 1103.76 226.682 1106.31 226.71C1106.31 226.71 1112.53 224.712 1114.57 226.798C1116.03 226.814 1117.5 226.571 1118.87 226.343C1121.38 225.927 1123.57 225.562 1124.89 226.909C1126.47 226.926 1127.75 226.639 1128.84 226.393C1130.61 225.996 1131.89 225.709 1133.15 226.998C1136.28 228.604 1143.03 227.854 1146.98 227.415C1148.21 227.278 1149.18 227.171 1149.67 227.176C1153.6 227.218 1155.05 225.574 1156.12 224.37C1156.73 223.676 1157.22 223.128 1157.97 223.136C1160.06 221.094 1166.28 219.096 1168.32 221.182C1172.87 222.751 1176.31 222.07 1178.64 221.611C1179.48 221.446 1180.17 221.31 1180.71 221.316C1197.79 220.433 1203.85 218.88 1207.71 217.892C1211.33 216.967 1213.01 216.535 1219.99 217.609L1226.18 217.675C1226.81 217.682 1227.43 217.878 1228.11 218.092C1229.68 218.584 1231.55 219.172 1234.44 217.764L1236.51 217.786C1238.57 217.808 1240.11 218.341 1241.66 218.874C1243.2 219.407 1244.74 219.939 1246.81 219.962C1249.18 219.987 1250.19 219.998 1251.02 219.614C1251.63 219.331 1252.14 218.832 1253.02 217.964C1253.89 217.118 1255.1 216.984 1256.52 216.827C1258.52 216.606 1260.95 216.339 1263.39 213.946C1265.64 213.224 1268.66 211.981 1271.81 210.689C1277.36 208.406 1283.28 205.972 1285.92 206L1285.92 138.5V61.9177C1285.22 61.9101 1283.12 61.9927 1280 62.1541V0Z" fill="white"/>
</g>
<defs>
<clipPath id="clip0">
<rect width="1280" height="311" fill="white"/>
</clipPath>
</defs>
</svg>
