<svg width="1280" height="272" viewBox="0 0 1280 272" fill="none" xmlns="http://www.w3.org/2000/svg">
<g clip-path="url(#clip0)">
<path fill-rule="evenodd" clip-rule="evenodd" d="M-10.0126 272L1284.31 272L1284.31 169.357C1284.33 169.352 1284.35 169.347 1284.37 169.342L1289.48 92.6611L1295.41 3.61902C1293.13 3.59451 1291.73 2.90564 1290.37 2.23486C1287.99 1.06222 1285.73 -0.0551461 1279.06 2.52933C1276.3 15.5892 1262.22 12.114 1250.55 9.23083C1243.6 7.51538 1237.5 6.00946 1235.14 8.32046L1226.79 8.23068C1226.67 19.2964 1216.93 15.5924 1210.36 13.093C1209.49 12.7634 1208.68 12.4548 1207.95 12.2037L1201.69 12.1363C1198.57 12.1027 1196.19 12.2642 1194.28 12.3938C1189.81 12.6972 1187.9 12.8263 1185.01 9.86925C1182.94 7.75927 1181.38 7.74242 1179.81 7.72561C1178.25 7.70879 1176.68 7.69195 1174.61 5.58196C1170.48 1.36202 1168.37 3.42711 1166.24 7.5797C1164.92 10.1461 1163.63 10.3205 1161.84 10.5615C1160.74 10.7104 1159.45 10.8847 1157.84 11.6649C1154.88 14.5662 1150.94 12.3059 1148.13 10.6963C1146.94 10.0145 1145.96 9.44942 1145.34 9.44274C1130.14 19.3411 1121.8 17.1903 1116.94 15.9374C1115.75 15.6304 1114.77 15.3774 1113.95 15.3686C1113.91 19.5436 1107.6 23.6513 1103.42 23.6064L1092.98 23.4942C1088.82 22.0576 1088.35 22.5165 1087.88 22.9754C1087.65 23.2049 1087.41 23.4343 1086.72 23.4268C1085.66 24.4593 1085.65 25.5031 1085.64 26.2859C1085.64 27.0688 1085.63 27.5906 1084.59 27.5794C1077.79 28.8618 1075.43 27.5519 1073.46 26.4629C1072.4 25.8745 1071.46 25.3505 1069.99 25.3348C1068.51 25.3189 1067.04 25.041 1065.65 24.7806C1063.13 24.3058 1060.92 23.889 1059.55 25.2225C1059.11 25.2178 1058.19 25.3023 1056.94 25.4175C1052.32 25.844 1043.14 26.6898 1036.59 24.9756C1036.56 27.0631 1034.47 27.0407 1032.39 27.0182C1028.21 26.9733 1024.04 26.9285 1019.88 24.796C1017.94 23.7973 1017.35 24.1871 1016.64 24.6625C1015.83 25.2021 1014.85 25.8518 1011.53 24.7062C1009.55 24.685 1008.51 24.6738 1007.52 24.8848C1006.41 25.1194 1005.37 25.6286 1003.16 26.704C1000.01 27.7141 998.959 28.7466 998.168 29.521C997.377 30.2954 996.849 30.8117 994.761 30.7892C992.905 30.7693 990.533 30.8469 987.896 30.9331C978.67 31.2348 966.213 31.6422 961.376 28.3425C959.311 26.2326 957.223 26.2101 955.396 26.1905C953.569 26.1709 952.003 26.154 950.982 24.0553C949.605 22.6486 948.208 23.0975 946.811 23.5465C946.112 23.7709 945.414 23.9954 944.718 23.9879C942.746 22.9754 941.7 23.3849 940.477 23.8636C939.125 24.3932 937.556 25.0074 934.278 23.8757C933.234 23.8645 932.196 23.3313 931.157 22.7982C930.119 22.2651 929.081 21.732 928.037 21.7208C926.993 21.7096 926.476 21.1821 925.96 20.6546C925.444 20.1271 924.927 19.5996 923.883 19.5884C917.575 23.6961 907.135 23.5839 905.092 19.3864C901.338 19.346 900.954 19.7637 900.531 20.2236C900.014 20.7868 899.438 21.4133 892.542 21.3392C878.448 21.1877 874.887 24.6725 872.216 27.2861C871.325 28.1573 870.534 28.9317 869.484 29.4424L867.396 29.4199L863.221 29.375C861.458 28.47 860.435 28.7011 859.366 28.9427C857.917 29.2703 856.383 29.6171 852.803 27.1753C851.759 27.164 850.199 26.6253 848.639 26.0866C847.078 25.5479 845.518 25.0092 844.474 24.9979C843.192 26.2528 842.697 25.9744 841.106 25.0793C840.078 24.5013 838.594 23.6661 836.145 22.8206C834.034 24.8857 827.77 24.8184 825.727 20.6209C824.248 20.605 823.028 20.8539 821.884 21.0871C819.8 21.5123 817.97 21.8856 815.288 20.5086L811.112 20.4637C809.046 18.3538 802.76 20.3739 802.76 20.3739C800.65 22.439 800.65 22.439 794.408 20.2842C793.111 24.0412 790.356 22.4849 787.909 21.1021C786.291 20.1882 784.808 19.3502 783.968 20.1719L781.881 20.1495C777.786 18.7359 776.349 20.9444 775.255 22.6249C774.681 23.5063 774.202 24.2424 773.484 24.2347L769.308 24.1898C768.264 24.1786 767.736 24.6949 767.209 25.2111C766.681 25.7274 766.154 26.2437 765.11 26.2325L758.846 26.1651L756.758 26.1427L754.692 24.0327C751.941 23.0827 751.214 22.5602 750.542 22.6231C749.689 22.7028 748.925 23.7238 744.23 26.008C741.076 28.0618 740.032 28.0506 738.466 28.0338C736.9 28.0169 734.812 27.9945 729.57 30.0259C726.771 31.3876 725.848 30.9138 724.925 30.4399C724.463 30.203 724.002 29.966 723.306 29.9586C721.658 31.5709 720.038 30.6381 717.43 29.1367C716.697 28.7151 715.887 28.2487 714.977 27.7812C714.032 26.8161 712.627 28.0302 710.78 29.6254C708.59 31.5175 705.78 33.9456 702.382 33.9091C700.21 33.8858 699.79 34.3831 699.386 34.8605C698.626 35.7602 697.925 36.5891 685.678 33.7295C684.083 33.7124 683.091 34.3109 682.243 34.8221C680.872 35.6493 679.879 36.2478 677.326 33.6397C676.194 31.3133 675.034 31.5519 673.518 31.8638C672.298 32.1147 670.848 32.413 668.997 31.4624L666.909 31.44C665.865 31.4287 663.249 31.9226 660.634 32.4164C658.018 32.9102 655.403 33.404 654.359 33.3928C646.03 31.2155 639.788 29.0606 639.788 29.0606L633.524 28.9933C632.359 27.8026 631.844 27.9486 629.361 28.6529C627.444 29.1966 624.354 30.0729 618.886 30.9237C614.71 30.8788 610.534 30.8339 608.424 32.899C606.314 34.964 602.138 34.9191 600.05 34.8967C600.05 34.8967 597.939 36.9618 593.764 36.9169C581.276 37.7423 577.185 37.3346 574.175 37.0345C570.637 36.6818 568.592 36.4779 556.158 38.6003C551.266 38.5477 547.082 39.2192 543.616 39.7754C541.166 40.1687 539.074 40.5044 537.344 40.4858L524.816 40.3511C524.386 40.3465 523.514 40.2485 522.309 40.1131C517.663 39.5912 508.067 38.5134 499.761 40.0817L487.233 39.9471C478.881 39.8573 478.903 37.7697 478.903 37.7697C468.559 37.6585 467.079 37.0099 465.749 36.4268C464.664 35.9507 463.677 35.5183 458.046 35.4578C455.958 35.4353 454.92 34.9022 453.882 34.3691C452.843 33.836 451.805 33.3029 449.717 33.2804L437.189 33.1458C436.145 33.1345 434.568 34.1615 432.991 35.1884C431.414 36.2153 429.837 37.2422 428.793 37.231L418.353 37.1188C417.32 36.0638 416.276 36.0526 415.493 36.0441C414.71 36.0357 414.188 36.0301 414.2 34.9863C408.062 34.306 404.089 34.1913 400.689 34.0931C392.533 33.8576 387.676 33.7173 364.179 26.0975C360.488 27.2836 358.972 27.0538 356.236 26.639C354.312 26.3474 351.786 25.9643 347.475 25.9179C340.222 24.9322 340.07 24.4175 339.984 24.1266C339.872 23.7484 339.872 23.7484 324.53 23.5835L312.002 23.4488C297.409 21.2042 295.299 23.2692 293.189 25.3343C292.145 25.3231 290.573 25.8281 289.001 26.3332C287.43 26.8382 285.858 27.3432 284.814 27.332L282.726 27.3096C280.847 26.3448 275.526 27.4797 269.298 28.8082C261.759 30.4161 252.891 32.3076 247.186 31.103L245.098 31.0806L238.835 31.0132C235.815 32.4823 232.819 31.7917 230.598 31.2798C229.73 31.0799 228.981 30.9073 228.395 30.901C228.395 30.901 215.845 32.8538 213.757 32.8314C210.737 34.3004 207.741 33.6099 205.52 33.0979C204.653 32.8981 203.903 32.7254 203.317 32.7191C197.805 34.4906 197.135 33.9061 196.529 33.3778C195.754 32.7011 195.084 32.1166 184.481 36.6921C184.458 38.7796 182.348 40.8447 178.194 38.7123C175.793 39.4839 174.002 40.2621 172.471 40.9268C169.995 42.0022 168.203 42.7804 165.622 42.7526C165.622 42.7526 159.336 44.7728 157.27 42.6628C155.791 42.6469 154.309 42.893 152.92 43.1236C150.387 43.544 148.164 43.9131 146.83 42.5506C145.235 42.5335 143.942 42.8241 142.837 43.0724C141.049 43.4742 139.755 43.7649 138.479 42.4608C135.316 40.837 128.495 41.5951 124.499 42.0392C123.248 42.1783 122.273 42.2866 121.775 42.2812C117.804 42.2385 116.332 43.9009 115.255 45.1179C114.633 45.8205 114.143 46.3747 113.378 46.3665C111.268 48.4316 104.982 50.4517 102.916 48.3418C98.3212 46.7553 94.8335 47.444 92.48 47.9087C91.6369 48.0752 90.9394 48.213 90.3887 48.2071C73.1191 49.0999 66.9877 50.6697 63.0835 51.6693C59.4303 52.6046 57.7272 53.0406 50.6729 51.9556L44.409 51.8882C43.7768 51.8814 43.1466 51.6833 42.4588 51.4669C40.8748 50.9688 38.9844 50.3743 36.0572 51.7984L33.9693 51.776C31.8814 51.7536 30.3211 51.2148 28.7608 50.6761C27.2004 50.1374 25.6401 49.5987 23.552 49.5762C21.1506 49.5504 20.1302 49.5395 19.2952 49.9275C18.6783 50.2143 18.1625 50.7189 17.2657 51.5964C16.3915 52.4518 15.1668 52.587 13.732 52.7454C12.0508 52.931 10.0812 53.1484 8.04899 54.5936L-10.0125 54.5936L-10.0125 62.215C-12.5268 63.107 -14.6739 63.7083 -16 63.6941L-15.9981 131.95L-15.9981 209.389C-15.2861 209.397 -13.1692 209.313 -10.0125 209.15L-10.0126 272Z" fill="white"/>
</g>
<defs>
<clipPath id="clip0">
<rect width="1280" height="272" fill="white"/>
</clipPath>
</defs>
</svg>
