<svg width="1280" height="347" viewBox="0 0 1280 347" fill="none" xmlns="http://www.w3.org/2000/svg">
<g clip-path="url(#clip0)">
<path fill-rule="evenodd" clip-rule="evenodd" d="M1277.93 2.58673C1278.07 3.40784 1278.22 4.24998 1277.35 4.29849C1274.52 4.45645 1273.94 6.21923 1273.18 8.53528C1272.29 11.2824 1271.13 14.808 1265.67 17.3571C1263.8 30.4252 1249.69 27.9212 1237.98 25.8438C1231.01 24.6077 1224.89 23.5226 1222.71 25.9583L1214.47 26.4187C1215.08 37.3456 1205.22 34.3309 1198.57 32.2967C1197.7 32.0285 1196.88 31.7773 1196.14 31.5773L1189.96 31.9226C1186.87 32.0949 1184.54 32.4105 1182.66 32.6639C1178.27 33.2573 1176.4 33.5098 1173.35 30.7822C1171.17 28.836 1169.62 28.9223 1168.08 29.0086C1166.53 29.0949 1164.99 29.1813 1162.81 27.2351C1158.46 23.3426 1156.51 25.5191 1154.68 29.7568C1153.55 32.3759 1152.28 32.6329 1150.53 32.9881C1149.46 33.2076 1148.19 33.4646 1146.66 34.3399C1143.93 37.3976 1139.89 35.4263 1137.01 34.0224C1135.8 33.4278 1134.79 32.935 1134.17 32.9692C1119.83 43.7357 1111.46 42.1614 1106.58 41.2443C1105.39 41.0197 1104.41 40.8345 1103.59 40.8798C1103.82 45.0024 1097.87 49.4704 1093.75 49.7006L1083.44 50.2761C1079.24 49.1321 1078.8 49.6158 1078.37 50.0994C1078.16 50.3413 1077.94 50.5831 1077.25 50.6214C1076.28 51.7097 1076.34 52.7403 1076.38 53.5133C1076.42 54.2863 1076.45 54.8016 1075.42 54.8592C1068.8 56.5711 1066.38 55.434 1064.37 54.4885C1063.29 53.9777 1062.32 53.5229 1060.87 53.6036C1059.41 53.6852 1057.94 53.5081 1056.55 53.342C1054.03 53.0394 1051.82 52.7737 1050.56 54.1792C1050.13 54.2036 1049.23 54.3474 1048 54.5432C1043.47 55.268 1034.47 56.7057 1027.89 55.4453C1028 57.5067 1025.94 57.6218 1023.88 57.7369C1019.75 57.9671 1015.63 58.1973 1011.39 56.3662C1009.41 55.5085 1008.85 55.9318 1008.18 56.4478C1007.41 57.0335 1006.49 57.7389 1003.14 56.8266C999.02 57.0568 999.02 57.0568 995.012 59.3484C991.977 60.5517 991.004 61.6399 990.274 62.4561C989.544 63.2722 989.057 63.8163 986.995 63.9314C985.163 64.0338 982.826 64.2663 980.231 64.5247C971.146 65.429 958.882 66.6498 953.892 63.7118C951.715 61.7656 949.654 61.8807 947.85 61.9814C946.046 62.0822 944.499 62.1685 943.353 60.1647C941.902 58.8673 940.553 59.4021 939.204 59.9369C938.53 60.2043 937.855 60.4717 937.168 60.51C935.156 59.6406 934.151 60.1134 932.976 60.6662C931.676 61.2776 930.168 61.9868 926.859 61.0856C925.829 61.1431 924.769 60.6854 923.709 60.2276C922.65 59.7698 921.59 59.312 920.559 59.3696C919.528 59.4271 918.984 58.9406 918.44 58.454C917.896 57.9675 917.351 57.4809 916.32 57.5385C910.365 62.0064 900.057 62.582 897.765 58.5744C894.058 58.7814 893.707 59.2188 893.32 59.7003C892.846 60.2901 892.32 60.9462 885.509 61.3264C871.593 62.1034 868.308 65.7761 865.844 68.5306C865.023 69.4488 864.293 70.265 863.291 70.8379L861.229 70.953L857.105 71.1832C855.306 70.406 854.312 70.7013 853.274 71.01C851.865 71.4285 850.374 71.8715 846.682 69.6974C845.651 69.7549 844.076 69.3259 842.501 68.8969C840.925 68.4679 839.35 68.0389 838.32 68.0965C837.137 69.419 836.63 69.1768 835.001 68.3982C833.949 67.8954 832.43 67.1689 829.957 66.4956C828.011 68.672 821.826 69.0174 819.534 65.0098C818.073 65.0914 816.885 65.4172 815.772 65.7225C813.743 66.2791 811.962 66.7678 809.225 65.5854L805.102 65.8156C802.925 63.8693 796.855 66.276 796.855 66.276C794.908 68.4524 794.908 68.4524 788.607 66.7364C787.574 70.529 784.754 69.1743 782.248 67.9708C780.592 67.1753 779.073 66.4459 778.299 67.312L776.237 67.4271C772.104 66.3014 770.831 68.5751 769.862 70.3052C769.354 71.2126 768.93 71.9705 768.22 72.0101L764.097 72.2403C763.066 72.2979 762.579 72.842 762.093 73.3861C761.606 73.9302 761.119 74.4743 760.088 74.5319L753.903 74.8772L751.841 74.9923L749.665 73.0461C746.887 72.2895 746.135 71.8218 745.476 71.928C744.64 72.0627 743.953 73.1205 739.471 75.683C736.493 77.9169 735.463 77.9745 733.916 78.0608C732.37 78.1472 730.308 78.2623 725.269 80.6113C722.597 82.139 721.655 81.7321 720.713 81.3252C720.242 81.1218 719.771 80.9183 719.084 80.9567C717.564 82.656 715.904 81.8421 713.231 80.532C712.481 80.1641 711.651 79.7572 710.722 79.3558C709.726 78.4655 708.419 79.7559 706.702 81.4513C704.666 83.4622 702.052 86.043 698.696 86.2304C696.552 86.3501 696.17 86.8685 695.803 87.3661C695.112 88.3038 694.476 89.1678 682.203 87.1512C680.628 87.2392 679.688 87.895 678.885 88.4551C677.586 89.3615 676.646 90.0173 673.956 87.6117C672.685 85.3905 671.556 85.7022 670.081 86.1097C668.894 86.4374 667.483 86.827 665.593 86.0108L663.532 86.1259C662.501 86.1834 659.952 86.8426 657.404 87.5018C654.856 88.1611 652.307 88.8203 651.276 88.8778C642.914 87.2769 636.614 85.5609 636.614 85.5609L630.429 85.9063C629.2 84.8079 628.702 84.9859 626.298 85.8441C624.442 86.5065 621.451 87.5744 616.112 88.7733C611.988 89.0035 607.865 89.2338 605.918 91.4102C603.971 93.5866 599.848 93.8168 597.786 93.9319C597.786 93.9319 595.839 96.1084 591.716 96.3386C579.448 97.974 575.385 97.8406 572.395 97.7424C568.881 97.6269 566.849 97.5602 554.72 100.472C549.889 100.742 545.805 101.679 542.421 102.456C540.029 103.005 537.987 103.474 536.279 103.569L523.909 104.26C523.484 104.283 522.617 104.244 521.418 104.19C516.8 103.98 507.261 103.547 499.168 105.641L486.797 106.332C478.55 106.792 478.435 104.731 478.435 104.731C468.22 105.301 466.718 104.758 465.367 104.27C464.265 103.872 463.263 103.51 457.703 103.821C455.641 103.936 454.581 103.478 453.522 103.02C452.462 102.562 451.402 102.105 449.341 102.22L436.97 102.91C435.939 102.968 434.451 104.085 432.962 105.202C431.473 106.319 429.984 107.436 428.953 107.493L418.645 108.069C417.556 107.096 416.525 107.153 415.752 107.196C414.979 107.24 414.464 107.268 414.406 106.238C408.305 105.97 404.377 106.118 401.015 106.245C392.953 106.548 388.151 106.729 364.464 100.755C360.9 102.168 359.389 102.041 356.662 101.811C354.745 101.65 352.226 101.438 347.97 101.676C340.749 101.18 340.564 100.682 340.46 100.401C340.325 100.035 340.325 100.035 325.176 100.881L312.805 101.571C298.258 100.316 296.311 102.492 294.365 104.669C293.334 104.726 291.816 105.328 290.299 105.93C288.781 106.531 287.264 107.133 286.233 107.19L284.171 107.306C282.253 106.477 277.078 107.947 271.019 109.667C263.686 111.749 255.059 114.199 249.351 113.385L247.29 113.5L241.105 113.845C238.222 115.494 235.22 115.009 232.994 114.65C232.125 114.51 231.375 114.389 230.796 114.421C230.796 114.421 218.54 117.173 216.479 117.288C213.596 118.936 210.594 118.452 208.368 118.093C207.499 117.952 206.749 117.831 206.17 117.864C200.847 119.974 200.148 119.441 199.515 118.96C198.705 118.343 198.006 117.81 187.844 123.022C187.96 125.083 186.013 127.26 181.774 125.429C179.456 126.348 177.739 127.234 176.272 127.99C173.899 129.214 172.182 130.1 169.634 130.242C169.634 130.242 163.564 132.649 161.387 130.703C159.926 130.784 158.48 131.124 157.124 131.443C154.653 132.024 152.484 132.535 151.078 131.278C149.503 131.366 148.246 131.738 147.172 132.056C145.434 132.569 144.177 132.941 142.831 131.738C139.604 130.344 132.923 131.541 129.009 132.241C127.784 132.461 126.829 132.632 126.337 132.659C122.416 132.878 121.073 134.615 120.09 135.887C119.523 136.621 119.075 137.2 118.321 137.242C116.374 139.419 110.304 141.825 108.127 139.879C103.488 138.616 100.092 139.525 97.8006 140.138C96.9796 140.358 96.3004 140.54 95.7566 140.57C78.7745 142.586 72.8277 144.538 69.041 145.781C65.4977 146.944 63.8458 147.487 56.8136 146.88L50.6284 147.225C50.0042 147.26 49.3694 147.106 48.6764 146.937C47.0806 146.55 45.1762 146.088 42.3814 147.685L40.3197 147.8C38.2579 147.916 36.6829 147.487 35.1078 147.058C33.5327 146.629 31.9576 146.2 29.8959 146.315C25.7724 146.545 25.7724 146.545 23.8257 148.721C23.0194 149.623 21.8198 149.837 20.4144 150.087C18.427 150.442 16.0278 150.87 13.7472 153.419C10.9424 154.531 8.67503 156.206 6.64048 157.709C4.27182 159.459 2.21873 160.976 0.000546144 161.1L0 223.557L0.000545643 304.557C0.0247306 304.556 0.0505955 304.554 0.0781251 304.553V347.272H1280.08V124.772L1280 124.777V1.43142C1277.55 0.372047 1277.73 1.45958 1277.93 2.58673Z" fill="#1565E5"/>
</g>
<defs>
<clipPath id="clip0">
<rect width="1280" height="347" fill="white"/>
</clipPath>
</defs>
</svg>
