<svg width="1280" height="326" viewBox="0 0 1280 326" fill="none" xmlns="http://www.w3.org/2000/svg">
<g clip-path="url(#clip0)">
<path fill-rule="evenodd" clip-rule="evenodd" d="M2.07214 2.58673C1.9303 3.40784 1.78491 4.24998 2.65381 4.29849C5.48315 4.45645 6.05908 6.21923 6.81592 8.53528C7.7135 11.2824 8.86548 14.808 14.3339 17.3571C16.1976 30.4252 30.3124 27.9212 42.0228 25.8438C48.9904 24.6077 55.1067 23.5226 57.2852 25.9583L65.5321 26.4187C64.9221 37.3456 74.7762 34.3309 81.4254 32.2967C82.3024 32.0285 83.1235 31.7773 83.8577 31.5773L90.043 31.9226C93.1279 32.0949 95.464 32.4105 97.3398 32.6639C101.732 33.2573 103.601 33.5098 106.652 30.7822C108.829 28.836 110.375 28.9223 111.921 29.0086C113.468 29.0949 115.014 29.1813 117.191 27.2351C121.544 23.3426 123.491 25.5191 125.323 29.7568C126.455 32.3759 127.719 32.6329 129.465 32.9881C130.545 33.2076 131.808 33.4646 133.339 34.3399C136.074 37.3976 140.111 35.4263 142.985 34.0224C144.203 33.4278 145.212 32.9349 145.825 32.9692C160.175 43.7357 168.542 42.1614 173.416 41.2443C174.61 41.0197 175.594 40.8345 176.406 40.8798C176.176 45.0024 182.131 49.4704 186.254 49.7006L196.563 50.2761C200.763 49.1321 201.196 49.6158 201.628 50.0994C201.845 50.3413 202.061 50.5831 202.748 50.6214C203.722 51.7097 203.664 52.7403 203.621 53.5133C203.578 54.2863 203.549 54.8016 204.58 54.8592C211.198 56.5711 213.616 55.434 215.627 54.4885C216.713 53.9777 217.681 53.5229 219.127 53.6036C220.588 53.6852 222.063 53.5081 223.446 53.342C225.966 53.0394 228.179 52.7737 229.436 54.1792C229.874 54.2036 230.774 54.3474 231.999 54.5432C236.535 55.268 245.531 56.7057 252.115 55.4453C252 57.5067 254.062 57.6218 256.123 57.7369C260.247 57.9671 264.37 58.1973 268.609 56.3662C270.594 55.5085 271.147 55.9318 271.821 56.4478C272.586 57.0335 273.507 57.7389 276.856 56.8266C280.98 57.0568 280.98 57.0568 284.988 59.3484C288.023 60.5517 288.996 61.6399 289.726 62.4561C290.456 63.2722 290.943 63.8163 293.005 63.9314C294.837 64.0338 297.174 64.2663 299.769 64.5247C308.854 65.429 321.118 66.6498 326.108 63.7118C328.285 61.7656 330.346 61.8807 332.15 61.9814C333.954 62.0822 335.501 62.1685 336.647 60.1647C338.098 58.8673 339.447 59.4021 340.796 59.9369C341.47 60.2043 342.145 60.4717 342.832 60.51C344.844 59.6406 345.849 60.1134 347.024 60.6662C348.324 61.2776 349.832 61.9868 353.141 61.0856C354.171 61.1431 355.231 60.6854 356.291 60.2276C357.35 59.7698 358.41 59.312 359.441 59.3696C360.472 59.4271 361.016 58.9406 361.56 58.454C362.104 57.9675 362.649 57.4809 363.68 57.5385C369.635 62.0064 379.943 62.582 382.235 58.5744C385.942 58.7814 386.293 59.2188 386.68 59.7003C387.154 60.2901 387.68 60.9462 394.491 61.3264C408.407 62.1034 411.692 65.7761 414.156 68.5306C414.977 69.4488 415.707 70.265 416.709 70.8379L418.771 70.953L422.895 71.1832C424.694 70.406 425.688 70.7013 426.726 71.01C428.135 71.4285 429.626 71.8715 433.318 69.6974C434.349 69.7549 435.924 69.3259 437.499 68.8969C439.075 68.4679 440.65 68.0389 441.68 68.0965C442.863 69.419 443.37 69.1768 444.999 68.3982C446.051 67.8954 447.57 67.1689 450.043 66.4956C451.989 68.672 458.174 69.0174 460.466 65.0098C461.927 65.0914 463.115 65.4172 464.228 65.7225C466.257 66.2791 468.038 66.7678 470.775 65.5854L474.898 65.8156C477.075 63.8693 483.145 66.276 483.145 66.276C485.092 68.4524 485.092 68.4524 491.393 66.7364C492.426 70.529 495.246 69.1743 497.752 67.9708C499.408 67.1753 500.927 66.4459 501.701 67.312L503.763 67.4271C507.896 66.3014 509.169 68.5751 510.138 70.3052C510.646 71.2126 511.07 71.9705 511.78 72.0101L515.903 72.2403C516.934 72.2979 517.421 72.842 517.907 73.3861C518.394 73.9302 518.881 74.4743 519.912 74.5319L526.097 74.8772L528.159 74.9923L530.335 73.0461C533.113 72.2895 533.865 71.8218 534.524 71.928C535.36 72.0627 536.047 73.1205 540.529 75.683C543.507 77.9169 544.537 77.9745 546.084 78.0608C547.63 78.1471 549.692 78.2623 554.731 80.6113C557.403 82.139 558.345 81.7321 559.287 81.3252C559.758 81.1217 560.229 80.9183 560.916 80.9567C562.436 82.656 564.096 81.8421 566.769 80.532C567.519 80.1641 568.349 79.7572 569.278 79.3558C570.274 78.4655 571.581 79.7559 573.298 81.4513C575.334 83.4622 577.948 86.043 581.304 86.2304C583.448 86.3501 583.83 86.8685 584.197 87.3661C584.888 88.3038 585.524 89.1678 597.797 87.1512C599.372 87.2392 600.312 87.895 601.115 88.4551C602.414 89.3615 603.354 90.0173 606.044 87.6117C607.315 85.3905 608.444 85.7022 609.919 86.1097C611.106 86.4374 612.517 86.827 614.407 86.0108L616.468 86.1259C617.499 86.1834 620.048 86.8426 622.596 87.5018C625.144 88.1611 627.693 88.8203 628.724 88.8778C637.086 87.2769 643.386 85.5609 643.386 85.5609L649.571 85.9063C650.8 84.8079 651.298 84.9859 653.702 85.8441C655.558 86.5065 658.549 87.5744 663.888 88.7733C668.012 89.0035 672.135 89.2338 674.082 91.4102C676.029 93.5866 680.152 93.8168 682.214 93.9319C682.214 93.9319 684.161 96.1084 688.284 96.3386C700.552 97.974 704.615 97.8406 707.605 97.7423C711.119 97.6269 713.151 97.5602 725.28 100.472C730.111 100.742 734.195 101.679 737.579 102.456C739.971 103.005 742.013 103.474 743.721 103.569L756.091 104.26C756.516 104.283 757.383 104.244 758.582 104.19C763.2 103.98 772.739 103.547 780.832 105.641L793.203 106.332C801.45 106.792 801.565 104.731 801.565 104.731C811.78 105.301 813.282 104.758 814.633 104.27C815.735 103.872 816.737 103.51 822.297 103.821C824.359 103.936 825.419 103.478 826.478 103.02C827.538 102.562 828.598 102.105 830.659 102.22L843.03 102.91C844.061 102.968 845.549 104.085 847.038 105.202C848.527 106.319 850.016 107.436 851.047 107.493L861.355 108.069C862.444 107.096 863.475 107.153 864.248 107.196C865.021 107.24 865.536 107.268 865.594 106.238C871.695 105.97 875.623 106.118 878.985 106.245C887.047 106.548 891.849 106.729 915.536 100.755C919.1 102.168 920.611 102.041 923.338 101.811C925.255 101.65 927.774 101.438 932.03 101.676C939.251 101.18 939.436 100.682 939.54 100.401C939.675 100.035 939.675 100.035 954.824 100.881L967.195 101.571C981.742 100.316 983.689 102.492 985.635 104.669C986.666 104.726 988.184 105.328 989.701 105.93C991.219 106.531 992.736 107.133 993.767 107.19L995.829 107.306C997.747 106.477 1002.92 107.947 1008.98 109.667C1016.31 111.749 1024.94 114.199 1030.65 113.385L1032.71 113.5L1038.9 113.845C1041.78 115.494 1044.78 115.009 1047.01 114.65C1047.87 114.51 1048.63 114.389 1049.2 114.421C1049.2 114.421 1061.46 117.173 1063.52 117.288C1066.4 118.936 1069.41 118.452 1071.63 118.093C1072.5 117.952 1073.25 117.831 1073.83 117.864C1079.15 119.974 1079.85 119.441 1080.48 118.96C1081.29 118.343 1081.99 117.81 1092.16 123.022C1092.04 125.083 1093.99 127.26 1098.23 125.429C1100.54 126.348 1102.26 127.234 1103.73 127.99C1106.1 129.214 1107.82 130.1 1110.37 130.242C1110.37 130.242 1116.44 132.649 1118.61 130.703C1120.07 130.784 1121.52 131.124 1122.88 131.443C1125.35 132.024 1127.52 132.535 1128.92 131.278C1130.5 131.366 1131.75 131.738 1132.83 132.056C1134.57 132.569 1135.82 132.941 1137.17 131.738C1140.4 130.344 1147.08 131.541 1150.99 132.241C1152.22 132.461 1153.17 132.632 1153.66 132.659C1157.58 132.878 1158.93 134.615 1159.91 135.887C1160.48 136.621 1160.92 137.2 1161.68 137.242C1163.63 139.419 1169.7 141.825 1171.87 139.879C1176.51 138.616 1179.91 139.525 1182.2 140.138C1183.02 140.358 1183.7 140.54 1184.24 140.57C1201.23 142.586 1207.17 144.538 1210.96 145.781C1214.5 146.944 1216.15 147.487 1223.19 146.88L1229.37 147.225C1230 147.26 1230.63 147.106 1231.32 146.937C1232.92 146.55 1234.82 146.088 1237.62 147.685L1239.68 147.8C1241.74 147.916 1243.32 147.487 1244.89 147.058C1246.47 146.629 1248.04 146.2 1250.1 146.315C1254.23 146.545 1254.23 146.545 1256.17 148.721C1256.98 149.623 1258.18 149.837 1259.59 150.087C1261.57 150.442 1263.97 150.87 1266.25 153.419C1269.06 154.531 1271.32 156.206 1273.36 157.709C1275.73 159.459 1277.78 160.976 1280 161.1L1280 223.557L1280 304.557C1279.98 304.556 1279.95 304.554 1279.92 304.553V326.271H-0.078125V144.771L0.00231934 144.775V1.43142C2.45447 0.372047 2.26672 1.45958 2.07214 2.58673Z" fill="#FFEB26"/>
</g>
<defs>
<clipPath id="clip0">
<rect width="1280" height="326" fill="white"/>
</clipPath>
</defs>
</svg>
