<svg width="1280" height="220" viewBox="0 0 1280 220" fill="none" xmlns="http://www.w3.org/2000/svg">
<g clip-path="url(#clip0)">
<path d="M1289.08 217.535L1283.21 129.478L1278.16 53.6463C1263.66 49.6729 1273.17 51.3727 1264.85 45.2683C1260.7 43.2483 1260.72 45.3127 1256.57 43.2927C1252.41 41.2726 1248.31 43.3815 1242.09 41.3837C1240.03 41.4059 1227.59 37.4102 1225.55 39.4968C1223.51 41.5834 1219.38 41.6279 1217.31 41.65L1213.18 41.6944L1202.86 41.8054C1198.73 41.8498 1196.64 39.8076 1192.51 39.852L1182.19 39.963C1173.95 42.1162 1169.87 46.2895 1167.76 42.1828C1167.73 40.1184 1163.6 40.1628 1159.47 40.2072C1155.34 40.2516 1149.08 34.125 1132.56 34.3026C1130.5 34.3248 1126.39 36.4336 1126.37 34.3692C1124.28 32.3269 1120.13 30.3069 1118.07 30.3291C1115.98 28.2869 1109.81 30.4179 1105.68 30.4623C1103.61 30.4845 1099.51 32.5933 1099.51 32.5933C1080.94 34.8575 1093.31 32.66 1080.97 36.922C1078.9 36.9442 1074.79 39.053 1072.71 37.0108C1068.53 32.9263 1064.45 37.0996 1060.3 35.0795C1058.25 37.1662 1056.19 37.1884 1054.12 37.2106C1054.12 37.2106 1031.39 35.3903 1027.3 39.5636C1025.26 41.6502 1021.11 39.6301 1019.04 39.6523C983.986 44.1586 1002.5 37.7655 961.23 40.2739L950.906 40.3849C950.906 40.3849 948.841 40.4071 946.798 42.4937L942.669 42.5381C940.582 40.4959 940.604 42.5603 932.344 42.6491C928.193 40.6291 922.042 44.8246 915.848 44.8912C913.805 46.9778 909.698 49.0866 907.633 49.1088C905.568 49.131 907.655 51.1732 899.418 53.3264C891.181 55.4796 889.072 51.373 884.964 53.4818C866.536 68.1325 862.318 59.9192 856.168 64.1147C854.103 64.1369 847.93 66.2679 847.908 64.2035C845.799 60.0968 843.756 62.1834 839.604 60.1634C825.084 54.1256 818.956 60.3854 808.543 52.2388C806.456 50.1965 804.414 52.2832 798.219 52.3497C765.182 52.7049 781.656 48.3985 763.072 48.5983C754.813 48.6871 756.878 48.6649 754.791 46.6227C750.661 46.6671 744.422 42.6049 742.357 42.6271C740.293 42.6493 738.228 42.6715 736.141 40.6293C727.793 32.4604 725.817 40.7403 707.122 30.618C696.842 34.8578 694.755 32.8156 688.561 32.8822C680.301 32.971 684.409 30.8622 676.15 30.951C672.02 30.9954 674.063 28.9088 669.933 28.9532C661.674 29.042 667.824 24.8465 659.564 24.9353C659.542 22.8709 649.262 27.1108 649.262 27.1108L641.003 27.1996C632.766 29.3528 624.462 25.3127 616.225 27.4659L603.836 27.5991C601.771 27.6213 591.469 29.7968 589.404 29.819C583.21 29.8856 527.415 26.3561 504.724 28.6647C496.487 30.8179 506.81 30.7069 484.097 30.9511C479.967 30.9955 477.88 28.9533 473.773 31.0621L467.578 31.1287L463.449 31.1731C457.232 29.1753 455.212 33.3263 444.865 31.3729C440.736 31.4173 442.823 33.4596 438.693 33.504L420.109 33.7037L413.915 33.7703C409.785 33.8147 403.613 35.9457 397.418 36.0123C387.094 36.1233 391.157 29.8857 364.359 34.3031C356.1 34.3919 331.233 26.4007 323.018 30.6183C318.888 30.6627 314.781 32.7715 310.629 30.7515C306.477 28.7315 298.284 35.0135 287.938 33.0601C285.873 33.0823 283.83 35.1689 277.614 33.1711L261.095 33.3487C259.03 33.3709 256.965 33.3931 254.923 35.4797L252.858 35.5019C244.598 35.5907 244.643 39.7195 240.513 39.7639C228.124 39.8971 232.232 37.7883 215.691 35.9015C213.626 35.9237 197.063 31.9725 194.998 31.9947C188.759 27.9324 168.111 28.1544 166.024 26.1122C161.916 28.221 159.807 24.1144 155.678 24.1588C155.678 24.1588 153.635 26.2454 151.548 24.2032C145.309 20.141 132.92 20.2742 130.877 22.3608C126.77 24.4696 89.5363 18.6759 83.3418 18.7425C77.1695 20.8735 79.2343 20.8514 75.1046 20.8958C48.2174 17.0555 -3.68431 13.998 -7.81397 14.0424L-7.81396 90.6248L-7.81575 158.125C-3.68608 158.08 8.49654 164.073 14.7132 166.071C18.8873 170.155 22.9947 168.046 25.0818 170.088C27.1688 172.131 27.1688 172.131 31.2984 172.086L31.2985 172.086C35.4281 172.042 37.4708 169.955 41.6004 169.911L43.6653 169.889C47.8171 171.909 49.8598 169.822 51.9246 169.8L58.1191 169.733C72.5508 167.513 64.3359 171.731 97.3954 173.44C99.4602 173.418 103.612 175.438 109.784 173.307C111.827 171.22 118.044 173.218 120.131 175.261C122.196 175.238 122.24 179.367 128.434 179.301C130.499 179.278 140.846 181.232 144.953 179.123C146.996 177.036 149.083 179.079 153.212 179.034C155.255 176.948 159.407 178.968 163.537 178.923C165.579 176.837 171.796 178.834 171.796 178.834C175.926 178.79 178.013 180.832 184.229 182.83C188.337 180.721 190.424 182.763 190.446 184.828C209.118 192.886 196.641 184.761 209.074 188.757C211.139 188.735 215.246 186.626 219.398 188.646C221.463 188.624 233.874 190.555 233.874 190.555C235.939 190.533 240.046 188.424 244.198 190.444L250.393 190.377L252.458 190.355C262.76 188.18 283.497 196.215 287.604 194.106L289.669 194.084C291.734 194.062 295.886 196.082 297.951 196.06C300.038 198.102 302.125 200.144 316.556 197.925L328.945 197.791C355.788 197.503 335.14 197.725 351.636 195.483C361.96 195.372 361.938 193.307 368.155 195.305C401.081 184.628 396.996 188.801 417.622 186.515C417.6 184.45 419.687 186.492 421.73 184.406L432.054 184.295C434.119 184.273 438.293 188.357 440.358 188.335L452.747 188.202C456.876 188.157 456.854 186.093 460.984 186.048C473.373 185.915 463.026 183.962 481.61 183.762C481.61 183.762 481.588 181.698 489.847 181.609L502.236 181.476C512.583 183.429 524.95 181.231 527.015 181.209L539.404 181.076C543.533 181.032 549.75 183.029 558.009 182.941C580.767 186.825 568.334 182.83 595.199 184.605C599.328 184.561 601.415 186.603 601.415 186.603C603.48 186.581 607.61 186.537 609.697 188.579C611.784 190.621 615.914 190.577 620.043 190.532C632.454 192.464 632.477 194.528 634.519 192.441L640.714 192.375C640.714 192.375 646.886 190.244 655.123 188.091C657.188 188.068 665.47 190.044 667.534 190.022L669.599 190C673.707 187.891 675.816 191.997 677.836 187.846C681.922 183.673 681.966 187.802 686.096 187.758C704.635 183.429 696.42 187.647 702.614 187.58C708.809 187.513 713.027 195.727 715.07 193.64C719.177 191.531 721.22 189.445 723.307 191.487C725.372 191.465 725.35 189.4 729.502 191.42C739.87 195.438 737.761 191.331 744 195.394C752.304 199.434 748.174 199.478 754.346 197.347L756.389 195.26L758.454 195.238L764.648 195.172C766.713 195.149 766.735 197.214 768.8 197.192L772.93 197.147C774.995 197.125 775.061 203.318 781.234 201.187L783.298 201.165C785.385 203.207 791.491 194.883 793.622 201.054C799.795 198.923 799.795 198.923 801.882 200.965C801.882 200.965 808.099 202.963 810.141 200.876L814.271 200.832C818.378 198.723 820.465 200.765 824.595 200.721C826.615 196.57 832.81 196.503 834.897 198.546C841.069 196.415 841.047 194.35 843.134 196.392C845.199 196.37 849.307 194.261 851.371 194.239C857.521 190.044 857.566 194.173 861.673 192.064L865.803 192.019L867.868 191.997C872.02 194.017 872.086 200.211 890.67 200.011C903.059 199.878 894.822 202.031 903.081 201.942C905.101 197.791 915.426 197.68 921.664 201.742C923.729 201.72 923.707 199.656 925.772 199.633C927.837 199.611 929.879 197.525 931.944 197.502C938.117 195.371 938.161 199.5 942.268 197.391C944.333 197.369 946.42 199.411 948.463 197.325C950.483 193.174 954.657 197.258 958.743 193.085C964.893 188.889 983.498 190.754 991.758 190.665C995.887 190.621 993.845 192.707 1000.06 194.705C1004.21 196.725 1004.21 196.725 1008.34 196.681C1014.52 194.55 1012.5 198.701 1016.6 196.592C1020.71 194.483 1024.84 194.439 1028.97 194.395C1031.03 194.372 1033.1 194.35 1033.12 196.415C1041.36 194.261 1053.77 196.193 1055.83 196.17C1057.92 198.213 1062.03 196.104 1066.16 196.059C1070.29 196.015 1070.24 191.886 1080.59 193.84C1082.65 193.817 1080.61 195.904 1082.7 197.946C1084.76 197.924 1082.72 200.011 1088.89 197.88L1099.22 197.769C1103.35 197.724 1109.58 201.786 1109.63 205.915C1113.76 205.871 1121.95 199.589 1140.67 211.775C1142.73 211.753 1148.86 205.493 1153.04 209.578C1157.19 211.598 1159.23 209.511 1161.34 213.618C1163.45 217.725 1165.53 219.767 1169.62 215.594C1173.71 211.42 1175.81 215.527 1179.9 211.354C1183.99 207.18 1186.07 209.223 1196.4 209.112L1202.59 209.045C1208.76 206.914 1221.09 200.588 1221.22 212.974L1229.48 212.885C1235.74 219.012 1268.55 198.013 1272.91 218.612C1283.27 222.63 1282.88 217.601 1289.08 217.535Z" fill="#FFEB26"/>
<rect width="1280" height="129" fill="#FFEB26"/>
</g>
<defs>
<clipPath id="clip0">
<rect width="1280" height="220" fill="white"/>
</clipPath>
</defs>
</svg>
