<svg width="1280" height="347" viewBox="0 0 1280 347" fill="none" xmlns="http://www.w3.org/2000/svg">
<g clip-path="url(#clip0)">
<path fill-rule="evenodd" clip-rule="evenodd" d="M2.15027 344.685C2.00842 343.864 1.86304 343.022 2.73193 342.974C5.56128 342.816 6.13721 341.053 6.89404 338.737C7.79163 335.99 8.9436 332.464 14.412 329.915C16.2758 316.847 30.3905 319.351 42.101 321.428C49.0685 322.665 55.1848 323.75 57.3633 321.314L65.6102 320.854C65.0002 309.927 74.8544 312.941 81.5035 314.975C82.3805 315.244 83.2017 315.495 83.9358 315.695L90.1211 315.35C93.2061 315.177 95.5421 314.862 97.418 314.608C101.811 314.015 103.679 313.762 106.73 316.49C108.907 318.436 110.453 318.35 112 318.264C113.546 318.177 115.092 318.091 117.269 320.037C121.623 323.93 123.569 321.753 125.401 317.515C126.533 314.896 127.797 314.639 129.543 314.284C130.623 314.065 131.886 313.808 133.418 312.932C136.152 309.875 140.189 311.846 143.063 313.25C144.281 313.844 145.29 314.337 145.903 314.303C160.253 303.537 168.62 305.111 173.494 306.028C174.688 306.253 175.673 306.438 176.484 306.392C176.254 302.27 182.209 297.802 186.332 297.572L196.641 296.996C200.841 298.14 201.274 297.656 201.707 297.173C201.923 296.931 202.139 296.689 202.826 296.651C203.8 295.563 203.742 294.532 203.699 293.759C203.656 292.986 203.627 292.471 204.658 292.413C211.276 290.701 213.694 291.838 215.705 292.784C216.792 293.295 217.759 293.749 219.205 293.669C220.666 293.587 222.141 293.764 223.524 293.93C226.044 294.233 228.257 294.499 229.514 293.093C229.952 293.069 230.852 292.925 232.077 292.729C236.613 292.004 245.61 290.567 252.193 291.827C252.078 289.766 254.14 289.65 256.202 289.535C260.325 289.305 264.448 289.075 268.687 290.906C270.672 291.764 271.225 291.34 271.899 290.824C272.664 290.239 273.585 289.533 276.934 290.446C281.058 290.215 281.058 290.215 285.066 287.924C288.101 286.721 289.075 285.632 289.805 284.816C290.535 284 291.021 283.456 293.083 283.341C294.916 283.238 297.252 283.006 299.847 282.748C308.932 281.843 321.196 280.622 326.186 283.56C328.363 285.507 330.424 285.392 332.228 285.291C334.033 285.19 335.579 285.104 336.725 287.108C338.176 288.405 339.525 287.87 340.874 287.335C341.548 287.068 342.223 286.801 342.91 286.762C344.923 287.632 345.928 287.159 347.103 286.606C348.402 285.995 349.91 285.285 353.219 286.187C354.25 286.129 355.309 286.587 356.369 287.045C357.428 287.502 358.488 287.96 359.519 287.903C360.55 287.845 361.094 288.332 361.638 288.818C362.183 289.305 362.727 289.791 363.758 289.734C369.713 285.266 380.021 284.69 382.313 288.698C386.02 288.491 386.371 288.053 386.758 287.572C387.232 286.982 387.759 286.326 394.569 285.946C408.485 285.169 411.77 281.496 414.234 278.742C415.055 277.823 415.785 277.007 416.787 276.434L418.849 276.319L422.973 276.089C424.772 276.866 425.766 276.571 426.804 276.262C428.213 275.844 429.704 275.401 433.396 277.575C434.427 277.517 436.003 277.946 437.578 278.375C439.153 278.804 440.728 279.233 441.759 279.176C442.941 277.853 443.448 278.095 445.077 278.874C446.129 279.377 447.649 280.103 450.121 280.777C452.067 278.6 458.253 278.255 460.545 282.262C462.005 282.181 463.193 281.855 464.306 281.55C466.335 280.993 468.116 280.504 470.853 281.687L474.977 281.457C477.153 283.403 483.224 280.996 483.224 280.996C485.17 278.82 485.17 278.82 491.471 280.536C492.504 276.743 495.324 278.098 497.83 279.301C499.486 280.097 501.005 280.826 501.779 279.96L503.841 279.845C507.974 280.971 509.247 278.697 510.216 276.967C510.724 276.06 511.149 275.302 511.858 275.262L515.981 275.032C517.012 274.974 517.499 274.43 517.986 273.886C518.472 273.342 518.959 272.798 519.99 272.74L526.175 272.395L528.237 272.28L530.414 274.226C533.191 274.983 533.943 275.45 534.602 275.344C535.438 275.21 536.125 274.152 540.607 271.589C543.585 269.355 544.616 269.298 546.162 269.211C547.708 269.125 549.77 269.01 554.809 266.661C557.482 265.133 558.423 265.54 559.365 265.947C559.836 266.151 560.307 266.354 560.994 266.316C562.514 264.616 564.175 265.43 566.847 266.74C567.597 267.108 568.427 267.515 569.357 267.917C570.352 268.807 571.659 267.516 573.376 265.821C575.412 263.81 578.026 261.229 581.382 261.042C583.526 260.922 583.908 260.404 584.275 259.906C584.966 258.968 585.603 258.104 597.876 260.121C599.451 260.033 600.39 259.377 601.193 258.817C602.492 257.911 603.432 257.255 606.123 259.661C607.393 261.882 608.522 261.57 609.997 261.163C611.184 260.835 612.595 260.445 614.485 261.262L616.546 261.146C617.577 261.089 620.126 260.43 622.674 259.77C625.222 259.111 627.771 258.452 628.802 258.394C637.164 259.995 643.464 261.711 643.464 261.711L649.649 261.366C650.878 262.464 651.376 262.286 653.78 261.428C655.636 260.766 658.627 259.698 663.967 258.499C668.09 258.269 672.214 258.039 674.16 255.862C676.107 253.686 680.23 253.455 682.292 253.34C682.292 253.34 684.239 251.164 688.362 250.934C700.63 249.298 704.693 249.432 707.683 249.53C711.197 249.645 713.229 249.712 725.358 246.8C730.189 246.531 734.274 245.593 737.657 244.816C740.049 244.267 742.091 243.799 743.799 243.703L756.17 243.013C756.594 242.989 757.461 243.028 758.66 243.083C763.278 243.292 772.817 243.725 780.911 241.631L793.281 240.941C801.528 240.48 801.643 242.542 801.643 242.542C811.858 241.971 813.36 242.514 814.711 243.002C815.814 243.4 816.815 243.762 822.375 243.452C824.437 243.337 825.497 243.794 826.557 244.252C827.616 244.71 828.676 245.168 830.738 245.053L843.108 244.362C844.139 244.304 845.628 243.187 847.116 242.07C848.605 240.953 850.094 239.837 851.125 239.779L861.434 239.203C862.522 240.177 863.553 240.119 864.326 240.076C865.099 240.033 865.615 240.004 865.672 241.035C871.773 241.302 875.701 241.154 879.063 241.028C887.125 240.724 891.927 240.543 915.614 246.517C919.178 245.104 920.689 245.231 923.416 245.461C925.333 245.622 927.852 245.834 932.108 245.596C939.33 246.092 939.514 246.59 939.618 246.872C939.753 247.237 939.753 247.237 954.902 246.392L967.273 245.701C981.82 246.956 983.767 244.78 985.714 242.604C986.744 242.546 988.262 241.944 989.779 241.343C991.297 240.741 992.815 240.139 993.845 240.082L995.907 239.967C997.825 240.795 1003 239.326 1009.06 237.605C1016.39 235.523 1025.02 233.074 1030.73 233.887L1032.79 233.772L1038.97 233.427C1041.86 231.779 1044.86 232.263 1047.08 232.622C1047.95 232.763 1048.7 232.884 1049.28 232.851C1049.28 232.851 1061.54 230.099 1063.6 229.984C1066.48 228.336 1069.48 228.821 1071.71 229.18C1072.58 229.32 1073.33 229.441 1073.91 229.409C1079.23 227.298 1079.93 227.831 1080.56 228.313C1081.37 228.929 1082.07 229.462 1092.23 224.25C1092.12 222.189 1094.07 220.012 1098.3 221.844C1100.62 220.924 1102.34 220.039 1103.81 219.282C1106.18 218.058 1107.9 217.172 1110.44 217.03C1110.44 217.03 1116.51 214.624 1118.69 216.57C1120.15 216.488 1121.6 216.148 1122.95 215.829C1125.42 215.248 1127.59 214.737 1129 215.994C1130.57 215.906 1131.83 215.534 1132.91 215.217C1134.64 214.703 1135.9 214.331 1137.25 215.534C1140.47 216.928 1147.16 215.732 1151.07 215.031C1152.29 214.811 1153.25 214.64 1153.74 214.613C1157.66 214.394 1159 212.657 1159.99 211.385C1160.56 210.651 1161 210.072 1161.76 210.03C1163.7 207.853 1169.77 205.447 1171.95 207.393C1176.59 208.656 1179.99 207.748 1182.28 207.134C1183.1 206.915 1183.78 206.733 1184.32 206.702C1201.3 204.686 1207.25 202.734 1211.04 201.491C1214.58 200.328 1216.23 199.786 1223.26 200.393L1229.45 200.047C1230.07 200.013 1230.71 200.167 1231.4 200.335C1233 200.722 1234.9 201.185 1237.7 199.587L1239.76 199.472C1241.82 199.357 1243.4 199.786 1244.97 200.215C1246.55 200.644 1248.12 201.073 1250.18 200.958C1254.31 200.727 1254.31 200.727 1256.25 198.551C1257.06 197.65 1258.26 197.436 1259.66 197.185C1261.65 196.831 1264.05 196.403 1266.33 193.853C1269.14 192.741 1271.4 191.066 1273.44 189.563C1275.81 187.813 1277.86 186.296 1280.08 186.172L1280.08 123.715L1280.08 42.715C1280.05 42.7164 1280.03 42.7179 1280 42.7195L1280 0.000119777L3.02721e-05 7.87617e-06L1.08205e-05 222.5L0.0804552 222.495L0.0804444 345.841C2.53259 346.9 2.34485 345.813 2.15027 344.685Z" fill="white"/>
</g>
<defs>
<clipPath id="clip0">
<rect width="1280" height="347" fill="white"/>
</clipPath>
</defs>
</svg>
