<svg width="1280" height="274" viewBox="0 0 1280 274" fill="none" xmlns="http://www.w3.org/2000/svg">
<g clip-path="url(#clip0)">
<path fill-rule="evenodd" clip-rule="evenodd" d="M1294.67 0H-9.00003V105.206L-14.0251 180.634L-20 270.319C-17.7043 270.343 -16.2967 271.037 -14.9261 271.713C-12.5299 272.894 -10.2468 274.019 -3.52916 271.416C-0.750377 258.262 13.4241 261.762 25.1841 264.666C32.1811 266.394 38.3233 267.911 40.7021 265.583L49.1141 265.674C49.2339 254.528 59.044 258.259 65.6636 260.776C66.5366 261.108 67.3541 261.419 68.0866 261.672L74.3957 261.74C77.5423 261.774 79.9377 261.611 81.8612 261.481C86.3652 261.175 88.2814 261.045 91.1971 264.023C93.2776 266.149 94.8548 266.166 96.4321 266.182C98.0094 266.199 99.5867 266.216 101.667 268.342C105.828 272.592 107.953 270.512 110.102 266.329C111.429 263.744 112.731 263.569 114.53 263.326C115.642 263.176 116.944 263.001 118.559 262.215C121.545 259.292 125.514 261.569 128.34 263.19C129.537 263.877 130.529 264.446 131.155 264.453C146.466 254.483 154.863 256.649 159.754 257.911C160.952 258.221 161.94 258.475 162.768 258.484C162.813 254.279 169.167 250.142 173.373 250.187L183.888 250.3C188.079 251.747 188.552 251.285 189.024 250.823C189.26 250.591 189.496 250.36 190.197 250.368C191.26 249.328 191.271 248.277 191.28 247.488C191.288 246.7 191.294 246.174 192.346 246.185C199.187 244.894 201.568 246.213 203.547 247.31C204.616 247.903 205.569 248.43 207.044 248.446C208.534 248.462 210.021 248.742 211.415 249.004C213.956 249.483 216.187 249.902 217.559 248.559C218.006 248.564 218.931 248.479 220.189 248.363C224.847 247.933 234.087 247.081 240.692 248.808C240.715 246.705 242.818 246.728 244.921 246.751C249.127 246.796 253.331 246.841 257.514 248.989C259.474 249.995 260.064 249.602 260.784 249.123C261.601 248.58 262.585 247.925 265.927 249.079C267.919 249.101 268.967 249.112 269.968 248.899C271.081 248.663 272.135 248.15 274.361 247.067C277.527 246.05 278.59 245.01 279.387 244.23C280.184 243.45 280.716 242.93 282.819 242.952C284.688 242.972 287.078 242.894 289.733 242.807C299.026 242.503 311.573 242.093 316.444 245.417C318.525 247.542 320.628 247.564 322.468 247.584C324.308 247.604 325.885 247.621 326.914 249.735C328.301 251.152 329.708 250.7 331.115 250.247C331.819 250.021 332.522 249.795 333.223 249.803C335.21 250.823 336.263 250.41 337.495 249.928C338.857 249.395 340.437 248.776 343.738 249.916C344.79 249.927 345.836 250.464 346.882 251.001C347.928 251.538 348.973 252.075 350.025 252.086C351.076 252.098 351.596 252.629 352.117 253.16C352.637 253.691 353.157 254.223 354.208 254.234C360.563 250.097 371.078 250.21 373.135 254.438C376.917 254.478 377.303 254.057 377.729 253.594C378.25 253.027 378.83 252.396 385.776 252.471C399.972 252.623 403.559 249.113 406.249 246.481C407.146 245.603 407.943 244.823 409 244.309L411.103 244.331L415.309 244.377C417.084 245.288 418.115 245.055 419.191 244.812C420.651 244.482 422.196 244.133 425.801 246.592C426.853 246.604 428.425 247.146 429.996 247.689C431.568 248.231 433.139 248.774 434.191 248.785C435.482 247.522 435.981 247.802 437.584 248.703C438.618 249.286 440.114 250.127 442.58 250.978C444.706 248.898 451.015 248.966 453.073 253.194C454.563 253.21 455.792 252.959 456.944 252.724C459.043 252.296 460.887 251.92 463.588 253.307L467.794 253.352C469.874 255.478 476.206 253.443 476.206 253.443C478.332 251.363 478.332 251.363 484.618 253.533C485.925 249.749 488.7 251.317 491.165 252.709C492.794 253.63 494.288 254.474 495.133 253.646L497.236 253.669C501.36 255.093 502.808 252.868 503.91 251.176C504.487 250.288 504.97 249.546 505.694 249.554L509.9 249.599C510.951 249.611 511.482 249.091 512.014 248.571C512.545 248.051 513.077 247.531 514.128 247.542L520.437 247.61L522.54 247.632L524.621 249.758C527.392 250.715 528.124 251.241 528.801 251.177C529.66 251.097 530.43 250.069 535.158 247.768C538.336 245.699 539.387 245.711 540.964 245.728C542.542 245.745 544.645 245.767 549.925 243.721C552.744 242.35 553.674 242.827 554.603 243.304C555.068 243.543 555.533 243.781 556.234 243.789C557.893 242.165 559.526 243.105 562.153 244.617C562.89 245.041 563.706 245.511 564.623 245.982C565.575 246.954 566.99 245.731 568.85 244.125C571.055 242.219 573.886 239.773 577.309 239.81C579.496 239.833 579.92 239.332 580.326 238.852C581.092 237.945 581.798 237.111 594.133 239.991C595.74 240.008 596.739 239.405 597.593 238.89C598.974 238.057 599.974 237.454 602.546 240.081C603.686 242.424 604.854 242.184 606.382 241.87C607.61 241.617 609.07 241.317 610.935 242.274L613.038 242.297C614.09 242.308 616.724 241.811 619.358 241.313C621.993 240.816 624.627 240.319 625.679 240.33C634.068 242.523 640.355 244.693 640.355 244.693L646.664 244.761C647.838 245.961 648.356 245.813 650.857 245.104C652.788 244.556 655.9 243.674 661.407 242.817C665.613 242.862 669.82 242.907 671.945 240.827C674.071 238.747 678.277 238.793 680.38 238.815C680.38 238.815 682.505 236.735 686.712 236.78C699.289 235.949 703.409 236.36 706.441 236.662C710.005 237.017 712.065 237.223 724.588 235.085C729.516 235.138 733.73 234.461 737.221 233.901C739.689 233.505 741.796 233.167 743.538 233.186L756.156 233.321C756.59 233.326 757.468 233.425 758.682 233.561C763.362 234.087 773.026 235.172 781.393 233.593L794.012 233.728C802.424 233.819 802.401 235.921 802.401 235.921C812.821 236.033 814.31 236.687 815.65 237.274C816.744 237.754 817.737 238.189 823.409 238.25C825.512 238.273 826.557 238.81 827.603 239.347C828.649 239.884 829.695 240.42 831.798 240.443L844.416 240.579C845.468 240.59 847.056 239.556 848.645 238.521C850.233 237.487 851.822 236.453 852.873 236.464L863.389 236.577C864.429 237.64 865.48 237.651 866.269 237.659C867.058 237.668 867.583 237.674 867.572 238.725C873.753 239.41 877.756 239.526 881.181 239.625C889.395 239.862 894.286 240.003 917.954 247.678C921.671 246.483 923.198 246.715 925.954 247.132C927.891 247.426 930.437 247.812 934.778 247.859C942.083 248.852 942.237 249.37 942.323 249.663C942.436 250.044 942.436 250.044 957.889 250.21L970.507 250.346C985.205 252.607 987.331 250.527 989.457 248.447C990.508 248.458 992.091 247.949 993.674 247.44C995.257 246.932 996.84 246.423 997.891 246.434L999.994 246.457C1001.89 247.429 1007.25 246.286 1013.52 244.948C1021.11 243.328 1030.05 241.423 1035.79 242.636L1037.89 242.659L1044.2 242.727C1047.24 241.247 1050.26 241.942 1052.5 242.458C1053.37 242.659 1054.13 242.833 1054.72 242.84C1054.72 242.84 1067.36 240.873 1069.46 240.895C1072.5 239.416 1075.52 240.111 1077.76 240.627C1078.63 240.828 1079.39 241.002 1079.98 241.008C1085.53 239.224 1086.2 239.813 1086.81 240.345C1087.6 241.027 1088.27 241.615 1098.95 237.007C1098.97 234.904 1101.1 232.824 1105.28 234.972C1107.7 234.195 1109.5 233.411 1111.05 232.741C1113.54 231.658 1115.34 230.875 1117.94 230.902C1117.94 230.902 1124.28 228.868 1126.36 230.993C1127.85 231.009 1129.34 230.761 1130.74 230.529C1133.29 230.105 1135.53 229.734 1136.87 231.106C1138.48 231.123 1139.78 230.83 1140.89 230.58C1142.69 230.176 1144 229.883 1145.28 231.196C1148.47 232.832 1155.34 232.068 1159.36 231.621C1160.62 231.481 1161.61 231.372 1162.11 231.377C1166.11 231.42 1167.59 229.746 1168.67 228.52C1169.3 227.812 1169.8 227.254 1170.56 227.263C1172.69 225.183 1179.02 223.148 1181.1 225.273C1185.73 226.871 1189.24 226.177 1191.61 225.709C1192.46 225.541 1193.17 225.403 1193.72 225.409C1211.11 224.509 1217.29 222.928 1221.22 221.921C1224.9 220.979 1226.62 220.54 1233.72 221.633L1240.03 221.701C1240.67 221.708 1241.3 221.907 1242 222.125C1243.59 222.627 1245.5 223.226 1248.44 221.791L1250.55 221.814C1252.65 221.837 1254.22 222.379 1255.79 222.922C1257.37 223.464 1258.94 224.007 1261.04 224.03C1263.46 224.056 1264.49 224.067 1265.33 223.676C1265.95 223.387 1266.47 222.879 1267.37 221.995C1268.25 221.133 1269.49 220.997 1270.93 220.838C1272.62 220.651 1274.61 220.432 1276.65 218.976H1294.67V211.362C1297.28 210.429 1299.51 209.795 1300.88 209.81L1300.88 141.062V63.063C1300.15 63.0551 1297.95 63.1425 1294.67 63.3128V0Z" fill="white"/>
</g>
<defs>
<clipPath id="clip0">
<rect width="1280" height="274" fill="white"/>
</clipPath>
</defs>
</svg>
