<svg width="1280" height="272" viewBox="0 0 1280 272" fill="none" xmlns="http://www.w3.org/2000/svg">
<g clip-path="url(#clip0)">
<path fill-rule="evenodd" clip-rule="evenodd" d="M1289.42 0H-4.90433V102.643C-4.92263 102.648 -4.94097 102.653 -4.95935 102.658L-10.0678 179.339L-16 268.381C-13.7207 268.405 -12.3232 269.094 -10.9624 269.765C-8.58343 270.938 -6.31666 272.055 0.352877 269.471C3.11174 256.411 17.1846 259.886 28.8603 262.769C35.8071 264.485 41.9053 265.991 44.267 263.68L52.6187 263.769C52.7377 252.704 62.4775 256.408 69.0495 258.907C69.9163 259.237 70.7279 259.545 71.4551 259.796L77.7191 259.864C80.8432 259.897 83.2215 259.736 85.1311 259.606C89.6028 259.303 91.5053 259.174 94.4001 262.131C96.4656 264.241 98.0316 264.258 99.5976 264.274C101.164 264.291 102.73 264.308 104.795 266.418C108.926 270.638 111.036 268.573 113.169 264.42C114.487 261.854 115.78 261.68 117.566 261.439C118.67 261.29 119.962 261.115 121.566 260.335C124.531 257.434 128.471 259.694 131.276 261.304C132.465 261.986 133.45 262.551 134.071 262.557C149.273 252.659 157.609 254.81 162.465 256.063C163.655 256.37 164.636 256.623 165.457 256.631C165.502 252.456 171.811 248.349 175.987 248.394L186.427 248.506C190.588 249.942 191.057 249.483 191.526 249.025C191.76 248.795 191.995 248.566 192.691 248.573C193.746 247.541 193.757 246.497 193.765 245.714C193.774 244.931 193.779 244.409 194.823 244.421C201.616 243.138 203.979 244.448 205.945 245.537C207.006 246.126 207.952 246.649 209.417 246.665C210.896 246.681 212.372 246.959 213.756 247.219C216.279 247.694 218.494 248.111 219.856 246.777C220.3 246.782 221.218 246.698 222.467 246.582C227.092 246.156 236.266 245.31 242.824 247.024C242.846 244.937 244.934 244.959 247.022 244.982C251.198 245.027 255.372 245.072 259.525 247.204C261.471 248.203 262.057 247.813 262.771 247.337C263.583 246.798 264.559 246.148 267.877 247.294C269.855 247.315 270.896 247.326 271.89 247.115C272.995 246.881 274.041 246.371 276.251 245.296C279.395 244.286 280.45 243.253 281.241 242.479C282.033 241.705 282.56 241.188 284.648 241.211C286.504 241.231 288.877 241.153 291.513 241.067C300.74 240.765 313.196 240.358 318.033 243.657C320.098 245.767 322.186 245.79 324.013 245.809C325.84 245.829 327.406 245.846 328.428 247.945C329.805 249.351 331.202 248.902 332.599 248.453C333.297 248.229 333.995 248.005 334.691 248.012C336.664 249.025 337.709 248.615 338.932 248.136C340.284 247.607 341.853 246.993 345.131 248.124C346.175 248.136 347.213 248.669 348.252 249.202C349.29 249.735 350.329 250.268 351.373 250.279C352.416 250.29 352.933 250.818 353.449 251.345C353.966 251.873 354.482 252.4 355.526 252.412C361.835 248.304 372.274 248.416 374.317 252.614C378.071 252.654 378.455 252.236 378.878 251.776C379.395 251.213 379.971 250.587 386.868 250.661C400.961 250.812 404.522 247.327 407.193 244.714C408.084 243.843 408.875 243.068 409.925 242.558L412.013 242.58L416.189 242.625C417.951 243.53 418.974 243.299 420.043 243.057C421.492 242.73 423.026 242.383 426.606 244.825C427.65 244.836 429.21 245.375 430.771 245.913C432.331 246.452 433.891 246.991 434.935 247.002C436.218 245.747 436.712 246.026 438.304 246.921C439.331 247.499 440.816 248.334 443.265 249.179C445.375 247.114 451.639 247.182 453.682 251.379C455.161 251.395 456.381 251.146 457.525 250.913C459.609 250.488 461.439 250.114 464.122 251.491L468.297 251.536C470.363 253.646 476.649 251.626 476.649 251.626C478.76 249.561 478.76 249.561 485.001 251.716C486.299 247.959 489.053 249.515 491.5 250.898C493.118 251.812 494.601 252.65 495.441 251.828L497.529 251.85C501.623 253.264 503.06 251.056 504.154 249.375C504.728 248.494 505.207 247.758 505.925 247.765L510.101 247.81C511.145 247.821 511.673 247.305 512.2 246.789C512.728 246.273 513.256 245.756 514.3 245.767L520.563 245.835L522.651 245.857L524.717 247.967C527.469 248.917 528.195 249.44 528.868 249.377C529.72 249.297 530.484 248.276 535.179 245.992C538.333 243.938 539.377 243.949 540.943 243.966C542.509 243.983 544.597 244.005 549.84 241.974C552.638 240.612 553.561 241.086 554.484 241.56C554.946 241.797 555.407 242.034 556.103 242.041C557.751 240.429 559.371 241.362 561.98 242.863C562.712 243.285 563.522 243.751 564.433 244.219C565.377 245.184 566.783 243.97 568.629 242.375C570.819 240.482 573.629 238.054 577.028 238.091C579.199 238.114 579.62 237.617 580.023 237.139C580.783 236.24 581.484 235.411 593.731 238.27C595.326 238.288 596.319 237.689 597.166 237.178C598.538 236.351 599.53 235.752 602.083 238.36C603.215 240.687 604.375 240.448 605.892 240.136C607.111 239.885 608.561 239.587 610.412 240.538L612.5 240.56C613.544 240.571 616.16 240.077 618.775 239.584C621.391 239.09 624.006 238.596 625.05 238.607C633.38 240.784 639.621 242.939 639.621 242.939L645.885 243.007C647.051 244.197 647.566 244.051 650.049 243.347C651.966 242.803 655.055 241.927 660.523 241.076C664.699 241.121 668.875 241.166 670.985 239.101C673.096 237.036 677.271 237.081 679.359 237.103C679.359 237.103 681.47 235.038 685.646 235.083C698.133 234.258 702.224 234.665 705.234 234.965C708.772 235.318 710.817 235.522 723.251 233.4C728.143 233.452 732.327 232.781 735.793 232.225C738.244 231.831 740.335 231.496 742.065 231.514L754.593 231.649C755.023 231.653 755.895 231.751 757.101 231.887C761.747 232.409 771.342 233.487 779.649 231.918L792.176 232.053C800.528 232.143 800.506 234.23 800.506 234.23C810.851 234.341 812.33 234.99 813.66 235.573C814.746 236.049 815.732 236.482 821.363 236.542C823.451 236.565 824.489 237.098 825.527 237.631C826.566 238.164 827.604 238.697 829.692 238.719L842.22 238.854C843.264 238.865 844.841 237.838 846.418 236.812C847.995 235.785 849.572 234.758 850.616 234.769L861.056 234.881C862.089 235.936 863.133 235.947 863.916 235.956C864.699 235.964 865.221 235.97 865.21 237.014C871.347 237.694 875.32 237.809 878.721 237.907C886.876 238.142 891.733 238.283 915.231 245.902C918.921 244.716 920.437 244.946 923.173 245.361C925.097 245.653 927.624 246.036 931.934 246.082C939.187 247.068 939.339 247.582 939.425 247.873C939.537 248.251 939.537 248.251 954.879 248.416L967.407 248.551C982 250.796 984.11 248.731 986.221 246.666C987.265 246.677 988.836 246.172 990.408 245.667C991.979 245.162 993.551 244.657 994.595 244.668L996.683 244.69C998.562 245.655 1003.88 244.52 1010.11 243.192C1017.65 241.584 1026.52 239.692 1032.22 240.897L1034.31 240.919L1040.57 240.987C1043.59 239.518 1046.59 240.208 1048.81 240.72C1049.68 240.92 1050.43 241.093 1051.01 241.099C1051.01 241.099 1063.56 239.146 1065.65 239.169C1068.67 237.699 1071.67 238.39 1073.89 238.902C1074.76 239.102 1075.51 239.274 1076.09 239.281C1081.6 237.509 1082.27 238.094 1082.88 238.622C1083.66 239.299 1084.33 239.883 1094.93 235.308C1094.95 233.22 1097.06 231.155 1101.21 233.288C1103.62 232.516 1105.41 231.738 1106.94 231.073C1109.41 229.998 1111.21 229.22 1113.79 229.247C1113.79 229.247 1120.07 227.227 1122.14 229.337C1123.62 229.353 1125.1 229.107 1126.49 228.876C1129.02 228.456 1131.24 228.087 1132.58 229.449C1134.17 229.466 1135.47 229.176 1136.57 228.927C1138.36 228.526 1139.65 228.235 1140.93 229.539C1144.09 231.163 1150.91 230.405 1154.91 229.961C1156.16 229.822 1157.14 229.713 1157.63 229.719C1161.61 229.761 1163.08 228.099 1164.15 226.882C1164.78 226.179 1165.27 225.625 1166.03 225.633C1168.14 223.568 1174.43 221.548 1176.49 223.658C1181.09 225.245 1184.58 224.556 1186.93 224.091C1187.77 223.925 1188.47 223.787 1189.02 223.793C1206.29 222.9 1212.42 221.33 1216.33 220.331C1219.98 219.395 1221.68 218.959 1228.74 220.044L1235 220.112C1235.63 220.118 1236.26 220.317 1236.95 220.533C1238.53 221.031 1240.42 221.626 1243.35 220.201L1245.44 220.224C1247.53 220.246 1249.09 220.785 1250.65 221.324C1252.21 221.862 1253.77 222.401 1255.86 222.424C1258.26 222.449 1259.28 222.46 1260.11 222.072C1260.73 221.786 1261.25 221.281 1262.14 220.403C1263.02 219.548 1264.24 219.413 1265.68 219.255C1267.36 219.069 1269.33 218.851 1271.36 217.406H1289.42V209.785C1291.94 208.893 1294.08 208.292 1295.41 208.306L1295.41 140.05V62.6109C1294.7 62.6033 1292.58 62.6868 1289.42 62.85V0Z" fill="#1565E5"/>
</g>
<defs>
<clipPath id="clip0">
<rect width="1280" height="272" fill="white"/>
</clipPath>
</defs>
</svg>
