<svg width="1280" height="304" viewBox="0 0 1280 304" fill="none" xmlns="http://www.w3.org/2000/svg">
<g clip-path="url(#clip0)">
<path fill-rule="evenodd" clip-rule="evenodd" d="M1277.85 1.67218C1277.99 2.49329 1278.14 3.33543 1277.27 3.38394C1274.44 3.5419 1273.86 5.30468 1273.11 7.62073C1272.21 10.3679 1271.06 13.8934 1265.59 16.4425C1263.72 29.5107 1249.61 27.0067 1237.9 24.9292C1230.93 23.6932 1224.82 22.6081 1222.64 25.0437L1214.39 25.5042C1215 36.431 1205.15 33.4164 1198.5 31.3822C1197.62 31.1139 1196.8 30.8627 1196.06 30.6628L1189.88 31.0081C1186.79 31.1803 1184.46 31.4959 1182.58 31.7493C1178.19 32.3428 1176.32 32.5952 1173.27 29.8676C1171.09 27.9214 1169.55 28.0077 1168 28.0941C1166.45 28.1804 1164.91 28.2667 1162.73 26.3205C1158.38 22.4281 1156.43 24.6045 1154.6 28.8423C1153.47 31.4613 1152.2 31.7183 1150.46 32.0735C1149.38 32.293 1148.11 32.55 1146.58 33.4253C1143.85 36.483 1139.81 34.5117 1136.94 33.1079C1135.72 32.5132 1134.71 32.0204 1134.1 32.0546C1119.75 42.8211 1111.38 41.2468 1106.51 40.3298C1105.31 40.1051 1104.33 39.9199 1103.52 39.9652C1103.75 44.0879 1097.79 48.5558 1093.67 48.786L1083.36 49.3616C1079.16 48.2176 1078.73 48.7012 1078.29 49.1849C1078.08 49.4267 1077.86 49.6685 1077.17 49.7069C1076.2 50.7951 1076.26 51.8258 1076.3 52.5988C1076.34 53.3718 1076.37 53.8871 1075.34 53.9446C1068.72 55.6565 1066.31 54.5194 1064.29 53.574C1063.21 53.0632 1062.24 52.6083 1060.79 52.6891C1059.33 52.7706 1057.86 52.5935 1056.48 52.4275C1053.96 52.1249 1051.74 51.8592 1050.49 53.2646C1050.05 53.2891 1049.15 53.4329 1047.92 53.6287C1043.39 54.3535 1034.39 55.7912 1027.81 54.5308C1027.92 56.5921 1025.86 56.7072 1023.8 56.8223C1019.67 57.0525 1015.55 57.2827 1011.31 55.4516C1009.33 54.594 1008.78 55.0172 1008.1 55.5333C1007.34 56.119 1006.42 56.8243 1003.07 55.9121C998.942 56.1423 998.942 56.1423 994.934 58.4338C991.899 59.6371 990.925 60.7254 990.195 61.5415C989.465 62.3577 988.979 62.9018 986.917 63.0169C985.084 63.1192 982.748 63.3517 980.153 63.6101C971.068 64.5144 958.804 65.7352 953.814 62.7973C951.637 60.8511 949.576 60.9662 947.772 61.0669C945.967 61.1676 944.421 61.254 943.275 59.2502C941.824 57.9527 940.475 58.4875 939.126 59.0223C938.452 59.2897 937.777 59.5571 937.09 59.5955C935.077 58.7261 934.072 59.1989 932.897 59.7516C931.598 60.363 930.09 61.0723 926.781 60.171C925.75 60.2286 924.691 59.7708 923.631 59.313C922.572 58.8553 921.512 58.3975 920.481 58.455C919.45 58.5126 918.906 58.026 918.362 57.5395C917.818 57.0529 917.273 56.5664 916.242 56.6239C910.287 61.0919 899.979 61.6674 897.687 57.6599C893.98 57.8668 893.629 58.3042 893.242 58.7858C892.768 59.3756 892.241 60.0316 885.431 60.4118C871.515 61.1888 868.23 64.8616 865.766 67.6161C864.945 68.5343 864.215 69.3504 863.213 69.9233L861.151 70.0384L857.027 70.2686C855.228 69.4914 854.234 69.7868 853.196 70.0954C851.787 70.514 850.296 70.957 846.604 68.7828C845.573 68.8404 843.997 68.4114 842.422 67.9824C840.847 67.5534 839.272 67.1244 838.241 67.1819C837.059 68.5044 836.552 68.2622 834.923 67.4836C833.871 66.9808 832.351 66.2544 829.879 65.5811C827.933 67.7575 821.747 68.1028 819.456 64.0953C817.995 64.1768 816.807 64.5026 815.694 64.8079C813.665 65.3646 811.884 65.8532 809.147 64.6708L805.023 64.901C802.847 62.9548 796.776 65.3614 796.776 65.3614C794.83 67.5379 794.83 67.5379 788.529 65.8219C787.496 69.6144 784.676 68.2598 782.17 67.0562C780.514 66.2608 778.995 65.5314 778.221 66.3974L776.159 66.5125C772.026 65.3869 770.753 67.6605 769.784 69.3907C769.276 70.2981 768.851 71.056 768.142 71.0956L764.019 71.3258C762.988 71.3833 762.501 71.9275 762.014 72.4716C761.528 73.0157 761.041 73.5598 760.01 73.6173L753.825 73.9626L751.763 74.0778L749.586 72.1315C746.809 71.375 746.057 70.9072 745.398 71.0134C744.562 71.1481 743.875 72.2059 739.393 74.7684C736.415 77.0024 735.384 77.0599 733.838 77.1463C732.292 77.2326 730.23 77.3477 725.191 79.6968C722.518 81.2245 721.577 80.8176 720.635 80.4107C720.164 80.2072 719.693 80.0037 719.006 80.0421C717.486 81.7414 715.825 80.9275 713.153 79.6174C712.403 79.2496 711.573 78.8426 710.643 78.4412C709.648 77.551 708.341 78.8413 706.624 80.5367C704.588 82.5477 701.974 85.1285 698.618 85.3158C696.474 85.4355 696.092 85.9539 695.725 86.4516C695.034 87.3893 694.397 88.2532 682.124 86.2367C680.549 86.3246 679.61 86.9804 678.807 87.5406C677.508 88.4469 676.568 89.1028 673.877 86.6971C672.607 84.4759 671.478 84.7876 670.003 85.1951C668.816 85.5228 667.405 85.9124 665.515 85.0962L663.454 85.2113C662.423 85.2689 659.874 85.9281 657.326 86.5873C654.778 87.2465 652.229 87.9057 651.198 87.9633C642.836 86.3624 636.536 84.6464 636.536 84.6464L630.351 84.9917C629.122 83.8934 628.624 84.0714 626.22 84.9295C624.364 85.592 621.373 86.6598 616.033 87.8588C611.91 88.089 607.786 88.3192 605.84 90.4956C603.893 92.6721 599.77 92.9023 597.708 93.0174C597.708 93.0174 595.761 95.1938 591.638 95.424C579.37 97.0595 575.307 96.926 572.317 96.8278C568.803 96.7124 566.771 96.6456 554.642 99.5573C549.811 99.827 545.727 100.765 542.343 101.541C539.951 102.09 537.909 102.559 536.201 102.655L523.83 103.345C523.406 103.369 522.539 103.33 521.34 103.275C516.722 103.066 507.183 102.633 499.09 104.726L486.719 105.417C478.472 105.878 478.357 103.816 478.357 103.816C468.142 104.387 466.64 103.844 465.289 103.356C464.186 102.957 463.185 102.596 457.625 102.906C455.563 103.021 454.503 102.563 453.443 102.106C452.384 101.648 451.324 101.19 449.262 101.305L436.892 101.996C435.861 102.053 434.372 103.17 432.884 104.287C431.395 105.404 429.906 106.521 428.875 106.579L418.566 107.154C417.478 106.181 416.447 106.239 415.674 106.282C414.901 106.325 414.385 106.354 414.328 105.323C408.227 105.055 404.299 105.203 400.937 105.33C392.875 105.634 388.073 105.815 364.386 99.8405C360.822 101.253 359.311 101.126 356.584 100.897C354.667 100.736 352.148 100.524 347.892 100.761C340.671 100.265 340.486 99.7676 340.382 99.4862C340.247 99.1204 340.247 99.1204 325.098 99.9662L312.727 100.657C298.18 99.4013 296.233 101.578 294.286 103.754C293.256 103.812 291.738 104.413 290.221 105.015C288.703 105.617 287.185 106.218 286.155 106.276L284.093 106.391C282.175 105.563 276.999 107.032 270.941 108.753C263.608 110.835 254.981 113.284 249.273 112.47L247.212 112.586L241.026 112.931C238.143 114.579 235.141 114.095 232.916 113.735C232.047 113.595 231.297 113.474 230.718 113.506C230.718 113.506 218.462 116.258 216.401 116.373C213.518 118.022 210.516 117.537 208.29 117.178C207.421 117.038 206.671 116.917 206.092 116.949C200.769 119.059 200.069 118.527 199.437 118.045C198.627 117.428 197.928 116.896 187.766 122.108C187.881 124.169 185.935 126.345 181.696 124.514C179.378 125.434 177.661 126.319 176.194 127.076C173.821 128.3 172.104 129.185 169.556 129.328C169.556 129.328 163.486 131.734 161.309 129.788C159.848 129.87 158.402 130.21 157.046 130.529C154.575 131.11 152.406 131.62 151 130.364C149.425 130.451 148.168 130.823 147.094 131.141C145.356 131.655 144.099 132.027 142.753 130.824C139.526 129.43 132.845 130.626 128.931 131.327C127.705 131.546 126.751 131.717 126.259 131.745C122.338 131.964 120.995 133.701 120.012 134.973C119.445 135.707 118.997 136.286 118.242 136.328C116.296 138.504 110.226 140.911 108.049 138.965C103.41 137.701 100.014 138.61 97.7225 139.224C96.9015 139.443 96.2223 139.625 95.6784 139.655C78.6964 141.672 72.7496 143.624 68.9629 144.867C65.4196 146.03 63.7677 146.572 56.7355 145.965L50.5503 146.31C49.926 146.345 49.2912 146.191 48.5982 146.023C47.0024 145.635 45.098 145.173 42.3033 146.771L40.2415 146.886C38.1798 147.001 36.6047 146.572 35.0297 146.143C33.4546 145.714 31.8795 145.285 29.8177 145.4C25.6943 145.63 25.6943 145.63 23.7476 147.807C22.9413 148.708 21.7417 148.922 20.3363 149.173C18.3488 149.527 15.9497 149.955 13.6691 152.505C10.8643 153.617 8.59691 155.292 6.56235 156.795C4.1937 158.545 2.1406 160.061 -0.0775788 160.185L-0.078125 222.643L-0.0775793 303.643C-0.0533944 303.641 -0.0275295 303.64 9.68575e-08 303.638V304H1280V175H1279.92V0.516873C1277.47 -0.542504 1277.66 0.545027 1277.85 1.67218Z" fill="white"/>
</g>
<defs>
<clipPath id="clip0">
<rect width="1280" height="304" fill="white"/>
</clipPath>
</defs>
</svg>
