<svg width="1280" height="220" viewBox="0 0 1280 220" fill="none" xmlns="http://www.w3.org/2000/svg">
<g clip-path="url(#clip0)">
<path fill-rule="evenodd" clip-rule="evenodd" d="M-3.21168 90.5219L-9.07812 2.46538C-6.82415 2.44114 -5.44213 1.7599 -4.09641 1.09655C-1.74377 -0.0631412 0.497919 -1.16814 7.09372 1.38772C9.82202 14.3031 23.7391 10.8664 35.2856 8.01504C42.1555 6.31857 48.1862 4.82933 50.5218 7.11477L58.7811 7.02597C58.8988 17.9693 68.5307 14.3062 75.0301 11.8345C75.8872 11.5085 76.6899 11.2033 77.409 10.955L83.6036 10.8884C86.6932 10.8552 89.0451 11.0148 90.9336 11.143C95.3558 11.4431 97.2373 11.5708 100.1 8.64639C102.143 6.55978 103.691 6.54313 105.24 6.52648C106.789 6.50983 108.337 6.49318 110.38 4.40656C114.465 0.233337 116.552 2.27555 118.661 6.38218C119.965 8.92021 121.243 9.09264 123.009 9.33093C124.101 9.4782 125.379 9.65063 126.965 10.4222C129.897 13.2914 133.793 11.0561 136.568 9.46425C137.743 8.79001 138.717 8.2312 139.332 8.22459C154.366 18.0134 162.61 15.8864 167.412 14.6473C168.588 14.3438 169.558 14.0936 170.371 14.0848C170.415 18.2137 176.654 22.2759 180.784 22.2315L191.108 22.1205C195.223 20.6998 195.687 21.1537 196.151 21.6075C196.382 21.8344 196.614 22.0613 197.303 22.0539C198.346 23.075 198.357 24.1072 198.366 24.8814C198.374 25.6555 198.379 26.1716 199.412 26.1605C206.129 27.4287 208.466 26.1333 210.41 25.0563C211.46 24.4744 212.395 23.9563 213.843 23.9407C215.306 23.925 216.767 23.6502 218.135 23.3926C220.63 22.9232 222.82 22.511 224.168 23.8297C224.607 23.825 225.514 23.9086 226.75 24.0226C231.323 24.4443 240.396 25.2808 246.881 23.5855C246.903 25.6499 248.968 25.6277 251.033 25.6055C255.162 25.5611 259.29 25.5168 263.397 23.4079C265.321 22.4202 265.901 22.8058 266.608 23.2759C267.41 23.8095 268.376 24.452 271.657 23.3191C275.787 23.2747 275.787 23.2747 279.938 25.2946L279.938 25.2948C283.047 26.2937 284.09 27.3148 284.873 28.0806C285.656 28.8465 286.177 29.357 288.242 29.3348C290.078 29.3151 292.424 29.3918 295.031 29.4771C304.156 29.7755 316.474 30.1783 321.257 26.9152C323.3 24.8286 325.365 24.8064 327.172 24.7869C328.978 24.7675 330.527 24.7509 331.537 22.6754C332.899 21.2843 334.28 21.7282 335.662 22.1722C336.353 22.3942 337.043 22.6162 337.732 22.6088C339.682 21.6075 340.716 22.0124 341.925 22.4858C343.263 23.0095 344.814 23.6169 348.056 22.4978C349.088 22.4867 350.115 21.9595 351.142 21.4322C352.169 20.905 353.196 20.3778 354.228 20.3667C355.26 20.3556 355.771 19.834 356.282 19.3123C356.793 18.7907 357.303 18.269 358.336 18.2579C364.575 22.3202 374.899 22.2092 376.919 18.0581C380.632 18.0182 381.011 18.4313 381.429 18.8861C381.941 19.4431 382.51 20.0627 389.33 19.9893C403.268 19.8395 406.79 23.2857 409.431 25.8704C410.312 26.732 411.094 27.4978 412.132 28.0028L414.197 27.9806L418.327 27.9362C420.07 27.0412 421.081 27.2698 422.138 27.5087C423.572 27.8327 425.089 28.1756 428.629 25.7608C429.661 25.7497 431.204 25.217 432.747 24.6842C434.29 24.1514 435.833 23.6187 436.866 23.6076C438.134 24.8485 438.623 24.5732 440.197 23.688C441.213 23.1164 442.681 22.2905 445.103 21.4544C447.19 23.4966 453.385 23.43 455.405 19.279C456.868 19.2632 458.075 19.5094 459.205 19.74C461.267 20.1605 463.077 20.5297 465.729 19.168L469.859 19.1236C471.901 17.0369 478.118 19.0348 478.118 19.0348C480.205 21.077 480.205 21.077 486.378 18.946C487.661 22.6614 490.385 21.1223 492.805 19.7548C494.405 18.8511 495.871 18.0223 496.702 18.835L498.766 18.8128C502.815 17.4149 504.237 19.5989 505.319 21.2608C505.886 22.1324 506.36 22.8604 507.07 22.8528L511.2 22.8084C512.232 22.7973 512.754 23.3079 513.276 23.8184C513.798 24.329 514.319 24.8395 515.352 24.8284L521.546 24.7618L523.611 24.7396L525.654 22.653C528.375 21.7135 529.094 21.1968 529.758 21.259C530.601 21.3378 531.357 22.3476 536 24.6064C539.12 26.6375 540.152 26.6264 541.701 26.6098C543.249 26.5931 545.314 26.571 550.498 28.5799C553.266 29.9265 554.179 29.4579 555.092 28.9893C555.548 28.755 556.005 28.5207 556.693 28.5133C558.322 30.1078 559.925 29.1853 562.504 27.7005C563.228 27.2836 564.03 26.8223 564.93 26.3601C565.864 25.4056 567.254 26.6062 569.08 28.1837C571.245 30.0549 574.025 32.4562 577.386 32.4201C579.533 32.397 579.949 32.8889 580.348 33.361C581.1 34.2507 581.792 35.0704 593.904 32.2425C595.482 32.2255 596.463 32.8174 597.301 33.323C598.657 34.141 599.639 34.7329 602.164 32.1537C603.283 29.853 604.431 30.089 605.93 30.3974C607.136 30.6455 608.57 30.9405 610.401 30.0005L612.466 29.9783C613.498 29.9672 616.085 30.4555 618.671 30.9439C621.258 31.4322 623.844 31.9206 624.877 31.9095C633.114 29.7563 639.286 27.6253 639.286 27.6253L645.481 27.5587C646.634 26.3811 647.143 26.5256 649.598 27.222C651.494 27.7597 654.55 28.6263 659.957 29.4677C664.086 29.4233 668.216 29.3789 670.303 31.4211C672.39 33.4633 676.52 33.4189 678.585 33.3967C678.585 33.3967 680.672 35.4389 684.801 35.3945C697.151 36.2109 701.196 35.8076 704.173 35.5109C707.672 35.1621 709.694 34.9604 721.991 37.0594C726.829 37.0073 730.966 37.6713 734.394 38.2214C736.817 38.6104 738.886 38.9424 740.596 38.924L752.985 38.7908C753.411 38.7862 754.273 38.6893 755.465 38.5554C760.06 38.0393 769.549 36.9734 777.764 38.5244L790.153 38.3912C798.412 38.3024 798.39 36.238 798.39 36.238C808.621 36.128 810.084 35.4865 811.399 34.9099C812.472 34.439 813.448 34.0114 819.016 33.9515C821.081 33.9293 822.108 33.4021 823.135 32.8749C824.162 32.3477 825.189 31.8205 827.254 31.7983L839.642 31.6651C840.675 31.654 842.235 32.6696 843.794 33.6851C845.354 34.7007 846.914 35.7163 847.946 35.7052L858.27 35.5942C859.292 34.5509 860.324 34.5398 861.098 34.5314C861.873 34.5231 862.389 34.5176 862.378 33.4854C868.447 32.8126 872.377 32.6991 875.739 32.602C883.804 32.3691 888.607 32.2304 911.845 24.6949C915.495 25.8678 916.994 25.6405 919.7 25.2304C921.602 24.942 924.101 24.5631 928.364 24.5173C935.536 23.5425 935.687 23.0335 935.772 22.7458C935.883 22.3718 935.883 22.3718 951.055 22.2087L963.444 22.0755C977.875 19.8557 979.962 21.8979 982.049 23.9401C983.082 23.929 984.636 24.4285 986.19 24.9279C987.744 25.4274 989.299 25.9268 990.331 25.9157L992.396 25.8935C994.254 24.9395 999.516 26.0618 1005.68 27.3755C1013.13 28.9656 1021.9 30.8362 1027.54 29.645L1029.61 29.6228L1035.8 29.5562C1038.79 31.009 1041.75 30.3261 1043.95 29.8198C1044.81 29.6221 1045.55 29.4514 1046.13 29.4452C1046.13 29.4452 1058.54 31.3764 1060.6 31.3542C1063.59 32.807 1066.55 32.1241 1068.75 31.6178C1069.61 31.4201 1070.35 31.2494 1070.93 31.2432C1076.38 32.9951 1077.04 32.417 1077.64 31.8945C1078.41 31.2253 1079.07 30.6473 1089.55 35.1722C1089.58 37.2366 1091.66 39.2788 1095.77 37.17C1098.15 37.9331 1099.92 38.7027 1101.43 39.36C1103.88 40.4235 1105.65 41.1931 1108.2 41.1656C1108.2 41.1656 1114.42 43.1635 1116.46 41.0768C1117.93 41.0611 1119.39 41.3045 1120.77 41.5325C1123.27 41.9483 1125.47 42.3133 1126.79 40.9658C1128.37 40.9489 1129.64 41.2364 1130.74 41.4819C1132.51 41.8792 1133.78 42.1666 1135.05 40.877C1138.17 39.2712 1144.92 40.0209 1148.87 40.4601C1150.11 40.5976 1151.07 40.7047 1151.57 40.6995C1155.49 40.6572 1156.95 42.3013 1158.01 43.5048C1158.63 44.1996 1159.11 44.7476 1159.87 44.7395C1161.96 46.7817 1168.17 48.7795 1170.22 46.6929C1174.76 45.124 1178.21 45.8051 1180.54 46.2647C1181.37 46.4293 1182.06 46.5655 1182.6 46.5597C1199.68 47.4427 1205.75 48.9951 1209.61 49.9836C1213.22 50.9085 1214.9 51.3398 1221.88 50.2667L1228.08 50.2001C1228.7 50.1934 1229.32 49.9974 1230 49.7835C1231.57 49.2908 1233.44 48.7029 1236.33 50.1113L1238.4 50.0891C1240.46 50.0669 1242.01 49.5342 1243.55 49.0014C1245.09 48.4687 1246.64 47.9359 1248.7 47.9137C1251.08 47.8882 1252.09 47.8773 1252.91 48.2611C1253.52 48.5447 1254.03 49.0437 1254.92 49.9115C1255.78 50.7574 1256.99 50.8911 1258.41 51.0478C1260.42 51.2693 1262.84 51.5367 1265.29 53.9293C1267.53 54.6511 1270.56 55.8944 1273.7 57.1859C1279.26 59.4692 1285.18 61.9036 1287.82 61.8752L1287.81 129.375V205.958C1286.98 205.967 1284.17 205.848 1280 205.62V220H2.57492e-05V138.731L-3.21168 90.5219Z" fill="#FFEB26"/>
</g>
<defs>
<clipPath id="clip0">
<rect width="1280" height="220" fill="white"/>
</clipPath>
</defs>
</svg>
