<svg width="1279" height="109" viewBox="0 0 1279 109" fill="none" xmlns="http://www.w3.org/2000/svg">
<path d="M1279 6.88107V77.1876L1276.38 77.0878L1262.92 77.7859L1249.47 77.6862L1236.67 78.5837L1220.27 77.4867L1213.38 81.6752H1201.56L1186.47 81.0769L1169.74 81.6752L1154.64 82.6725L1140.53 81.8747L1125.77 82.8719L1111.99 79.4813L1097.22 82.3733L1082.79 80.678L1068.68 78.8829L1053.91 78.3843L1039.47 79.2818L1025.37 82.3733L1010.93 81.1766L996.163 79.581L981.726 80.2791L966.961 79.4813L954.164 81.6752H940.383L926.93 83.1711L913.478 83.0714L900.025 82.473L886.9 83.1711L879.354 86.2626L870.494 88.656L859.995 91.0494L841.292 89.753L827.511 91.2489L813.73 94.6395L799.949 95.5371L785.184 95.4373L774.684 97.5316L763.856 99.4264L752.044 100.224L735.966 101.022L721.857 103.116L708.076 105.51L693.311 107.803L678.546 105.111L665.421 106.607L651.64 105.809L637.859 106.507L624.407 105.51L610.298 109L597.173 106.407L583.72 106.208L567.642 101.521L550.252 104.712L533.518 102.318L521.378 103.914L508.909 104.313L496.441 102.318H484.629L469.864 103.216L453.13 104.413L439.349 102.119L426.552 99.7255L414.084 97.3321L405.881 92.7447L392.428 90.7502L375.694 91.4483L365.522 87.4593L351.413 87.1601L337.304 88.1574L324.18 85.4648L310.071 86.9607L296.29 84.667L282.837 86.5618L269.056 86.6615L255.275 85.3651L241.494 86.1629L228.041 88.5563L214.26 85.5645L201.136 85.6642L187.683 89.0549L174.23 87.0604L161.105 88.3568L147.653 89.5535L134.2 85.5645L120.747 86.3623L107.622 88.4565L94.4977 88.8555H79.4043L65.9515 90.6505L50.53 90.9497L38.3897 93.9415L24.9369 94.839L11.156 93.2434L0 93.3431V6.88107H1279Z" fill="black" fill-opacity="0.3"/>
<path d="M1279 0V70.3065L1276.38 70.2068L1262.92 70.8051H1249.47L1236.67 71.6029L1220.27 70.5059L1213.38 74.7941L1201.56 74.6944L1186.47 74.1958L1169.74 74.7941L1154.64 75.7914L1140.53 74.8939L1125.77 75.8911L1111.99 72.6002L1097.22 75.4922L1082.79 73.7969L1068.68 72.0018L1053.91 71.4035L1039.47 72.301L1025.37 75.4922L1010.93 74.2955L996.163 72.6999L981.726 73.2983L966.961 72.6002L954.164 74.6944L940.383 74.7941L926.93 76.1903H913.478L900.025 75.4922L886.9 76.29L879.354 79.2818L870.494 81.7749L859.995 84.0686L841.292 82.8719L827.511 84.3678L813.73 87.6587L799.949 88.656L785.184 88.4565L774.684 90.5508L763.856 92.5453L752.044 93.3431L735.966 94.0412L721.857 96.1354L708.076 98.6285L693.311 100.822L678.546 98.1299L665.421 99.7255L651.64 98.9277L637.859 99.6258L624.407 98.6285L610.298 102.119L597.173 99.5261L583.72 99.2269L567.642 94.6395L550.252 97.8307L533.518 95.3376L521.378 97.0329L508.909 97.3321L496.441 95.3376L484.629 95.4373L469.864 96.3349L453.13 97.4318L439.349 95.1381L426.552 92.7447L414.084 90.451L405.881 85.8637L392.428 83.8692L375.694 84.4675L365.522 80.4785L351.413 80.279L337.304 81.2763L324.18 78.5837L310.071 80.0796L296.29 77.7859L282.837 79.6807L269.056 79.7804L255.275 78.484L241.494 79.1821L228.041 81.5755L214.26 78.6834L201.136 78.7832L187.683 82.1738L174.23 80.0796L161.105 81.376L147.653 82.6725L134.2 78.6834L120.747 79.3815L107.622 81.4757L94.4977 81.9744L79.4043 81.8747L65.9515 83.7694L50.53 83.9689L38.3897 87.0604L24.9369 87.9579L11.156 86.3623L0 86.462V0H1279Z" fill="white"/>
</svg>
