<svg width="1280" height="106" viewBox="0 0 1280 106" fill="none" xmlns="http://www.w3.org/2000/svg">
<path d="M0 6.92603L0 99.7764C3.16405 99.1741 6.04045 98.4715 6.90337 97.6685C18.1213 97.6685 30.2022 98.4715 22.436 96.5643C24.1618 95.3597 34.5169 95.7613 39.4067 95.8616C43.1461 96.765 52.0629 98.2707 54.364 97.8692C57.8157 100.278 66.7326 94.7575 68.7461 93.7537C68.7461 94.5567 83.4157 97.1666 85.4292 96.5643C78.2382 95.3597 85.4292 94.0548 100.674 93.051C97.2225 90.7423 109.016 93.8541 116.494 93.5529C117.645 95.962 130.589 91.2442 133.178 92.9506C137.78 91.2442 150.724 88.534 149.861 90.8427C153.025 91.445 162.805 93.051 166.544 91.6457C162.805 92.7499 183.227 96.8654 183.227 94.8578C183.227 92.9506 199.91 90.4412 199.91 95.2594C199.91 90.6419 216.306 96.0624 216.306 96.0624C216.306 95.6609 233.276 92.8503 233.276 93.5529C233.276 96.3635 249.097 98.873 249.097 96.6647C249.097 94.5567 266.067 96.1628 266.067 95.962C266.067 92.6495 282.463 94.5567 282.463 96.6647C282.463 97.9696 300.297 99.0737 300.297 95.0586C300.297 94.2556 315.254 96.6647 315.254 98.3711C315.254 99.1741 329.348 104.795 329.348 102.788C329.348 102.788 346.894 104.293 346.894 103.29C346.894 105.498 363.578 106.301 363.578 105.699C363.578 107.204 380.836 100.278 380.836 100.78C380.836 101.282 396.944 100.78 396.944 101.081C396.944 100.479 415.065 101.282 415.065 101.985C415.065 97.8692 423.119 93.9544 423.119 95.4601C423.119 98.873 438.076 94.4563 438.076 93.4525C438.076 94.8578 454.472 92.8503 454.472 93.9544C454.472 97.2669 470.58 92.7499 470.58 95.0586C470.58 96.8654 486.688 95.0586 486.688 94.0548C486.688 94.3559 502.508 91.1438 502.508 92.1476C502.508 90.3408 519.479 93.6533 519.479 93.051C519.479 92.8503 534.436 88.7347 534.436 87.6306C534.436 87.4298 551.407 92.4488 551.407 89.337C551.407 87.1287 568.09 90.6419 568.09 89.2366C568.09 88.0321 585.348 92.6495 585.348 87.3294C585.348 87.9317 600.593 92.1476 600.593 91.3446C600.593 92.1476 617.852 93.5529 617.852 94.9582C617.852 93.8541 637.987 96.9658 637.987 94.6571C637.987 98.6722 656.971 100.078 656.971 96.3635C656.971 97.7688 674.517 96.1628 674.517 95.159C674.517 96.8654 691.2 95.7613 691.2 95.6609C691.2 98.07 708.171 97.5681 708.171 97.7688C708.171 94.9582 724.566 95.4601 724.566 94.3559C724.566 95.0586 742.688 99.676 742.688 97.5681C742.688 98.2707 759.658 97.6685 759.658 96.6647C759.658 92.8503 776.054 94.9582 776.054 94.6571C776.054 94.2556 791.011 89.9393 791.011 90.2404C791.011 89.5378 807.982 92.0472 807.982 89.9393C807.982 89.9393 827.254 97.1666 827.254 93.7537C827.254 93.2518 841.348 85.9241 841.348 87.6306C841.348 88.8351 858.031 87.7309 858.031 86.0245C858.031 84.4184 875.578 85.9241 875.578 85.623C875.578 83.3143 893.411 87.7309 893.411 87.0283C893.411 86.426 910.957 87.5302 910.957 88.8351C910.957 88.1325 928.216 87.6306 928.216 86.7272C928.216 86.2253 945.474 88.534 945.474 88.2328C945.474 87.6306 963.02 90.8427 963.02 86.0245C963.02 86.6268 979.991 87.0283 979.991 90.0397C979.991 91.9469 997.825 86.2253 997.825 85.9241C997.825 81.4071 1014.8 87.2291 1014.8 89.1363C1014.8 86.1249 1032.34 90.3408 1032.34 87.8313C1032.34 88.4336 1049.31 92.8503 1049.31 90.3408C1049.31 88.534 1065.71 88.9355 1065.71 89.337C1065.71 88.0321 1082.39 86.7272 1082.39 86.6268C1082.39 80.5037 1098.79 85.1211 1098.79 86.7272C1098.79 88.534 1114.32 92.7499 1114.32 91.8465C1114.32 95.6609 1131 92.7499 1131 89.9393C1131 93.051 1147.69 86.8275 1147.69 88.3332C1147.69 89.6381 1163.79 91.0435 1163.79 89.6381C1163.79 91.2442 1181.63 89.9393 1180.19 89.7385C1179.04 88.534 1199.17 89.8389 1198.02 90.3408C1191.12 90.6419 1212.69 92.7499 1215.28 92.0472C1219.31 94.8578 1236.28 94.5567 1232.83 92.5491C1235.7 90.9431 1253.25 94.7575 1250.37 95.5605C1254.4 95.7612 1263.89 96.2631 1268.78 94.8578C1269.36 95.2594 1275.11 94.3559 1279.71 93.3522V6.92603L0 6.92603Z" fill="black" fill-opacity="0.3"/>
<path d="M0 0L0 92.8504C3.16405 92.2481 6.04045 91.5455 6.90337 90.7424C18.1213 90.7424 30.2022 91.5455 22.436 89.6383C24.1618 88.4337 34.5169 88.8352 39.4067 88.9356C43.1461 89.839 52.0629 91.3447 54.364 90.9432C57.8157 93.3523 66.7326 87.8314 68.7461 86.8277C68.7461 87.6307 83.4157 90.2405 85.4292 89.6383C78.2382 88.4337 85.4292 87.1288 100.674 86.125C97.2225 83.8163 109.016 86.928 116.494 86.6269C117.645 89.036 130.589 84.3182 133.178 86.0246C137.78 84.3182 150.724 81.608 149.861 83.9167C153.025 84.5189 162.805 86.125 166.544 84.7197C162.805 85.8239 183.227 89.9394 183.227 87.9318C183.227 86.0246 199.91 83.5152 199.91 88.3333C199.91 83.7159 216.306 89.1364 216.306 89.1364C216.306 88.7349 233.276 85.9242 233.276 86.6269C233.276 89.4375 249.097 91.947 249.097 89.7386C249.097 87.6307 266.067 89.2367 266.067 89.036C266.067 85.7235 282.463 87.6307 282.463 89.7386C282.463 91.0436 300.297 92.1477 300.297 88.1326C300.297 87.3295 315.254 89.7386 315.254 91.4451C315.254 92.2481 329.348 97.8693 329.348 95.8617C329.348 95.8617 346.894 97.3674 346.894 96.3636C346.894 98.572 363.578 99.375 363.578 98.7727C363.578 100.278 380.836 93.3523 380.836 93.8542C380.836 94.3561 396.944 93.8542 396.944 94.1553C396.944 93.553 415.065 94.3561 415.065 95.0587C415.065 90.9432 423.119 87.0284 423.119 88.5341C423.119 91.947 438.076 87.5303 438.076 86.5265C438.076 87.9318 454.472 85.9242 454.472 87.0284C454.472 90.3409 470.58 85.8239 470.58 88.1326C470.58 89.9394 486.688 88.1326 486.688 87.1288C486.688 87.4299 502.508 84.2178 502.508 85.2216C502.508 83.4148 519.479 86.7273 519.479 86.125C519.479 85.9242 534.436 81.8087 534.436 80.7045C534.436 80.5038 551.407 85.5227 551.407 82.411C551.407 80.2026 568.09 83.7159 568.09 82.3106C568.09 81.1061 585.348 85.7235 585.348 80.4034C585.348 81.0057 600.593 85.2216 600.593 84.4186C600.593 85.2216 617.852 86.6269 617.852 88.0322C617.852 86.928 637.987 90.0398 637.987 87.7311C637.987 91.7462 656.971 93.1515 656.971 89.4375C656.971 90.8428 674.517 89.2367 674.517 88.233C674.517 89.9394 691.2 88.8352 691.2 88.7348C691.2 91.1439 708.171 90.642 708.171 90.8428C708.171 88.0322 724.566 88.5341 724.566 87.4299C724.566 88.1326 742.688 92.75 742.688 90.642C742.688 91.3447 759.658 90.7424 759.658 89.7386C759.658 85.9242 776.054 88.0322 776.054 87.7311C776.054 87.3295 791.011 83.0133 791.011 83.3144C791.011 82.6117 807.982 85.1212 807.982 83.0133C807.982 83.0133 827.254 90.2405 827.254 86.8277C827.254 86.3258 841.348 78.9981 841.348 80.7045C841.348 81.9091 858.031 80.8049 858.031 79.0985C858.031 77.4924 875.578 78.9981 875.578 78.697C875.578 76.3883 893.411 80.8049 893.411 80.1023C893.411 79.5 910.957 80.6042 910.957 81.9091C910.957 81.2064 928.216 80.7045 928.216 79.8011C928.216 79.2992 945.474 81.608 945.474 81.3068C945.474 80.7045 963.02 83.9167 963.02 79.0985C963.02 79.7008 979.991 80.1023 979.991 83.1136C979.991 85.0208 997.825 79.2992 997.825 78.9981C997.825 74.4811 1014.8 80.303 1014.8 82.2102C1014.8 79.1989 1032.34 83.4148 1032.34 80.9053C1032.34 81.5076 1049.31 85.9242 1049.31 83.4148C1049.31 81.608 1065.71 82.0095 1065.71 82.411C1065.71 81.1061 1082.39 79.8011 1082.39 79.7008C1082.39 73.5777 1098.79 78.1951 1098.79 79.8011C1098.79 81.608 1114.32 85.8239 1114.32 84.9205C1114.32 88.7348 1131 85.8239 1131 83.0133C1131 86.125 1147.69 79.9015 1147.69 81.4072C1147.69 82.7121 1163.79 84.1174 1163.79 82.7121C1163.79 84.3182 1181.63 83.0133 1180.19 82.8125C1179.04 81.608 1199.17 82.9129 1198.02 83.4148C1191.12 83.7159 1212.69 85.8239 1215.28 85.1212C1219.31 87.9318 1236.28 87.6307 1232.83 85.6231C1235.7 84.017 1253.25 87.8314 1250.37 88.6345C1254.4 88.8352 1263.89 89.3371 1268.78 87.9318C1269.36 88.3333 1275.11 87.4299 1279.71 86.4261V0L0 0Z" fill="white"/>
</svg>
