<svg width="1279" height="109" viewBox="0 0 1279 109" fill="none" xmlns="http://www.w3.org/2000/svg">
<path d="M1.64022e-05 6.8811V77.1876L2.62491 77.0879L16.0777 77.786L29.5305 77.6862L42.3271 78.5838L58.7329 77.4868L65.6234 81.6752H77.4355L92.5289 81.0769L109.263 81.6752L124.356 82.6725L138.465 81.8747L153.231 82.872L167.012 79.4813L181.777 82.3733L196.214 80.678L210.323 78.8829L225.088 78.3843L239.525 79.2818L253.634 82.3733L268.072 81.1766L282.837 79.581L297.274 80.2791L312.039 79.4813L324.836 81.6752H338.617L352.07 83.1711L365.522 83.0714L378.975 82.473L392.1 83.1711L399.646 86.2626L408.506 88.656L419.005 91.0494L437.708 89.753L451.489 91.2489L465.27 94.6396L479.051 95.5371L493.816 95.4374L504.316 97.5316L515.144 99.4264L526.956 100.224L543.034 101.022L557.143 103.116L570.924 105.51L585.689 107.803L600.454 105.111L613.579 106.607L627.36 105.809L641.141 106.507L654.593 105.51L668.702 109L681.827 106.407L695.28 106.208L711.358 101.521L728.748 104.712L745.482 102.318L757.622 103.914L770.091 104.313L782.559 102.318H794.371L809.136 103.216L825.87 104.413L839.651 102.119L852.448 99.7256L864.916 97.3322L873.119 92.7448L886.572 90.7503L903.306 91.4483L913.478 87.4593L927.587 87.1602L941.696 88.1574L954.82 85.4648L968.929 86.9607L982.71 84.667L996.163 86.5618L1009.94 86.6615L1023.72 85.3651L1037.51 86.1629L1050.96 88.5563L1064.74 85.5645L1077.86 85.6643L1091.32 89.0549L1104.77 87.0604L1117.89 88.3569L1131.35 89.5536L1144.8 85.5645L1158.25 86.3623L1171.38 88.4566L1184.5 88.8555H1199.6L1213.05 90.6505L1228.47 90.9497L1240.61 93.9415L1254.06 94.839L1267.84 93.2434L1279 93.3431V6.8811H1.64022e-05Z" fill="black" fill-opacity="0.3"/>
<path d="M1.64022e-05 0V70.3065L2.62491 70.2068L16.0777 70.8051H29.5305L42.3271 71.6029L58.7329 70.5059L65.6234 74.7941L77.4355 74.6944L92.5289 74.1958L109.263 74.7941L124.356 75.7914L138.465 74.8939L153.231 75.8911L167.012 72.6002L181.777 75.4922L196.214 73.7969L210.323 72.0018L225.088 71.4035L239.525 72.301L253.634 75.4922L268.072 74.2955L282.837 72.6999L297.274 73.2983L312.039 72.6002L324.836 74.6944L338.617 74.7941L352.07 76.1903H365.522L378.975 75.4922L392.1 76.29L399.646 79.2818L408.506 81.7749L419.005 84.0686L437.708 82.8719L451.489 84.3678L465.27 87.6587L479.051 88.656L493.816 88.4565L504.316 90.5508L515.144 92.5453L526.956 93.3431L543.034 94.0412L557.143 96.1354L570.924 98.6285L585.689 100.822L600.454 98.1299L613.579 99.7255L627.36 98.9277L641.141 99.6258L654.593 98.6285L668.702 102.119L681.827 99.5261L695.28 99.2269L711.358 94.6395L728.748 97.8307L745.482 95.3376L757.622 97.0329L770.091 97.3321L782.559 95.3376L794.371 95.4373L809.136 96.3349L825.87 97.4318L839.651 95.1381L852.448 92.7447L864.916 90.451L873.119 85.8637L886.572 83.8692L903.306 84.4675L913.478 80.4785L927.587 80.279L941.696 81.2763L954.82 78.5837L968.929 80.0796L982.71 77.7859L996.163 79.6807L1009.94 79.7804L1023.72 78.484L1037.51 79.1821L1050.96 81.5755L1064.74 78.6834L1077.86 78.7832L1091.32 82.1738L1104.77 80.0796L1117.89 81.376L1131.35 82.6725L1144.8 78.6834L1158.25 79.3815L1171.38 81.4757L1184.5 81.9744L1199.6 81.8747L1213.05 83.7694L1228.47 83.9689L1240.61 87.0604L1254.06 87.9579L1267.84 86.3623L1279 86.462V0H1.64022e-05Z" fill="#40DCFF"/>
</svg>
