<svg width="1280" height="106" viewBox="0 0 1280 106" fill="none" xmlns="http://www.w3.org/2000/svg">
<path d="M1279.71 98.9875L1279.71 6.13717C1276.55 6.73944 1273.67 7.44209 1272.81 8.24512C1261.59 8.24512 1249.51 7.4421 1257.28 9.34929C1255.55 10.5538 1245.2 10.1523 1240.31 10.0519C1236.57 9.14853 1227.65 7.64285 1225.35 8.04436C1221.9 5.63527 1212.98 11.1561 1210.97 12.1599C1210.97 11.3569 1196.3 8.74702 1194.28 9.34929C1201.47 10.5538 1194.28 11.8588 1179.04 12.8625C1182.49 15.1713 1170.7 12.0595 1163.22 12.3606C1162.07 9.95156 1149.12 14.6694 1146.54 12.9629C1141.93 14.6694 1128.99 17.3796 1129.85 15.0709C1126.69 14.4686 1116.91 12.8625 1113.17 14.2678C1116.91 13.1637 1096.49 9.04814 1096.49 11.0557C1096.49 12.9629 1079.8 15.4724 1079.8 10.6542C1079.8 15.2716 1063.41 9.85117 1063.41 9.85117C1063.41 10.2527 1046.44 13.0633 1046.44 12.3606C1046.44 9.55003 1030.62 7.04056 1030.62 9.24889C1030.62 11.3568 1013.65 9.75079 1013.65 9.95154C1013.65 13.264 997.25 11.3568 997.25 9.24889C997.25 7.94396 979.416 6.8398 979.416 10.855C979.416 11.658 964.459 9.24889 964.459 7.54245C964.459 6.73942 950.365 1.1182 950.365 3.12578C950.365 3.12578 932.819 1.62009 932.819 2.62388C932.819 0.415549 916.135 -0.387484 916.135 0.214789C916.135 -1.29089 898.877 5.63524 898.877 5.13335C898.877 4.63146 882.769 5.13335 882.769 4.83222C882.769 5.43449 864.648 4.63146 864.648 3.9288C864.648 8.04433 856.594 11.9591 856.594 10.4534C856.594 7.04055 841.636 11.4572 841.636 12.461C841.636 11.0557 825.241 13.0633 825.241 11.9591C825.241 8.6466 809.133 13.1636 809.133 10.8549C809.133 9.04812 793.025 10.8549 793.025 11.8587C793.025 11.5576 777.205 14.7697 777.205 13.7659C777.205 15.5727 760.234 12.2602 760.234 12.8625C760.234 13.0633 745.277 17.1788 745.277 18.283C745.277 18.4837 728.306 13.4648 728.306 16.5765C728.306 18.7849 711.623 15.2716 711.623 16.6769C711.623 17.8814 694.365 13.264 694.365 18.5841C694.365 17.9818 679.12 13.7659 679.12 14.5689C679.12 13.7659 661.861 12.3606 661.861 10.9553C661.861 12.0595 641.726 8.94772 641.726 11.2564C641.726 7.24128 622.742 5.83598 622.742 9.54999C622.742 8.14469 605.196 9.75075 605.196 10.7545C605.196 9.04809 588.513 10.1523 588.513 10.2526C588.513 7.84355 571.542 8.34544 571.542 8.14468C571.542 10.9553 555.147 10.4534 555.147 11.5576C555.147 10.8549 537.025 6.23749 537.025 8.34544C537.025 7.64279 520.054 8.24506 520.054 9.24884C520.054 13.0632 503.659 10.9553 503.659 11.2564C503.659 11.6579 488.702 15.9742 488.702 15.6731C488.702 16.3757 471.731 13.8663 471.731 15.9742C471.731 15.9742 452.459 8.74695 452.459 12.1598C452.459 12.6617 438.365 19.9894 438.365 18.2829C438.365 17.0784 421.681 18.1826 421.681 19.889C421.681 21.4951 404.135 19.9894 404.135 20.2905C404.135 22.5992 386.302 18.1826 386.302 18.8852C386.302 19.4875 368.756 18.3833 368.756 17.0784C368.756 17.781 351.497 18.2829 351.497 19.1863C351.497 19.6882 334.239 17.3795 334.239 17.6806C334.239 18.2829 316.693 15.0708 316.693 19.889C316.693 19.2867 299.722 18.8852 299.722 15.8738C299.722 13.9666 281.888 19.6882 281.888 19.9894C281.888 24.5064 264.917 18.6844 264.917 16.7772C264.917 19.7886 247.371 15.5727 247.371 18.0822C247.371 17.4799 230.401 13.0632 230.401 15.5727C230.401 17.3795 214.005 16.978 214.005 16.5765C214.005 17.8814 197.322 19.1863 197.322 19.2867C197.322 25.4098 180.926 20.7924 180.926 19.1863C180.926 17.3795 165.394 13.1636 165.394 14.067C165.394 10.2526 148.711 13.1636 148.711 15.9742C148.711 12.8625 132.027 19.0859 132.027 17.5803C132.027 16.2753 115.92 14.87 115.92 16.2753C115.92 14.6693 98.086 15.9742 99.5242 16.1749C100.675 17.3795 80.5399 16.0746 81.6904 15.5727C88.5938 15.2715 67.0208 13.1636 64.432 13.8662C60.405 11.0556 43.4342 11.3568 46.8859 13.3643C44.0095 14.9704 26.4634 11.156 29.3398 10.353C25.3129 10.1522 15.8207 9.65032 10.9308 11.0556C10.3556 10.6541 4.60279 11.5575 0.000543076 12.5613L0.000535521 98.9874L1279.71 98.9875Z" fill="black" fill-opacity="0.3"/>
<path d="M1279.71 105.914L1279.71 13.0633C1276.55 13.6656 1273.67 14.3682 1272.81 15.1713C1261.59 15.1713 1249.51 14.3682 1257.28 16.2754C1255.55 17.48 1245.2 17.0785 1240.31 16.9781C1236.57 16.0747 1227.65 14.569 1225.35 14.9705C1221.9 12.5614 1212.98 18.0823 1210.97 19.086C1210.97 18.283 1196.3 15.6732 1194.28 16.2754C1201.47 17.48 1194.28 18.7849 1179.04 19.7887C1182.49 22.0974 1170.7 18.9857 1163.22 19.2868C1162.07 16.8777 1149.12 21.5955 1146.54 19.8891C1141.93 21.5955 1128.99 24.3057 1129.85 21.997C1126.69 21.3947 1116.91 19.7887 1113.17 21.194C1116.91 20.0898 1096.49 15.9743 1096.49 17.9819C1096.49 19.8891 1079.8 22.3985 1079.8 17.5803C1079.8 22.1978 1063.41 16.7773 1063.41 16.7773C1063.41 17.1788 1046.44 19.9894 1046.44 19.2868C1046.44 16.4762 1030.62 13.9667 1030.62 16.175C1030.62 18.283 1013.65 16.6769 1013.65 16.8777C1013.65 20.1902 997.25 18.283 997.25 16.175C997.25 14.8701 979.416 13.7659 979.416 17.7811C979.416 18.5841 964.459 16.175 964.459 14.4686C964.459 13.6656 950.365 8.04435 950.365 10.0519C950.365 10.0519 932.819 8.54624 932.819 9.55003C932.819 7.3417 916.135 6.53866 916.135 7.14094C916.135 5.63525 898.877 12.5614 898.877 12.0595C898.877 11.5576 882.769 12.0595 882.769 11.7584C882.769 12.3606 864.648 11.5576 864.648 10.855C864.648 14.9705 856.594 18.8853 856.594 17.3796C856.594 13.9667 841.636 18.3834 841.636 19.3871C841.636 17.9818 825.241 19.9894 825.241 18.8853C825.241 15.5728 809.133 20.0898 809.133 17.7811C809.133 15.9743 793.025 17.7811 793.025 18.7849C793.025 18.4837 777.205 21.6958 777.205 20.6921C777.205 22.4989 760.234 19.1864 760.234 19.7886C760.234 19.9894 745.277 24.1049 745.277 25.2091C745.277 25.4099 728.306 20.3909 728.306 23.5027C728.306 25.711 711.623 22.1977 711.623 23.603C711.623 24.8076 694.365 20.1902 694.365 25.5102C694.365 24.908 679.12 20.6921 679.12 21.4951C679.12 20.6921 661.861 19.2868 661.861 17.8814C661.861 18.9856 641.726 15.8739 641.726 18.1826C641.726 14.1674 622.742 12.7621 622.742 16.4761C622.742 15.0708 605.196 16.6769 605.196 17.6807C605.196 15.9742 588.513 17.0784 588.513 17.1788C588.513 14.7697 571.542 15.2716 571.542 15.0708C571.542 17.8814 555.147 17.3795 555.147 18.4837C555.147 17.7811 537.025 13.1636 537.025 15.2716C537.025 14.5689 520.054 15.1712 520.054 16.175C520.054 19.9894 503.659 17.8814 503.659 18.1826C503.659 18.5841 488.702 22.9004 488.702 22.5992C488.702 23.3019 471.731 20.7924 471.731 22.9004C471.731 22.9004 452.459 15.6731 452.459 19.086C452.459 19.5879 438.365 26.9155 438.365 25.2091C438.365 24.0045 421.681 25.1087 421.681 26.8151C421.681 28.4212 404.135 26.9155 404.135 27.2166C404.135 29.5254 386.302 25.1087 386.302 25.8113C386.302 26.4136 368.756 25.3095 368.756 24.0045C368.756 24.7072 351.497 25.2091 351.497 26.1125C351.497 26.6144 334.239 24.3057 334.239 24.6068C334.239 25.2091 316.693 21.9969 316.693 26.8151C316.693 26.2129 299.722 25.8113 299.722 22.8C299.722 20.8928 281.888 26.6144 281.888 26.9155C281.888 31.4326 264.917 25.6106 264.917 23.7034C264.917 26.7147 247.371 22.4988 247.371 25.0083C247.371 24.406 230.401 19.9894 230.401 22.4988C230.401 24.3057 214.005 23.9041 214.005 23.5026C214.005 24.8075 197.322 26.1125 197.322 26.2128C197.322 32.3359 180.926 27.7185 180.926 26.1125C180.926 24.3056 165.394 20.0897 165.394 20.9931C165.394 17.1788 148.711 20.0897 148.711 22.9003C148.711 19.7886 132.027 26.0121 132.027 24.5064C132.027 23.2015 115.92 21.7962 115.92 23.2015C115.92 21.5954 98.086 22.9003 99.5242 23.1011C100.675 24.3056 80.5399 23.0007 81.6904 22.4988C88.5938 22.1977 67.0208 20.0897 64.432 20.7924C60.405 17.9818 43.4342 18.2829 46.8859 20.2905C44.0095 21.8965 26.4634 18.0821 29.3398 17.2791C25.3129 17.0784 15.8207 16.5765 10.9308 17.9818C10.3556 17.5803 4.60279 18.4837 0.000543076 19.4874L0.000535521 105.914L1279.71 105.914Z" fill="#40DCFF"/>
</svg>
