<svg width="1279" height="109" viewBox="0 0 1279 109" fill="none" xmlns="http://www.w3.org/2000/svg">
<path d="M1.64022e-05 102.119L2.25486e-05 31.8125L2.62492 31.9123L16.0777 31.2142L29.5306 31.3139L42.3271 30.4164L58.7329 31.5134L65.6234 27.3249L77.4356 27.3249L92.529 27.9232L109.263 27.3249L124.356 26.3276L138.465 27.1254L153.231 26.1282L167.012 29.5189L181.777 26.6268L196.214 28.3222L210.323 30.1172L225.088 30.6158L239.525 29.7183L253.634 26.6268L268.072 27.8235L282.837 29.4191L297.274 28.7211L312.039 29.5189L324.836 27.3249L338.617 27.3249L352.07 25.829L365.522 25.9288L378.975 26.5271L392.1 25.829L399.646 22.7375L408.506 20.3441L419.005 17.9507L437.708 19.2472L451.489 17.7513L465.27 14.3606L479.051 13.4631L493.816 13.5628L504.316 11.4686L515.144 9.57379L526.956 8.77598L543.034 7.97818L557.143 5.88394L570.924 3.49053L585.689 1.19685L600.454 3.88944L613.579 2.39356L627.36 3.19136L641.141 2.49328L654.593 3.49054L668.702 0.00014654L681.827 2.59302L695.28 2.79247L711.358 7.47956L728.748 4.28835L745.482 6.68177L757.622 5.08616L770.091 4.68726L782.559 6.68177L794.371 6.68177L809.136 5.78424L825.87 4.58754L839.651 6.88122L852.448 9.27464L864.916 11.6681L873.119 16.2554L886.572 18.2499L903.306 17.5519L913.478 21.5409L927.587 21.8401L941.696 20.8428L954.82 23.5354L968.929 22.0395L982.71 24.3332L996.163 22.4384L1009.94 22.3387L1023.72 23.6351L1037.51 22.8373L1050.96 20.4439L1064.74 23.4357L1077.86 23.336L1091.32 19.9453L1104.77 21.9398L1117.89 20.6434L1131.35 19.4467L1144.8 23.4357L1158.25 22.6379L1171.38 20.5437L1184.5 20.1448L1199.6 20.1448L1213.05 18.3497L1228.47 18.0505L1240.61 15.0588L1254.06 14.1612L1267.84 15.7568L1279 15.6571L1279 102.119L1.64022e-05 102.119Z" fill="black" fill-opacity="0.3"/>
<path d="M1.64022e-05 109L2.25486e-05 38.6934L2.62492 38.7931L16.0777 38.1948L29.5306 38.1948L42.3271 37.397L58.7329 38.494L65.6234 34.2058L77.4356 34.3055L92.529 34.8041L109.263 34.2058L124.356 33.2085L138.465 34.106L153.231 33.1088L167.012 36.3997L181.777 33.5077L196.214 35.203L210.323 36.9981L225.088 37.5964L239.525 36.6989L253.634 33.5077L268.072 34.7044L282.837 36.3L297.274 35.7017L312.039 36.3997L324.836 34.3055L338.617 34.2058L352.07 32.8096L365.522 32.8096L378.975 33.5077L392.1 32.7099L399.646 29.7181L408.506 27.225L419.005 24.9313L437.708 26.128L451.489 24.6321L465.27 21.3412L479.051 20.3439L493.816 20.5434L504.316 18.4492L515.144 16.4546L526.956 15.6568L543.034 14.9588L557.143 12.8645L570.924 10.3714L585.689 8.17744L600.454 10.87L613.579 9.27442L627.36 10.0722L641.141 9.37415L654.593 10.3714L668.702 6.88101L681.827 9.47388L695.28 9.77306L711.358 14.3604L728.748 11.1692L745.482 13.6624L757.622 11.967L770.091 11.6678L782.559 13.6624L794.371 13.5626L809.136 12.6651L825.87 11.5681L839.651 13.8618L852.448 16.2552L864.916 18.5489L873.119 23.1363L886.572 25.1308L903.306 24.5325L913.478 28.5215L927.587 28.7209L941.696 27.7237L954.82 30.4163L968.929 28.9204L982.71 31.2141L996.163 29.3193L1009.94 29.2196L1023.72 30.516L1037.51 29.8179L1050.96 27.4245L1064.74 30.3165L1077.86 30.2168L1091.32 26.8262L1104.77 28.9204L1117.89 27.624L1131.35 26.3275L1144.8 30.3166L1158.25 29.6185L1171.38 27.5242L1184.5 27.0256L1199.6 27.1253L1213.05 25.2306L1228.47 25.0311L1240.61 21.9396L1254.06 21.0421L1267.84 22.6377L1279 22.538L1279 109L1.64022e-05 109Z" fill="#1565E5"/>
</svg>
