<svg width="1280" height="106" viewBox="0 0 1280 106" fill="none" xmlns="http://www.w3.org/2000/svg">
<path d="M1279.71 98.9875L1279.71 6.13717C1276.55 6.73944 1273.67 7.44209 1272.81 8.24512C1261.59 8.24512 1249.51 7.4421 1257.28 9.34929C1255.55 10.5538 1245.2 10.1523 1240.31 10.0519C1236.57 9.14853 1227.65 7.64285 1225.35 8.04436C1221.9 5.63527 1212.98 11.1561 1210.97 12.1599C1210.97 11.3569 1196.3 8.74702 1194.28 9.34929C1201.47 10.5538 1194.28 11.8588 1179.04 12.8625C1182.49 15.1713 1170.7 12.0595 1163.22 12.3606C1162.07 9.95156 1149.12 14.6694 1146.54 12.9629C1141.93 14.6694 1128.99 17.3796 1129.85 15.0709C1126.69 14.4686 1116.91 12.8625 1113.17 14.2678C1116.91 13.1637 1096.49 9.04814 1096.49 11.0557C1096.49 12.9629 1079.8 15.4724 1079.8 10.6542C1079.8 15.2716 1063.41 9.85117 1063.41 9.85117C1063.41 10.2527 1046.44 13.0633 1046.44 12.3606C1046.44 9.55003 1030.62 7.04056 1030.62 9.24889C1030.62 11.3568 1013.65 9.75079 1013.65 9.95154C1013.65 13.264 997.25 11.3568 997.25 9.24889C997.25 7.94396 979.416 6.8398 979.416 10.855C979.416 11.658 964.459 9.24889 964.459 7.54245C964.459 6.73942 950.365 1.1182 950.365 3.12578C950.365 3.12578 932.819 1.62009 932.819 2.62388C932.819 0.415549 916.135 -0.387484 916.135 0.214789C916.135 -1.29089 898.877 5.63524 898.877 5.13335C898.877 4.63146 882.769 5.13335 882.769 4.83222C882.769 5.43449 864.648 4.63146 864.648 3.9288C864.648 8.04433 856.594 11.9591 856.594 10.4534C856.594 7.04055 841.636 11.4572 841.636 12.461C841.636 11.0557 825.241 13.0633 825.241 11.9591C825.241 8.6466 809.133 13.1636 809.133 10.8549C809.133 9.04812 793.025 10.8549 793.025 11.8587C793.025 11.5576 777.205 14.7697 777.205 13.7659C777.205 15.5727 760.234 12.2602 760.234 12.8625C760.234 13.0633 745.277 17.1788 745.277 18.283C745.277 18.4837 728.306 13.4648 728.306 16.5765C728.306 18.7849 711.623 15.2716 711.623 16.6769C711.623 17.8814 694.365 13.264 694.365 18.5841C694.365 17.9818 679.12 13.7659 679.12 14.5689C679.12 13.7659 661.861 12.3606 661.861 10.9553C661.861 12.0595 641.726 8.94772 641.726 11.2564C641.726 7.24128 622.742 5.83598 622.742 9.54999C622.742 8.14469 605.196 9.75075 605.196 10.7545C605.196 9.04809 588.513 10.1523 588.513 10.2526C588.513 7.84355 571.542 8.34544 571.542 8.14468C571.542 10.9553 555.147 10.4534 555.147 11.5576C555.147 10.8549 537.025 6.23749 537.025 8.34544C537.025 7.64279 520.054 8.24506 520.054 9.24884C520.054 13.0632 503.659 10.9553 503.659 11.2564C503.659 11.6579 488.702 15.9742 488.702 15.6731C488.702 16.3757 471.731 13.8663 471.731 15.9742C471.731 15.9742 452.459 8.74695 452.459 12.1598C452.459 12.6617 438.365 19.9894 438.365 18.2829C438.365 17.0784 421.681 18.1826 421.681 19.889C421.681 21.4951 404.135 19.9894 404.135 20.2905C404.135 22.5992 386.302 18.1826 386.302 18.8852C386.302 19.4875 368.756 18.3833 368.756 17.0784C368.756 17.781 351.497 18.2829 351.497 19.1863C351.497 19.6882 334.239 17.3795 334.239 17.6806C334.239 18.2829 316.693 15.0708 316.693 19.889C316.693 19.2867 299.722 18.8852 299.722 15.8738C299.722 13.9666 281.888 19.6882 281.888 19.9894C281.888 24.5064 264.917 18.6844 264.917 16.7772C264.917 19.7886 247.371 15.5727 247.371 18.0822C247.371 17.4799 230.401 13.0632 230.401 15.5727C230.401 17.3795 214.005 16.978 214.005 16.5765C214.005 17.8814 197.322 19.1863 197.322 19.2867C197.322 25.4098 180.926 20.7924 180.926 19.1863C180.926 17.3795 165.394 13.1636 165.394 14.067C165.394 10.2526 148.711 13.1636 148.711 15.9742C148.711 12.8625 132.027 19.0859 132.027 17.5803C132.027 16.2753 115.92 14.87 115.92 16.2753C115.92 14.6693 98.086 15.9742 99.5242 16.1749C100.675 17.3795 80.5399 16.0746 81.6904 15.5727C88.5938 15.2715 67.0208 13.1636 64.432 13.8662C60.405 11.0556 43.4342 11.3568 46.8859 13.3643C44.0095 14.9704 26.4634 11.156 29.3398 10.353C25.3129 10.1522 15.8207 9.65032 10.9308 11.0556C10.3556 10.6541 4.60279 11.5575 0.000543076 12.5613L0.000535521 98.9874L1279.71 98.9875Z" fill="black" fill-opacity="0.3"/>
<path d="M1279.71 105.914L1279.71 13.0632C1276.55 13.6655 1273.67 14.3681 1272.81 15.1711C1261.59 15.1711 1249.51 14.3681 1257.28 16.2753C1255.55 17.4799 1245.2 17.0783 1240.31 16.978C1236.57 16.0746 1227.65 14.5689 1225.35 14.9704C1221.9 12.5613 1212.98 18.0821 1210.97 19.0859C1210.97 18.2829 1196.3 15.673 1194.28 16.2753C1201.47 17.4799 1194.28 18.7848 1179.04 19.7886C1182.49 22.0973 1170.7 18.9855 1163.22 19.2867C1162.07 16.8776 1149.12 21.5954 1146.54 19.8889C1141.93 21.5954 1128.99 24.3056 1129.85 21.9969C1126.69 21.3946 1116.91 19.7886 1113.17 21.1939C1116.91 20.0897 1096.49 15.9742 1096.49 17.9817C1096.49 19.8889 1079.8 22.3984 1079.8 17.5802C1079.8 22.1976 1063.41 16.7772 1063.41 16.7772C1063.41 17.1787 1046.44 19.9893 1046.44 19.2867C1046.44 16.4761 1030.62 13.9666 1030.62 16.1749C1030.62 18.2829 1013.65 16.6768 1013.65 16.8776C1013.65 20.1901 997.25 18.2829 997.25 16.1749C997.25 14.87 979.416 13.7658 979.416 17.781C979.416 18.584 964.459 16.1749 964.459 14.4685C964.459 13.6654 950.365 8.04423 950.365 10.0518C950.365 10.0518 932.819 8.54612 932.819 9.54991C932.819 7.34157 916.135 6.53854 916.135 7.14081C916.135 5.63513 898.877 12.5613 898.877 12.0594C898.877 11.5575 882.769 12.0594 882.769 11.7582C882.769 12.3605 864.648 11.5575 864.648 10.8548C864.648 14.9704 856.594 18.8851 856.594 17.3794C856.594 13.9666 841.636 18.3832 841.636 19.387C841.636 17.9817 825.241 19.9893 825.241 18.8851C825.241 15.5726 809.133 20.0897 809.133 17.781C809.133 15.9741 793.025 17.781 793.025 18.7847C793.025 18.4836 777.205 21.6957 777.205 20.6919C777.205 22.4988 760.234 19.1863 760.234 19.7885C760.234 19.9893 745.277 24.1048 745.277 25.209C745.277 25.4097 728.306 20.3908 728.306 23.5025C728.306 25.7109 711.623 22.1976 711.623 23.6029C711.623 24.8075 694.365 20.19 694.365 25.5101C694.365 24.9078 679.12 20.6919 679.12 21.495C679.12 20.6919 661.861 19.2866 661.861 17.8813C661.861 18.9855 641.726 15.8737 641.726 18.1825C641.726 14.1673 622.742 12.762 622.742 16.476C622.742 15.0707 605.196 16.6768 605.196 17.6806C605.196 15.9741 588.513 17.0783 588.513 17.1787C588.513 14.7696 571.542 15.2715 571.542 15.0707C571.542 17.8813 555.147 17.3794 555.147 18.4836C555.147 17.7809 537.025 13.1635 537.025 15.2715C537.025 14.5688 520.054 15.1711 520.054 16.1749C520.054 19.9893 503.659 17.8813 503.659 18.1824C503.659 18.584 488.702 22.9002 488.702 22.5991C488.702 23.3018 471.731 20.7923 471.731 22.9002C471.731 22.9002 452.459 15.673 452.459 19.0859C452.459 19.5877 438.365 26.9154 438.365 25.209C438.365 24.0044 421.681 25.1086 421.681 26.815C421.681 28.4211 404.135 26.9154 404.135 27.2165C404.135 29.5252 386.302 25.1086 386.302 25.8112C386.302 26.4135 368.756 25.3093 368.756 24.0044C368.756 24.7071 351.497 25.2089 351.497 26.1124C351.497 26.6143 334.239 24.3055 334.239 24.6067C334.239 25.2089 316.693 21.9968 316.693 26.815C316.693 26.2127 299.722 25.8112 299.722 22.7998C299.722 20.8927 281.888 26.6142 281.888 26.9154C281.888 31.4324 264.917 25.6105 264.917 23.7033C264.917 26.7146 247.371 22.4987 247.371 25.0082C247.371 24.4059 230.401 19.9892 230.401 22.4987C230.401 24.3055 214.005 23.904 214.005 23.5025C214.005 24.8074 197.322 26.1123 197.322 26.2127C197.322 32.3358 180.926 27.7184 180.926 26.1123C180.926 24.3055 165.394 20.0896 165.394 20.993C165.394 17.1786 148.711 20.0896 148.711 22.9002C148.711 19.7885 132.027 26.012 132.027 24.5063C132.027 23.2014 115.92 21.796 115.92 23.2014C115.92 21.5953 98.086 22.9002 99.5242 23.101C100.675 24.3055 80.5399 23.0006 81.6904 22.4987C88.5938 22.1976 67.0208 20.0896 64.432 20.7923C60.405 17.9816 43.4342 18.2828 46.8859 20.2904C44.0095 21.8964 26.4634 18.082 29.3398 17.279C25.3129 17.0782 15.8207 16.5763 10.9308 17.9816C10.3556 17.5801 4.60279 18.4835 0.000543076 19.4873L0.000535521 105.913L1279.71 105.914Z" fill="white"/>
</svg>
